/* XPM */
static char *_8774_ffe70ebb6b32c90b1f94dcf64958bdb20f6a73afa7425fcbf5bcdfee8e87e542[] = {
/* columns rows colors chars-per-pixel */
"64 64 5 1 ",
"  c #33004A",
". c #570C7A",
"X c #FFF500",
"o c #745B9E",
"O c None",
/* pixels */
"OOOOOOOOOOOOOOOOOOOOOOOOOOOOOOOOOOOOOOOOOOOOOOOOOOOOOOOOOOOOOOOO",
"OOOOOOOOOOOOOOOOOOOOOOOOOOOOOOOOOOOOOOOOOOOOOOOOOOOOOOOOOOOOOOOO",
"OOOOOOOOOOOOOOOOOOOOOOOOOOOOOOOOOOOOOOOOOOOOOOOOOOOOOOOOOOOOOOOO",
"OOOOOOOOOOOOOOOOOOOOOOOOOOOOOOOOOOOOOOOOOOOOOOOOOOOOOOOOOOOOOOOO",
"OOOOOOOOOOOOOOOOOOOOOOOOOOOOOOOOOOOOOOOOOOOOOOOOOOOOOOOOOOOOOOOO",
"OOOOOOOOOOOOOOOOOOOOOOOOOOOOOOOOOOOOOOOOOOOOOOOOOOOOOOOOOOOOOOOO",
"OOOOOOOOOOOOOOOOOOOOOOOOOOOOOOOOOOOOOOOOOOOOOOOOOOOOOOOOOOOOOOOO",
"OOOOOOOOOOOOOOOOOOOOOOOOOOOOOOOOOOOOOOOOOOOOOOOOOOOOOOOOOOOOOOOO",
"OOOOOOOOOOOOOOOOOOOOOOOOOOOOOOOOOOOOOOOOOOOOOOOOOOOOOOOOOOOOOOOO",
"OOOOOOOOOOOOOOOOOOOOOOOOOOOOOOOOOOOOOOOOOOOOOOOOOOOOOOOOOOOOOOOO",
"OOOOOOOOOOOOOOOOOOOOOOOOOOOOOOOOOOOOOOOOOOOOOOOOOOOOOOOOOOOOOOOO",
"OOOOOOOOOOOOOOOOOOOOOOOOOOOOOOOOOOOOOOOOOOOOOOOOOOOOOOOOOOOOOOOO",
"OOOOOOOOOOOOOOOOOOOOOOOOOOOOOOOOOOOOOOOOOOOOOOOOOOOOOOOOOOOOOOOO",
"OOOOOOOOOOOOOOOOOOOOOOOOOOOOOOOOOOOOOOOOOOOOOOOOOOOOOOOOOOOOOOOO",
"OOOOOOOOOOOOOOOOOOOO  OOOOOOOOOOOO.OOOOOOOOOOOOOOOOOOOOOOOOOOOOO",
"OOOOOOOOOOOOOOOOOOOOoo OOOOOOOOOO .OOOOOOOOOOOOOOOOOOOOOOOOOOOOO",
"OOOOOOOOOOOOOOOOOOOOoo OOOOOOOOO .oOOOOOOOOOOOOOOOOOOOOOOOOOOOOO",
"OOOOOOOOOOOOOOOOOOOOoo OOOOOOOOO .ooOOOOOOOOOOOOOOOOOOOOOOOOOOOO",
"OOOOOOOOOOOOOOOOOOOoooo OOOOOOO ..ooOOOOOOOOOOOOOOOOOOOOOOOOOOOO",
"OOOOOOOOOOOOOOOOOOOoooo OOOOOO .ooooOOOOOOOOOOOOOOOOOOOOOOOOOOOO",
"OOOOOOOOOOOOOOOOOOOoooo OOOOOO .ooooOOOOOOOOOOOOOOOOOOOOOOOOOOOO",
"OOOOOOOOOOOOOOOOOOOoooo OOOOOO .ooooOOOOOOOOOOOOOOOOOOOOOOOOOOOO",
"OOOOOOOOOOOOOOOOOOOOoo        .ooooOOOOOOOOOOOOOOOOOOOOOOOOOOOOO",
"OOOOOOOOOOOOOOOOOOOO  .........oooOOOOOOOOOOOOOOOOOOOOOOOOOOOOOO",
"OOOOOOOOOOOOOOOOOOOO..............  OOOOOOOOOOOOOOOOOOOOOOOOOOOO",
"OOOOOOOOOOOOOOOOOOOO..............   OOOOOOOOOOOOOOOOOOOOOOOOOOO",
"OOOOOOOOOOOOOOOOOOOO.............. .   OOOOOOOOOOOOOOOOOOOOOOOOO",
"OOOOOOOOOOOOOOOOOOOO..X.....XXX..  ....   OOOOOOOOOOOOOOOOOOOOOO",
"OOOOOOOOOOOOOOOOOOO ..XX...XXXX..   ....OOOOOOOOOOOOOOOOOOOOOOOO",
"OOOOOOOOOOOOOOOOOOO  ..X...XXX..    ....OOOOOOOOOOOOOOOOOOOOOOOO",
"OOOOOOOOOOOOOOOOOO.   ..........      ....OOOOOOOOOOOOOOOOOOOOOO",
"OOOOOOOOOOOOOOOO...   O........    OOO.....OOOOOOOOOOOOOOOOOOOOO",
"OOOOOOOOOOOOOOOO...   OO......OOOOOOOOO ....OOOOOOOOOOOOOOOOOOOO",
"OOOOOOOOOOOOOOOO...   OOOOOOOOOOOOOOOOO ....OOOOOOOOOOOOOOOOOOOO",
"OOOOOOOOOOOOOOOO....  OOOOOOOOOOOOOOOOO ......OOOOOOOOOOOOOOOOOO",
"OOOOOOOOOOOOOOO.....  OOOOOOOOOOOOOOOOO ......OOOOOOOOOOOOOOOOOO",
"OOOOOOOOOOOOOOO.....  OOOOOOOOOOOOOOOOO .......OOOOOOOOOOOOOOOOO",
"OOOOOOOOOOOOOOO.....  OOOOOOOOOOOOOOOOO .......OOOOOOOOOOOOOOOOO",
"OOOOOOOOOOOOOOO.....  OOOOOOOOOOOOOOOOO ........OOOOOOOOOOOOOOOO",
"OOOOOOOOOOOOOOO....... OOOOOOOOOOOOOOOO ........OOOOOOOOOOOOOOOO",
"OOOOOOOOOOOOOOO....... OOOOOOOOOOOOOOO .........OOOOOOOOOOOOOOOO",
"OOOOOOOOOOOOOOO....... OOOOOOOOOOOOOOO .........OOOOOOOOOOOOOOOO",
"OOOOOOOOOOOOOOO....... OOOOOOOOOOOOOOO .........OOOOOOOOOOOOOOOO",
"OOOOOOOOOOOOOOO........OOOOOOOOOOOOOOO .........OOOOOOOOOOOOOOOO",
"OOOOOOOOOOOOOOOO........OOOOOOOOOOOO............OOOOOOOOOOOOOOOO",
"OOOOOOOOOOOOOOOO........OOOOOOOOOOOO............OOOOOOOOOOOOOOOO",
"OOOOOOOOOOOOOOOO........OOOOOOOOOOOO............OOOOOOOOOOOOOOOO",
"OOOOOOOOOOOOOOOO........OOOOOOOOOOOO...........OOOOOOOOOOOOOOOOO",
"OOOOOOOOOOOOOOOO........OOOOOOOOOOOO...........OOOOOOOOOOOOOOOOO",
"OOOOOOOOOOOOOOOO........OOOOOOOOOOOO...........OOOOOOOOOOOOOOOOO",
"OOOOOOOOOOOOOOOO........OOOOOOOOOOOO..........OOOOOOOOOOOOOOOOOO",
"OOOOOOOOOOOOOOOOOO......OOOOOOOOOOOO........OOOOOOOOOOOOOOOOOOOO",
"OOOOOOOOOOOOOOOOOOO.....OOOOOOOOOOOO.......OOOOOOOOOOOOOOOOOOOOO",
"OOOOOOOOOOOOOOOOOOO.....OOOOOOOOOOOO.......OOOOOOOOOOOOOOOOOOOOO",
"OOOOOOOOOOOOOOOOOOO.....OOOOOOOOOOOO......OOOOOOOOOOOOOOOOOOOOOO",
"OOOOOOOOOOOOOOOOOOOO....OOOOOOOOOOOO......OOOOOOOOOOOOOOOOOOOOOO",
"OOOOOOOOOOOOOOOOOOOO...OOOOOOOOOOOOO....OOOOOOOOOOOOOOOOOOOOOOOO",
"OOOOOOOOOOOOOOOOOOOO...OOOOOOOOOOOOO....OOOOOOOOOOOOOOOOOOOOOOOO",
"OOOOOOOOOOOOOOOOOOOO...OOOOOOOOOOOOOOO..OOOOOOOOOOOOOOOOOOOOOOOO",
"OOOOOOOOOOOOOOOOOOOO..OOOOOOOOOOOOOOOO..OOOOOOOOOOOOOOOOOOOOOOOO",
"OOOOOOOOOOOOOOOOOOOO..OOOOOOOOOOOOOOOOO.OOOOOOOOOOOOOOOOOOOOOOOO",
"OOOOOOOOOOOOOOOOOOOO..OOOOOOOOOOOOOOOOO.OOOOOOOOOOOOOOOOOOOOOOOO",
"OOOOOOOOOOOOOOOOOOOOOOOOOOOOOOOOOOOOOOO.OOOOOOOOOOOOOOOOOOOOOOOO",
"OOOOOOOOOOOOOOOOOOOOOOOOOOOOOOOOOOOOOOOOOOOOOOOOOOOOOOOOOOOOOOOO"
};
