/* XPM */
static char *_1124_8cc839fc1c5e5334083528748a167021dab7e0f364a5b0c96376e0a22c72a31c[] = {
/* columns rows colors chars-per-pixel */
"64 64 6 1 ",
"  c #33004A",
". c #570C7A",
"X c #FFF500",
"o c #745B9E",
"O c #B27D8D",
"+ c None",
/* pixels */
"++++++++++++++++++++++++++++++++++++++++++++++++++++++++++++++++",
"++++++++++++++++++++++++++++++++++++++++++++++++++++++++++++++++",
"++++++++++++++++++++++++++++++++++++++++++++++++++++++++++++++++",
"++++++++++++++++++++++++++++++++++++++++++++++++++++++++++++++++",
"++++++++++++++++++++++++++++++++++++++++++++++++++++++++++++++++",
"++++++++++++++++++++++++++++++++++++++++++++++++++++++++++++++++",
"++++++++++++++++++++++++++++++++++++++++++++++++++++++++++++++++",
"+++++++....++++++++++++++++++++++++++++++++++++++++........+++++",
"++++++++OO...+++++++++++++++++++++++++++++++++++.......O++++++++",
"++++++++OO....++++++++++++++++++++++++++++++++.....OOOOO++++++++",
"+++++++++OOO...+++++++++++++++++++++++++++++.....OOOOOO+++++++++",
"+++++++++OOOOO..++++++++++++++++++++++++++.....OOOOOOO++++++++++",
"++++++++++OOOOO..+++++++++++++++++++++++.....OOOOOOOO+++++++++++",
"++++++++++OOOOO...+++++++++++++++++++++....OOOOOOOOO++++++++++++",
"++++++++++OOOOOO..++++++++++++++++++++....OOOOOOOOO+++++++++++++",
"+++++++++++OOOOO...++++++++++++++++++....OOOOOO.......++++++++++",
"+++++++++++OOOOOO..+++++++++++++++++....OOO......OOOOO++++++++++",
"++++++++++OOOOOOOO..++++++++++++++++...OO.....OOOOOO++++++++++++",
"++++++++.......OOO...++++++++++++++.........OOOOOO++++++++++++++",
"++++++++++OOOO........++++++++++++++......OOOOOOOO++++++++++++++",
"+++++++++++OOOOO.....+++++++++++++++++...OOOOOOOO+++++++++++++++",
"++++++++++++OOOOO...++++++++++++++++++....OOOOOOO+++++++++++++++",
"++++++++++++OOOOOOO.+++++++++++++++++++.....OOOOO+++++++++++++++",
"+++++++++++++OOOOO    ++++++++++++ ...+.......OOOO++++++++++++++",
"+++++++++++++OOOOO.oo  ++++++++++ .oo++...OOO...OOO+++++++++++++",
"++++++++++++++OOO..ooo +++++++++  .o+++...OOOOO...O+++++++++++++",
"++++++++++++++OO..Oooo ++++++++ ..oo+++..OOOOOOOO...++++++++++++",
"++++++++++++++O..OOooo  ++++++ .oooo+++..OOOOOOO++++++++++++++++",
"+++++++++++++...OOOOoo        .oooo+++..OOOOOOO+++++++++++++++++",
"++++++++++++..OOOOOOoo        .oooo+++..OOOOOOO+++++++++++++++++",
"++++++++++++++OOOOOO  .........oooo+.......OOO++++++++++++++++++",
"++++++++++++++++OOOO............oo ....OOO...O++++++++++++++++++",
"+++++++++++++++++++O.............. ...OO++++..++++++++++++++++++",
"+++++++++++++++++++O.............. ...OO+++++.++++++++++++++++++",
"++++++++++++++++++++..X.....XXX... .OO  ++++++++++++++++++++++++",
"++++++++++++++++++++..XX...XXXX.           +++++++++++++++++++++",
"+++++++++++++++++++++..X...XXX..        ++++++++++++++++++++++++",
"++++++++++++++++++++++..........       +++++++++++++++++++++++++",
"+++++++++++++++++++++++........    +++++++++++++++++++++++++++++",
"++++++++++++++++++++++++......++++++++++++++++++++++++++++++++++",
"++++++++++++++++++++++++++++++++++++++++++++++++++++++++++++++++",
"++++++++++++++++++++++++++++++++++++++++++++++++++++++++++++++++",
"++++++++++++++++++++++++++++++++++++++++++++++++++++++++++++++++",
"++++++++++++++++++++++++++++++++++++++++++++++++++++++++++++++++",
"++++++++++++++++++++++++++++++++++++++++++++++++++++++++++++++++",
"++++++++++++++++++++++++++++++++++++++++++++++++++++++++++++++++",
"++++++++++++++++++++++++++++++++++++++++++++++++++++++++++++++++",
"++++++++++++++++++++++++++++++++++++++++++++++++++++++++++++++++",
"++++++++++++++++++++++++++++++++++++++++++++++++++++++++++++++++",
"++++++++++++++++++++++++++++++++++++++++++++++++++++++++++++++++",
"++++++++++++++++++++++++++++++++++++++++++++++++++++++++++++++++",
"++++++++++++++++++++++++++++++++++++++++++++++++++++++++++++++++",
"++++++++++++++++++++++++++++++++++++++++++++++++++++++++++++++++",
"++++++++++++++++++++++++++++++++++++++++++++++++++++++++++++++++",
"++++++++++++++++++++++++++++++++++++++++++++++++++++++++++++++++",
"++++++++++++++++++++++++++++++++++++++++++++++++++++++++++++++++",
"++++++++++++++++++++++++++++++++++++++++++++++++++++++++++++++++",
"++++++++++++++++++++++++++++++++++++++++++++++++++++++++++++++++",
"++++++++++++++++++++++++++++++++++++++++++++++++++++++++++++++++",
"++++++++++++++++++++++++++++++++++++++++++++++++++++++++++++++++",
"++++++++++++++++++++++++++++++++++++++++++++++++++++++++++++++++",
"++++++++++++++++++++++++++++++++++++++++++++++++++++++++++++++++",
"++++++++++++++++++++++++++++++++++++++++++++++++++++++++++++++++",
"++++++++++++++++++++++++++++++++++++++++++++++++++++++++++++++++"
};
