/* XPM */
static char *_0905_1d6a4875b7e5100b45e7ea23af4ebc7797ceb930ce5e7d3906c6b3dca618b3c2[] = {
/* columns rows colors chars-per-pixel */
"64 64 6 1 ",
"  c #33004A",
". c #570C7A",
"X c #FFF500",
"o c #745B9E",
"O c #B27D8D",
"+ c None",
/* pixels */
"++++++++++++++++++++++++++++++++++++++++++++++++++++++++++++++++",
"++++++++++++++++++++++++++++++++++++++++++++++++++++++++++++++++",
"++++++++++++++++++++++++++++++++++++++++..++++++++++++++++++++++",
"++++++++++++++++..+++++++++++++++++++++.OO++++++++++++++++++++++",
"++++++++++++++++O..+++++++++++++++++++..OO++++++++++++++++++++++",
"++++++++++++++++OO.+++++++++++++++++++..OO++++++++++++++++++++++",
"++++++++++++++++OO..+++++++++++++++++..OOO++++++++++++++++++++++",
"++++++++++++++++OOO..+++++++++++++++...OOO++++++++++++++++++++++",
"++++++++++++++++OOO..+++++++++++++++..OOOO++++++++++++++++++++++",
"++++++++++++++++OOOO..+++++++++++++..OOOOO++++++++++++++++++++++",
"++++++++++++++++OOOO..+++++++++++++..OOOOOO+++++++++++++++++++++",
"++++++++++++++++OOOOO..++++++++++++..OOOOOO+++++++++++++++++++++",
"++++++++++++++++OOOOO..+++++++++++..OOOOOOOOO+++++++++++++++++++",
"++++++++++++++++OOOOOO.+++++++++++..OOOOOOOOOO++++++++++++++++++",
"+++++++++++++++OOOOOOO..++++++++++..OOOOOOOOOO++++++++++++++++++",
"+++++++++++++++OOOOOOO..+++++++++..OOOOOOOOOOO.....+++++++++++++",
"++++++++++++++OOOOOOOOO..+++++++...OOOOOOOOOO..OOO++++++++++++++",
"++++++++++..+OOOOOOOOOO...+++++++..OOOOOOO....OOO+++++++++++++++",
"+++++++++++...OOOOOOOOO..+++++++++..OOO.....OOOO++++++++++++++++",
"+++++++++++OO...OOOOOO..+++++++++++.......OOOOO+++++++++++++++++",
"+++++++++++OOOO.........+++++++++++.....OOOOOOO+++++++++++++++++",
"++++++++++++OOOOOO......++++++++++++...OOOOOOOO+++++++++++++++++",
"++++++++++++OOOOOOOO...++++++++++++++..OOOOOOOOO++++++++++++++++",
"++++++++++++OOOOOOOO...+++++++++++++++..OOOOOOOO++++++++++++++++",
"++++++++++++OOOOOOO...+++++++++++++++++.....OOOOOO++++++++++++++",
"++++++++++++OOOOOOO...+++++++++++++++++..........OO+++++++++++++",
"+++++++++++OOO......  +++++++++++++++++...OOOOO.....++++++++++++",
"++++++++++.....OOO..o  ++++++++ ..+++++..OOOOOOO++++++++++++++++",
"++++++++...OOOOOOOO.oo +++++++ .oo+++++.OOOOOOO+++++++++++++++++",
"++++++++.OOOOOOOOOO.oo +++++++ .oo+++++.OOOOOOO+++++++++++++++++",
"+++++++++++++OOOOOO.oo  +++++ .ooo+++++...OOOO++++++++++++++++++",
"++++++++++++++OOOO..ooo +++++ .ooo++++......OO++++++++++++++++++",
"+++++++++++++++OOO.oooo ++++  .oooo+++..OOO...O+++++++++++++++++",
"+++++++++++++++OOO.oooo ++++  .oooo+++..OOOOO..+++++++++++++++++",
"+++++++++++++++...Ooooo ++++  .oooo+++.OOOO+++++++++++++++++++++",
"++++++++++++++.+OOOOoo        .ooo++...OOO++++++++++++++++++++++",
"+++++++++++++++++++O  ..........oo+...OO++++++++++++++++++++++++",
"+++++++++++++++++++O............oo+...OO++++++++++++++++++++++++",
"++++++++++++++++++++..............  OOO+++++++++++++++++++++++++",
"++++++++++++++++++++..............     +++++++++++++++++++++++++",
"++++++++++++++++++++..............        ++++++++++++++++++++++",
"++++++++++++++++++++..X.....XXX...       +++++++++++++++++++++++",
"++++++++++++++++++++..XX...XXXX..       ++++++++++++++++++++++++",
"+++++++++++++++++++++..X...XXX..      ++++++++++++++++++++++++++",
"++++++++++++++++++++++.........     ++++++++++++++++++++++++++++",
"+++++++++++++++++++++++........   ++++++++++++++++++++++++++++++",
"++++++++++++++++++++++++......++++++++++++++++++++++++++++++++++",
"++++++++++++++++++++++++++++++++++++++++++++++++++++++++++++++++",
"++++++++++++++++++++++++++++++++++++++++++++++++++++++++++++++++",
"++++++++++++++++++++++++++++++++++++++++++++++++++++++++++++++++",
"++++++++++++++++++++++++++++++++++++++++++++++++++++++++++++++++",
"++++++++++++++++++++++++++++++++++++++++++++++++++++++++++++++++",
"++++++++++++++++++++++++++++++++++++++++++++++++++++++++++++++++",
"++++++++++++++++++++++++++++++++++++++++++++++++++++++++++++++++",
"++++++++++++++++++++++++++++++++++++++++++++++++++++++++++++++++",
"++++++++++++++++++++++++++++++++++++++++++++++++++++++++++++++++",
"++++++++++++++++++++++++++++++++++++++++++++++++++++++++++++++++",
"++++++++++++++++++++++++++++++++++++++++++++++++++++++++++++++++",
"++++++++++++++++++++++++++++++++++++++++++++++++++++++++++++++++",
"++++++++++++++++++++++++++++++++++++++++++++++++++++++++++++++++",
"++++++++++++++++++++++++++++++++++++++++++++++++++++++++++++++++",
"++++++++++++++++++++++++++++++++++++++++++++++++++++++++++++++++",
"++++++++++++++++++++++++++++++++++++++++++++++++++++++++++++++++",
"++++++++++++++++++++++++++++++++++++++++++++++++++++++++++++++++"
};
