/* XPM */
static char *_3249_4774629162417cc0855c3a19ddc4a56cb46b4fa35a6e754d07e60266f95bf815[] = {
/* columns rows colors chars-per-pixel */
"64 64 16 1 ",
"  c black",
". c #26131C",
"X c #1F2810",
"o c #303513",
"O c #3E3F14",
"+ c #3D1925",
"@ c #323C39",
"# c #511B2A",
"$ c #6A222F",
"% c #4D4E12",
"& c #6D6326",
"* c #8B2A30",
"= c #AC3232",
"- c #B85244",
"; c #9D935C",
": c None",
/* pixels */
"::::::::::::::::::::::::::::::::::::::::::::::::::::::::::::::::",
"::::::::::::::::::::::::::::::::::::::::::::::::::::::::::::::::",
"::::::::::::::::::::::::::::::::::::::::::::::::::::::::::::::::",
"::::::::::::::::::::::::::::::::::::::::::::::::::::::::::::::::",
"::::::::::::::::::::::::::::::::::::::::::::::::::::::::::::::::",
"::::::::::::::::::::::::::::::::::::::::::::::::::::::::::::::::",
"::::::::::::::::::::::::::::::::::::::::::::::::::::::::::::::::",
"::::::::::::::::::::::::::::::::::::::::::::::::::::::::::::::::",
"::::::::::::::::::::::::::::::::::::::::::::::::::::::::::::::::",
":::::::::::::::::::::::::::::::::$$$$##:::::::::::::::::::::::::",
"::::::::::::::::::::::::::::::$$$$$$$$$##:::::::::::::::::::::::",
"::::::::::::::::::::::::::::$$$*****$$$$###:::::::::::::::::::::",
"::::::::::::::::::::::::::$o$********$$$$###::::::::::::::::::::",
":::::::::::::::::::::::::oo***********$$$$#XX:::::::::::::::::::",
"::::::::::::::::::::::::oo*****%%*$$*%%$$$$XXX::::::::::::::::::",
":::::::::::::::::::::::oo%***%%%%=-$*%%o$$$$XXX:::::::::::::::::",
"::::::::::::::::::::::oo%***%%%%%==*%%%%o$$$XXXX::::::::::::::::",
":::::::::::::::::::::$o%%**%%%%%%***%%%%oo$$oXXX#:::::::::::::::",
"::::::::::::::::::::$o%%**%%OO%%%***%%%%%o$$$XXX#:::::::::::::::",
":::::::::::::::::::$$%%%**%&;O%%%**%%OO%%oo$$oXXX#::::::::::::::",
"::::::::::::::::::$$o%%**%%&&%%%***%&;O%%o+++++XX#::::::::::::::",
"::::::::::::::::::$o%%%**%%%%%%%***%&&%%%%+++++++X#:::::::::::::",
":::::::::::::::::$oo%%%*%%%%*%%%***%%%%%%%o+++++++#:::::::::::::",
":::::::::::::::::$o%%%**%%%%*%%%***%%%%*%%o@++++++++::::::::::::",
"::::::::::::::::$oo++%*%%%..*%%%**%O..%*%%%+@++++++++:::::::::::",
"::::::::::::::::o++++%*%....%%%%**&;....*%%++@++++++++::::::::::",
":::::::::::::::o+++++%%.....%%OO**&&.....%%+++@++++++++:::::::::",
":::::::::::::::++++++%......%&;O*%%%......%o+++@++++++++::::::::",
"::::::::::::::++++++%......*%&&%*%%%%......o++++X++++++++:::::::",
":::::::::::::+++++++.......%%%%%%%%%%.......++++XX++++++++::::::",
":::::::::::::+++++++.......%%%%%%%OO%.......++++XXX++++++++:::::",
"::::::::::::+++++++@......@%%%%%%&;O%@.......+++XXXX++++++++::::",
"::::::::::::++++++@+.....@.%%%%%%&&%%.@......++++XXXX+++++--::::",
":::::::::::+++++++@+.....@.%%%%%%%%%o.@......++++XXXX:+++----:::",
":::::::::::++++++@++....@..%%%%%%%ooo..@.....++++XXXX::------:::",
"::::::::::++++++@+++...@...%%%%ooooXX...@....++++XXXX:::------::",
"::::::::::++++++@+++...@...%%ooooXXXX...@....++++XXX:::::-----::",
":::::::::++++++@++++..@....%ooXXXXXXX....@...++++XXX::::::-----:",
":::::::::++++++@+++...@...*oo%&&&%%%oo...@++@++++XXX:::::::----:",
"::::::::++++++:++++..%....o%&##&&&%##ooo+++++@+++XX:::::::::----",
"::::::::++++++:++++..%....%&&#=&&&%=#%ooo+++++@+.XX::::::::::---",
":::::::++++++:.++++.%%+++%##&%%&&&%%%%##o++++++...::::::::::::--",
":::::::++++++:.++++@++++%&#=%##%&%%##%=#oo++++....::::::::::::--",
":::::::+++++::.++++@+++%&&&&%#=#%%#=#%%ooo+++.....:::::::::::::-",
"::::::+++++::..+++@++++%%%&&&%##%%##%&%oooXXXX.....::::::::::::-",
"::::::+++++::..+++@+++&;;;%&&&%#%%#%&&%;;&oXXX.....:::::::::::::",
"::::::++++:::..++@++++;    %&;%&&&&;&%;   oX:::....:::::::::::::",
":::::+++++::....+@++++ @    ;  %%%;  ; @   ::::.....::::::::::::",
":::::===++::.....::::: @    :@ ::::@ : @   ::::.....::::::::::::",
":::::====:::....:::::: @    :: ::::@:: @   :::::....::::::::::::",
":::::====:::....::::::  @  ::::::::::::@   :::::....::::::::::::",
"::::=====::.....::::::: @  :::::::::::: @ ::::::.....:::::::::::",
"::::====:::....:::::::: @  :::::::::::: @ :::::::....:::::::::::",
"::::====:::....:::::::::  ::::::::::::::  :::::::....:::::::::::",
"::::===::::...::::::::::: :::::::::::::: :::::::::...:::::::::::",
"::::===::::...::::::::::::::::::::::::::::::::::::...:::::::::::",
"::::===::::...::::::::::::::::::::::::::::::::::::...:::::::::::",
"::::==:::::..::::::::::::::::::::::::::::::::::::::..:::::::::::",
"::::==:::::..::::::::::::::::::::::::::::::::::::::..:::::::::::",
"::::==:::::..::::::::::::::::::::::::::::::::::::::..:::::::::::",
"::::==:::::..::::::::::::::::::::::::::::::::::::::..:::::::::::",
"::::=::::::.::::::::::::::::::::::::::::::::::::::::.:::::::::::",
"::::=::::::.::::::::::::::::::::::::::::::::::::::::.:::::::::::",
"::::=::::::.::::::::::::::::::::::::::::::::::::::::.:::::::::::"
};
