/* XPM */
static char *_2044_13fafdfabd8e2cf16ee3046124d48ca858240dae562a5243b147da99d0106846[] = {
/* columns rows colors chars-per-pixel */
"64 64 6 1 ",
"  c #808287",
". c #999C9A",
"X c #B2B5AD",
"o c #CDD2C6",
"O c #E3E8D3",
"+ c None",
/* pixels */
"++++++++++++++++++++++++++++++++++++++++++++++++++++++++++++++++",
"++++++++++++++++++++++++++++++++++++++++++++++++++++++++++++++++",
"++++++++++++++++++++++++++++++++++++++++++++++++++++++++++++++++",
"++++++++++++++++++++++++++++++++++++++++++++++++++++++++++++++++",
"++++++++++++++++++++++++++++++++++++++++++++++++++++++++++++++++",
"++++++++++++++++++++++++++++++++++++++++++++++++++++++++++++++++",
"++++++++++++++++++++++++++++++++++++++++++++++++++++++++++++++++",
"++++++++++++++++++++++++++++++++++++++++++++++++++++++++++++++++",
"++++++++++++++++++++++++++++++++++++++++++++++++++++++++++++++++",
"++++++++++++++++++++++++++++++++++++++++++++++++++++++++++++++++",
"++++++++++++++++++++++++++++++++++++++++++++++++++++++++++++++++",
"++++++++++++++++++++++++++++++++++++++++++++++++++++++++++++++++",
"++++++++++++++++++++++++++++++++++++++++++++++++++++++++++++++++",
"++++++++++++++++++++++++++++++++++++++++++++++++++++++++++++++++",
"++++++++++++++++++++++++++++++++++++++++++++++++++++++++++++++++",
"++++++++++++++++++++++++++++++++++++++++++++++++++++++++++++++++",
"+++++++++++++++++++++++++++.....++++++++++++++++++++++++++++++++",
"+++++++++++++++++++++++++..XXXXX.+++++++++++++++++++++++++++++++",
"++++++++++++++++++++++++.XXooooXX.++++++++++++++++++++++++++++++",
"+++++++++++++++++++++++.XooOoooooo.+++++++++++++++++++++++++++++",
"+++++++++++++++++++++++.XoooOoooOX... ++++++++++++++++++++++++++",
"++++++++++++++++++++++.XoOoooOOOoX.XXX  ++++++++++++++++++++++++",
"++++++++++++++++++++++.XooOOooooX.XOooX. +++++++++++++++++++++++",
"++++++++++++++++++++++.XXoooOoooX.XoOooX. ++++++++++++++++++++++",
"+++++++++++++++++++.....XXooXoXX.XooOOOX.       ++++++++++++++++",
"++++++++++++++++++.XXXXX.XXX.....XoOoooOo .XXX.. +++++++++++++++",
"+++++++++++++++++.XoOoooX.X.XooXX.ooooXX .XXooXoX ++++++++++++++",
"++++++++++++++++.XoooOOOo..XoOooXo.XXXX .oXoooOX. ++++++++++++++",
"++++++++++++++++.XoOOOOoo.XoooOOoXXXX.. .XOooOoX.. +++++++++++++",
"+++++++++++++++.XXOooOOoX.XoooOoXXXX.XXX.XoOoOoX.. +++++++++++++",
"+++++++++++++++.XXoooOoOX.XooOoOXXX.XoooXXooOooX.. +++++++++++++",
"+++++++++++++....XXoOoooo.oOOooOXXX.XooXXXoOoOoXoo +++++++++++++",
"+++++++++++..XXXX..XoooXXX.XoooooXX.XooXXXOoooOo.. +++++++++++++",
"++++++++++.XXooooXX.XXXX....XooXoXXX.XoXX.XoooX.. ++++++++++++++",
"+++++++++.XoooOOOOoX.X...XXX..XXXoXX..... .XXX..   +++++++++++++",
"+++++++++.XOoOooooXo...XXooXXo.XXX..XXXXX.     XXX.  +++++++++++",
"++++++++.XooOooooXX...ooOOOOoXXXX.oXXXXoXXo.  oXXoX.. ++++++++++",
"++++++++.XoooOOo......XOooooXXoX.XXoXooooOX..XXoXooXoo +++++++++",
"++++++++.XOOOo..XXXX.XooOooXooXX.XXXoOoOOoXX..XXOoOOX. +++++++++",
"++++++++.Xooo.XXoooo.XoooOOoXXX.XXXXXoOoOoXX..XXoOooX. +++++++++",
"++++++++.Xoo.oXooooO.oOOOooXXXX.XXXXXOOOoOXX..XXXoOoX. +++++++++",
"++++++++.Xoo.XOoooOo.XooooXXXXX.XXXXOoOoooOX..XXXXoOX. +++++++++",
"+++++++++.X.XXOooOoXX.XoooXXXXX.oXoOooOoooXO.. XXXXO. ++++++++++",
"++++++++..X.XXoOOooXX.XXXXXXXX..XoXooOoooXXO..    .O +++++++++++",
"+++++++.XX..XXooOooXXXX...XXX. ..XooOooooXX.O XXX. O++++++++++++",
"++++++.XXoX.XXooOoXXX..XXX....  .XXOooooXXX.OXXoX.. O+++++++++++",
"++++++.XooX.XXooOoXX.XXoooXoX.XX .oXoooXXX..XOXooX..O+++++++++++",
"++++++.XoX...XXoOOX.XooooooX.XooX ..XXXXXX. XOoooX..O+++++++++++",
"++++++.XoX....XXOOX.oooOoOX.XoooO.........  XXOooX.. O++++++++++",
"++++++O.X......OOXOXooooOXX.XooOOXXXX.     OXXOOoX.O O++++++++++",
"++++++O+...XXXOO...OooooOXX.XoO.OOooXX.   OOXOXoOOO. O++++++++++",
"++++++OO.XXooOoOOX.XOOoooOXXOOX.OoOOoX. OO.OOXXOoO. O+O+++++++++",
"++++++O.OOOOOoOoXOOOooOOOOOOX...OoooOOOOXXXO  XOX.O+O+O+++++++++",
"+++++OO.XoooooOooXXOooooXXOXX  .OXooXX.XoooOX O    O +O+++++++++",
"+++++O.OoooooOoooXXOXooXXXXO  XX.OXXX..XooooOXO  XXXO +O++++++++",
"+++++O.OooooOOOooXOXOOoXXXXOXXooXOO..XXooooOOO  XXoOXO O++++++++",
"++++OO.XOooOoooOOOOXX.OOXXXOXooooO.OOOOOOOOoOX XXooOXXOO++++++++",
"++++O+OXoOOoooooXXOOXXX.OOOOooooOOX.....OoooO. XXoOoXO OO+++++++",
"++++O++OOOOOoooXXOXXOX. ...OoooOoOX....OOooXXO XXOooXO +O+++++++",
"+++O+++.OoooOOOOOO.X OO. ..OooOoooO OOO.OXX...O.OXooO +++O++++++",
"+++O+++O.XoooXXOOO  X .OOOOOOOoooXOOX.  .OO. .OO....O+++++O+++++",
"++O++OO+OOOOOOOO. OOOX.oOOOOO..XXOOXX. XXO OOOXO  .O.++++OOO++++",
"+O+OO+++  ....O XXX  OOO XXO.OOOO XO..X .OXX X XOOO X ++O+++OO++",
"OOO++++ X XXXOXX. X  XX ..OXXX  XX .OX.X O. XX   OXOOOOO++++++OO"
};
