/* XPM */
static char *_6521_da178b547ef07fda6efe529da3c8e09be2d5137bb8c25395dfb795b75da8e847[] = {
/* columns rows colors chars-per-pixel */
"64 64 16 1 ",
"  c black",
". c #26131C",
"X c #1F2810",
"o c #303513",
"O c #3E3F14",
"+ c #3D1925",
"@ c #323C39",
"# c #511B2A",
"$ c #6A222F",
"% c #4D4E12",
"& c #6D6326",
"* c #8B2A30",
"= c #AC3232",
"- c #B85244",
"; c #9D935C",
": c None",
/* pixels */
"::::::::::::::::::::::::::::::::::::::::::::::::::::::::::::::::",
"::::::::::::::::::::::::::::::::::::::::::::::::::::::::::::::::",
"::::::::::::::::::::::::::::::::::::::::::::::::::::::::::::::::",
"::::::::::::::::::::::::::::::::::::::::::::::::::::::::::::::::",
"::::::::::::::::::::::::::::::::::::::::::::::::::::::::::::::::",
"::::::::::::::::::::::::::::::::::::::::::::::::::::::::::::::::",
"::::::::::::::::::::::::::::::::::::::::::::::::::::::::::::::::",
"::::::::::::::::::::::::::::::::::::::::::::::::::::::::::::::::",
"::::::::::::::::::::::::::::::::::::::::::::::::::::::::::::::::",
"::::::::::::::::::::::::::::::::::::::::::::::::::::::====::::::",
":::::::::::::::::::::::::::::::::$$$$##::::::::::::=====::::::::",
"::::::::::::::::::::::::::::::$$$$$$$$$##::::::::======:::::::::",
"::::::::::::::::::::::::::::$$$*****$$$$###::::=======::::::::::",
"::::::::::::::::::::::::::$o$********$$$$###::=======:::::::::::",
":::::::::::::::::::::::::oo***********$$$$#XX+======::::::::::::",
"::::::::::::::::::::::::oo*****%%*$$*%%$$$$X+======:::::::::::::",
":::::::::::::::::::::::oo%***%%%%=-$*%%o$$$++=====::::::::::::::",
"::::::::::::::::::::::oo%***%%%%%==*%%%%o$++++===:::::::::::::::",
":::::::::::::::::::::$o%%**%%%%%%***%%%%o+++++++#:::::::::::::::",
"::::::::::::::::::::$o%%**%%OO%%%***%%%%+++++++X#:::::::::::::::",
":::::::::::::::::::$$%%%**%&;O%%%**%%OO%++++++XXX#::::::::::::::",
"::::::::::::::::::$$o%%**%%&&%%%***%&;O%+++++oXXX#::::::::::::::",
"::::::::::::::::::$o%%%**%%%%%%%***%&&%+++++$ooXXX#:::::::::::::",
":::::::::::::::::$oo%%%*%%%%*%%%***%%%%++++o$$oXXX#:::::::::::::",
":::::::::::::::::$o++%**%%..*%%%***%..%++++o$$oXXXX#::::::::::::",
"::::::::::::::::$++++%*%....*%%%**%O...++@+oo$oXXXX#::::::::::::",
"::::::::::::::::+++++%*.....%%%%**&;...+@+++o$ooXXXX::::::::::::",
":::::::::::::::++++++%......%%OO**&&....++++o$ooXXXX::::::::::::",
"::::::::::::::++++++%......*%&;O*%%%%...+++++oooXXXXX:::::::::::",
":::::::::::::+++++++.......*%&&%*%%%%...+++++oooXXXXX:::::::::::",
":::::::::::::+++++++.......%%%%%%%%%%....+++++ooXXXXX:::::::::::",
"::::::::::::+++++++@......@%%%%%%%OO%@...+++++ooXXXXX:::::::::::",
"::::::::::::++++++@+.....@.%%%%%%&;O%.@..+++++ooXXXXX:::::::::::",
":::::::::::+++++++@+.....@.%%%%%%&&%%.@...+++++oXXXXX:::::::::::",
":::::::::::++++++@++....@..%%%%%%%%%o..@..+++++XXXXXX:::::::::::",
"::::::::::++++++@+++...@...%%%%%%%ooo...@.+++++XXXXXX:::::::::::",
"::::::::::++++++@+++...@...%%%%ooooXX...@..+++++XXXXX:::::::::::",
":::::::::++++++@++++..@....%%%&&&%%%oo...@.@++++XXXX::::::::::::",
":::::::::++++++@+++...@...*%&##&&&%##ooo.@++@+++XXXX::::::::::::",
"::::::::++++++o++++..%....%&&#=&&&%=#%ooo++++@++@XXX::::::::::::",
"::::::::++++++:++++..%...%##&%%&&&%%%%##o+++++@+.XX:::::::::::::",
":::::::++++++:.++++.%%++%&#=%##%&%%##%=#oo+++++...X:::::::::::::",
":::::::++++++:.++++@+++%&&&&%#=#%%#=#%%ooo++++....::::::::::::::",
":::::::+++++::.++++@+++%%%&&&%##%%##%&%ooo+++.....::::::::::::::",
"::::::+++++::..+++@+++&;;;%&&&%#%%#%&&%;;&oXXX.....:::::::::::::",
"::::::+++++::..+++@+++;    %&;%&&&&;&%;   oXXX.....:::::::::::::",
"::::::++++:::..++@++++ @    ;  %%%;  ; @   XXX:....:::::::::::::",
":::::+++++::....+@++++ @    .@ XXXX@ . @   X:::.....::::::::::::",
":::::===++::.....::::X @    XX XXXX@XX @   ::::.....::::::::::::",
":::::====:::....::::::  @  ::::::::::::@   :::::....::::::::::::",
":::::====:::....::::::: @  :::::::::::: @ ::::::....::::::::::::",
"::::=====::.....::::::: @  :::::::::::: @ ::::::.....:::::::::::",
"::::====:::....:::::::::  ::::::::::::::  :::::::....:::::::::::",
"::::====:::....:::::::::: :::::::::::::: ::::::::....:::::::::::",
"::::===::::...::::::::::::::::::::::::::::::::::::...:::::::::::",
"::::===::::...::::::::::::::::::::::::::::::::::::...:::::::::::",
"::::===::::...::::::::::::::::::::::::::::::::::::...:::::::::::",
"::::==:::::..::::::::::::::::::::::::::::::::::::::..:::::::::::",
"::::==:::::..::::::::::::::::::::::::::::::::::::::..:::::::::::",
"::::==:::::..::::::::::::::::::::::::::::::::::::::..:::::::::::",
"::::==:::::..::::::::::::::::::::::::::::::::::::::..:::::::::::",
"::::=::::::.::::::::::::::::::::::::::::::::::::::::.:::::::::::",
"::::=::::::.::::::::::::::::::::::::::::::::::::::::.:::::::::::",
"::::=::::::.::::::::::::::::::::::::::::::::::::::::.:::::::::::"
};
