/* XPM */
static char *_2511_c2ee19dcff6ae01bd37ca6bf0582c6877b899e0d9f25271587e212d3c0ed23dd[] = {
/* columns rows colors chars-per-pixel */
"64 64 16 1 ",
"  c black",
". c #26131C",
"X c #1F2810",
"o c #303513",
"O c #3E3F14",
"+ c #3D1925",
"@ c #323C39",
"# c #511B2A",
"$ c #6A222F",
"% c #4D4E12",
"& c #6D6326",
"* c #8B2A30",
"= c #AC3232",
"- c #B85244",
"; c #9D935C",
": c None",
/* pixels */
"::::::::::::::::::::::::::::::::::::::::::::::::::::::::::::::::",
"::::::::::::::::::::::::::::::::::::::::::::::::::::::::::::::::",
"::::::::::::::::::::::::::::::::::::::::::::::::::::::::::::::::",
"::::::::::::::::::::::::::::::::::::::::::::::::::::::::::::::::",
"::::::::::::::::::::::::::::::::::::::::::::::::::::::::::::::::",
"::::::::::::::::::::::::::::::::::::::::::::::::::::::::::::::::",
"::::::::::::::::::::::::::::::::::::::::::::::::::::::::::::::::",
"::::::::::::::::::::::::::::::::$$$$##::::::::::::::::::::::::::",
":::::::::::::::::::::::::::::$$$$$$$$$##::::::::::::::::::::::::",
":::::::::::::::::::::::::::$$$*****$$$$###::::::::::::::::::::::",
":::::::::::::::::::::::::$o$********$$$$###:::::::::::::::::::::",
"::::::::::::::::::::::::oo***********$$$$#XX::::::::::::::::::::",
":::::::::::::::::::::::oo*****%%*$$*%%$$$$XXX:::::::::::::::::::",
"::::::::::::::::::::::oo%***%%%%=-$*%%o$$$$XXX::::::::::::::::::",
":::::::::::::::::::::oo%***%%%%%==*%%%%o$$$XXXX:::::::::::::::::",
"::::::::::::::::::::$o%%**%%%%%%***%%%%oo$$oXXX#::::::::::::::::",
":::::::::::::::::::$o%%**%%OO%%%***%%%%%o$$$XXX#::::::::::::::::",
"::::::::::::::::::$$%%%**%&;O%%%**%%OO%%oo$$oXXX#:::::::::::::::",
":::::::::::::::::$$o%%**%%&&%%%***%&;O%%oo$$oXXX#:::::::::::::::",
":::::::::::::::::$o%%%**%%%%%%%***%&&%%%%oo$ooXXX#::::::::::::::",
"::::::::::::::::$+++++*%%%%*%%%***%.....%oo$$oXXX#::::::::::::::",
":::::::::::::::+++++++*%%%%*%%%***%.......o$$oXXXX#:::::::::::::",
"::::::::::::::+++++++*%%%%**%%%**%OO.......o$oXXXX#:::::::::::::",
"::::::::::::++++++++@*%%%%*%%%%**&;O@........ooXXXX:::::::::::::",
":::::::::::++++++++@+%OO%*..%OO**&&%.@.....++.oXXXX:::::::::::::",
"::::::::::++++++++@++&;O....&;O*%%%%..@....++++XXXXX::::::::::::",
":::::::::++++++++@+++&&.....&&%*%%%%...@...+++++XXXX::::::::::::",
"::::::::++++++++@+++%%......%%%%%%%%%...@..++++++XXX::::::::::::",
":::::::++++++++%++++%......%%%%%%OO%%....*..++++++XX::::::::::::",
"::::::++++++++o%++++.......%%%%%&;O%%....*o.+++++++X::::::::::::",
":::::++++++++oo%++++.......%%%%%&&%%%....*oo+++++++.::::::::::::",
"::::++++++++:oo%+++.......@%%%%%%%%ooo...$oo@+++++++.:::::::::::",
"::::+++++++::oo++++......@.%%%%%%ooooo....$o+@++++++.:::::::::::",
":::=++++++:::oo++++......@.%%%ooooXXXX....$o+@+++++++.::::::::::",
":::===+++::::oo++++.....@..%ooooXXXXXX....$o++@++++++.::::::::::",
"::=====+:::::oo++++....@...ooXXXXXXXXX....$o+++@++++++.:::::::::",
"::=====::::::oo++++....@...oXXXXXXXXXX....XX+++@++++++.:::::::::",
":=====::::::::o++++...@....XXXXXXXXXXX....XX++++@++++++.::::::::",
":====:::::::::o++++@++@...XXX%&&&%%%oo....XXX+++@++++++.::::::::",
"====::::::::::o+++@+++++..X%&##&&&%##ooo..XXX++++:++++++.:::::::",
"===::::::::::::.+@+++++++.%&&#=&&&%=#%oooXXXX++++:++++++.:::::::",
"==::::::::::::...++++++++%##&%%&&&%%%%##o+XXX++++::++++++:::::::",
"==::::::::::::....++++++%&#=%##%&%%##%=#oo++@++++::++++++:::::::",
"=:::::::::::::.....++++%&&&&%#=#%%#=#%%ooo++@++++:::+++++:::::::",
"=::::::::::::.....XXXX+%%%&&&%##%%##%&%ooo+++@+++::::+++++::::::",
":::::::::::::.....::XX&;;;%&&&%#%%#%&&%;;&o++@+++::::+++++::::::",
":::::::::::::....:::::;    %&;%&&&&;&%;   o+++@++:::::++++::::::",
"::::::::::::.....::::: @    ;  %%%;  ; @   +++@+::::::+++++:::::",
"::::::::::::.....::::: @    :@ ::::@ : @   :::::::::::+====:::::",
"::::::::::::....:::::: @    :: ::::@:: @   ::::::::::::====:::::",
"::::::::::::....::::::  @  ::::::::::::@   ::::::::::::====:::::",
":::::::::::.....::::::: @  :::::::::::: @ :::::::::::::=====::::",
":::::::::::....:::::::: @  :::::::::::: @ ::::::::::::::====::::",
":::::::::::....:::::::::  ::::::::::::::  ::::::::::::::====::::",
":::::::::::...::::::::::: :::::::::::::: ::::::::::::::::===::::",
":::::::::::...:::::::::::::::::::::::::::::::::::::::::::===::::",
":::::::::::...:::::::::::::::::::::::::::::::::::::::::::===::::",
":::::::::::..:::::::::::::::::::::::::::::::::::::::::::::==::::",
":::::::::::..:::::::::::::::::::::::::::::::::::::::::::::==::::",
":::::::::::..:::::::::::::::::::::::::::::::::::::::::::::==::::",
":::::::::::..:::::::::::::::::::::::::::::::::::::::::::::==::::",
":::::::::::.:::::::::::::::::::::::::::::::::::::::::::::::=::::",
":::::::::::.:::::::::::::::::::::::::::::::::::::::::::::::=::::",
":::::::::::.:::::::::::::::::::::::::::::::::::::::::::::::=::::"
};
