/* XPM */
static char *_7222_0157839f561813db553d074678beb4244bdc583564abfef52647617049a2405e[] = {
/* columns rows colors chars-per-pixel */
"64 64 16 1 ",
"  c black",
". c #26131C",
"X c #1F2810",
"o c #303513",
"O c #3E3F14",
"+ c #3D1925",
"@ c #323C39",
"# c #511B2A",
"$ c #6A222F",
"% c #4D4E12",
"& c #6D6326",
"* c #8B2A30",
"= c #AC3232",
"- c #B85244",
"; c #9D935C",
": c None",
/* pixels */
"::::::::::::::::::::::::::::::::::::::::::::::::::::::::::::::::",
"::::::::::::::::::::::::::::::::::::::::::::::::::::::::::::::::",
"::::::::::::::::::::::::::::::::::::::::::::::::::::::::::::::::",
"::::::::::::::::::::::::::::::::::::::::::::::::::::::::::::::::",
"::::::::::::::::::::::::::::::::::::::::::::::::::::::::::::::::",
"::::::::::::::::::::::::::::::::::::::::::::::::::::::::::::::::",
"::::::::::::::::::::::::::::::::::::::::::::::::::::::::::::::::",
":::::::::::::::::::::::::::::::::$$$$##:::::::::::::::::::::::::",
"::::::::::::::::::::::::::::::$$$$$$$$$##:::::::::::::::::::::::",
"::::::::::::::::::::::::::::$$$*****$$$$###:::::::::::::::::::::",
"::::::::::::::::::::::::::$o$********$$$$###::::::::::::::::::::",
":::::::::::::::::::::::::oo***********$$$$#XX:::::::::::::::::::",
"::::::::::::::::::::::::oo*****%%*$$*%%$$$$XXX::::::::::::::::::",
":::::::::::::::::::::::oo%***%%%%=-$*%%o$$$$XXX:::::::::::::::::",
"::::::::::::::::::::::oo%***%%%%%==*%%%%o$$$XXXX::::::::::::::::",
":::::::::::::::::::::$o%%**%%%%%%***%%%%oo$$oXXX#:::::::::::::::",
"::::::::::::::::::::$o%%**%%OO%%%***%%%%%o$$$XXX#:::::::::::::::",
":::::::::::::::::::$$%%%**%&;O%%%**%%OO%%oo$$oXXX#::::::::::::::",
"::::::::::::::::::$$o%%**%%&&%%%***%&;O%%oo$$oXXX#::::::::::::::",
"::::::::::::::::::$o%%%**%%%%%%%***%&&%%%%oo$ooXXX#:::::::::::::",
":::::::::::::::::$oo%%%*%....%%%***%%%%%%%++++oXXX#:::::::::::::",
":::::::::::::::::$o%%%*......%%%***%%%%*%%++++++XXX#::::::::::::",
"::::::::::::::::$oo%%%.......%%%**%OO%%*%%+++++++XX#::::::::::::",
"::::::::::::::::oo%%%.......%%%%**&;O%%**%%+++++++XX::::::::::::",
":::::::::::::::ooo%%.......*%%OO**&&%%%**%%o+++++++X::::::::::::",
":::::::::::::::oo%%...++...*%&;O*..%%%%*$$%o++++++++X:::::::::::",
":::::::::::::::oo%..++++..@*%&&%*....%%&-$%o@++++++++:::::::::::",
"::::::::::::::ooo..+++++.@.%%%%%%.....%&=*%o+@++++++++::::::::::",
"::::::::::::::oo..++++++@.*%%%%%%......%***oo+@++++++++:::::::::",
"::::::::::::::o..++++++@..*%%%%%%&......***oo++@++++++++::::::::",
"::::::::::::::..+++++++...*%%%%%%&.......**oo+++@++++++++:::::::",
"::::::::::::::..++++++....*%%%%%%%%......*$oo++++@+++++++:::::::",
":::::::::::::..++++++@...**%%%%%%%o@@.....$$oo+++@++++++++::::::",
":::::::::::::..++++++@...**%%%%oooo..@....$$oo++++X+++++++::::::",
"::::::::::::..++++++@+...**%%ooooXX...@....$oo++++XX+++++++:::::",
"::::::::::::.+++++++@+...**%ooXXXXX...@.....oX++++XX:++++++:::::",
":::::::::::..++++++@++...**ooXXXXXX....@....XX+++++X::++++++::::",
":::::::::::.+++++++@++..%*ooXXXXXXX....@.....XX++++::::++++=::::",
"::::::::::..++++++@++...%ooXX%&&&%%%oo.@.....XX++++:::::=====:::",
"::::::::::.+++++++@++...@..%&##&&&%##ooo++++++@++++:::::=====:::",
"::::::::::.++++++@+++...@.%&&#=&&&%=#%ooo+++++@++++::::::====:::",
":::::::::.++++++X++++..++%##&%%&&&%%%%##o+++++@++++::::::=====::",
":::::::::.++++++:++++@++%&#=%##%&%%##%=#oo+++++@+++:::::::====::",
":::::::::.+++++::++++@+%&&&&%#=#%%#=#%%ooo++++++@+::::::::====::",
"::::::::.++++++::+++@++%%%&&&%##%%##%&%ooo+++++.:::::::::::====:",
"::::::::.+++++:::+++@+&;;;%&&&%#%%#%&&%;;&o.....:::::::::::====:",
"::::::::.+++++:::++@++;    %&;%&&&&;&%;   o.....::::::::::::===:",
":::::::..==++:::::@+++ @    ;  %%%;  ; @   :....::::::::::::====",
":::::::.=====::::::::: @    :@ ::::@ : @   :.....::::::::::::===",
":::::::.=====::::::::: @    :: ::::@:: @   :.....::::::::::::===",
":::::::.====::::::::::  @  ::::::::::::@   ::....:::::::::::::==",
":::::::.====::::::::::: @  :::::::::::: @ :::....:::::::::::::==",
":::::::=====::::::::::: @  :::::::::::: @ :::.....:::::::::::::=",
":::::::====:::::::::::::  ::::::::::::::  ::::....:::::::::::::=",
":::::::===::::::::::::::: :::::::::::::: ::::::...::::::::::::::",
":::::::===:::::::::::::::::::::::::::::::::::::...::::::::::::::",
":::::::===:::::::::::::::::::::::::::::::::::::...::::::::::::::",
":::::::==:::::::::::::::::::::::::::::::::::::::..::::::::::::::",
":::::::==:::::::::::::::::::::::::::::::::::::::..::::::::::::::",
":::::::==:::::::::::::::::::::::::::::::::::::::..::::::::::::::",
":::::::==:::::::::::::::::::::::::::::::::::::::..::::::::::::::",
":::::::=:::::::::::::::::::::::::::::::::::::::::.::::::::::::::",
":::::::=:::::::::::::::::::::::::::::::::::::::::.::::::::::::::",
":::::::=:::::::::::::::::::::::::::::::::::::::::.::::::::::::::"
};
