/* XPM */
static char *_731_7a12fa5bee1504a43b65d9389e8e39a40b87528a4669ed5a5a6e4371d9156e21[] = {
/* columns rows colors chars-per-pixel */
"64 64 16 1 ",
"  c black",
". c #281F10",
"X c #22131C",
"o c #352113",
"O c #3F2014",
"+ c #3A1925",
"@ c #333C39",
"# c #4E2212",
"$ c #501B2A",
"% c #6D2E26",
"& c #6A222F",
"* c #8B2A30",
"= c #AC3232",
"- c #B84444",
"; c #9D625C",
": c None",
/* pixels */
"::::::::::::::::::::::::::::::::::::::::::::::::::::::::::::::::",
"::::::::::::::::::::::::::::::::::::::::::::::::::::::::::::::::",
"::::::::::::::::::::::::::::::::::::::::::::::::::::::::::::::::",
"::::::::::::::::::::::::::::::::::::::::::::::::::::::::::::::::",
"::::::::::::::::::::::::::::::::::::::::::::::::::::::::::::::::",
"::::::::::::::::::::::::::::::::::::::::::::::::::::::::::::::::",
"::::::::::::::::::::::::::::::::::::::::::::::::::::::::::::::::",
"::::::::::::::::::::::::::::::::&&&&$$::::::::::::::::::::::::::",
":::::::::::::::::::::::::::::&&&&&&&&&$$::::::::::::::::::::::::",
":::::::::::::::::::::::::::&&&*****&&&&$$$::::::::::::::::::::::",
":::::::::::::::::::::::::&o&********&&&&$$$:::::::::::::::::::::",
"::::::::::::::::::::::::oo***********&&&&$..::::::::::::::::::::",
":::::::::::::::::::::::oo*****##*&&*##&&&&...:::::::::::::::::::",
"::::::::::::::::::::::oo#***####=-&*##o&&&&...::::::::::::::::::",
":::::::::::::::::::::oo#***#####==*####o&&&....:::::::::::::::::",
"::::::::::::::::::::&o##**######***####oo&&o...$::::::::::::::::",
":::::::::::::::::::&o##**##OO###***#####o&&&...$::::::::::::::::",
"::::::::::::::::::&&###**#%;O###**##OO##oo&&o...$:::::::::::::::",
":::::::::::::::::&&o##**##%%###***#%;O##oo&&o...$:::::::::::::::",
":::::::::::::::::&o###**#######***#%%####oo&oo...$::::::::::::::",
"::::::::::::::::&+++++*####*###***#######o+++++..$::::::::::::::",
":::::::::::::::+++++++*####*###***####*##o+++++++.$:::::::::::::",
"::::::::::::::+++++++*####**###**#OO##*###o+++++++$:::::::::::::",
"::::::::::::++++++++@*####*####**%;O##**##o@++++++++::::::::::::",
":::::::::::++++++++@+#OO#*XX#OO**%%#XX**##o+@++++++++:::::::::::",
"::::::::::++++++++@++%;OXXXX%;O*####XXXX&#o++@++++++++::::::::::",
":::::::::++++++++@+++%%XXXXX%%#*####XXXXX#o+++@++++++++:::::::::",
"::::::::++++++++@+++##XXXXXX########XXXXXXoo+++@++++++++::::::::",
":::::::++++++++#++++#XXXXXX######OO##XXXXXXo++++.++++++++:::::::",
"::::::++++++++o#++++XXXXXXX#####%;O##XXXXXXX++++..++++++++::::::",
":::::++++++++oo#++++XXXXXXX#####%%###XXXXXXX++++...++++++++:::::",
"::::++++++++:oo#+++XXXXXXX@########oo@XXXXXXX+++....++++++++::::",
"::::+++++++::oo++++XXXXXX@X######ooooX@XXXXXX++++...:+++++++::::",
":::=++++++:::oo++++XXXXXX@X###oooo...X@XXXXXX++++...::++++++=:::",
":::===+++::::oo++++XXXXX@XX#oooo.....XX@XXXXX++++..::::+++===:::",
"::=====+:::::oo++++XXXX@XXXoo........XXX@XXXX++++..:::::+=====::",
"::=====::::::oo++++XXXX@XXXo.........XXX@XXXX++++..::::::=====::",
":=====::::::::o++++XXX@XXXX..........XXXX@XXX++++.::::::::=====:",
":====:::::::::o++++@++@XXX...#%%%###ooXXX@++@++++.:::::::::====:",
"====::::::::::o+++@+++++XX.#%$$%%%#$$ooo+++++@+++:::::::::::====",
"===::::::::::::X+@+++++++X#%%$$%%%#$$#ooo+++++@+X::::::::::::===",
"==::::::::::::XXX++++++++#$$%##%%%####$$o++++++XXX::::::::::::==",
"==::::::::::::XXXX++++++#%$$#$$#%##$$#$$oo++++XXXX::::::::::::==",
"=:::::::::::::XXXXX++++#%%%%#$$$##$$$##ooo+++XXXXX:::::::::::::=",
"=::::::::::::XXXXX....+###%%%#$$##$$#%#ooo.:::XXXXX::::::::::::=",
":::::::::::::XXXXX::..%;;;#%%%#$##$#%%#;;%o:::XXXXX:::::::::::::",
":::::::::::::XXXX:::::;    #%;#%%%%;%#;   o::::XXXX:::::::::::::",
"::::::::::::XXXXX::::: @    ;  ###;  ; @   ::::XXXXX::::::::::::",
"::::::::::::XXXXX::::: @    :@ ::::@ : @   ::::XXXXX::::::::::::",
"::::::::::::XXXX:::::: @    :: ::::@:: @   :::::XXXX::::::::::::",
"::::::::::::XXXX::::::  @  ::::::::::::@   :::::XXXX::::::::::::",
":::::::::::XXXXX::::::: @  :::::::::::: @ ::::::XXXXX:::::::::::",
":::::::::::XXXX:::::::: @  :::::::::::: @ :::::::XXXX:::::::::::",
":::::::::::XXXX:::::::::  ::::::::::::::  :::::::XXXX:::::::::::",
":::::::::::XXX::::::::::: :::::::::::::: :::::::::XXX:::::::::::",
":::::::::::XXX::::::::::::::::::::::::::::::::::::XXX:::::::::::",
":::::::::::XXX::::::::::::::::::::::::::::::::::::XXX:::::::::::",
":::::::::::XX::::::::::::::::::::::::::::::::::::::XX:::::::::::",
":::::::::::XX::::::::::::::::::::::::::::::::::::::XX:::::::::::",
":::::::::::XX::::::::::::::::::::::::::::::::::::::XX:::::::::::",
":::::::::::XX::::::::::::::::::::::::::::::::::::::XX:::::::::::",
":::::::::::X::::::::::::::::::::::::::::::::::::::::X:::::::::::",
":::::::::::X::::::::::::::::::::::::::::::::::::::::X:::::::::::",
":::::::::::X::::::::::::::::::::::::::::::::::::::::X:::::::::::"
};
