/* XPM */
static char *_5728_cc81b25fcfd2e6a206db1bfa0c1923a71a7f68c88b7325d3f1449823f5b40be1[] = {
/* columns rows colors chars-per-pixel */
"64 64 16 1 ",
"  c black",
". c #26131C",
"X c #1F2810",
"o c #303513",
"O c #3E3F14",
"+ c #3D1925",
"@ c #323C39",
"# c #511B2A",
"$ c #6A222F",
"% c #4D4E12",
"& c #6D6326",
"* c #8B2A30",
"= c #AC3232",
"- c #B85244",
"; c #9D935C",
": c None",
/* pixels */
"::::::::::::::::::::::::::::::::::::::::::::::::::::::::::::::::",
"::::::::::::::::::::::::::::::::::::::::::::::::::::::::::::::::",
"::::::::::::::::::::::::::::::::::::::::::::::::::::::::::::::::",
"::::::::::::::::::::::::::::::::::::::::::::::::::::::::::::::::",
"::::::::::::::::::::::::::::::::::::::::::::::::::::::::::::::::",
"::::::::::::::::::::::::::::::::::::::::::::::::::::::::::::::::",
"::::::::::::::::::::::::::::::::::::::::::::::::::::::::::::::::",
":::::::::::::::::::::::::::::::::$$$$##:::::::::::::::::::::::::",
"::::::::::::::::::::::::::::::$$$$$$$$$##:::::::::::::::::::::::",
"::::::::::::::::::::::::::::$$$*****$$$$###:::::::::::::::::::::",
"::::::::::::::::::::::::::$o$********$$$$###::::::::::::::::::::",
":::::::::::::::::::::::::oo***********$$$$#XX:::::::::::::::::::",
"::::::::::::::::::::::::oo*****%%*$$*%%$$$$XXX::::::::::::::::::",
":::::::::::::::::::::::oo%***%%%%=-$*%%o$$$$XXX:::::::::::::::::",
"::::::::::::::::::::::oo%***%%%%%==*%%%%o$$$XXXX::::::::::::::::",
":::::::::::::::::::::$o%%**%%%%%%***%%%%oo$$oXXX#:::::::::::::::",
"::::::::::::::::::::$o%%**%%OO%%%***%%%%%o$$$XXX#:::::::::::::::",
":::::::::::::::::::$$%%%**%&;O%%%**%%OO%%oo$$oXXX#::::::::::::::",
"::::::::::::::::::$$o%%**%%&&%%%***%&;O%%oo$$oXXX#::::::::::::::",
"::::::::::::::::::$o%%%**%%%%%%%***%&&%%%%oo$ooXXX#:::::::::::::",
":::::::::::::::::$o++%%*%%%%*%%%***%..%%%%oo$$oXXX#:::::::::::::",
":::::::::::::::::++++%**%%%%*%%%***%....%%oo$$oXXXX#::::::::::::",
"::::::::::::::::+++++%*%%%%**%%%**%O.....%%oo$oXXXX#::::::::::::",
":::::::::::::::++++++%*%%%%*%%%%**&;......%oo$ooXXXX::::::::::::",
"::::::::::::::++++++%%%OO..*%%OO**&&%......o++ooXXXX::::::::::::",
":::::::::::::++++++%%%&....*%&;O*%%%%%......++++XXXXX:::::::::::",
"::::::::::::+++++++%%%.....*%&&%*%%%%%......+++++XXXX:::::::::::",
"::::::::::::++++++@%%......%%%%%%%%%%%@.....++++++XXX:::::::::::",
":::::::::::+++++++@%......*%%%%%%%OO%%@......++++++XX:::::::::::",
":::::::::::++++++@+.......*%%%%%%&;O%%.@.....+++++++X:::::::::::",
"::::::::::++++++@++......@*%%%%%%&&%%%..@....@+++++++:::::::::::",
"::::::::::++++++@++.....@.*%%%%%%%%%oo..@....+@+++++++::::::::::",
":::::::::++++++@+++....@..*%%%%%%%oooo...@...++@+++++++:::::::::",
":::::::::++++++@++.....@.**%%%%ooooXXXX..@....+@++++++++::::::::",
"::::::::++++++@+++....@..**%%ooooXXXXXX...@...++@+++++++::::::::",
":::::::++++++:++++...@...**%ooXXXXXXXXX....$..+++@+++++++:::::::",
":::::::++++++:++++..@....**ooXXXXXXXXXX....X..++++@++++++:::::::",
":::::::+++++:.++++..@....*ooX%&&&%%%ooX....XX.++++@+++++++::::::",
"::::::++++++:.++++.%....%oo%&##&&&%##ooo...XX..++++:++++++::::::",
"::::::+++++:..++++@++++++o%&&#=&&&%=#%ooo..XXX.++++:+++++++:::::",
"::::::+++++:..++++@++++++%##&%%&&&%%%%##o..XXX.++++::++++++:::::",
"::::::==++:...+++@++++++%&#=%##%&%%##%=#oo+XXXX++++::+++++++::::",
":::::=====:...++@++++++%&&&&%#=#%%#=#%%ooo++++@++++.::++++++::::",
":::::====:.....+@++++++%%%&&&%##%%##%&%ooo++++@++++.:::++++++:::",
":::::====:......:+++++&;;;%&&&%#%%#%&&%;;&o+++@++++.:::++++++:::",
"::::=====......:::::..;    %&;%&&&&;&%;   o+++@++++..:::++++++::",
"::::====:......:::::.. @    ;  %%%;  ; @   ++++@+++..:::++++++::",
"::::====:.....:::::::. @    :@ ::::@ : @   +++++@+...::::++===::",
"::::===:.....::::::::: @    :: ::::@:: @   :::::::...:::::=====:",
"::::===:.....:::::::::  @  ::::::::::::@   :::::::...:::::=====:",
"::::===:....::::::::::: @  :::::::::::: @ ::::::::...::::::====:",
"::::==:.....::::::::::: @  :::::::::::: @ :::::::::..::::::=====",
"::::==:....:::::::::::::  ::::::::::::::  :::::::::..:::::::====",
"::::==:....:::::::::::::: :::::::::::::: ::::::::::..:::::::====",
"::::=::...::::::::::::::::::::::::::::::::::::::::::.::::::::===",
"::::=::...::::::::::::::::::::::::::::::::::::::::::.::::::::===",
"::::=::...::::::::::::::::::::::::::::::::::::::::::.::::::::===",
":::::::..:::::::::::::::::::::::::::::::::::::::::::::::::::::==",
":::::::..:::::::::::::::::::::::::::::::::::::::::::::::::::::==",
":::::::..:::::::::::::::::::::::::::::::::::::::::::::::::::::==",
":::::::.:::::::::::::::::::::::::::::::::::::::::::::::::::::::=",
":::::::.:::::::::::::::::::::::::::::::::::::::::::::::::::::::=",
":::::::.:::::::::::::::::::::::::::::::::::::::::::::::::::::::=",
":::::::.:::::::::::::::::::::::::::::::::::::::::::::::::::::::="
};
