/* XPM */
static char *_0393_01e1511a1187b8bb0fe49295b77ff0f8ed4f73164d912a021b67260271a5a35d[] = {
/* columns rows colors chars-per-pixel */
"64 64 16 1 ",
"  c black",
". c #26131C",
"X c #1F2810",
"o c #303513",
"O c #3E3F14",
"+ c #3D1925",
"@ c #323C39",
"# c #511B2A",
"$ c #6A222F",
"% c #4D4E12",
"& c #6D6326",
"* c #8B2A30",
"= c #AC3232",
"- c #B85244",
"; c #9D935C",
": c None",
/* pixels */
"::::::::::::::::::::::::::::::::::::::::::::::::::::::::::::::::",
"::::::::::::::::::::::::::::::::::::::::::::::::::::::::::::::::",
"::::::::::::::::::::::::::::::::::::::::::::::::::::::::::::::::",
"::::::::::::::::::::::::::::::::::::::::::::::::::::::::::::::::",
"::::::::::::::::::::::::::::::::::::::::::::::::::::::::::::::::",
"::::::::::::::::::::::::::::::::::::::::::::::::::::::::::::::::",
"::::::::::::::::::::::::::::::::::::::::::::::::::::::::::::::::",
"::::::::::::::::::::::::::::::::::::::::::::::::::::::::::::::::",
"::::::::::::::::::::::::::::::::::::::::::::::::::::::::::::::::",
":::::::::::::::::::::::::::::::::$$$$##:::::::::::::::::::::::::",
"::::::::::::::::::::::::::::::$$$$$$$$$##:::::::::::::::::::::::",
"::::::::::::::::::::::::::::$$$*****$$$$###:::::::::::::::::::::",
"::::::::::::::::::::::::::$o$********$$$$###::::::::::::::::::::",
":::::::::::::::::::::::::oo***********$$$$#XX:::::::::::::::::::",
"::::::::::::::::::::::::oo*****%%*$$*%%$$$$XXX::::::::::::::::::",
":::::::::::::::::::::::oo%***%%%%=-$*%%o$$$$XXX:::::::::::::::::",
"::::::::::::::::::::::oo%***%%%%%==*%%%%o$$$XXXX::::::::::::::::",
":::::::::::::::::::::$o%%**%%%%%%***%%%%oo$$oXXX#:::::::::::::::",
"::::::::::::::::::::$o%%**%%OO%%%***%%%%%o$$$XXX#:::::::::::::::",
":::::::::::::::::::$$%%%**%&;O%%%**%%OO%%oo$$oXXX#::::::::::::::",
"::::::::::::::::::$$o%%**%%&&%%%***%&;O%%oo$$oXXX#::::::::::::::",
"::::::::::::::::::$o%%%**%%%%%%%***%&&%%%%oo$ooXXX#:::::::::::::",
":::::::::::::::::$oo%%%*%%%%*%%%***%%%%%%%oo$$oXXX#:::::::::::::",
":::::::::::::::::$o%%%**%%%%*%%%***%%%%*%%$$$$$XXXX#::::::::::::",
"::::::::::::::::$oo++%*%%%..*%%%**%O..%*%%%o$*$$$$X#::::::::::::",
"::::::::::::::::o++++%*%....%%%%**&;....*%%oo$$$**$$::::::::::::",
":::::::::::::::o+++++%%.....%%OO**&&.....%%oo$$*$***$$::::::::::",
":::::::::::::::++++++%......%&;O*%%%......%oooo$*$**$$$:::::::::",
"::::::::::::::++++++%......*%&&%*%%%%......ooooo$*$**$$$::::::::",
":::::::::::::+++++++.......%%%%%%%%%%.......oooo$$=$*=$*$:::::::",
":::::::::::::+++++++.......%%%%%%%OO%.......ooooX*$=$*$=*$::::::",
"::::::::::::+++++++@......@%%%%%%&;O%@.......oooXX*=*$*$=$::::::",
"::::::::::::++++++@+.....@.%%%%%%&&%%.@......oooXX$*=$=*$=$:::::",
":::::::::::+++++++@+.....@.%%%%%%%%%o.@.......oXXXX*=*$=$*=$::::",
":::::::::::++++++@++....@..%%%%%%%ooo..@......oXXXX$*=$=*$=$::::",
"::::::::::++++++@+++...@...%%%%ooooXX...@......XXXX$*=$=*$=$::::",
"::::::::::++++++@+++...@...%%ooooXXXX...@......XXXX$*=*$=*$=$:::",
":::::::::++++++@++++..@....%ooXXXXXXX....@......XXX$*=*$=$$==:::",
":::::::::++++++@+++...@...*ooXXXXXXXXX...@......XXX$$=*$=$*==:::",
"::::::::++++++:++++..%....oo%&&&%%%ooX....#......XX$=$*==$*==:::",
"::::::::++++++:++++..%....%&##&&&%##ooo++.X......X$$=*$==$*==:::",
":::::::++++++:.++++.%%+++%&&#=&&&%=#%ooo++++......$*=$$==*===:::",
":::::::++++++:.++++@++++%##&%%&&&%%%%##o+++++@...=$==$======$:::",
":::::::+++++::.++++@+++%&#=%##%&%%##%=#oo+++++@++$$=*$======::::",
"::::::+++++::..+++@+++%&&&&%#=#%%#=#%%ooo+++++@+$$==$=======::::",
"::::::+++++::..+++@+++%%%&&&%##%%##%&%ooo++++++@*$==$======:::::",
"::::::++++:::..++@+++&;;;%&&&%#%%#%&&%;;&o++++@$*==$=======:::::",
":::::+++++::....+@+++;    %&;%&&&&;&%;   o::+@=*$=$$======::::::",
":::::===++::.....:::: @    ;  %%%;  ; @   ::::*==$$=====::::::::",
":::::====:::....::::: @    :@ ::::@ : @   :::*===$=====:::::::::",
":::::====:::....::::: @    :: ::::@:: @   ::*===$=====::::::::::",
"::::=====::.....:::::  @  ::::::::::::@   :*=========:::::::::::",
"::::====:::....::::::: @  :::::::::::: @ :*========..:::::::::::",
"::::====:::....::::::: @  :::::::::::: @ =========...:::::::::::",
"::::===::::...:::::::::  ::::::::::::::  ========:...:::::::::::",
"::::===::::...:::::::::: :::::::::::::= ========::...:::::::::::",
"::::===::::...:::::::::::::::::::::::==========:::...:::::::::::",
"::::==:::::..:::::::::::::::::::::::=========::::::..:::::::::::",
"::::==:::::..::::::::::::::::::::::=========:::::::..:::::::::::",
"::::==:::::..:::::::::::::::::::::========:::::::::..:::::::::::",
"::::==:::::..:::::::::::::::::::========:::::::::::..:::::::::::",
"::::=::::::.:::::::::::::::::::========:::::::::::::.:::::::::::",
"::::=::::::.:::::::::::::::::=======::::::::::::::::.:::::::::::",
"::::=::::::.::::::::::::::::=====:::::::::::::::::::.:::::::::::"
};
