/* XPM */
static char *_4023_87ae88413393e4b0b59d89e1cb81ef504dfc5fa8df70d78a68d5285b224a6509[] = {
/* columns rows colors chars-per-pixel */
"64 64 16 1 ",
"  c black",
". c #26131C",
"X c #1F2810",
"o c #303513",
"O c #3E3F14",
"+ c #3D1925",
"@ c #323C39",
"# c #511B2A",
"$ c #6A222F",
"% c #4D4E12",
"& c #6D6326",
"* c #8B2A30",
"= c #AC3232",
"- c #B85244",
"; c #9D935C",
": c None",
/* pixels */
"::::::::::::::::::::::::::::::::::::::::::::::::::::::::::::::::",
"::::::::::::::::::::::::::::::::::::::::::::::::::::::::::::::::",
"::::::::::::::::::::::::::::::::::::::::::::::::::::::::::::::::",
"::::::::::::::::::::::::::::::::::::::::::::::::::::::::::::::::",
"::::::::::::::::::::::::::::::::::::::::::::::::::::::::::::::::",
"::::::::::::::::::::::::::::::::::::::::::::::::::::::::::::::::",
"::::::::::::::::::::::::::::::::::::::::::::::::::::::::::::::::",
"::::::::::::::::::::::::::::::::::::::::::::::::::::::::::::::::",
":::::::::::::::::::::::::::::::::$$$$##:::::::::::::::::::::::::",
"::::::::::::::::::::::::::::::$$$$$$$$$##:::::::::::::::::::::::",
"::::::::::::::::::::::::::::$$$*****$$$$###:::::::::::::::::::::",
"::::::::::::::::::::::::::$o$********$$$$###::::::::::::::::::::",
":::::::::::::::::::::::::oo***********$$$$#XX:::::::::::::::::::",
"::::::::::::::::::::::::oo*****%%*$$*%%$$$$XXX::::::::::::::::::",
":::::::::::::::::::::::oo%***%%%%=-$*%%o$$$$XXX:::::::::::::::::",
"::::::::::::::::::::::oo%***%%%%%==*%%%%o$$$XXXX::::::::::::::::",
":::::::::::::::::::::$o%%**%%%%%%***%%%%oo$$oXXX#:::::::::::::::",
"::::::::::::::::::::$o%%**%%OO%%%***%%%%%o$$$XXX#:::::::::::::::",
":::::::::::::::::::$$%%%**%&;O%%%**%%OO%%oo$$oXXX#::::::::::::::",
"::::::::::::::::::$$o%%**%%&&%%%***%&;O%%oo$$oXXX#::::::::::::::",
"::::::::::::::::::$o%%%*.....%%%***%&&%%%%+++++XXX#:::::::::::::",
":::::::::::::::::$oo%%.......%%%***%%%%%%%+++++++X#:::::::::::::",
":::::::::::::::::$o%%.......*%%%***%%%%*%%o+++++++X#::::::::::::",
"::::::::::::::::$oo........@*%%%**%OO%%*%%%@++++++++::::::::::::",
"::::::::::::::::oo.++.....@.%%%%**&;..%**%%+@++++++++:::::::::::",
":::::::::::::::oo++++....@..%%OO**&&....*%%++@++++++++::::::::::",
":::::::::::::::o+++++...@...%&;O*%%%.....$%+++@++++++++:::::::::",
":::::::::::::::++++++..@...*%&&%*%%%......%o+++@++++++++::::::::",
"::::::::::::::++++++..%....%%%%%%%%%%......o++++X++++++++:::::::",
":::::::::::::+++++++.%%....%%%%%%%OO%.......++++XX++++++++::::::",
"::::::::::::.+++++++%%%....%%%%%%&;O%.......++++XXX++++++++:::::",
":::::::::::.+++++++@%%%...*%%%%%%&&%%@.......+++XXXX++++++++::::",
":::::::::::.++++++@+%%....*%%%%%%%%%o.@......++++XXXX+++++==::::",
"::::::::::.+++++++@+%%....*%%%%%%%ooo.@......++++XXXX:+++====:::",
"::::::::::.++++++@++%%....*%%%%ooooXX..@.....++++XXXX::======:::",
":::::::::.++++++@+++%%....*%%ooooXXXX...@....++++XXX::::======::",
":::::::::.++++++@+++%%....*%ooXXXXXXX...@....++++XXX:::::=====::",
"::::::::.++++++@++++%%....*ooXXXXXXXX....@...++++XXX::::::=====:",
"::::::::.++++++@+++%%%....@..XXXXXXXXX...@++@++++XX::::::::====:",
":::::::.++++++:++++%%%...@...%&&&%%%oo..+++++@+++XX:::::::::====",
":::::::.++++++:++++%%%%.@..%&##&&&%##ooo++++++@+.X:::::::::::===",
":::::::++++++::++++%%%++++%&&#=&&&%=#%ooo++++++...::::::::::::==",
":::::::++++++::++++@+++++%##&%%&&&%%%%##o+++++....::::::::::::==",
":::::::+++++:::++++@++++%&#=%##%&%%##%=#oo+++.....:::::::::::::=",
"::::::+++++::::+++@++++%&&&&%#=#%%#=#%%oooXXXX.....::::::::::::=",
"::::::+++++::::+++@++++%%%&&&%##%%##%&%oooXX::.....:::::::::::::",
"::::::++++:::::++@++++&;;;%&&&%#%%#%&&%;;&o::::....:::::::::::::",
":::::+++++::::::+@++++;    %&;%&&&&;&%;   o::::.....::::::::::::",
":::::===++:::::::::::: @    ;  %%%;  ; @   ::::.....::::::::::::",
":::::====::::::::::::: @    :@ ::::@ : @   :::::....::::::::::::",
":::::====::::::::::::: @    :: ::::@:: @   :::::....::::::::::::",
"::::=====:::::::::::::  @  ::::::::::::@   :::::.....:::::::::::",
"::::====::::::::::::::: @  :::::::::::: @ :::::::....:::::::::::",
"::::====::::::::::::::: @  :::::::::::: @ :::::::....:::::::::::",
"::::===:::::::::::::::::  ::::::::::::::  ::::::::...:::::::::::",
"::::===:::::::::::::::::: :::::::::::::: :::::::::...:::::::::::",
"::::===:::::::::::::::::::::::::::::::::::::::::::...:::::::::::",
"::::==:::::::::::::::::::::::::::::::::::::::::::::..:::::::::::",
"::::==:::::::::::::::::::::::::::::::::::::::::::::..:::::::::::",
"::::==:::::::::::::::::::::::::::::::::::::::::::::..:::::::::::",
"::::==:::::::::::::::::::::::::::::::::::::::::::::..:::::::::::",
"::::=:::::::::::::::::::::::::::::::::::::::::::::::.:::::::::::",
"::::=:::::::::::::::::::::::::::::::::::::::::::::::.:::::::::::",
"::::=:::::::::::::::::::::::::::::::::::::::::::::::.:::::::::::"
};
