/* XPM */
static char *_4104_dab8d3602e2244a409923d9258cfbaaa20d547dc95329462f69c9a28c19fb004[] = {
/* columns rows colors chars-per-pixel */
"16 16 6 1 ",
"  c #652833",
". c #AC3232",
"X c #C76550",
"o c #CA8164",
"O c #CF9576",
"+ c None",
/* pixels */
"++++++++++++++++",
"++++++++++++++++",
"++++++++++++++++",
"+++...+++   ++++",
"++.XX. +     +++",
"+.Xo...       ++",
"+.oX.....     ++",
"+.Oo......    ++",
"++.OX.....   +++",
"+++.o.....  ++++",
"++++.X.... +++++",
"+++++.X.. ++++++",
"++++++...+++++++",
"+++++++.++++++++",
"++++++++++++++++",
"++++++++++++++++"
};
