/* XPM */
static char *_7932_d5597f784be1349d9c965711dde00a7c07c76edcda263a3cb631b28d12a6faa9[] = {
/* columns rows colors chars-per-pixel */
"16 16 7 1 ",
"  c #652833",
". c #AC3232",
"X c #B34741",
"o c #C76550",
"O c #CA8164",
"+ c #CF9576",
"@ c None",
/* pixels */
"@@@@@@@@@@@@@@@@",
"@@@@@@@@@@@@@@@@",
"@@@@@@@@@@@@@@@@",
"@@@...@@@   @@@@",
"@@.oO. @     @@@",
"@.OO......    @@",
"@.+O.......   @@",
"@.+Oo......   @@",
"@@X+O......  @@@",
"@@@X+o..... @@@@",
"@@@@XO.... @@@@@",
"@@@@@.o...@@@@@@",
"@@@@@@...@@@@@@@",
"@@@@@@@.@@@@@@@@",
"@@@@@@@@@@@@@@@@",
"@@@@@@@@@@@@@@@@"
};
