/* XPM */
static char *_936_ee1b5bd21c62ebd09ff8d194577c442bdc9ec8acdf1ab88e535dc41522f32374[] = {
/* columns rows colors chars-per-pixel */
"16 16 6 1 ",
"  c #652833",
". c #AC3232",
"X c #C76550",
"o c #CA8164",
"O c #CF9576",
"+ c None",
/* pixels */
"++++++++++++++++",
"++++++++++++++++",
"++++++++++++++++",
"+++...+++   ++++",
"++.XX. +     +++",
"+.Xo... .     ++",
"+.oo......    ++",
"+.OoX......   ++",
"++.OX......  +++",
"+++.O.....  ++++",
"++++.o.... +++++",
"+++++.X...++++++",
"++++++...+++++++",
"+++++++.++++++++",
"++++++++++++++++",
"++++++++++++++++"
};
