/* XPM */
static char *_090_3b87e42656d291cd4350431703f95e48a5b5168fff516e7907ae80318c7cb8c5[] = {
/* columns rows colors chars-per-pixel */
"64 64 16 1 ",
"  c black",
". c #26131C",
"X c #1F2810",
"o c #303513",
"O c #3E3F14",
"+ c #3D1925",
"@ c #323C39",
"# c #511B2A",
"$ c #6A222F",
"% c #4D4E12",
"& c #6D6326",
"* c #8B2A30",
"= c #AC3232",
"- c #B85244",
"; c #9D935C",
": c None",
/* pixels */
"::::::::::::::::::::::::::::::::::::::::::::::::::::::::::::::::",
"::::::::::::::::::::::::::::::::::::::::::::::::::::::::::::::::",
"::::::::::::::::::::::::::::::::::::::::::::::::::::::::::::::::",
"::::::::::::::::::::::::::::::::::::::::::::::::::::::::::::::::",
"::::::::::::::::::::::::::::::::::::::::::::::::::::::::::::::::",
"::::::::::::::::::::::::::::::::::::::::::::::::::::::::::::::::",
"::::::::::::::::::::::::::::::::::::::::::::::::::====::::::::::",
"::::::::::::::::::::::::::::::::::::::::::::::::=====:::::::::::",
"::::::::::::::::::::::::::::::::::::::::::::::======::::::::::::",
":::::::::::::::::::::::::::::::::::::::::::::======:::::::::::::",
":::::::::::::::::::::::::::::::::$$$$##:::::======::::::::::::::",
"::::::::::::::::::::::::::::::$$$$$$$$$##::======:::::::::::::::",
"::::::::::::::::::::::::::::$$$*****$$$$##+=====::::::::::::::::",
"::::::::::::::::::::::::::$o$********$$$$+=====:::::::::::::::::",
":::::::::::::::::::::::::oo***********$$++=====:::::::::::::::::",
"::::::::::::::::::::::::oo*****%%*$$*%%$++====::::::::::::::::::",
":::::::::::::::::::::::oo%***%%%%=-$*%%++++==XX:::::::::::::::::",
"::::::::::::::::::::::oo%***%%%%%==*%%%++++++XXX::::::::::::::::",
":::::::::::::::::::::$o%%**%%%%%%***%%++++++oXXX#:::::::::::::::",
"::::::::::::::::::::$o%%**%%OO%%%***%%+++++$$XXX#:::::::::::::::",
":::::::::::::::::::$$%%%**%&;O%%%**%%O+++++$$oXXX#::::::::::::::",
"::::::::::::::::::$$o%%**%%&&%%%***%&;++++o$$oXXX#::::::::::::::",
"::::::::::::::::::$o%%%**%%%%%%%***%&+++++oo$ooXXX#:::::::::::::",
":::::::::::::::::$oo%%%*%%%%*%%%***%%++++%oo$$oXXX#:::::::::::::",
":::::::::::::::::$o++%**%%..*%%%***%.++++%oo$$oXXXX#::::::::::::",
"::::::::::::::::$++++%*%....*%%%**%O..++@++oo$oXXXX#::::::::::::",
"::::::::::::::::+++++%*.....%%%%**&;..+@+++oo$ooXXXX::::::::::::",
":::::::::::::::++++++%......%%OO**&&...+++++o$ooXXXX::::::::::::",
"::::::::::::::++++++%......*%&;O*%%%%..+++++ooooXXXXX:::::::::::",
":::::::::::::+++++++.......*%&&%*%%%%..++++++oooXXXXX:::::::::::",
":::::::::::::+++++++.......%%%%%%%%%%...+++++oooXXXXX:::::::::::",
"::::::::::::+++++++@......@%%%%%%%OO%@...++++oooXXXXX:::::::::::",
"::::::::::::++++++@+.....@.%%%%%%&;O%.@...+++++oXXXXX:::::::::::",
":::::::::::+++++++@+.....@.%%%%%%&&%%.@...+++++oXXXXX:::::::::::",
":::::::::::++++++@++....@..%%%%%%%%%o..@..+++++XXXXXX:::::::::::",
"::::::::::++++++@+++...@...%%%%%%%ooo...@..+++++XXXXX:::::::::::",
"::::::::::++++++@+++...@...%%%&&&%%%oo..@..@++++XXXXX:::::::::::",
":::::::::++++++@++++..@....%&##&&&%##ooo.@.+@+++@XXX::::::::::::",
":::::::::++++++@+++...@...%&&#=&&&%=#%ooo@++++@++XXX::::::::::::",
"::::::::++++++o++++..%...%##&%%&&&%%%%##o++++++@+XXX::::::::::::",
"::::::::++++++:++++..%..%&#=%##%&%%##%=#oo++++++.XX:::::::::::::",
":::::::++++++:.++++.%%+%&&&&%#=#%%#=#%%ooo+++++...X:::::::::::::",
":::::::++++++:.++++@+++%%%&&&%##%%##%&%ooo++++....::::::::::::::",
":::::::+++++::.++++@++&;;;%&&&%#%%#%&&%;;&oXX.....::::::::::::::",
"::::::+++++::..+++@+++;    %&;%&&&&;&%;   oXXX.....:::::::::::::",
"::::::+++++::..+++@+++ @    ;  %%%;  ; @   XXX.....:::::::::::::",
"::::::++++:::..++@++++ @    .@ ....@ . @   XXX:....:::::::::::::",
":::::+++++::....+@++++ @    .X XXXX@.. @   X:::.....::::::::::::",
":::::===++::.....::::X  @  XXXXXXXXXXXX@   ::::.....::::::::::::",
":::::====:::....::::::: @  :::::::::::: @ ::::::....::::::::::::",
":::::====:::....::::::: @  :::::::::::: @ ::::::....::::::::::::",
"::::=====::.....::::::::  ::::::::::::::  ::::::.....:::::::::::",
"::::====:::....:::::::::: :::::::::::::: ::::::::....:::::::::::",
"::::====:::....::::::::::::::::::::::::::::::::::....:::::::::::",
"::::===::::...::::::::::::::::::::::::::::::::::::...:::::::::::",
"::::===::::...::::::::::::::::::::::::::::::::::::...:::::::::::",
"::::===::::...::::::::::::::::::::::::::::::::::::...:::::::::::",
"::::==:::::..::::::::::::::::::::::::::::::::::::::..:::::::::::",
"::::==:::::..::::::::::::::::::::::::::::::::::::::..:::::::::::",
"::::==:::::..::::::::::::::::::::::::::::::::::::::..:::::::::::",
"::::==:::::..::::::::::::::::::::::::::::::::::::::..:::::::::::",
"::::=::::::.::::::::::::::::::::::::::::::::::::::::.:::::::::::",
"::::=::::::.::::::::::::::::::::::::::::::::::::::::.:::::::::::",
"::::=::::::.::::::::::::::::::::::::::::::::::::::::.:::::::::::"
};
