/* XPM */
static char *_470_702976b57e52e95e7c3df9df55941316bba9fe9ad4f8d707165e647480a48111[] = {
/* columns rows colors chars-per-pixel */
"64 64 16 1 ",
"  c black",
". c #26131C",
"X c #1F2810",
"o c #303513",
"O c #3E3F14",
"+ c #3D1925",
"@ c #323C39",
"# c #511B2A",
"$ c #6A222F",
"% c #4D4E12",
"& c #6D6326",
"* c #8B2A30",
"= c #AC3232",
"- c #B85244",
"; c #9D935C",
": c None",
/* pixels */
"::::::::::::::::::::::::::::::::::::::::::::::::::::::::::::::::",
"::::::::::::::::::::::::::::::::::::::::::::::::::::::::::::::::",
"::::::::::::::::::::::::::::::::::::::::::::::::::::::::::::::::",
"::::::::::::::::::::::::::::::::::::::::::::::::::::::::::::::::",
"::::::::::::::::::::::::::::::::::::::::::::::::::::::::::::::::",
"::::::::::::::::::::::::::::::::::::::::::::::::::::::::::::::::",
"::::::::::::::::::::::::::::::::::::::::::::::::::::::::::::::::",
"::::::::::::::::::::::::::::::::::::::::::::::::::::::::::::::::",
":::::::::::::::::::::::::::::::::$$$$##:::::::::::::::::::::::::",
"::::::::::::::::::::::::::::::$$$$$$$$$##:::::::::::::::::::::::",
"::::::::::::::::::::::::::::$$$*****$$$$###:::::::::::::::::::::",
"::::::::::::::::::::::::::$o$********$$$$###::::::::::::::::::::",
":::::::::::::::::::::::::oo***********$$$$#XX:::::::::::::::::::",
"::::::::::::::::::::::::oo*****%%*$$*%%$$$$XXX::::::::::::::::::",
":::::::::::::::::::::::oo%***%%%%=-$*%%o$$$$XXX:::::::::::::::::",
"::::::::::::::::::::::oo%***%%%%%==*%%%%o$$$XXXX::::::::::::::::",
":::::::::::::::::::::$o%%**%%%%%%***%%%%oo$$oXXX#:::::::::::::::",
"::::::::::::::::::::$o%%**%%OO%%%***%%%%%o$$$XXX#:::::::::::::::",
":::::::::::::::::::$$%%%**%&;O%%%**%%OO%%oo$$oXXX#::::::::::::::",
"::::::::::::::::::$$o%%**%%&&%%%***%&;O%%oo$$oXXX#::::::::::::::",
"::::::::::::::::::$o%%%**%%%%%%%***%&&%%%%oo$ooXXX#:::::::::::::",
":::::::::::::::::$oo%%%*%%%%*%%%***%%%%%%%oo$$oXXX#:::::::::::::",
":::::::::::::::::$o%%%**%%%%*%%%***%%%%*%%oo$$oXXXX#::::::::::::",
"::::::::::::::::$oo%%%*%%%%**%%%**%OO%%*%%%oo$oXXXX#::::::::::::",
"::::::::::::::::oo%++%*%%%..%%%%**&;..%**%%oo$ooXXXX::::::::::::",
":::::::::::::::oo++++%%O....%%OO**&&....*%%oo$ooXXXX::::::::::::",
":::::::::::::::o+++++%&.....%&;O*%%%.....$%oooooXXXXX:::::::::::",
":::::::::::::::++++++%......%&&%*%%%......%oooooXXXXX:::::::::::",
"::::::::::::::++++++%......%%%%%%%%%%......oooooXXXXX:::::::::::",
":::::::::::::+++++++.......%%%%%%%OO%.......ooooXXXXX:::::::::::",
":::::::::::::+++++++.......%%%%%%&;O%.......ooooXXXXX:::::::::::",
"::::::::::::+++++++@......@%%%%%%&&%%@.......oooXXXXX:::::::::::",
"::::::::::::++++++@+.....@.%%%%%%%%%o.@......ooXXXXXX:::::::::::",
":::::::::::+++++++@+.....@.%%%%%%%ooo.@.......oXXXXXX:::::::::::",
":::::::::::++++++@++....@..%%%%ooooXX..@......oXXXXXX:::::::::::",
"::::::::::++++++@+++...@...%%ooooXXXX...@......XXXXX::::::::::::",
"::::::::::++++++@+++...@...%ooXXXXXXX...@......XXXXX::::::::::::",
":::::::::++++++@++++..@....ooXXXXXXXX....@......XXXX::::::::::::",
":::::::::++++++@+++...@...ooXXXXXXXXXX...@......XXX:::::::::::::",
"::::::::++++++:++++..%....oXX%&&&%%%oo....X......XX::::::::++:::",
"::::::::++++++:++++..%....o%&##&&&%##ooo+.X......X:::::@@++++:::",
":::::::++++++:.++++.%%++++%&&#=&&&%=#%ooo+++......::+++++++++:::",
":::::::++++++:.++++@+++++%##&%%&&&%%%%##o++++@...+++++@++++++:::",
":::::::+++++::.++++@++++%&#=%##%&%%##%=#oo++++@+++++@@++++++::::",
"::::::+++++::..+++@++++%&&&&%#=#%%#=#%%ooo++++@++++@++++++++::::",
"::::::+++++::..+++@++++%%%&&&%##%%##%&%ooo+++++@+++++++++++:::::",
"::::::++++:::..++@++++&;;;%&&&%#%%#%&&%;;&o+++@++@@++++++++:::::",
":::::+++++::....+@++++;    %&;%&&&&;&%;   o:+@++@@++++++++::::::",
":::::===++::.....::::: @    ;  %%%;  ; @   ::::.++++++++::::::::",
":::::====:::....:::::: @    :@ ::::@ : @   ::::++++++++:::::::::",
":::::====:::....:::::: @    :: ::::@:: @   :::@+++++++::::::::::",
"::::=====::.....::::::  @  ::::::::::::@   ::++++++++:::::::::::",
"::::====:::....:::::::: @  :::::::::::: @ ::+++++++..:::::::::::",
"::::====:::....:::::::: @  :::::::::::: @ :+++++++...:::::::::::",
"::::===::::...::::::::::  ::::::::::::::  +++++++:...:::::::::::",
"::::===::::...::::::::::: :::::::::::::: ===++++::...:::::::::::",
"::::===::::...::::::::::::::::::::::::::=====++:::...:::::::::::",
"::::==:::::..:::::::::::::::::::::::::=======::::::..:::::::::::",
"::::==:::::..::::::::::::::::::::::::=======:::::::..:::::::::::",
"::::==:::::..:::::::::::::::::::::::======:::::::::..:::::::::::",
"::::==:::::..:::::::::::::::::::::======:::::::::::..:::::::::::",
"::::=::::::.::::::::::::::::::::=======:::::::::::::.:::::::::::",
"::::=::::::.::::::::::::::::::======::::::::::::::::.:::::::::::",
"::::=::::::.::::::::::::::::=====:::::::::::::::::::.:::::::::::"
};
