/* XPM */
static char *_2929_ff54d4332ed19de3e2f46ae579f0de02ad23751ec224cc72e843ad538dc51acc[] = {
/* columns rows colors chars-per-pixel */
"64 64 17 1 ",
"  c black",
". c #26131C",
"X c #1F2810",
"o c #303513",
"O c #3E3F14",
"+ c #3D1925",
"@ c #323C39",
"# c #511B2A",
"$ c #6A222F",
"% c #4D4E12",
"& c #6D6326",
"* c #8B2A30",
"= c #AC3232",
"- c #B85244",
"; c #9D935C",
": c None",
"' c #ff0000",
/* pixels */
"::::::::::::::::::::::::::::::::::::::::::::::::::::::::::::::::",
"::::::::::::::::::::::::::::::::::::::::::::::::::::::::::::::::",
"::::::::::::::::::::::::::::::::::::::::::::::::::::::::::::::::",
"::::::::::::::::::::::::::::::::::::::::::::::::::::::::::::::::",
"::::::::::::::::::::::::::::::::::::::::::::::::::::::::::::::::",
"::::::::::::::::::::::::::::::::::::::::::::::::::::::::::::::::",
"::::::::::::::::::::::::::::::::::::::::::::::::::::::::::::::::",
"::::::::::::::::::::::::::::::::::::::::::::::::::::::::::::::::",
"::::::::::::::::::::::::::::::::::::::::::::::::::::::::::::::::",
"::::::::::::::::::::::::::::::::$$$$##::::::::::::::::::::::::::",
":::::::::::::::::::::::::::::$$$$$$$$$##::::::::::::::::::::::::",
":::::::::::::::::::::::::::$$$*****$$$$###::::::::::::::::::::::",
":::::::::::::::::::::::::$o$********$$$$###:::::::::::::::::::::",
"::::::::::::::::::::::::oo***********$$$$#XX::::::::::::::::::::",
":::::::::::::::::::::::oo*****%%*$$*%%$$$$XXX:::::::::::::::::::",
"::::::::::::::::::::::oo%***%%%%=-$*%%o$$$$XXX::::::::::::::::::",
":::::::::::::::::::::oo%***%%%%%==*%%%%o$$$XXXX:::::::::::::::::",
"::::::::::::::::::::$o%%**%%%%%%***%%%%oo$$oXXX#::::::::::::::::",
":::::::::::::::::::$o%%**%%OO%%%***%%%%%o$$$XXX#::::::::::::::::",
"::::::::::::::::::$$%%%**%&;O%%%**%%OO%%oo$$oXXX#:::::::::::::::",
":::::::::::::::::$$o%%**%%..%%%***%&;O%%oo$++XXX#:::::::::::::::",
":::::::::::::::::$o%%%**....%%%***%&&%%%%oo++++XX#::::::::::::::",
"::::::::::::::::$oo%%%*.....%%%***%%%%%%%oo+++++X#::::::::::::::",
"::::::::::::::::$o%%%*......%%%***%%%%*%%oo++++++X#:::::::::::::",
":::::::::::::::$oo++%......*%%%**%OO%..%%%oo++++++#:::::::::::::",
":::::::::::::::o++++......*%%%%**&;O%....%oo$++++++:::::::::::::",
"::::::::::::::o+++++......*%%OO**&&%%.....oo$+++++++::::::::::::",
"::::::::::::::++++++.....@*%&;O*%%%%%......oo@++++++::::::::::::",
":::::::::::::++++++......@*%&&%*%%%%%%......o@+++++++:::::::::::",
"::::::::::::+++++++.....@.%%%%%%%%%%%%.......+@++++++:::::::::::",
":::::::::::+++++++@....@..%%%%%%%OO%%%@......++@++++++::::::::::",
"::::::::::+++++++@+....@..%%%%%%&;O%%%.@.....++@++++++::::::::::",
":::::::::+++++++@++...@...%%%%%%&&%%%%..@....+++@++++++:::::::::",
"::::::::++++++++@+....@..*%%%%%%%%%ooo%.@.....++@++++++:::::::::",
"::::::::+++++++@++...@...*%%%%%%%oooooo..@....+++@++++++::::::::",
":::::::+++++++@+++..%....*%%%%ooooXXXXX...@...++++X++++++:::::::",
":::::::++++++@++++..%....*%%ooooXXXXXXX....@..++++X++++++:::::::",
"::::::+++++++@++++.%%....*%ooXXXXXXXXXX....@..++++.:+++++:::::::",
"::::::++++++:++++..%%....*ooXXXXXXXXXXXX....X.++++.:++++++::::::",
":::::+++++++:++++.%%%....@......XXXXXXX++++++@++++..:+++++::::::",
":::::++++++::++++.%%%....@...%&&&%%%oo+++++++@++++..:++===::::::",
"::::+++++++::++++%%%%++++..%&##&&&%##ooo++++++@+++...:====::::::",
"::::++++++::.++++@++++++++%&&#'&&&%'#%ooo++++++@++...:=====:::::",
":::++++++:::.++++@+++++++%##&%%&&&%%%%##o++++++@+.....:====:::::",
":::++++++:::.++++@++++++%&#'%##%&%%##%'#oo+++++:......:====:::::",
"::++++++:::..++++@+++++%&&&&%#'#%%#'#%%ooo..X::::......=====::::",
"::++++++:::..+++@++++++%%%&&&%##%%##%&%ooo..:::::......:====::::",
"::==+++::::...+@+++++X&;;;%&&&%#%%#%&&%;;&o:::::::.....:====::::",
":=====:::::...::::::::;    %&;%&&&&;&%;   o::::::::.....:===::::",
":=====:::::...:::::::: @    ;  %%%;  ; @   ::::::::.....:===::::",
":====::::::...:::::::: @    :@ ::::@ : @   :::::::::....:===::::",
"=====::::::..::::::::: @    :: ::::@:: @   :::::::::.....:==::::",
"====:::::::..:::::::::  @  ::::::::::::@   ::::::::::....:==::::",
"====:::::::..:::::::::: @  :::::::::::: @ :::::::::::....:==::::",
"===::::::::.::::::::::: @  :::::::::::: @ ::::::::::::...::=::::",
"===::::::::.::::::::::::  ::::::::::::::  ::::::::::::...::=::::",
"===::::::::.::::::::::::: :::::::::::::: :::::::::::::...::=::::",
"==:::::::::::::::::::::::::::::::::::::::::::::::::::::..:::::::",
"==:::::::::::::::::::::::::::::::::::::::::::::::::::::..:::::::",
"==:::::::::::::::::::::::::::::::::::::::::::::::::::::..:::::::",
"=:::::::::::::::::::::::::::::::::::::::::::::::::::::::.:::::::",
"=:::::::::::::::::::::::::::::::::::::::::::::::::::::::.:::::::",
"=:::::::::::::::::::::::::::::::::::::::::::::::::::::::.:::::::",
"=:::::::::::::::::::::::::::::::::::::::::::::::::::::::.:::::::"
};
