/* XPM */
static char *_7875_b54f4e9de36c86b6e962378f228079453e8e5375506f6ee6fac661721b29882f[] = {
/* columns rows colors chars-per-pixel */
"64 64 16 1 ",
"  c black",
". c #26131C",
"X c #1F2810",
"o c #303513",
"O c #3E3F14",
"+ c #3D1925",
"@ c #323C39",
"# c #511B2A",
"$ c #6A222F",
"% c #4D4E12",
"& c #6D6326",
"* c #8B2A30",
"= c #AC3232",
"- c #B85244",
"; c #9D935C",
": c None",
/* pixels */
"::::::::::::::::::::::::::::::::::::::::::::::::::::::::::::::::",
"::::::::::::::::::::::::::::::::::::::::::::::::::::::::::::::::",
"::::::::::::::::::::::::::::::::::::::::::::::::::::::::::::::::",
"::::::::::::::::::::::::::::::::::::::::::::::::::::::::::::::::",
"::::::::::::::::::::::::::::::::::::::::::::::::::::::::::::::::",
"::::::::::::::::::::::::::::::::::::::::::::::::::::::::::::::::",
"::::::::::::::::::::::::::::::::::::::::::::::::::::::::::::::::",
"::::::::::::::::::::::::::::::::::::::::::::::::::::::::::::::::",
":::::::::::::::::::::::::::::::$$$$##:::::::::::::::::::::::::::",
"::::::::::::::::::::::::::::$$$$$$$$$##:::::::::::::::::::::::::",
"::::::::::::::::::::::::::$$$*****$$$$###:::::::::::::::::::::::",
"::::::::::::::::::::::::$o$********$$$$###::::::::::::::::::::::",
":::::::::::::::::::::::oo***********$$$$#XX:::::::::::::::::::::",
"::::::::::::::::::::::oo*****%%*$$*%%$$$$XXX::::::::::::::::::::",
":::::::::::::::::::::oo%***%%%%=-$*%%o$$$$XXX:::::::::::::::::::",
"::::::::::::::::::::oo%***%%%%%==*%%%%o$$$XXXX::::::::::::::::::",
":::::::::::::::::::$o%%**%%%%%%***%%%%oo$$oXXX#:::::::::::::::::",
"::::::::::::::::::$o%%**%%OO%%%***%%%%%o$$$XXX#:::::::::::::::::",
":::::::::::::::::$$%%%**%&;O%%%**%%OO%%oo$$oXXX#::::::::::::::::",
"::::::::::::::::$$o%%**%%&&%%%***%&;O%%oo$$oXXX#::::::::::::::::",
"::::::::::::::::$o++++*%%%%%%%***%&....%oo$ooXXX#:::::::::::::::",
":::::::::::::::$++++++%%%%*%%%***%%......o$$oXXX#:::::::::::::::",
":::::::::::::::+++++++%%%%*%%%***%%.......$$oXXXX#::::::::::::::",
"::::::::::::::+++++++%%%%**%%%**%OO%.......$oXXXX#::::::::::::::",
":::::::::::::+++++++*%%%%*%%%%**&;O%%.......ooXXXX::::::::::::::",
"::::::::::::++++++++%OO%**%%O..*&&%%%...++...oXXXX::::::::::::::",
":::::::::::++++++++@&;O%**%....%%%%%%@..++++..XXXXX:::::::::::::",
"::::::::::++++++++@+&&%%**.....%%%%%%.@.+++++..XXXX:::::::::::::",
":::::::::++++++++@+%%%%%*......%%%%%%&.@++++++..XXX:::::::::::::",
"::::::::++++++++@++%%%%*......%%OO%%%%..@++++++..XX:::::::::::::",
":::::::++++++++@+++%%%%.......%&;O%%%%...+++++++..X:::::::::::::",
":::::::+++++++@++++%%%%......%%&&%%%%%....++++++..X:::::::::::::",
"::::::++++++++@+++%%%%.....@@%%%%%ooo%%...@++++++..:::::::::::::",
"::::::+++++++o++++%%%%....@..%%%ooooooo...+@+++++..:::::::::::::",
":::::+++++++oo++++%%%....@...ooooXXXXXX...++@+++++..::::::::::::",
":::::++++++:oo++++%%.....@...ooXXXXXXXX...++@++++++.::::::::::::",
"::::++++++::o+++++%%....@....XXXXXXXXXX...+++@+++++..:::::::::::",
"::::+++++:::o++++%%.....@....XXXXXXXXXXX..+++@++++++.:::::::::::",
":::+++++:::::++++%%.....@...XXXXXXXXXXXX...+++@+++++..::::::::::",
":::+++++:::::++++@+++++++...X%&&&%%%oo.@...+++@++++++.::::::::::",
":::===+::::::++++@++++++++.%&##&&&%##ooo...++++@+++++.::::::::::",
"::=====::::::++++@++++++++%&&#=&&&%=#%ooo..++++X++++++.:::::::::",
"::====:::::::+++@++++++++%##&%%&&&%%%%##o+@++++:++++++.:::::::::",
"::====::::::::+@++++++++%&#=%##%&%%##%=#oo@++++::+++++.:::::::::",
":====:::::::::::.++++++%&&&&%#=#%%#=#%%ooo+@+++::++++++.::::::::",
":====:::::::::::.....XX%%%&&&%##%%##%&%ooo+@+++:::+++++.::::::::",
":===::::::::::::.....X&;;;%&&&%#%%#%&&%;;&o+@++:::+++++.::::::::",
"====::::::::::::....::;    %&;%&&&&;&%;   o++@:::::++++..:::::::",
"===::::::::::::.....:: @    ;  %%%;  ; @   ::::::::+====.:::::::",
"===::::::::::::.....:: @    :@ ::::@ : @   ::::::::=====.:::::::",
"==:::::::::::::....::: @    :: ::::@:: @   :::::::::====.:::::::",
"==:::::::::::::....:::  @  ::::::::::::@   :::::::::====.:::::::",
"=:::::::::::::.....:::: @  :::::::::::: @ ::::::::::=====:::::::",
"=:::::::::::::....::::: @  :::::::::::: @ :::::::::::====:::::::",
"::::::::::::::...:::::::  ::::::::::::::  ::::::::::::===:::::::",
"::::::::::::::...:::::::: :::::::::::::: :::::::::::::===:::::::",
"::::::::::::::...:::::::::::::::::::::::::::::::::::::===:::::::",
"::::::::::::::..:::::::::::::::::::::::::::::::::::::::==:::::::",
"::::::::::::::..:::::::::::::::::::::::::::::::::::::::==:::::::",
"::::::::::::::..:::::::::::::::::::::::::::::::::::::::==:::::::",
"::::::::::::::..:::::::::::::::::::::::::::::::::::::::==:::::::",
"::::::::::::::.:::::::::::::::::::::::::::::::::::::::::=:::::::",
"::::::::::::::.:::::::::::::::::::::::::::::::::::::::::=:::::::",
"::::::::::::::.:::::::::::::::::::::::::::::::::::::::::=:::::::"
};
