/* XPM */
static char *_978_2009afd5afda2881ae041d195f61808d4697e94cb99dc4b436749d4fddc6eea8[] = {
/* columns rows colors chars-per-pixel */
"64 64 13 1 ",
"  c black",
". c #251414",
"X c #45283C",
"o c #663931",
"O c #8A6F30",
"+ c #DF5226",
"@ c #DF7126",
"# c #FFBC00",
"$ c #FBF236",
"% c #D9A066",
"& c #EEC39A",
"* c white",
"= c None",
/* pixels */
"========+@@#$$$#+@#++===========================================",
"====++@+++@#$#@$#@++============================================",
"===++@#+@+@@#$#@#@#+============================================",
"==@===@#$+@@##@#@#@+============================================",
"=======+##+@######@+============================================",
"=======+@$#@*$##$@++============================================",
"=======+@#$$**$#$#+++===========================================",
"========++@$#$*$#@++============================================",
"=========++@@#$#@++=============================================",
"==========++@@@@++==============================================",
"===========++++o+ ==============================================",
"=========== o+ooo ==============================================",
"=========== oXooo ==============================================",
"=========== oXooX ==============================================",
"=========== oXooX ==============================================",
"============ oooX ==============================================",
"============ XoXoX =============================================",
"============ ooXoo =============================================",
"============ oXXXo =============================================",
"============= XXoo =============================================",
"============= oXoo =============================================",
"============= oXoX =============================================",
"============= oXXX =============================================",
"============= XoXo =============================================",
"============= XoXo =============================================",
"============== oXoX ============================================",
"============== oXoX ============================================",
"============== XXXX ============================================",
"===========      XX ============================================",
"========== &&&&&&O   ===========================================",
"========= &&&&&&&%%% ===========================================",
"======== &&&&%%%%%O  ===========================================",
"======= &&&&%%    && ===========================================",
"====== &&&&&%  %%&&   ==========================================",
"===== &&&&&%%  &&  %& ==========================================",
"==== &&&&%%%%    %&&  ==========================================",
"=== &&&%%%%%% O &&  % ==========================================",
"=  &&%%%%%%%% %   %%O ==========================================",
" &&&%%%%O%%% %% &%O   ==========================================",
"&&&%%%%%%O  %%%    OO ==========================================",
"&&%%%%% %%%%%%%  OOO  ==========================================",
"&%%%%%%% % %%%OO     ===========================================",
"&%%%%%%O O O OOO ... ===========================================",
"%%%%%%OO         .X.  ==========================================",
"%%%%OOO   ====== .XXX ==========================================",
"%%%OOO  ======== XX.X ==========================================",
"%%OOO  ========= XX.X ==========================================",
"%OOO  =========== XXX ==========================================",
"OOO  ============ .X. ==========================================",
"OO ============== ... ==========================================",
"  ================   ===========================================",
" ===============================================================",
"================================================================",
"================================================================",
"================================================================",
"================================================================",
"================================================================",
"================================================================",
"================================================================",
"================================================================",
"================================================================",
"================================================================",
"================================================================",
"================================================================"
};
