/* XPM */
static char *_513_bf310fb9301bdcf82475513b61a98dc2a0a058c5b41b404ec4c3e941ad78c5f6[] = {
/* columns rows colors chars-per-pixel */
"64 64 47 1 ",
"  c #070709",
". c #070809",
"X c #09090B",
"o c #0F0F10",
"O c #131315",
"+ c #161618",
"@ c #181719",
"# c #171819",
"$ c #1B1B1C",
"% c #1E1F21",
"& c #1F2022",
"* c #222224",
"= c #262629",
"- c #27282A",
"; c #2A2A2D",
": c #2E2E31",
"> c #302F32",
", c #2F3033",
"< c #323235",
"1 c #363639",
"2 c #38373A",
"3 c #37383B",
"4 c #3A3A3D",
"5 c #3E3E42",
"6 c #403F43",
"7 c #3F4044",
"8 c #414146",
"9 c #44454A",
"0 c #47484D",
"q c #49494E",
"w c #4C4C54",
"e c #4E4F59",
"r c #504F57",
"t c #504F59",
"y c #4F5057",
"u c #4F5059",
"i c #505057",
"p c #52535C",
"a c #58575F",
"s c #57585F",
"d c #555662",
"f c #575864",
"g c #595A65",
"h c #565A69",
"j c #5A5C6A",
"k c #5D606D",
"l c #5F6070",
/* pixels */
"441:1*;1:<<;4<;:26<<49951:::<571107690631,5::9559091=;=5<56e5,=5",
"41:412981*,48w89ss0<15569dhhd0%35wwhhhgfu-%-qfwephh5%5;10ppwe55%",
"489ppsipi;*7pwsjgkp7;::5hddfd5%3eddhddddw=&,whewjhje5w010ddwdw*%",
"8wddggfqg;=qppjjgji<;39dtewtq:%5<8w97eqfw-=593ede06epdp:ew06wd=,",
"9wfdisqss;&38syy0e<$$5w9909d1%O-50dwwu01;%+*5:5559e055,%13w5=::=",
"94pe8de8,%$:3gq05w*$%55qt55;%+%<;<57751%O@+%%<::-91**%%;%+%*%;%;",
"42rsqy784=&5<wsw51**$*:3=3*@OO%O%O+&%$O%@%%*@oo+@O;%%%;%===;;:=:",
"@;;1*;34$%+##$&#%OO@%*@@@$+O$**%##@@+%&=:-:=*$+@-,1%O%%%=%*<j9:=",
"$;=@#==$&##$*$*&&$==;%o=;8480606<55526ww9533<950q82<%&@$%=;wj6;;",
";=54*&#$#&&=;:;;;=1;35wwq28wwww05000ewqw9wwqpap98884<*@$%:rewp0*",
"98sp<%*@&**;<1999wq90dfpiqwirddddeddhrqq9dtperreieq998*oO5dw4wp*",
"8wfdy7=O&=;58e90wedpdjjffpe9tetghdppq6wdhggfpajdagppiw;$@1q089p>",
"40jjgy;#;4880isdghdddpgggjat99qrywdwqejjdjjdgjjjgjjfq8;@&*8044w8",
"ewagji=$;495qp0fdsfdy0qtfkjjddeweew59fgwtddpww09pdhfi41=*@1:<992",
"09aydp<$;558erfddepiw9qpdsgjjgpde9weetwp9994249946w808;<&o%<46-:",
":4wesq*$<7wwewe88114;:8qwetadgdpp0fwfdw83>>4>-<<<:1984;6*%@=9;$<",
"10qq7q*#;4qp9053-=-=*-;199pegpdptwtagp52:*;=*-;;;44<85<4;@&:ww5,",
"107uw0*$=3p053<::::*--**<;4ppgfptddds4<><:;%--=*<4<;498<;@;9hpd0",
"499158$*&3e054:::-;:*%%*=:4eppppdgjdp1-3;;*&@&:;;;1<4884;$7wdhw1",
"$751::$&%<p05<:4<;*OoXO%%;49epedgggd03;;*=%Xoo%<1:<2;494@#4ghgh4",
"#-***:&%&,9w6:14:$XX  XX*=;36qsdjfde82<*-$XX  .=<1<419q4=$%hhhu3",
"=-863<:$&:0w9,36%     XX*=;4<8sdgfdw4<;-*XXX  . $:148qq<=$+edhh3",
":qgseq:O&,7sp446$X   XXXO:;45qdaggpq3>;;&XXX   .$;;58r9<#@O:wdh<",
"1sgsq81O;;3pq97y:X  XXXXO3366edphga5>1<:@oXX  XX<8484e81$@O%714=",
":sppq9-#=-8qq7<yw*XXXX X<;995ifeehp51584;XoXXXXX4q999w7;$O*=;%%;",
"<pkq6q-O%-4yyy0q0g<&oo*<41q64riedfq059949<oXX.X5fpwwp81*O#:=<=+%",
";9g65i*O%<8q9sqprfgepww588985piwwf9080844qq;*4sfswepf9,%$$=7yw1;",
"*=<8<<##%158ppygpdwwsw8:49884pwwwp9949849qwpfggfi9efg7:&#+&5jd54",
"O#*:O=%%%1<9iqpgs06q0914888<4q9ppe8944449899eseipesdp97=Oo;ydgu7",
"$,89<5=*%4<8iipsdgew5w5064<1098gspqw4440e9qweqppdeepw9,=&+,yyfq7",
"6is934;=#;:8siikdjtwp95401=4q8qfpdiq9494e00pwetfhuer70;=,$17qfw=",
"8qwiw9-%%%:1wsisagpawe554,;5189psfsi8202q9yepapdgse909=&&#;5<71;",
";00yp8$%O=:1wpssjdpepw97::=5=50tpdpw5>9:4repsppedjg0w<%@*@*$*4--",
"9ys8q4@%O$;1qwejjfpdp055:<**@:3:<:12<*=<8ewppguwdgh04=$%@&-;48:;",
":4pw3*$%$O$57epfjddfp941>:%O+%=%-**&*+O=q8etsfdqghe5==O*;*4paqp2",
"::04*O#=:=@=18psjsfgp0w7:;%%@$%%%&$;;*$*<88p9pfepdw>=*@*;44fspaq",
"*#;4@>==11:$->4gtddfeww4;<:::11:18w81;*=*19wwtfeehq:%:<1=>4sksai",
"%*68q2<*;ye$@>:yfadgqwe:<:;369997wqqp94=*:15wwheqa3*O*80*<1ippas",
"&igkpw4@:ee1$*4<ddddew5*5:<54<&OOO$14e9;%=:58qf09q:@%:0e%;:qqqgs",
"-9kkfp4*;sfw*#;1wpweew:31>56-OoXXXXO@;p4*%;495wee>;%:400#*=;qiw2",
",8ppyy1%>ps>>O%47tdew8<7159:XXXXXXXX O191*%<95w9p<@--qs>%%-*<87:",
"*4kpwy,%=qi<>-$;:sppw4891w5o    XXXXX $55<%%65w9q*$=4pq6#%*&*;%>",
"$-qp90,%&q888-%>=iwpy3e5wt>X    ..XX   6<;%@5955<*-8ywq4%%481-O;",
"-O4::-1&<qws9:$**qq9we77q6OXXXXX.. XXXo:5=*--595*&4yq0q;*=ssppq:",
"1#&=-%*=19iwq8$$$<4wq04866%X oX XXX   o<9:*:*:3&@-04w98>&3sgdpi:",
"&:;4::-$14r4<1:o$=4ew909wt4*oXXXXXXXXO8p95:;37:@@-440w8>;4pdypq-",
"&9qqyu6#<<iq4;%$@*15ww4wtdde1%ooXXO@=djw:9:1>q*+O20488q4=19qs8:-",
"*yyyy01*;040q1$@$-,;<454ttdddederseggdq115111,-+-<<4<<*#O;,<4:-=",
"<,0pwq1=$44;<=;$@*%@%%=<:115epdtddeq955215<><*%*&$4>>3-=*::***%@",
"-447q9;=*$$O$$#$o*$+#*=$+@%=;,156>:>*&&=%*=*%o%%O@&$@-63:=$@=@+%",
"###@-=&%@$=$@=*==$@***%+$%;%+%*%*=-=*&%%%ooO%%%%@O&&;:;>3;<3:*$@",
"#*,642<24099088764==@%:50wpde0eptrttdtwr655=*%=;qpipphgdtww95:%@",
"$1089iwwdfswisfft01;%5tdhgjldjjhhgjjjhdwtt6<%%>dggdefgffsadad3%O",
"*89wwsfgdfdp74qy091:$1edtddtpewwdggdw6dwdd25%%5hspwrt0909ttgp0-$",
"=480pesdwtgww8q1935=@3ddew590eeptdra0pttdq21%56ewweqw6556e6595-$",
"-186009pft08i98p615=%15669655q9q66965w6qe06=%<5ee9q8055511w669;$",
"*55565weq69169wwe11=%6w550656e065wt515106e5=%;e665555555960955=%",
"=5556ww555<55560w6<;*<qeq6ee095165551555e65:O5ee65555e650055,5;O",
";555556090q650q5621:%>weuw6069356656611e65<=+:065ew5555,w5,5,5:+",
"*56655qeww55e0,56;;=%<9q5w1566999096q95e65;;+=605ee66555<65551;+",
"=5:6qq66055156w5:5&=%511555<:<5<><59935>;5::+%555dw5655565651;=+",
"%555,166<<::=<11:1:%%:,1;55,1==;:125311:,5:*++*:6555555051551==%",
"%=;;:<=*<;;,;*====%@%%%%=*,;;;*=>=%=;:=:<=%%%%=5=:**;:<<,:%*%*%+",
"%%++%%%%%%%++%%%%%+%OOO+%%%%@@$@@$%@%*%%++*%%%%@*+%%%%%*%%%*%*+%"
};
