/* XPM */
static char *_6619_a79f8714184dd970e220b9b235eec4201ee05f08cc590737c217f138bc7b799d[] = {
/* columns rows colors chars-per-pixel */
"64 64 47 1 ",
"  c #141415",
". c #171718",
"X c #181719",
"o c #171819",
"O c #1B1B1D",
"+ c #1E1E20",
"@ c #1F2022",
"# c #222325",
"$ c #262629",
"% c #28272A",
"& c #27282A",
"* c #2A2A2D",
"= c #2E2E31",
"- c #2F3033",
"; c #323235",
": c #353639",
"> c #37383A",
", c #393A3D",
"< c #3D3D42",
"1 c #403F45",
"2 c #3F4045",
"3 c #414146",
"4 c #44454B",
"5 c #48474E",
"6 c #47484E",
"7 c #48494E",
"8 c #464750",
"9 c #474951",
"0 c #4B4B54",
"q c #4E4E5A",
"w c #504F57",
"e c #504F59",
"r c #4F5057",
"t c #4F505B",
"y c #515155",
"u c #52525C",
"i c #57585A",
"p c #4F4F60",
"a c #535463",
"s c #595763",
"d c #575965",
"f c #595964",
"g c #575769",
"h c #575869",
"j c #5A5A6B",
"k c #5D5E73",
"l c #5F616B",
/* pixels */
"::-==+$=*=**-*#**=&;:<<:=$=*=<<:;1<<<<,***:*&1,>344;=$+:=:2q,*+:",
";====;1<-.*=*-$=631*=<:,20q09<@>:31uaa6:1#o#8i7uuff4&-#=8qu99,=+",
"-<:<3q9qq#+:q18aauq>$$$:9qqqq;#:9uufsuu9>OX$9au9ffjq602=0pg9s8++",
">4080ag0g*+40wjjjgq=$=<auuqu9=$<,,w,<05a>#O*1:es734qapq=004<qt$$",
"<4paqjqsq&+:3uqy00-+o<q86aus:$o&:63<<02>;+.@$O*==>6><$;$;,2q:>=#",
"<<aq4g0>#O $:jq9<8=+O<2afqa<OOO*X*=@O#OOOO.Xo#o$#:;&&++$$+##OO &",
"<:8e,0,&O$o>,qs0<;O+o&8p1u,oOOo o+$$+ooo..$oo#Oo.##+$-8:*#&<@$O&",
"$<=:$=,#+ooOOO=$$Oooo&=<:;:O+o +Ooo+o   O*<3,1;OO  $$:48$ $,j<:&",
"O;$.@$$O+#OooOX.o ++o.+==+=*+ ;>*@*$o #3:$866$O.@o&&;47> #*0f-*=",
"&$*O&=o#@ O&&:. ++*++..+o+oo o:3=$+ O;<0;,=*=&O#$;,=3<4; *uy74:o",
";$O$OoOO.O&97: ;+::$##+.  o+=:<<=o+@%:**#***>#O0533=7;;#o,sq>,>o",
"3**:;$o oO,tq:O;084<<<=@ $:$;<1<X+$,:>#$=,<2<*o,i0>1<;*$O=671:>O",
":ouu6# o+109q&$=a6><1:=# %<041q, @:59<*1982244O#<316:*+O #;7>*;$",
":,ajq*##+0q94=O4aa53<1;#+@e0580>++<;$=<0963<pq#@*<40&*OO$*,=;:$$",
"1<gjq,*#*qq5q&.7ea59q4:+#;419q8:$o*$196quq0qgq:O=w7:O#O+  *>,=O#",
"*:ees>=#,9e<,o@6aeae0<:#9:10088:,o =a064agaqt9>@=,*&.X;O OO$,$o$",
"=915<<*$403<<o:3guaq,7$&e60sa3q04oO-2r2qt0aa7,3%#:: O:3@  @+;%*@",
":6<q91&$30<8=O;9aqa9<2+69q5gj300&o&-999qpqda<3,O%:OOO3y$$X**>%$+",
"=1043$#%1><*@=<a00pq:*=9qaukuqga*OO464a06qs6,&$X>*%#*w5=%$4w3>*X",
"+<53:OO%>+*O@<518pp0*$=gjqaaeaa1* +996aa40i,:*X#-34%3w0>$@3yfi7%",
"+o*$ooo&$+oO*,3643u1=#4gatu9qa0>&o-6-ajt9d2$.o,;:f>:0gu;&O,uuu5*",
"*o$,42$$+oO+*<6<23s,>%0apaq2at2*;O*-2hhar0$+ O>*i7*3qka**O%>3a0*",
"*;3auu*XOooO63t<90<<=:1apq00s4*<4#$>0sj63*$$.O3*w956aj4,*+$$*0>$",
"&,004a,.o O=6<t<uq1,#30aqggq5<43;#&60ss::>O#..,70ie0eq03*$*O#&&#",
"$1q9qs3O# o=;40:0a4*@4tpajt43>2;*$+4uiu:<$o#+o443duqaa;=&O:>;#O@",
"&uuuqa-O&.O Oqq:42:o:4dqgh4<4,=#:o:7u0;,$+==+ ;58qgkaa1,OO>u0:X.",
"$9aq,q##*$ oOiy,q&@@62ttjq,0=*+$;$*uw3=*O:;:# ;<akj059<,#O:9i3#O",
"*:$=$*#O=<*o@,7%2#o#920a9-<-O*03:$$t5*$X><<<= *1gq9334:$*O=qaq: ",
"#+O$##$o3>*$.O#@-#$O66d7<<3+;q7,:*O2$%.$<:<4*o+208<<=<*+&.*uqu,o",
"#,196<* ;9>1:#%O;6*O$q03&&*;fqr37:$OOO$>><88**$32<<-=:#o. :q54;#",
",ua515#o<5w43;7@,t;OO,,=-o:,s47-3*-.O*2qq0q4=#O+4<=,:;O o.$:,;=O",
";300e<$.>uqw37:*264&.O33&O=37s<,4%;$#92aqap6=$O+=$+$& X#OOo$O@O+",
"$82p8<@ >483i,:;q,s% o=;+O;44u>,=*-O*76saap3>$+O*Oo@+.#&<+ooo$+o",
"=pa<2;++$49=6>$464u>o OOo$11i4;*$XOO:3agq0::>$+oO X .$*<- o<8;+o",
"$<a0<; +=<8$;#;3630uOoXXO$;33,&*+X*:;aaa08;*:$ oo o@$<<,+++9e33+",
"&=<<=&+=8<<:#O3u3<95=OXXO#=*43>+O-;70ptg03>;$$o+X#$<<22>+++qaq<=",
"@+#+   +88:=$;473<qr=XXO;3=#*O#O@@;<2pqt<6*5;$+.*$8430<-= Oqj9,&",
"+$$O  .+20*+#40,6qq>:X##:i3f4=@o **>dppq6;;4&#$o=<03q84=# $9464&",
"$$+&&& .<2=$10y:ui,;+O##190ai35q-:o20qq21,<6$#@.1185<<4$# &63<1$",
"o +<<:.+:<#$7335qt;&*O@O=,9ja4sq2@@29tq29;:,$+ $8933<q:@O #=74;O",
"&o443:XX==O>*$;,5;$.@%.X;,5jgaa09>@#eq000;&:o$ O0649>2+...$#;:%#",
"$<rq74Oo#X#@*%#*+O.;;>.O*0quage3a2@@=*<77&$.$%OO<a:,:;#.XO$O@&X#",
"+0uu>3OOOO%1;$7;O.==01.o=eaeaq01ha,OO*3q7;.oO:<O,ah4,>*X *:<2; O",
"*t004,oO ;1,,5>O+*:,q1%O,qawq134j94-oO>,,oo;>16o-ae7%$Oo.;4yur;#",
">9uu0>X +19><,+o==5>f<$*;0f90413499:@$=%XO;:5u3O#6><&#O.o:6iiq2&",
"*1fay;O @141*+@#*3q1g1$+%0430,113q3:;:$oO*30507##8><O-#XX&qssr3$",
"%1j0r<+.$1<@O*==<aaga5@ =,;,9391<u011;$ $<,0qu9++:8:#,$X.&27u<#$",
"O9sii4#OXO=+$;;<8aau00$X*=<11096<au93%o.*:30qgq= $0$3<&X&oO-:&#O",
"=*eu4=$+o$ ==::$ea03i1;oo<*,<5u0<e0a5%  #,9qqs<% +;$q>* XXo@OOX ",
"#,<6:*$oo $39<=;5e<903;+o$#040f9249su,  #3qqaa,;+ $1u:$ XX .*3*O",
" O:*oo+oo+<q1=;93,3055=;OO@99qjq8949w3  $<jah,::oO*97;* o#:q97:#",
" .+#o +++*pq,:10,34u<3<<O =4q3s5<<<w1;  $<<a90<3+o=51$+X,ujd:3*o",
"  $*#o+++88:1<81>47y7<3;XX;;u1e<3<1>=*. O*q,4q,6 +<1;=$Oifj034*O",
"=$*:a1$+ >$<149<3443373*O  *,;1=*&O$O   * &;3<#OO@14**@#70w7>3$#",
"=;08qa<$ $=<1;q;,:>;<<>#XXoOO=%#O..      OO=$$#@o;:<$#OX*iq4;2%O",
"=3aqpp<*o+;:<=;$*:*+$&&O O@*O&O .  .. oXo+OOoo+o+;#=O @##,,3*O%$",
"10a3eq1=+=#*--++OoO+o@=*XO$$*3:*%***%XXOo.o    o@*o oO*$&O$O#O@O",
">faq0e<* $+.$*o .+;@o%,=$O.&O<<<,7y7:OO<;o&*O@&$#O $#-=#+O#093:+",
":ueaq0<*  o=8<:$>>* o>##**>*o:iti7y<>O-76<,@-4O >4df00:><9is0u7O",
"O,6u6e>O+$*89<0gy;oO,>7<203# +yi47y5<oX7ifriu>#:,ujsu7O&0jfu9r4&",
"O>5150=o@#e6<eau< O;>,;>33i;. =77,0y<o#:yyils:o:90u3>*OOuruq76<#",
"O3,33<1o#p01<q;4@ *3<7777yl,#X+yi3y,>&O;>3r7r=&*-6<,::#;;3;3,:oO",
"OO>:<,$ #<,>,;=*+   =;,*<<:3# .=;,44-O#o;=<4#*Oo;7*:*&*OOO$$=;oo",
"# *:%   X*;%;@OO&  ##&&#&+O* o+=%+##   .=;=+o#ooo#*OOo*-=&#$*%$*"
};
