/* XPM */
static char *_0795_dae46c94bd6aad529610fc3710b8dd3aeea2a917d7b4d98659e35ff7996239c9[] = {
/* columns rows colors chars-per-pixel */
"64 64 46 1 ",
"  c #141415",
". c #161619",
"X c #181719",
"o c #171819",
"O c #1B1B1D",
"+ c #1E1E21",
"@ c #201F22",
"# c #222224",
"$ c #262629",
"% c #28272A",
"& c #2A2A2D",
"* c #2E2E31",
"= c #302F32",
"- c #323235",
"; c #363539",
": c #38373A",
"> c #37383B",
", c #3A3A3D",
"< c #3E3D42",
"1 c #403F44",
"2 c #3F4046",
"3 c #414146",
"4 c #45454B",
"5 c #48474D",
"6 c #47484D",
"7 c #49484E",
"8 c #474750",
"9 c #4C4B53",
"0 c #4F4F59",
"q c #504F56",
"w c #504F5A",
"e c #4F505B",
"r c #505057",
"t c #53525C",
"y c #58565E",
"u c #59595F",
"i c #555562",
"p c #585764",
"a c #575865",
"s c #595965",
"d c #575768",
"f c #595769",
"g c #5A5A6A",
"h c #5E5E70",
"j c #605F71",
"k c #61606E",
/* pixels */
">>;*-#&;&-**>***;2--,22>;***;>3;;433353:-->*&22,666-%*$:->30<*$>",
">;*>;;43;+*,<913uu4*-2<<5tfay5@;175sysstt%#$7a6rryy2@;%-9tt69,;#",
":13wry0rr%#<t7tgsse2&&&3fti9q,#,9rysutty8&+=7ie7ssg9376-6ti5i9$#",
"1qiyssa7a&%7rtgghsr*%>6t05574&O,-3r33r7y8$$>42ra944rtyr*09449t%*",
"49ysri9tr-#:4tr77r*+O<9643>0;+ #,7r3393;&++*>&2436r33-1&-;50,,-$",
"4,t03i9:$# *;s77,7#O+23yt<,&O.+&&--&%%@  .o-,4*=%44%,&&*-#&%##X&",
"::7r:9>&+%O,-7a72-##+&47;3%X.XOO+&-3,;##o#$eie9*:%57ryt,*%%:=@$=",
"+--;#*,%$OO$##%%%OO#+;;,,:# X+&,tssit<O##*6gi98<*7rsytr7:+%,s01-",
"X;&O#&&#&27=;;-&<,*,**#:-*+%2<ihgiaa8<#+&36a694*@0ia697-#;-eg34>",
"=#;##=@&-tgiwsiit8t**<%#++X<tiiasgi09<%#><884a6#8is4t93&+:tt9it&",
";&#:#X#$,ggggstttagtii9&X+*add0giiie6$$#%;*92a&*sw0t05<O$,st>0t*",
"-%&,;#@Oaaqtsiiw0g7tgat2#+*0agid9iie2##%O#=&&>*0w8r<=$O#-,r947t;",
"##0t5#X4i769t599t7tsgtt,OO;idda98ea8<++&<&O$+%<99r7$#+%$$;47,404",
",4wqt&@;3<i037957qassr09$+%0i<<78344,o#9e8#+#*%0q<;=-72,-*;-,74;",
"44tt99%;><i384997t07t56<oO#99><<=<<4$#ir9hs>$O$,=&@O39sir$*;14&&",
"-1tr0;#=;8tt3,5t9r45q4*+ o#-##%@*;;,*=atagast+%$@@=97ris73##4&O;",
";703&-#O&=682;6,re6r9&+++$%%*#@$&$%&#*tkaahsk7O$%&498aaet,*#=->*",
":537::+oo#-&#%*99tr32.&$#8idfd0%#+$$*64haiaas7-OO16raiie;>=#+#,&",
":33;;#OX#+**+++#;422++-4dfaiae08%+O;26998t9ryr>+#60ai0a47;3##>2#",
"#,;;#+OO-9e8,#o+%;6*+;;<iidt09ie,++;679r856<<2O#;9st49gt36-$8ty-",
"+ ++OOX#4ee266OO+,;+&-,7680009r6,$+*>980>69t>-o-3et999g9,2>>3ee3",
"4o #XO&46e9et3*O.O.+$;,3,<>3>36;&%+*%#*-,&-<,#o26a9749r,*;-+*ya9",
":%O+ #-3agiae,&%#+O*66*$*62724,%O++#OoX+#&#*%+-3s04ti2>&&$*+&6t9",
";5%+XOtti9it2*%# o4aea99*-,%##@@$&69>9,&Oo+###,etr348,--+#*O #28",
"49-# 374tr992%#X#>r68ia9i:O+&&&*97t9t9d93$.o+>,y9u95,&-*%#;:#+#,",
"37q$o;<7r4r84*++,9gt996ast-+&%9u9tt9;3994r$++7rreyr3**$$$34r7-X+",
"-15oO;,:*62-&$--6aar66,thr,O#+u767>442,8374$$;u9tt1;##O%rt99t;OX",
"$#@Oo$*%%->%#&,,4**2,*;,963%+&<,2;-,89,2337>*@4,765%oO@7tt9rt2oo",
"  #+#$##&$#+# O%&&-*;,;-2,;o++O&;>&$>,->*-*@O*;1t2-%o$-r9,rtq4&O",
"o*3997st,:%#O.O#ooXX##%%*#oO#. +#+#&####@@*$OO-592*+#*79tt43:,##",
"1ry770t3t3-$O$$&26>-O%*#++3-+#;-.oO%# +++ooO+O%<y;@$-59r9,****-#",
"159tyrtsy,&+#,9ttt9;;#O##32rrt2e2&+++ &4,;$>$%$@<>+@,343%+oOO#%%",
"*78q0tt07,%&1iy79si9<- *2tstt93gat4#O*<awqww55OO%&O=*##OoOX+X&$$",
"5ri4935>-&49qwwwts66###*0it09i00rtr9,&*g5ifpww,OOO$##+#%**$<93*%",
"&:w93>$$&q59tw94-;6%#OO>>7e8<81<94342$,giwpii4w*@#&>959q<+4et8t;",
"=&44-*+#;*17>=;**;%++*+*>30e0e9966230;#ghiw4ffr%O&99agi0-;<dita5",
"@X#%OoX+1:,%&##O#%+o**##O%;4tttati9,96-<kj7wssr%1q9a0e3>1#4wdiew",
"O#&#XXO+++#@.##+O%*%=><%$+%320aaiisq6r3$isrt434$;44tt8t5#%1w0ews",
"O$##$*#&*+OO&+-%+O#<3>99<#$4:;<003<rtrr*&,i7991O%;:<8a0,O=>945gt",
"#O&rtttri<%#O;41&+O:340t9,#&-*46t9<977q3+<r4<4###;<>;4*#O$*=8q74",
"&@ria08994$ :794*++*>03989=#$*44:-&&**,%+%2#O##,O<8>#X.X$+&$;,1:",
"&30i59i9,, O5775,+$+#-24it;*O&-;#@%%#O+++%##-5rsyq=#$@&5;O$#&;#*",
"#0ii<8044-#&4rq5,+&$#OO<9i*&OOO##X #O+o.##>ryyygsr#+@;7w97141;#&",
"-t9680i44&&,7rsq;+#*7%O#832+ #;%-:,>-$o+&6srissgy9O@=r8w9sit9r9*",
"<9099ee8-#&44ws9;#*4tt+#++++;09ete982,o*ust23assq7#$44wiesttttr*",
"*1dw908<%#;r3qss#-375at%++#=9e899eie,%%;,7<70t335,#,51ww94ty9t5&",
"*1f<844-##>74trr%O:37rs3+o=<i;20ee992,&%,6r743;:1$&474iw1w47y4&&",
"$094<<<-O%<917,-@#,<3q74#+=923909<292*%%,,,245975.-1:,9>=>#*,&%#",
"=%;;-&:-O%-4-3:,+&;;r<:@##-<-<:46r,2;-;.O&;,53;:-&;%%%*$++####@X",
"%<%$%;*#O$%O#*&$+%*&%:#O.. $;=*%----*&#  +$#O+OO O##OOO#$##O#X O",
"XoXO%%#+OO#Oo$#$%Oo###+.OO%#XO#@+#$###OOO. o+O@@X #+%=&->&;:-#XO",
"X+-<>;-;,555433<3,#%o@&36rttq4wttrettr994::&#@%&7rttwagtt7943*OX",
"O:724999tsa9ruayr6;&O<tisgggsggfssgsgst0rr4-#O;ygsiwagisyystt,@X",
"#3499yassist1<7966;&O;qiritwtw09ysss73i0yy:,##,syt9qq7554rrsr7%X",
"#,47tqii9ts7937;3:<%X:iy0934909wrtqt5tw0y7;:+>40990591>13t3>4<%O",
"%:3<767tit52t32u3>3%O:>4333<15484344<547044#X=<704735<<1;;9334%O",
"%,;34<70714;4589q;;%@37<<33<3053>9q<:>:749<%O*974<<<<>313385<<%O",
"%,18170<,>;><>4873-%@-5t749q543:311:;1<<93;&O-9741<<191165<3*<*X",
"%3=:<<449773177,3:;*+-9rt74413,,<4,13;;93<-$O*77<45<1<<;9<-<-<%O",
"%;143,49991,q7;:3&&%O-4739;:3334384495>t3<*%o$3610884<<>-3<;>;% ",
"%:;599318>>;:39>-:#%#>-;<1>>*-1---344:1*%-;*X#>>10818<<>4<3<<*$X",
"#;;;=;31;;-*%;:;*;*OO*-=%>1-;%$&&;;<:-;&-,-$XO*;4<;:><<8>;<<;$$O",
"O%-*=-%$=**=&%%%%&#OO###%$=%&%#%=$+$&&%--%#OX#%-$*%$%*;***+#+#OO",
"$o.oO++O@OOXXOO+OOoO.  X+X#@XXOXXOO++#@OXX###XXO#OO@+++#@++#+#oO"
};
