/* XPM */
static char *_1542_42af947e7f78a415517d02a7bd91013a88884a6a5d4abdc027db50ea7346739d[] = {
/* columns rows colors chars-per-pixel */
"64 64 56 1 ",
"  c #050507",
". c #070708",
"X c #080708",
"o c #070809",
"O c #0B0B0C",
"+ c #0F0F10",
"@ c #0F1011",
"# c #121214",
"$ c #161618",
"% c #181719",
"& c #17181A",
"* c #1A1B1D",
"= c #1E1E21",
"- c #1F2022",
"; c #222224",
": c #262629",
"> c #27282A",
", c #2A2A2D",
"< c #2E2E31",
"1 c #302F34",
"2 c #2F3032",
"3 c #323235",
"4 c #353639",
"5 c #38373B",
"6 c #37383B",
"7 c #3A3A3E",
"8 c #3D3E42",
"9 c #403F42",
"0 c #3F4044",
"q c #414146",
"w c #44444A",
"e c #48474E",
"r c #47484E",
"t c #48494E",
"y c #454650",
"u c #474951",
"i c #4B4C54",
"p c #4E4E59",
"a c #504F5A",
"s c #4E5057",
"d c #4F515B",
"f c #505054",
"g c #52525C",
"h c #545562",
"j c #585762",
"k c #575965",
"l c #595A65",
"z c #555669",
"x c #565969",
"c c #5A5C6B",
"v c #5C5D71",
"b c #605E6D",
"n c #5E606D",
"m c #5E6272",
"M c #5E6078",
"N c #616273",
/* pixels */
"87736><7243484,37q458qr84<3340w48y00ii0834833uqqiie7>3:878ugw4:8",
"863877uw7-840pwilku48w8wikvcxi=80pivvvvxl,;,ixihhzv9:5>4pzjig97>",
"7wuhhxdhi<>8kixmNNg073,yxxccx0-0dzxvxzzzi:=4ihdiccvaqpt5izcici>:",
"qgxxxvxic2<udhvmNcg7<8phdpphi3-080dy0puzr>;7r8phauegllg<iuueak<<",
"igxxhxpxg7-7rxddigq>=gpuiuih6-#,8yp80i06<;;37<9w8wt88>5:<3wi483>",
"r0zdwxpr<;@80cpi8i,-=qwhx00<&=-3<3<<,:-#$&=89u41*43*>;;:>*=*%%%1",
"87id8hi<:<$03dxdt0*==,tp8i,=&=-=-38w83-<;-3hxhu>7:qtgglq1;:1>;;3",
"=7<4,48,,--6-*>27**:=33870:#&-,wcvcpd8$=;<dcgir84qulgcll7=>7liq3",
"&:>$-:>--:du02>=;$480<>777;,wwlvchcjiw,;,rqgyew<;wgkiet7>55fb79q",
"--2,,3@-<gmgsk3-*:gckhr;%=&9fghghhhcce,;4wrrwpy;6wgwd00q:9ggfgf:",
"2<:8,--*8mvzdl0--ikhghhq%=7lcjghiihcg,,=14,i8e,>40rrwq4*>qlpqig:",
",=-06-*-cnp0sst:3chpcxli8;ekccgk9ekje,,,=;<><<;:;<u82:*:7qiiqwf4",
"==8pi-*ix0wwd0;;dhhcvchcr<uckchi8pkpe;:183=>:<=$,08>:*<,>7wt7qfw",
"&3ipd2:8u0giwq;3ghxcchuxa1rlgpighieii*>igu1;<->&;<444gtq73745tt7",
";qpius2770hww,&8pkgghiicg,8girhhigiip=gahvvi2*=$:<>;gbczh>37qw,4",
"<8pis0>24ids4=2sphiddpgdk;8hphcuzihg94gacNcxz<<<>>7xNccvpr::t1*3",
"7iuu87>;5qwt7:5gttdgrphdg=5ddhpriupg::0MvvMvvy=w4qiNvvxzh84=11;,",
"8i8hgq:*-:5,-=7wgfgi0ixhl*6sgduq8pgp-<0czzMvv8,#<tcvvvzd686;=#;,",
"0iurw;:*,:3*-:,4wgrrpqzhg;4wdpwyiyp>=2y8ivzzvp,=rcvcxahei8y:&;8=",
"2uuq>=;=7gi65:,54q5iyuipw,,igyqihq0>&4i8izzu83;1vccapgzzpi1;1wh8",
",>3>=$*:qxliit>375qyiwhpi:*iw8777w<$<880pzzy8;=igadzpaviut5*8azu",
"i,=,**>ycdgxlh7;;>uqipzit*;w883<9w=+-4888zzy,=1iypzhypcp74**,hcg",
"q55>#;4glgglclg7=>8updpi3**84<2<6:&#@0818yd<;8uhhzua8pz83$>;,pcg",
"7u5=$*gclhgicnni4;<4iqwq,$$*,=&*#++++4<=,8y=y8azhgiywy8>;;5;%;wp",
"ih6>#4iuhgigfnnkh7;4,31>*++##o.   O++%:1;;6=178pydpr40<,3>qq;;:9",
"tig:*4q37iigsftgci>*;4;*$OOO  .    . O+##O#,488ph888<,3748ihs3*=",
"4wi**0eq7qq9979fcvh;;**+O O           ..oo+$<46d4<<<-,30xalgk7**",
">=;**7ggggw7tw77ahi<@OOOX X            .. .#<<698,=$=2iccchdgw$$",
"$#**$>87q7iw7w937g7;OOO XX.              ooO=:18:#=,phdxmckiig4*",
"*:,34,:::,,qw549>37* OO                    oo,>=+=6zdidxddhhgg<;",
"*>5glchuw51::339q>,X                       oo###;<i8i0iphiwkgg6;",
"*>glirhlxgghw4->;1# O  X                o    oo=<iw8030ddiugfi2;",
"=8pgyiahkzcvh7>:**$           .         X     +=49y9,6600wuwiu5*",
"*qpi888dahzzgp9>$#O                           o#<8i13qqiiggdr7,*",
"=98upy84eiuehpw7#OX    ...                     oO<8<4eqwsw861*;#",
"=<q6i868868hgqq,XO X        .           X  X   X.;><33,>>>;**%##",
";<ui68epi9phiq8*OX.     .                     X OO===*:;>>367,-O",
":8ipiyup878pw6>O    ..                          o+=>60fgdwsgp6:#",
"#*==873<64485>;X.oX. ...    o  .      .   .     +$:wghhcnnnx07;$",
"#;;;>;;;<<887;%.OX  .        o   X .     .X     +&qcxhxxxknhtt-*",
"&=;3>;,<>,;;=#O      ...            o  .   .X  XO-uukndidnhxsq;*",
"&1wqggilbggll*+X.   o.O.o  .o  o.           .  +O3u40ihhkhxuie:*",
";1pqplbmgglht-+OoX.  ....   .  o        .  oX XX$2000hxhgd00st>*",
";8hgiughccgfq:#XO .. ...   ..oo o.    XX.    XoO&30ihnmnhhisd0>$",
"=9fqqqwiigpt02=OX OO OO ..o.OOXXooOo.oXX  XoX.OO#-0hh0kskkhww2>*",
"*9tw7fqtwi72q<$OOOOOOX.OOOOOOOOOO+OOo++XX+   oo#@,4drir00tdgt6;$",
"*7w7577w4w877=#OOOO@OOO++O++++OO+++#+OO++oO+Oo+#$324w0600tsgq4&&",
"#,7wpw798gi6>*++++O#O++O+@###$##+++O++++++##++#+@0<00007807<4,$&",
"#,2w71757w43:%#$+#+++*%*%**$$%%#@+###%++OO#OOOXO@>2-3>,1>>::;*%%",
"#--:><3;;;;;%$**#=%%:*;==%$$*$$$##%%%#**;$###O#*$-2-*$*%$*$%;*$=",
"%**:**=*>;*=;19>:3=;;**=;=>>*;;14q>*;;****+O#$;;@$:-33,<5455<;==",
"*;gqjxhhlchfggga94<:=;<w8ueiirhllggfpw5q7>5<3:,,uddxglxlggjir<*$",
"$2bbllhhvbbbccccgq41*4pjccvvacvjlblglgiqggt5>37gnxlphchljlcgg7*#",
"%5ggiggkhkhiugkbgw41-4ijfhhaaapiglbgtqgflg57;5plggtdgyewwfglgr=%",
"*,9tgifirehriee9t97:*4jgai9yiaiapgfgwgaggt46*5wpisiruq7qqgq7w7**",
"=:w7trtghar9aw9gq5q>*47q99999yreqqww8twufqw:*19tsqiqt87q44iqqw=%",
"*:5qqqtpuqw4qruif44>=9e97qw7qstq7ip9475twi7,*<itw88868qqqqyr77;*",
"=>qtqiiq775597wetw3,;3egiwidtq95qqq74988fq5,%4ttw888qi99tw8q38=$",
";31589wwteiqqer79552=2ffgtqwqq779q79q54iq94:*2tt8wr89884u91837;%",
";,qw97wiii97ie449>>:*4qtwi65qqqqqtwwuw5gw7,:%:qwwpiyw8664q8454;$",
"*<5tttw9t5545qi525;:=7447q45247433qww592,35,%;478iewr887qqq87,**",
"*33414q94331,454<42==<22,7q35::,,459544,353:%*<5w844778r74784:;*",
"%-3<14>>3,<1,>>>>,=*==--::2::>::2:-:,<:3<,;*%=>1>1>>,<3<2<=;*;**",
":%%%*==*=**%*****=%*%#$%-%--%%%%%***=;*=%*;;-***;&*====;;;=;;;**"
};
