/* XPM */
static char *_18ba14d47f24381d2f0becda4a143d8[] = {
/* columns rows colors chars-per-pixel */
"64 64 246 2 ",
"   c #0D1508",
".  c #101206",
"X  c #161707",
"o  c #1C1505",
"O  c #1A1709",
"+  c #141C0B",
"@  c #1C1B0A",
"#  c #261606",
"$  c #251B06",
"%  c #2C1B05",
"&  c #231E0B",
"*  c #2C1C0C",
"=  c #341D04",
"-  c #3A1E05",
";  c #321D0B",
":  c #3A1F0D",
">  c #261E10",
",  c #182204",
"<  c #15240B",
"1  c #1C240B",
"2  c #162A0C",
"3  c #1B2B0D",
"4  c #1D320E",
"5  c #1F3C0F",
"6  c #1C2411",
"7  c #1D2D11",
"8  c #1E3311",
"9  c #1F3910",
"0  c #292206",
"q  c #24240C",
"w  c #2B230C",
"e  c #232B0E",
"r  c #2C2B0E",
"t  c #342206",
"y  c #3B2305",
"u  c #382A05",
"i  c #34240B",
"p  c #3B250B",
"a  c #342A0C",
"s  c #3C2B0D",
"d  c #22330E",
"f  c #2B310E",
"g  c #31330E",
"h  c #3C330E",
"j  c #242512",
"k  c #2C2412",
"l  c #242D12",
"z  c #2B2C12",
"x  c #282F1B",
"c  c #352512",
"v  c #3B2512",
"b  c #342B12",
"n  c #3C2B13",
"m  c #372D19",
"M  c #223413",
"N  c #2B3314",
"B  c #243B14",
"V  c #293916",
"C  c #2D341A",
"Z  c #2D3B1B",
"A  c #333413",
"S  c #3C3414",
"D  c #353A14",
"F  c #3C3A15",
"G  c #34351A",
"H  c #3D341A",
"J  c #343B1C",
"K  c #3C3B1C",
"L  c #383D23",
"P  c #431F04",
"I  c #432504",
"U  c #4C2504",
"Y  c #452A05",
"T  c #4B2C06",
"R  c #43250B",
"E  c #4A260C",
"W  c #442B0C",
"Q  c #4B2D0B",
"!  c #522805",
"~  c #542A05",
"^  c #5B2B03",
"/  c #522D0B",
"(  c #43320C",
")  c #47370D",
"_  c #4B320D",
"`  c #53330D",
"'  c #5B330D",
"]  c #5A380E",
"[  c #432611",
"{  c #432C13",
"}  c #4B2D13",
"|  c #422D19",
" . c #4C2E18",
".. c #542E14",
"X. c #542F18",
"o. c #443314",
"O. c #4B3314",
"+. c #443A14",
"@. c #4C3A14",
"#. c #443419",
"$. c #4B351A",
"%. c #433B1C",
"&. c #4C3B1A",
"*. c #533413",
"=. c #5A3414",
"-. c #543915",
";. c #5C3A14",
":. c #543419",
">. c #5B3519",
",. c #543B1C",
"<. c #5B3C1A",
"1. c #642F03",
"2. c #64340B",
"3. c #683509",
"4. c #6B350B",
"5. c #763909",
"6. c #623613",
"7. c #633C15",
"8. c #6A3C13",
"9. c #643619",
"0. c #633C1B",
"q. c #6B3C1C",
"w. c #733D12",
"e. c #733F1B",
"r. c #4A3B22",
"t. c #533D21",
"y. c #5B3E21",
"u. c #693D20",
"i. c #723F20",
"p. c #264216",
"a. c #284418",
"s. c #2A441A",
"d. c #334517",
"f. c #3B4324",
"g. c #3B472A",
"h. c #49421B",
"j. c #584319",
"k. c #5C421D",
"l. c #64431D",
"z. c #684318",
"x. c #6B431C",
"c. c #6C4A1C",
"v. c #72431C",
"b. c #7B4518",
"n. c #7A441C",
"m. c #734A1D",
"M. c #464729",
"N. c #544223",
"B. c #5D4321",
"V. c #5B4B22",
"C. c #584C2A",
"Z. c #54512A",
"A. c #454D31",
"S. c #495536",
"D. c #555839",
"F. c #644422",
"G. c #6C4421",
"H. c #644A24",
"J. c #6C4C23",
"K. c #694C29",
"L. c #744321",
"P. c #7B4522",
"I. c #734C23",
"U. c #7B4B24",
"Y. c #734D2A",
"T. c #7E4F28",
"R. c #665526",
"E. c #6C5125",
"W. c #6C542B",
"Q. c #745324",
"!. c #7B5326",
"~. c #73532A",
"^. c #7B542B",
"/. c #755A29",
"(. c #7C5B2C",
"). c #675733",
"_. c #795931",
"`. c #5B603F",
"'. c #7E602D",
"]. c #7B6136",
"[. c #5D6443",
"{. c #6A714E",
"}. c #803F0D",
"|. c #84481A",
" X c #834B24",
".X c #834A25",
"XX c #894D24",
"oX c #835326",
"OX c #8B5225",
"+X c #895A26",
"@X c #84552A",
"#X c #8B542A",
"$X c #845A2C",
"%X c #8B5B2D",
"&X c #94552A",
"*X c #985729",
"=X c #935B2B",
"-X c #9B5B2C",
";X c #825C32",
":X c #885F37",
">X c #975D32",
",X c #A15E2E",
"<X c #83632C",
"1X c #8A652D",
"2X c #8C6B2F",
"3X c #95672E",
"4X c #9C632E",
"5X c #8A6433",
"6X c #886734",
"7X c #8C6B32",
"8X c #976735",
"9X c #936D33",
"0X c #917031",
"qX c #957233",
"wX c #9B7434",
"eX c #9D7934",
"rX c #9A7638",
"tX c #99763A",
"yX c #A4632E",
"uX c #A8632F",
"iX c #A2702F",
"pX c #A56331",
"aX c #A56B34",
"sX c #A96935",
"dX c #AD6A35",
"fX c #B26D35",
"gX c #B36F38",
"hX c #AA7737",
"jX c #A17C36",
"kX c #A37D3A",
"lX c #B47339",
"zX c #BA743A",
"xX c #B67838",
"cX c #C07A3D",
"vX c #8B6F42",
"bX c #8C7343",
"nX c #957347",
"mX c #A97644",
"MX c #A78238",
"NX c #AB853B",
"BX c #AE893D",
"VX c #B6853C",
"CX c #B28A3D",
"ZX c #B48E41",
"AX c #BA9343",
"SX c #C09644",
/* pixels */
"` ' *.` T / ` *.` =.<.` Q O.j.( V.+.o.h.h.L G f.l S.s.S.M V g.A.f.`.J G ).bXH &.w b v l.8X%X*.o q N.,.,.0.<.!.l.O.} @.-.O.;.=.7.",
";.;.~ T =.` ;.J.T ;.Y.I T ~.B.h @.o.S F #.G G b l L V A.V l [.A.f.[.G A K bX%.&.o & j a { O.b w b V.B.,.=.x.@XU.<.s @.) _ ` 7.7.",
"7.` T <.` / Q ~.` U I - W nXs ) ( S H S &.N.C.G l L Z S.Z N A.g.f.Z.G H M.vXj.z < < + O b @.S #.%.k.H.=.;.x.0.I.;.S @.@.` ;.z.*.",
";.=.;.J.7.I I T y = l.` { ].s W v a &.W.6X9X(.G G N A.g.M z L m N h.%.A N.t.z 8 8 + + 1 A S k.:.O.` ;.;.7.0.;.l.o.W.k.o.<.=.$Xz.",
"x.T l.l./ = R 9.:.L.@X/ r.[ - W n W.qXrXkXNXtXr.m z S.L 6 j # # w H #.n r.j l a.B M l d z s ;.I.;.-._ ;.!.Y [ O.%.(.j.k.-.q.+XI.",
"0.I l.` T v.>XP..XsX>X[ r.T Q i k.eXkXeXZXNXK.| m S.S.j X # [ :  .E  .[ n l 4 4 8 M s.B q i l.!.` Q ` 8.mXR p s +.-.) ] -.z.9.I.",
"-.H.7./ 0.>X#X-XsXzX&X; - Y : i J.NXwXNXCXY.> m C {.L v ; X.X.9.u.[ >.9.{ 3 9 B B 9 s.l + { ;.!.Q _ ` z.hXG.v o.h h W ` ;.9.;.x.",
"j.~.*.7.L.#X8XVXhXhX9.* y R : :.(.AXCXhXJ.w > C A.g.t.>.X.>.i.-XP.9..XL.o.M B B a.a.7 @ { a } v./ w.m.=X@XY.j h.o.h ( ;.m.} Q O.",
"j.;.` L.=X4XhXCXrXU.[ = Q R v [ aXxXwX>.. + r.L A.<.b. XU.&XuXuXq.i.XXL.s s.s.B a.2 . Y l.} E / b.4.4.q.*.$.f F g S ) 7.hX[ R { ",
"( W ;.%X3XNXCX6Xt.c c = Y i q j ,.a O j + j L L | u.uX-X-XlXdX4X..9..XP.j.d.9 M l b k.* ;.*.y ' OX2.v.-XI.D N D r h ) z.8XG.p +.",
"+.s l.+XaXwXQ.n c v * p y 0 l 2     2 7 L g.D.m 9.lXfX-XgXhXaXoXX.i..X.X!.b . m S (.(.* t 0 % *.z.|.n.4X@XV V A D ) j.oXoXY.w h.",
"h ( Q p O.} { y.K.).} - y c 3 3 < 2 V m M.g.r.v %XxX3X0X'.'.H.h.u.P.,X&Xe.# k { #.H.$Xp z M 8 b Y.aX|.OXoX,.F G +.j.z.b.>.&.f D ",
"g ( Y ` ] Y.' Q.J.y Y } = i h s a o.:.N.L M.} ; ^.eX6X/.j.h.h h.B.oX>XP.>.: : v % :.;X-.V M M M K _.|.T.w..Xv.L.U.oXXX*XI.D G A ",
"h s Y z.v.8.8.] y % I ,.% - p W t c r.L r.| i O.(.7XR.h.h g h.j.-.:.q.9...L.X.R { *.I.I.+.4 B 8 B B 7.|.4.XX#X@XoXn. XXXG.g D h ",
"( _ ` oXoXb.~ 2.# = ;.B.y W Q p q l L L D.g.A W R.V.h.h h ) V.@.{ R P..XP.i.i...[ E *.!.T s r 3 3 N l.|.5.5.OXw.XXOXw.8.|.=._ +.",
"6.2.3.b.OX1.! 2.= y $.{ { n { z j c r.D.g.g.f u Z.h ).h.u ) j.W :.OXsX,XXXe.i.9.Q I Q J.m.=.` p { *.+X*X|.1.5.b.4.#X2.=.w.b.8.6.",
"' ^ 3.|.3.1.3.y =.-.B././.J.$.i $ a n M.b r.p a s t N.o.0 l.{ U.lXfXpX-X,X-XU.7.T _ T Y G.v.8.v.U.q.#XpX,X|.}.U : w ; R R .Xw.4.",
"w.1.1.1.b.z.y m.8X<X1X6X7X(.K.-.; a m j $.t.Q R I Q s % ( N.>.pXfXzXfXfXpX=X=.T T u T Y =.I.OX#XoX#X4X,X-XOX=.0 6 + + O y / 4.1.",
"^ 1.1.v.v.' !.rXkXqXqX7X9XtX8X0.* &   . v 9.R Q *.` T Q s [ -XzXzXfXaX=XoX0.y Y y Q _ U Q L.Y.T.U..X.X>X&X9.@ 8 7 < 6 1 q = ^ 1.",
"^ 1.~ 3.Q @XkXjXwX6X6XqXZXMX^.| $ 1 + + i >.0.X.=.} Y Q Y ..zXzXyX&X!.c.I.<.Y t t T T ;.} :.*. .y.9.9.L.z.c 2 5 4 8 4 M 1 = ^ ^ ",
"1.1.^ P =.jXkX8X7X7XMXCXZX4X>.& M < 6 n ..e.9.9.i.E R y W n.4X+XoXz.z.c.Q.;.u y W Y ' _ *.:.>.[ ..:.E X.| j 4 5 5 8 p.4 @ Q 4.^ ",
"^ 3.U Q 8XAXrXqXqXrXwXqX1XU.w 2 8 3 { q..XP.i..X&XP.[ p p ;.=.;.] ] l.Q.Q.l.y y W ( _ t v $.>.9.u.} >.q.{ l B 4 4 p.s.7 X } 1.^ ",
"' ' - / kXMXkXjX9X~.F.G. .[ q 2 7 A ,X*X-X&X*X&X-Xz.R - Y O.Y z.z.c.m./.I.l.s s u u q X O v G.XXu.9.P.e.{ B 8 a.a.5 7 w *.=.2.! ",
"I y - 2.^.$X(.&.{ m n { v p q 2 2 -.zX-X*X.XpXsX4XG.i ,.{ B.` Q.c.z.c.m.c.k.p i z 3 < X j H L.OXu.9.XXq.{ B s.a.5 8 # U U.q.~ w.",
"Q - I R i I I W % a n n u n +.3 4 l.lXfX-XpXhXhX7X-.$.vX( Q.j.c.m.c.Q.J.c.,.b @ 3 B 7 1 c &.Y.U.>.9..XP.k.d.8 6 6 p ! 1.1.L.~ w.",
"R - ~ U y U T _ t n @.( o.o.g 2 2 8.fXuX4XxXhX3XE.n K./.T j.2.Q.j./.W y.F.&.q + 4 M 3 l S V.W.q. .i..XXXm.z O : =..X|.5.1.#X~ ^ ",
"I - ~ I I T ` y 0 { O.( s ( b + . =.fXzXfXxX1X^.t.i vXk.` _ l.<.z.,.o.-.k.k.q < M B e N D h.%.$.>..X&X-Xe.* = >.U e.3.5.b.w.1.^ ",
"! U ! P y ` T t c i o.#.o.s b * = .XfXzXzXwXJ.| v W.bXt _ *.W $.V.$.H.#.*.-.b M M M d M d.M 1 | .X#X&XP.>.p [ ; : ' |.4.^ =.4.^ ",
"~ ! ! I y E p w # & 0 { s O.} [ E XXgXcX&XG.$.n O.].nX( W # a K.N.#.6XO.-.$.w 8 a.4 M 4 x 7 > X.Y.>.u.9.>.q.X.R E ..4.n.1.R U ! ",
"! 8.U I p 0 O X + < j b -.O.o.{ [ *XgXU.} n i #.H.l.~.@.; k $.J.&.Q.jXJ.>.{ w 3 a.B M a.a.x k r.y.[ P.XXP.u.i.>.E P ! e.q.E E U ",
"P 6.` p O , 2 7 8 8 7 1 a ,.W p [ .XP.v v } j.-.k.,.p :.; #.5X6XW.9XkXY.n v @ l M B s.s.x x | r.9.XXpXpXXXP.n.*...E =.' .X=.E P ",
"T R ;.a z 3 3 7 7 7 8 < n $.-.{ [ | X.O.| <.,.-.B.n % } v J.eX9XqXZXqX[ @ X o r a l G j m r.$.P.dXdXsXpX-X,XP.6.' 6.8.9.P.../ - ",
"/ Y $.a N e 8 M 8 p.s.B n } -.O.<.} -.u.{ ,.<.:.$.: } v n 9XBXMXMXAX9Xn 1 o y _ _ u s $ i $...,XzXzXdXyXyX=X=.=.;.7.v.oXv.' T Y ",
"Q O.R r e e M B 5 B 4 C -.x.0.G.l.,.:.<.<.s :.e.[ >.P.c t.wXBXBXZXCXl.o + # Y Y T T ` I W [ XXfXcXzX4X4X@X9.Y *.T 6.b.n.*./ Q T ",
"Q Q _ a r d s.B a.M b { l.y.l.G.B.F.<.<.:.[ u.XX9..X-X>.B.E.CXZXAXwX{ + < $ _ I W } Y Q Q  .fXlXaX=XoX^.v.=.W T _ z.v.=.I Q y y ",
"] Q k.W r r e z k b $.<.0.G.l.G.0.F.<...>.XXL.&X.X*X-X9.{ W.ZXBXZXJ.@ < 2 @ _ *.>.I - W Y U.-X#X^.G.L.I.l.9.) Y Q ;.z.*.Q { Y Q ",
";.Q F.W a v n { s =.0.x.I.G.Y.Y.G.Y.y.v 9.dXP.*XpXuX*Xu.* J.ZXkX$X> 2 2 M r p ` q.7.R t s ..=.-.>.F.J.L.m.0.y W _ *.;.<.O.p Q Q ",
"` Q =.[ [ 7.O.X.X.=.0.v.x.L.T.Y.^.Y.t.n 9XiXdX-XpXdX-XX.* #XxX!.n 6 M 7 g O.Y.F.U.7.p - [ I -.*.B.G.l.G.J.;.s p W O.@.O.p W W Q ",
"_ Y Q } l.W R ` { T *.;.0.T.@X^.$X_.| t.9XVXfXsXdXgX&Xv :.U.,.q 7 2 2 z :.,.6X5XI.<.v } y n k.,.l.l.l.k.(.J.t s A A H s 0 p y I ",
"*.Q Q 0.0.Q R _ ` Y ` ` <.q.$X%X:XY.:.r.1XCXxXlXpX=Xu.v 9.{ 1 3 7 + q o.,.<.vX<X!.:.....{ &.V.&.j.N.@.O.H.N.q @ l D G b 0 a t _ ",
";._ W <.z.Q R Y W Y T ] ] _ F.^.@X;X~.F.'.AXhXiX+Xx.F.k.{ 0 .     O W o.,.Q.5X(.~.{ u.P.@.N.+.N.%.&.a n N.&.1   d d N A r 0 t W ",
"*.s * 0.x./ R Y T y T ` T W Y *.G.@XY.B.(.MXNXhX^.l.l.l._ % $ $ * p -.*.J.$XQ.~.<.} #X4X{ b h.S #.b c b S C.o 2 a.d N A e a w u ",
"S $ * Y.p } R / T y y y W Y p p y.^.c.F.k.qXeX7X0.z.j.l._ y % * % } <.x.@X+XK.#.$.7.aX3X0 H $.n ,.n ,.c S ).c B M B d l N z q r ",
"#.$ Y <.% I / T s W y I s y y *.F.Y.0.F.-.l.Q.j.O.-.*.;.@.= t % ; :.L.@XY.<.,.-.J.2XwXB.@ c m K.j.r.<XH e r.0 d a.B M N M N 6 j ",
"s % ;.<.= R ! 8.X.u I s = y $.^.5X;Xk.,.{ s o.0 n n s o.@.i p % = 0.@X<.v : F.~.9XeX~.n * c &.E.r.E.kXH.q k * 3 p.M V s.M 6 k j ",
"s p Y.Y : = ..` @XL.q.;.O.} Y.5X8X5X,.w q q r b r A q u o.( s i ; 9.0.* > ,.wX7X<XN.> ; v  .6X1XF.qXkXQ.; & . 3 p.a.B s.l O n m ",
"p p 0.= a r $ p >.v.n.8.U.8X8X8X8X:X&.z 1 e 1 l e q e e u O.( a i w q q O V._.N.z O # [ v ~.wX9XqXNXqX .j X @ 3 p.B B N j k n n ",
"n Q p ; q 3 2 O m I *.T U.mX8X8X;X_.H 1 3 1 7 3 3 M d M b ( ) h w x N l j C x j n # } [ | 7XBXjXBXAX8Xn 1 + 1 f p.d l @ w n $.o.",
"{ -.y * e 8 B 4 l o % y ;XnX&X%X;XI.H l 2 7 8 d p.4 d q h ( u g M 4 G N , L k q.R X..Xc $.qXBXZXBXAXJ.& 6 + z V d @ @ $ #.k.W.t.",
"( W % ; $ d 7 8 B 2 j $ K._.T.@X$Xz.D 2 2 M M a.B d q a ( ) ( a.J N e G w c u.&X9..X-X .<./.NXZXAXkX{ + < + a w & r b #.~.Y.^.K.",
"-.a u * 0 V 8 7 M B V 8 G $.^.m.$XJ.A l l 7 l 7 q b i ) ) ) D M F N n  .:..Xv.&X.X-X-Xu.$.K.CXCXBXH.@ < 7 3 @ w k C.F.:X8X;X(.~.",
"#.w r $ { N B s.M M B 8 4 M.F.^.;.^.t.k w k c n o._ W @.) ) D a.f.M H [ 0.yXU.*X&XdX-X>.; J.CXkX(.* < 7 2 e j b %.R.k.6X5X5X$X~.",
"%.A h.r ( %.V B 5 M 7 8 G n <.0.v.7.~.W.{ r.{ n { p p ) @.+.D M g.s.z m 9XxXfX&XpXlXpXE * #XVX^.n + 2 4 l s K G r.C.K.:X@X%X;XJ.",
"S F V.h.n H.%.V B M 4 x L p K.` Q _ z.k.$.#.i p n p % s &.+.A 4 g.f.> #.0XVXzXyXuXdX.X*  .U.>.q M 4 7 7 a q e J z c y.^.I.!.^.F.",
"n &.R.R.s j.B.,.%.G G A c i :.x.;.6.=.B.-.n v Q ` Y W Y o.s G B g.A.k H 1XCXlXdXsX$X{ j X.W 7 7 7 < 1 a b Z.D z $.l.<.,.Y.x.Y.;.",
"&.&.Q./.l.N.t.<.<.,.{ #.{ $.,.J.z.q.X._.{ c ; W _ T ] ` _ S r 8 Z D.L &.(.SXBXaX+X@.e w p 0 @ +   j { $ K M.G l.=XY.<.K.,.J._ B.",
"k.R.7X'.2X/.k.j.B.B.O.#.&.t.-.O.>.*.=.Y. .[ p Q Y Y I T ` o.i l 8 `.L H ].AXBXhXj.D g D u i 0 c n W n w G r.x.xX3XU.!.U.,.-.O.O.",
"-.j.MXqX7XqX0X'.H.@.O.{ #.O.| [ q.b.i.q.<.,.| Y Y y s _ Y Y y a j A.M.k V.NXZX1Xo.S h h a u s s #.o.0 b b [ =XdX%Xm.1X!.$.O.W { ",
"-.<.<XMXMX6X6XeXQ.O.o.{ o.W O.v.4X-X.Xe.q.y.&.0 s s s Y t p s t J J J e S E.2XV.%.g +.h S s n $.O.@.a u w v T.wX1X1X+X@.#.{ o.=.",
",.O.h.].rXMX2Xj.-.Q _ ` _ =.@X-X-X-X-X#XG.F.%.F $ 0 h t t i t G V z A N K %.h.D %.h O.o.s o.B././.k.n c j { 9X1XqX0XQ.-.$.<.,.;.",
"_ W _ -.J.0X(.Y _ Y _ Y Y 8.OXyXyXdX4XoX-.#.H D a q 0 N a r z 3 V N J D G M.r.S a @.( $.k.6X7XrXqX/.j.c & K.qX7X1XK.<.s :.l.;._ ",
"Q *._ Q Q k.*.Y Y *.*.` 8.m.oX=X=X+XQ.F.u S K %.f.e X M.M.L A L N G f.f.A.M.K %.h O.$.j.2XwXwXBXjXl.#.#.H H.E.k.o.u.<.i ,.l.;.*.",
"*.T / _ T ` T Y -.H.` Y z.z.m.v.l.;.F.&.a F M.{.f.l d A.J C M.f.D f.Z z L F C.a S p o.k.qX0XNXVXY.n #.o.N.i t.O.} k.o.'.Y.O.0.*.",
";.) T ! ` ` =.*.0.F.` U ] ] l._ W -.,.-.&.%.D.{.A.d.J S.N C Z.J J S.e N K g %.S o.t O.k.jXjXjXc.w m o.&.$.-.<.Q Y { &.6Xz.x.*.;."
};
