/* XPM */
static char *_6538_f52cd33592603bdae9764db31e4f8a1b58bba637e7bdd5905d9eb610100bc118[] = {
/* columns rows colors chars-per-pixel */
"64 64 197 2 ",
"   c #191612",
".  c #1C1814",
"X  c #1C1914",
"o  c #1C1915",
"O  c #1D1915",
"+  c #1D1A15",
"@  c #1D1A16",
"#  c #1E1A16",
"$  c #1E1B16",
"%  c #1F1B16",
"&  c #1E1B17",
"*  c #1F1B17",
"=  c #1F1C17",
"-  c #201B17",
";  c #201C17",
":  c #201D17",
">  c #201C18",
",  c #211C18",
"<  c #201D18",
"1  c #211D18",
"2  c #211D19",
"3  c #221D18",
"4  c #221D19",
"5  c #211E19",
"6  c #221E18",
"7  c #221E19",
"8  c #231E19",
"9  c #231F19",
"0  c #221E1A",
"q  c #231E1A",
"w  c #221F1A",
"e  c #231F1A",
"r  c #231F1B",
"t  c #241F1A",
"y  c #241F1B",
"u  c #251F1B",
"i  c #23201A",
"p  c #23201B",
"a  c #24201A",
"s  c #24201B",
"d  c #25201B",
"f  c #25211B",
"g  c #25201C",
"h  c #24211C",
"j  c #25211C",
"k  c #26211C",
"l  c #27211C",
"z  c #26211D",
"x  c #27211D",
"c  c #25221C",
"v  c #26221C",
"b  c #27221C",
"n  c #26221D",
"m  c #27221D",
"M  c #27231D",
"N  c #27231E",
"B  c #28221D",
"V  c #28231D",
"C  c #28231E",
"Z  c #29231E",
"A  c #28241D",
"S  c #28241E",
"D  c #29241E",
"F  c #28251E",
"G  c #29251E",
"H  c #28241F",
"J  c #29241F",
"K  c #29251F",
"L  c #2A251E",
"P  c #2A241F",
"I  c #2A251F",
"U  c #2B251F",
"Y  c #2A261F",
"T  c #2B261F",
"R  c #2A2520",
"E  c #2B2520",
"W  c #2A2620",
"Q  c #2B2620",
"!  c #2B2720",
"~  c #2B2621",
"^  c #2B2721",
"/  c #2C2620",
"(  c #2D2620",
")  c #2C2720",
"_  c #2C2621",
"`  c #2C2721",
"'  c #2D2721",
"]  c #2C2722",
"[  c #2D2722",
"{  c #2C2821",
"}  c #2D2821",
"|  c #2E2921",
" . c #2C2822",
".. c #2D2822",
"X. c #2D2922",
"o. c #2E2822",
"O. c #2E2922",
"+. c #2F2922",
"@. c #2E2823",
"#. c #2E2923",
"$. c #2F2923",
"%. c #2F2A22",
"&. c #2F2A23",
"*. c #2F2924",
"=. c #2E2A24",
"-. c #2F2A24",
";. c #302A23",
":. c #302B23",
">. c #302A24",
",. c #302B24",
"<. c #312B24",
"1. c #302B25",
"2. c #312B25",
"3. c #322B24",
"4. c #312C24",
"5. c #302C25",
"6. c #312C25",
"7. c #322C24",
"8. c #322D24",
"9. c #322C25",
"0. c #332C25",
"q. c #322D25",
"w. c #332D25",
"e. c #332E25",
"r. c #322C26",
"t. c #322D26",
"y. c #332D26",
"u. c #332E26",
"i. c #342E26",
"p. c #342F26",
"a. c #352F26",
"s. c #342E27",
"d. c #352E27",
"f. c #342F27",
"g. c #352F27",
"h. c #362F26",
"j. c #362F27",
"k. c #372F27",
"l. c #362F28",
"z. c #353027",
"x. c #363027",
"c. c #373027",
"v. c #373127",
"b. c #353028",
"n. c #363028",
"m. c #373028",
"M. c #373128",
"N. c #373228",
"B. c #383128",
"V. c #393128",
"C. c #393129",
"Z. c #383228",
"A. c #393228",
"S. c #393328",
"D. c #393229",
"F. c #393329",
"G. c #3A3228",
"H. c #3A3328",
"J. c #3A3229",
"K. c #3A3329",
"L. c #3B3329",
"P. c #3A3428",
"I. c #3B3429",
"U. c #3C3429",
"Y. c #3C3529",
"T. c #3D3529",
"R. c #3D3629",
"E. c #3C342A",
"W. c #3C352A",
"Q. c #3D352A",
"!. c #3D362A",
"~. c #3E362A",
"^. c #3E372A",
"/. c #3F372A",
"(. c #40372A",
"). c #41372B",
"_. c #40382A",
"`. c #41382A",
"'. c #41392A",
"]. c #41392B",
"[. c #42392B",
"{. c #43392B",
"}. c #423A2B",
"|. c #433A2B",
" X c #453A2A",
".X c #453B2A",
"XX c #443A2B",
"oX c #453B2B",
"OX c #473D2B",
"+X c #433A2C",
"@X c #453B2C",
"#X c #453C2C",
"$X c #463C2C",
"%X c #463D2C",
"&X c #473D2C",
"*X c #483E2C",
"=X c #4C412C",
/* pixels */
"d f s D o.o.D m D R K K q 8 K l V ` g.B.v K ` 6.9.I I D M j I ` C ~ K m V K S D j K Y D m D I O.M.g.>./ d n v k _ ,.,.,.9.` M e ",
"b j p ] ..~ y t J Q m K m 7 m V o.Q s.$.v D f.y.g.Q d t t k r Q / t m V m R ] <.S D I ) J d o.T.x.g.` V , f d M C <.,...&.,.j m ",
"m m e S I k ,.,.,.D K K l d 7 ` K &.A.V j J u.B.<.* 1 k y k d 1 V k b M r ..M.T.A.s M v D C 6.T.u.t.J e d Q ..k V K R / y.O.O.g.",
"Q k q b t G _.Y.A.y.;.V k j C @.X.x.B.n K m >.>.K j m t d t q 2 m O.V k f X.<.G.M.Q H 5 I R y.z.6.` t k J } 9.0.o. .m Y y.&.&.m.",
"~ s j v I 2.`.Q.4.` $.K q k ~ / Y Y ` A ) j k I ) Y.u.Q / e t v y.K 2 d 7 I ` y.X. .j M I o.;.O.,.m e x.(.!.9.A./ 5 M R O.A.I ,.",
"m k t I U./. .6.k I D 2 ; k ` 4.g.U.4.S i n n 4.g.`.(.i.p 2 j I A a S I t t k r f K k a O.6.Q f ' K u.P.M.(.(.,.D d ` q.A.~.A.i.",
"` ` t 9.;.XXn.C k D C 1 t s / n.M.X.q.v p f v C u.>.T.Y v q f y.9.m K ` e d 3 * e M 5 * j T 2 M a c.~.u.u.A.x.<.K A ` ,.a.S.B.B.",
"Q I f k T.XX;.K f V _ q f j k u { -.&.M c r p g.-.` g.Y V ` v (.g.) V D b 2 t O.I < t $ a D 8 S X.,.t.6.6.O.&.y.V k / m O.x.y.x.",
"I ' +.v y.,.d j f ~ R t m j - r  .j k s f q j +.J V m p K K <. XXXc.Y k ;.s S q.O.a 7 2 J f 2 d ,.I m f X.` } -.D / ` k M.y.} P ",
"D / ,.+.S G d G B.*.>.G V t v e C m S M ) s K k V O.e C o.g g.(.`./.X...j t.S f M , 8 t f I V ` M e d S t V f t V m 7 m v ,.F ; ",
"Z ' D t %.m m ) n.U.L.) ` H./ d V d q e 1 j C D } r.K C b v ` A.I...m g.K g.) ) e 1 d b t K $.J <.s G I D 3 t V e f 1 m #.b a s ",
"P I ; m X.k D ` ~.Z. .M +.I.j.D b l 7 1 e ) ` K I G t j d I 5.9.+.g.A.x.x.f.Z V S 7 , I P x.O.4.4.s b 4.j e d } ,.1 e G M t 2 s ",
"D D K i.,.t D j.].O.d v 7.A._.,.X.v t V  .9.6.I n s m 1 d o.>. .H.Q.~.,.#.X.v f f f 1 b ..;.l.t.U...7 %.X.` i.].+.v d v a M j m ",
"' m j q.} 8 <.U.x.4.I } A.m.O.} T r 5 D M.`.M.K $.2 1 > 8 g.` M.U.Y.D.&.O.m D s v v v &.} <.H.R.w.>.) w.B.2.|.R.K } d ) 3 8 t K ",
";.} 9.9.J 1 <.K ;.S I s.+.i.I S  .r 7 Z.`.Q.u.x.K V S q k X.x.9.Q.Y.A.g.t.k 2 v 6 * K 4.c.I.].(.u.y.I ) K ;.q.<.K V v ; s e k ` ",
"Z <...9.d 7 j V 8 f ) o.f I 7 S I 1 R [.|.t.i.A.j 7 1 < u Q A.M./ M.<.Z.) j { $.d q ` g.i.(.t.u.g.' a U q { x.u.%.>.f k k 8 M ` ",
"d D K 2.} I k < ; q B 2 N e 8 T m S x.U.|.d.X.D e e 9 S d O.K X.I } A.T I a O.U V V r.R W m j ,.I a v f <.H y.&.H.v v / <.v f D ",
"R / ,.P.6.T V > 2 8 e 2 C D f e j V t.} <.X.` f i , I #.] C ` #.m ; f V ;.a Y u D q.A.X.O.S a v 1 + b T a f d D 2.} m ;.' f M P ",
"V ;.&.Y.z.I g j a - D s V o. .7 Q K I ) / d q m S 7 S _ c.R J O.t 5 ; v o.J M r.w.Q.i.,.;.K C 8 1 > , t q e 8 d } ) ) 8.+.1 I ^ ",
"Q $.,.(.T.y.) ` v , , 7 ` ..w.I < d X.' %.v d +.O.` d = ) ' D m , f P b b j R 4.c.A.t.4.I C / D j t m j k k k , 8 D S I O.t m V ",
"m S g 4.g.y.9.o.m 8 2 I y.M.;.I 1 Q I f +.M.t.,.m X.D f 7 } S 8 f 7 f t r 2 ,.g.t.A.T X.R I 9.{ G M b 7 o.S 1 5 q / 8 T f t.k ` ",
"J O.Y >.w.,.o.U u V ` 7 ,.i.m ) j v ` E.{ j.T.w.S ) k k u D t v ,.$.` P - $ -.u.,.L.K } e m +.s { { 7 ) j.&.e m 1 f P ) 4.B.n.I ",
"K ` _ k I V ,.J ` &.S v j R v e e s o.x.X.N.6.9.9.v f O.B K 2 / c.6.D _ v s n M u.O.s t I j 2 7 v j , ) +.M.S m m q k i.i./.y.K ",
"R ..o.8 K m <.C ` 6.>.u t d ) f s v V Y 6.,.U.` ' 7 d 6.` k t x.|.u.I ] D S D < v O.* 7 m 2 1 ) q m V <.4.j 7 b ' v K y.M.x.,.m ",
"g.9.D k , V S j 1 p 2 D f f m e f v @ 7 ) e ` k 2 j d I J u 4.y.`.c.D @.A.y.D = s ; ; 6.{ * , e 2 S X.i.<.D 5 C +.I ,.M.$.` R &.",
">.' B ; q e G 2 e 5 k <.) m K D q 1 * # t M I ) m d * 1 ; f 4.y.Q.A.;.A.u.L.` ; ; ; D v k f 7 D } m ..V D H N <.k ; R ` m v Q I ",
"..` Q 2 # k +.e u k S V e M - &.I u k 2 s f j 8.M d 8 $ 3 W I ,.,.9.4.M J I m * 2 # v ` r d I ;./.} { k 7 R v o.V 2 m k < < m 7 ",
"k ..V s a ) >.- ` ; ; r f t t #.~ G k $ a c m b j e a t # P V S c M ;.W u 7 7 r t % H k { o.Z./.M.C k V ..r I e s , f m 7 $ t m ",
"t C Q I 7 Q i.<.V e l I V d f } ' ) v < - V ..M I / S u.f r V * 2 S X.j 1 X e ; + O q S %.p.u.A.n.d m D r K +.I k q j k 7 e m H ",
"e q N ) s ,.K.u.$.( ; s ] S B.6.M.&.v f e f S ) y./.y.;.k ; + 9 p S n , 1 t 7 k =   f j +.u.Z.r.>.H D Y 2 m ` x.,.] R G H O.u k ",
"v 1 s 7 4 ! A.~.9.c * ` } ,.Y.|.B.s 7 s 7 g 3 } I./.w.K I 8 . 1 7 H j 1 C 8 m V , # e k U ` G.g.$. .f C u.j k u.i.b d k H +.u K ",
"q ; 7 k 2 k O.K.>.2 { x.!.c.=XQ.A.k d 5 U / $.+.c.| +.X.M I k 5 ; 2 , a I J n 7 ; f j ' y.g.i.L.J 2 V g.i.O.r.Y.) C s R I G.~ g ",
"K t - 7 D s o.>.j M O.) *X XOXY.s.H b m i.H.u.) o.D m t ` D ; ; 7 S m y.<.Y j K % 8 7 S u.+.' ' +.t C r.(.`._.c.k P ] v  ...~ V ",
"d g 4 < m I Q d K <.,.1./.(.A.u.I 2 a g.y.V.M.C D I S a p > v m j U d f K D V 4.1 ; 2 1 X.j...) K * f A.$X XM.Y.M K K t f j D I ",
"t j t ; ..m I I P -.w.Z.Z.M.<.w.K O.U.`.H.u.;.U.$.m d 1 5 D K %.D M b S C d f I d v * * V I a a a 2 I B.R.'.Y.i.I j C s * r K J ",
"Q K k I &.w.&.*.q.-.r.).F.6.} J v g.oX(.6.{ { Y.m S j { e v u.'.0.X.J k t 8 7 K k D k 5 v t 7 f n D D ' Y.>.k R m 2 C j @ e R o.",
"K t M ..:._.U.A.R ) q ` I f J K s !.B.Y.c.Z.O...t.f a e.O.c.].].7.g.X.) I 6 2 m ] r.g.) ) M v f S i.>._ D C q { 4.h e n ` > e >.",
"K M D.#XXXI.x.M.>.C d D e e j q d { (./.q.<.e m G ; M /.^.'.V.%X_.U.x.X.c.$.d / B.`.(.A.c.h.S v X.O.&.} j V 2 D <.Y J j k s f E ",
"Q I y.|.!.,.9.A.>.I V J y C / j e q.G.6.D j V k 5 5 Z U.oX(././.@XM.6.4.C v ,.` A.C.L.|.(..XX.{ X.;.' d q , a ~ >.#.R <.7 b S &.",
"I Q V Y.} y.C R ` g._.} * y d V k k O.9.2 q J , @ * C g.#XA.`.6.y.t.>.O.D j 9.I 9.s.B.*X&X$XM.;.V X.t m V , f n.g.,.Q K p e j I ",
"R  .` I ;.<.M j x.T.'.w.3 M r ' *.J J 1 b m m a @ s p H ~.U.y.i.4.;...P I m 6.R ~  .Y.(.[.`.L.1.R m ; j D m 7 c x.V 7 j e = p C ",
"Q #.r...X.I C , i.O.M.4./ R s * +.7 / I ) ..I f >.r k e ..L.c.i.u.#.S k t D >./ V  .` } g.M.K ^ k k 7 t f v p m <.v + 2 : h e d ",
"C ` m.Z.) 7 k y 7.,.S ) >.r.] ; $ 1 / / -.r.,.g L Y = s n ..V R ;.) k j * > $. .m m e 7 <.d f 8 e K j D 2 j f D 7 7 8 t # k j t ",
"k E D m y m D I ' $.} b } D / m e m >.c.4.g.c.g k J : ; T v Y d , s } m = f j v m J e D k m M Q t 6.x...n &.I $.k j m q 0 k k K ",
"C k V k R I Z ..m d 4.V 2 j I m d H >.+.[.H.y.K s ` b * 5 M f D 8 k m ) e K #.T j T , t ,.$.d 1 j y.U.M.` u.6.*.f D r t + e 5 s ",
"V u 1 t j ` k V i.q ; J 2 j M d n a K <.g.B.V 5 2 y D b e e X.,.o.Y m.6.m e I Z { f 1 j ) k f } O.X. .q...` 6.` B d I v p K s K ",
"u t ; * m M.J V J S 7 q > $.j.g.f _ B / y.g.K j ` V / 1 - e X.O.;.B.J.(.6.k M X.%.A ' I s M j ) K D 2 d e ;  . .<.f D t &.#.N ` ",
"` r > t /.+Xu.S e t k _ i.i.T.B.Y.9.k t % m j q.t.X.V q 2 R D ` 6.}./.'.g.f p +.V { ,.) M ` ) J I t $ ; n t m 6.4.v.{ / y.!.b.x.",
"P > 7 I A.A.q.&.j n <.o.!./.`._.A.6.d d q ; e 6.T.O.K I 0 K i.N.Q.#XA.u.M.> : = I +.y.y.u 9.y.) K p 2.g.T.` ,.U.|.w.9.) x.~.A.y.",
"m K d <.D.x.i.v f I X.~ !.Y.].`.T.y.Y 2 K t * j I H  .D e e o.Z.|.B.s.k g 7 j v u.r.A.9.o.,.A.y.v 0.T.OXT.X.` ,.6.i.g.m ,.[.g.u ",
"m V f Y G.r.m < K g J 9.<.|.|.Y.B.u.K ` / v e 1 D M t d j u V 6.H.O.P b t * I B.[.B.Q.9.4.9.9.p.$.n._.A.y.B.P s T.t.V t 2 >.t 2 ",
"f k e ,.K P j f e 7 ` d.i.|.|.(.O.a >.o.J v ` + m +.M , q u v 2 m T G 8 ; v g.|.|.~.g.*.Q e I >.V ,.x.Z.U.w.) e W.,.j 1 2 d 7 7 ",
"2 ; v M n S I J j 2 m O.D x.(.g.K _ #.) m H 0 G I *.} M y , q ; f f j f f Q.oXU.].!.,.m V $.,.3.K v D 9.} ) f I ,.+.d % t e > H ",
"s } O.O.D D j } G w k V j u e m ` =.g.t.R ,.5 A } } ,._ y e $ j ) V.B.y.7 ` ~.M.M.y.R e n.%.K u m * s ) V I q v V I m 7 7 ; 2 K ",
"D ..6.S V K s ` B.} K >.0 % > q v +.{.].+.X.A ` j C >.m K e + g.t.j.Z.A.` d b M.t.f 0 u.<.u.t k e ; 5 V e V / / K [ j e a j H Q ",
"v K ` t K 2 W ,.A.g.-.} 2 ; # t f B.~.|.4.P s y o.g.y.^ I h r q.y.Q.A.G.R m f ..) s R n.Q.6.k ; s s , K B.U ..` D v I V D u , C ",
"Q t s d e d d m [./.O.S M <.5 < r.i.Q.y.v f d ; o.A.A.d.j.Q k #. .M.T.9.K / e m s j s R &.u.` 2 * # k n.[./.p.>.S 5 v y.9.k ,.` ",
"g.j 7 e 5 Y J i.M.c.` 2 <.9.m > t m G.B.m j d m 9.M.,.<.Y.`.S.D @.-.0.;.` ` 1 2 K j 2 b k ; * - ; ' 9.`.|.T.y.<.` v z S O...$.&.",
"V.O.2 v v g i.,.+.<.e f 9.y.t.I d I { 6.K S 7 +.y.y.i.d.A.k.I G / Y y._ 6.j s $ m C k d t o r k / p.Q.g.%.{ ` K C e V K K 6.&.6.",
"A.O.v S b ..;.,.,.M e G 4.i.,.s.X.d 8 P { ) S ] D } n.A.9.O.k m S M O.2.b ; a * ; f J u g * 1 D #.G.A.Z.,.j e 1 r 5 ` 6.S k 9.y.",
"6.Q 1 2 v Y  .) S ; 1 ' >.y.R J D X.D I +.+.X.<.*...{ +.V k 2 m D I s...k ; , M , t d q b j H k o.X.Z.O.j ; , 1 7 s V y K n ` / ",
"V C k m ,.o./ / - * s s J { A g V R S f s e } { v s n d f 2 r V / Y.g...m y q / - + * t 1 M S ..j Z k a 1 u j s s ) V k N a d I ",
"I y D O.s.,.` j e 1 m e f J C M H n x 1 e C j s f K < 7 f j r Q n.I.[.J d d m j 2 e 2 r I <.r f 7 a D % # , M t e H I S t N f t ",
"z s M 4.O.C j K e y s Q k t m e n o.y.C P R R t m N d j m m o.q.c.g.u.i.V C k j s v S K ;.m I n m K I s & > m M s 8 o.6.M j I j "
};
