/* XPM */
static char *c628e994078147969780e9cad1a431e1[] = {
/* columns rows colors chars-per-pixel */
"64 64 127 2 ",
"   c #110F0D",
".  c #15120E",
"X  c #151510",
"o  c #191612",
"O  c #1C1A14",
"+  c #1D1B18",
"@  c #221E1B",
"#  c #24211D",
"$  c #29241D",
"%  c #262421",
"&  c #2A2622",
"*  c #2D2A24",
"=  c #2F2D29",
"-  c #312D27",
";  c #322E29",
":  c #35322D",
">  c #39352F",
",  c #363430",
"<  c #3A3632",
"1  c #3D3A35",
"2  c #3D3B39",
"3  c #413C36",
"4  c #423D3A",
"5  c #45413C",
"6  c #48433E",
"7  c #474440",
"8  c #4A4541",
"9  c #4D4944",
"0  c #4F4D48",
"q  c #524C46",
"w  c #544E49",
"e  c #55514C",
"r  c #59544E",
"t  c #5C5651",
"y  c #5D5952",
"u  c #625C55",
"i  c #645E59",
"p  c #656156",
"a  c #66615A",
"s  c #6A645D",
"d  c #676560",
"f  c #6C6761",
"g  c #6E6962",
"h  c #706761",
"j  c #726C65",
"k  c #786F67",
"l  c #746E69",
"z  c #767066",
"x  c #797066",
"c  c #75716A",
"v  c #7B736C",
"b  c #7E786E",
"n  c #7C7670",
"m  c #7E7971",
"M  c #82786F",
"N  c #847C74",
"B  c #887F76",
"V  c #867F78",
"C  c #887F79",
"Z  c #868176",
"A  c #888176",
"S  c #878279",
"D  c #8C847B",
"F  c #8E887E",
"G  c #91877E",
"H  c #92897F",
"J  c #8B8781",
"K  c #8F8A83",
"L  c #948C83",
"P  c #988E85",
"I  c #958F88",
"U  c #9B8F88",
"Y  c #979087",
"T  c #999187",
"R  c #969088",
"E  c #9B948B",
"W  c #9E988E",
"Q  c #9D9790",
"!  c #9E9892",
"~  c #A1968D",
"^  c #A1998F",
"/  c #A29790",
"(  c #A49C93",
")  c #AA9F95",
"_  c #A69F98",
"`  c #AA9F98",
"'  c #A7A095",
"]  c #AAA196",
"[  c #A7A199",
"{  c #ADA49B",
"}  c #AFAA9E",
"|  c #B0A69D",
" . c #B3AA9F",
".. c #AFA7A0",
"X. c #AFA9A0",
"o. c #B4ACA2",
"O. c #B8AEA4",
"+. c #B3AFA9",
"@. c #B7B0A6",
"#. c #B9B1A6",
"$. c #B7B0A9",
"%. c #BCB4AB",
"&. c #BFB8AF",
"*. c #BEB6B0",
"=. c #BEB8B1",
"-. c #C2B7AD",
";. c #C2B9AF",
":. c #C8BBAF",
">. c #C2B7B0",
",. c #C4BCB3",
"<. c #C9BFB5",
"1. c #C4BFB8",
"2. c #C6C0B7",
"3. c #C9C0B7",
"4. c #C6C0BA",
"5. c #CBC3BB",
"6. c #CEC8BF",
"7. c #D1C6BE",
"8. c #D1C8BF",
"9. c #CEC6C0",
"0. c #CFC8C0",
"q. c #D3CBC3",
"w. c #D7D0C7",
"e. c #D8D0C6",
"r. c #D7D1C8",
"t. c #D9D2C9",
"y. c #DED7D0",
/* pixels */
"B N v s k w i v s j j s A h u p n L l x B L T B v s s s k D L k v E P P P ) P M h j B s h T H A ^ ^ ^ M u a r M x M T  .H s r Z ",
"M v s N v M ~ L v 6 s N H { T ^ 1.=.( h v H N L ( :.q.7.5./ 8 M K | ) 7.8.8.8.<.%.u 6 y ] 3.) -.-.5.3.H 6 v u k | ,.&.] o.F M 6 ",
"N L T %.$.1.o.$.O.y q D =.) ,.q.q.q.$.J u i i T 8.<.<.<.-.C 6 C  .-.,.q.<.:.-.<.{ r 6 j ] 3.-.{ 7.8.e. .L { ' x ] 2.4.( 3.) r 6 ",
"H o.4.<.9.q.1.` 5.i r ) $.;.e.q.r.q.$.j u v ^ :.-.#.{ #.( i 8 B k I  .U H  .( 3.` y w N ~ M | 3. .^ ~  .;.;.&.s o.| W E ' 3.y h ",
"W X.4.<.O.,.{ 1.1.i 9 M Y >.O...) o.d 2 4 K  .P T ^ ~ -.v 6 = r C / :.| | -.^ k u 5 > w N s G P H ~  .] T M g 6 c b { D t h a r ",
"T S >. .L <...L j 4 2 i n 7.` ( D ] q 4 5 B A ( #.D B t 5 , 4 j u M N K U C v 3 & > : 5 6 h a u y H v y y > 3 e 5 : 6 e > p 6 a ",
"b c o.1.( O.K L m e 8 C l | ,...L g 9 9 1 q s M r N 9 > - ; 3 ; 3 - > 4 3 3 ; 4 1 5 3 q > % $ : > ; t 3 3 6 a 9 t e w y p p w s ",
"1 a u v 9 u v N 4 4 ; ; > 1 6 < 5 = = < 4 9 > 1 > 3 ; * 1 q q 4 : 3 > > > 3 9 t u y a e q > : 1 r h x 3 > 1 9 6 r 4 q h 7.W s r ",
"1 i w 1 < w t 3 4 1 < 3 9 4 9 4 8 3 e w t 5 % w i I S Y E R E R h N L C M L ' { E H m v v Y G ( ) I n g 5 9 > , 5 r a ] q.L a i ",
"u e D V q 3 : < ; 8 6 w y s r i u r v u m L | { ( c L { } { ' ( C ) / `  .{ ] o.W { } ' -.,.%.E L I L N j 9 : 1 5 s +.o...%.Q 6 ",
"E I >.#.h 4 9 < 8 9 9 u c v E E ^  .] Y ( <.2.%.o.( { $.$.3.3.3.,.O.,.<.7.#.( ( ^ ;.@.%.o.o.X.} o.} ] ^ E L w % : B 4.} D { %.q ",
"L ] q.1.O.G r ; 8 y u C I | ~ ) { #.<.;.<.q.q.6.5.=.o.W %.o.#.5.5.<.-.>.^ Y | 3.8.q.6.4.;.4.q.3.,.q.>.#.#. .y 1 , j ] ! I ~ %.s ",
"B ! q.t.5.o.y < y N L I / o.>.4.q.8.;.>.<.;.6.q.0.q.,.%.E T ' @.$...;. .{ #.q.q.3.q.6.3.6.q.e.q.q.y.e.3._ L u ; 5 e L ! N S { I ",
"o.o.,.q.q.$.w 3 y B U G { @.) 7.4.<.5.<.o.^ ` %.4.t.t.w.4.,.o.| #.o.{ L W 5.6.} %.;.4.%. .{ ( ^ #.>.6.<.+.N l r 7 < c s g E E v ",
"( Y %.#.,.%.f < u D G G #.o.3.3.>.o.#.@.] E ' O.4.4.5.r.t.6.;.,.o.E {  . .&.} %.E R E B N N I T B J o.L ( H a g 7 % 5 j A D y a ",
"s C | o.>.] 9 9 f K ..} O.}  .L L N v N u f H ' | o.@.%.3.q.;.;.-.' 5. .5.3.{ L N s j N f e j c h d c E L N u H 8 5 < r E u 1 h ",
"v ( ( ( G ` 9 > y B ! %.E ' D N r r u e q r y c I E %.O.6.-.3.%.%.' %.,.q.$.D k i q i r 8 r u i u n N j K D h B u : 5 i } o.B h ",
"N ( G %.) ^ 9 3 r m %.( L v j u u s s q r r 9 q j u N -.#.q.6.%.@.<.2.1.;.D f f k i u 4 r r r q g S j a V U L x u , u U 5.:.<./ ",
"N U E M D U 1 q 9 M O.( D A s s h y u i q 3 8 9 e s N o.,.%.,.%.2.8.q.:.,.v w N u t 6 8 3 4 s u y a c c v T U N r 1 G } :.<.} v ",
"< H D v s i 1 6 3 j ;.^ D h i C h u 9 % O @ & 4 6 y S W } %.o.4.6.8.q.4.( v i u q r 3 @ $ @ 4 k c s g v s N I N < > N 7.e.q.<.C ",
"; w 9 9 9 i 6 4 4 h E ` D a k C i 1 X o X . o + q e u v H [ &.3.q.3.,.#.L v l w r 3 o o   . . q l v g m v E ( B r 3 4 7.q.7.-.M ",
"e t U J M j a 1 6 s ( o.( f N J 9 . .       o o 9 r u N j W =.5.8.3.,.} N j r r 9 O o     . . . 4 i l N Y { ] l w 3 > o.:.<.<.M ",
"d ..9.1...( f ; q i L %.%.D V D < o .   . . o o ; s i N D ( 4.,.7.q.$.` N f u u 5 o . o   .     , u s V K o.~ g < < > i | :.<.h ",
"l >.1.5.( I n & u y N -.` T L o.i @ X . . o . X & b v D L o.5.%.5.r.-.J h c j a > $ o .   . . X f I N L B o.L v 3 > - 4 G k C u ",
"d 1.$.*.( U r ; w t U ( { L j } { 9 @ . o X   o l s R E D #.4.O. .q.%.J n D L N t @ @ . X . X O N } E U ~ { H u < * q r i 4 6 u ",
"l *.q._ J ` u = 8 t N o.o.o.Q _ E 6.h 6 # % q l m l _ J V #.#.O.:.<._ ( D U Q N E f @ O o . o D 5.#.} { ;.L v 9 ; > i w h r > 4 ",
"i U 9.L C +.9 ; 5 h L ` E ,.{ %.X.5.q.o.$.X.] A I L E Y D %.o.}  .<.E Q I ( I m N } _ y 9 N ,.5.,.` o.%.3.E f 6 > 3 r G o.{ M u ",
"w w g L l h < < 4 v C I %.%.#.4.%.<.{ } <.| Y h m Y L Y N +. .o.} -.Q E M Q J B I ( ..%.7.q.q.1.+.Q %.<.5.T i 6 > ; 4 K 7.<.D C ",
"= : 9 i = w 7 4 5 N j U #._ ,.6.,._ I ) ! I v N I I L j A ( Y #.=.o.R E N C V V ( L E E $.,. .o.$. .3.<.>.Y K r ; & t { <.<.>.G ",
"2 d K Q j D q 9 5 N l L $.%.%.0.<.0.#.) D { D ^ H M j v ( E Y q.4.%.[ { V N N E  .W ( | o.) %.-.4.#.O.;.o.U h r 8 ; h o.O.<.( L ",
"J $.,.E M V u w , u i L ,.#.o.9.<.r.+.X.;.( H N ( v r N ) K ' 4.%.3.%.( T D I N  .( ( ;.o. .%.5.4.-.o.@.K / u w f 3 v L / -.| q ",
"L ( ..o...E e 7 8 8 i c o.*.%.,.,.q.%.,.] o.L B N s y D v R E %.;.5.1.#.L v ~ N ' E %.#.%.,.#.4.8.<. .^ ~ Q r 8 8 ; i C k U M u ",
"i ( / { %.K 4 6 : w s v ' ,.-.1.e.4.#.#.>.{ E L s i e Z t S ( %.-.2.%.{ D g E a D o.| %.>.<.%. .,.q.8.( o.f 4 1 6 > 9 2 9 N r e ",
"Q O.1.E ` N , 4 - 4 u j ` X.o.r.q.5.;.,.-.( G B s j q q < y N s v s v m j q r h L } ..%.,.7.-.| <.q.5.^ V t 1 6 , 6 w i D L a u ",
"d m %.| v 8 4 6 < - 1 D L o.%.0.t.,.>.6.%.E B v h i 5 : : 5 e 6 e q 9 8 q : : r ! R X.%.=.5.,.' q.6.#.G r w * 9 u q B $.=.[ *.v ",
"d a ~ C 8 ; , e s w 1 e v T $.<.q.,.<.8.;.' | K s u 5 4 > 1 5 5 5 5 4 r y 5 5 9 l L U #.E ,.5.o.%.;.{ g r 9 , 9 u n N 5.,.$.9._ ",
"9 < u n , a w e v v i 1 r g B q.#.,.3.6.O.| { B y j i s u v v p v L ' T v u q q 9 M Y  .} o.3.%.o.8.) i 5 i l c q f V ,.q.1.=.+.",
"2 9 J U ] v j 9 i o. .4 , a i } 5.-.<.7.{ ` o.i z s u N L E E ( H | [ ( %.E B r 8 s l H { o.6.o.{ ;.N 9 = 9 R ( q j c *.*.1.*.9.",
"5 1.<.9.*. .N < f o.O.c 3 q V j 2.>.,.<...o.V w D s h D B j 5 ; % ; 1 j D | E i 4 r s D I ( <.( E ' i > 5 a ! ..7 u a [ ( ! r.=.",
"w ` q.t.5.@.N 6 i ,.6.| 9 < u k  .%.o.o.o.} i N l j N L t * @ O X @ $ # < a o.A q 5 i B T D  .o.O.j y 8 a B ! _ 1 8 w u / +.X.m ",
"f I >.>.o.O.n 4 f *.=.f f * 4 V L o.<.o.} I j K v D T p . o o .   o o o . * x I v q 3 z ~ D ' U ,.f 2 e e ( 5.f 4 5 t 9 g J H s ",
"9 C 7.>.| | h 6 9 _ +.j g e 1 i a <.,.%.{ C L E v { A -   . . . o . . o . . 4 L B z 5 5 T H  .~ ] q 1 e D $.[ S 1 5 9 6 9 i 6 f ",
"3 e ` >.U Q h 5 7 { J I L y 3 f e +.{ #.o.N  .D { @.g . . .   . X X o . .   . K j u 6 , A E T N g 9 w L o.} { N 4 4 B T v y ; u ",
"e ; N u d u n 5 j ]  .*.Q a 1 9 9 ` ) E {  .L L ' K ; X . X o .   . X o o o O f S r 9 r u A I H q 5 D X.( ( _ a 0 w 5.4.,.$.( a ",
"l < 7 r u 4 8 r v E %.} _ K , 4 4 j D | ] ` D L T K 1 X X O . . o X . . . . # j E s q s 9 s v 6 : t R B } Q J a 6 b ,.<.<.,.+.s ",
"q i t C i i u 4 v N X.D f l a $ 1 q V o.{ Y / Y ' #.Z 9 $ O . o o o o X o % Y ;.E D h u v H s > : u D N E o.Y f p N =.<.{ $.( u ",
"8 E ` ) ` -.C : g f +.[ D a 5 < , 6 k L X.] D { #.,.2.} z 6 $ $ O $ * > y 3.q.] s E h k h ( 9 > ; v ! N I L _ m r c R } 1.U u u ",
"9 o.$.O.| ) v 9 a Y D ( ! c 4 < 1 r h y f N D B @.#.2.5.3.%.2. .o.-...4.q.;._ v v D v v x h r ; y g g V j f 9 : = a f f B a y q ",
"j i ( $.{ _ l e 7 n N u s r a 1 1 9 4 , 4 5 t g s z v D @.%.3.2.3.3.O.{ ( B Z N N m z s z 6 1 0 7 1 D a g m r w 8 a s 9 9 9 5 > ",
"t C N P ( Q y r 5 4 5 # 4 1 : , $ 5 3 > > 9 e 1 : > 3 r u s x Z H j s a 9 8 9 r 6 q e 0 5 * 5 3 % , 6 3 , r L b a r 1 > r < > 4 ",
", , ; < r e 7 5 2 1 0 2 , w q w e 4 : q 9 9 5 > 2 5 u 8 : 5 6 6 5 e e w 9 8 5 4 1 : % : 5 1 6 6 : : 4 8 y s p j N a j m s q , > ",
": 7 j D N m j m S W ! ^ ( I I D J N e e > 5 a F ^ o.%.,.#.^ #.2.%.@.%.#.,.#.{  .Y m N y e 5 r p ` +.#.-.%.<.8.4.O.[ X.E L a 3 > ",
"4 n ( J R o.]  .2.5.2.[ $.,.5.4.%.! c p 5 H %.2.5.8.e.t.3.e.8.8.5.8.q.0.q.5.,. .@.$.L g 0 5 j 2.q.q.6.#.3.e.,.5.2.1.2.&.,.Z 5 : ",
"9 K E X.| 1.5.q.3.5.5.;.G D { | W W v s 3 z o.2.#.3.-.#.-.#. .{ 2.5.6.5.' Y ,.o.5.2.b D 6 0 Z 6.1.%.' #.#.^ ^ ^ E $.%.5.%.W e 1 ",
"e V I ) -.o.,.,.{ %.q.' | L ( c R m Z r : b 2.2.#.} H W ' o.o.-.#.;.} ,.^ %.#.#.2.' v v 5 v ^  .' o.o.' ] H A L H #.Y N E D t 1 ",
"e n R D ' ( ) %.3.%.' L #.Y F ,.R b K r 3 v Z T H T L H H ( ^ ) T Y E E D ) W ' } T E r 1 s F ' o.T { H ^ H A L v v } L Y E t 1 ",
"r N b T T H ]  .) Y ^ v T ^ ' { o.v c r 5 E ' D A T T D T #.^ L M { #.A b Z v ' E } D r 1 s } ' ^ A F A Z M T T Y T ) ~ A Z y 1 ",
"r A F ( T '  .H Z M x v F Z T ) ' Y z y 6 g ' #.] T } #.^ T F b T H L Z z H D D } Y z a < x { ' E H H D T { H H ^ ^ H H h F p > ",
"y D s b D H E E ' ^ ] T L ] ( Z F b c g 5 z { @.&.' T ^ H T Z N H Y Z F Y v b } Y D g r 1 f ' ( A ^ ^ H H D D M { F h D f F p : ",
"t c T T H Z ! X.{ } H D  .' x v K p u e 2 c T ' E ] v M L T Y W Y ( T E ' W B #.E D p y > e Y ^ T #.] ^ E H M M x T H x m c u : ",
"t m b ! { { Y H ' Z b v b Y } m g b 0 e 7 m z z F F b b s j F j j z J ! E m J s p j c p : 0 v Z H o.) T ] H F M T T T F N a e : ",
"9 c c n h x T F j j z s u j n v s v s 5 5 a z j p v L s n r 0 p p c n F N j c a j m g e : 1 p v E F x v M A F ^ M x Z F v r r 1 ",
"1 y g s s x r w j p a g p e y r y y 8 2 4 5 7 8 t e g y r t 0 e d e 5 e y p t g s y 0 3 : 6 y g r p u e y p z h s s 6 q 3 w 4 < ",
"r , : , 1 5 6 5 6 1 1 : > 2 1 5 2 4 , 2 = : = : 5 < 9 5 , > 1 < < 1 3 3 5 0 6 5 > > w 6 9 3 1 1 0 : 5 6 6 5 5 q 6 6 6 6 6 q < 1 "
};
