/* XPM */
static char *_6631ee87f41463cb5b6373f60d14eb0[] = {
/* columns rows colors chars-per-pixel */
"64 64 162 2 ",
"   c None",
".  c #050301",
"X  c #0C0100",
"o  c #150301",
"O  c #1A0701",
"+  c #1D0900",
"@  c #140C09",
"#  c #1D0E08",
"$  c #1E1007",
"%  c #16110E",
"&  c #171513",
"*  c #1A1613",
"=  c #240D03",
"-  c #261004",
";  c #2A1206",
":  c #25140D",
">  c #2C150A",
",  c #27180F",
"<  c #2C180E",
"1  c #31170B",
"2  c #331B0D",
"3  c #381D0F",
"4  c #281710",
"5  c #271810",
"6  c #2B1A11",
"7  c #201D1B",
"8  c #351E11",
"9  c #391F11",
"0  c #362113",
"q  c #3C2314",
"w  c #35241C",
"e  c #3E2519",
"r  c #3F2A1C",
"t  c #332B25",
"y  c #322D29",
"u  c #36312C",
"i  c #3E342D",
"p  c #402516",
"a  c #412816",
"s  c #412619",
"d  c #452A1C",
"f  c #4A2E1E",
"g  c #4D311F",
"h  c #462E21",
"j  c #492E21",
"k  c #512F22",
"l  c #4D3324",
"z  c #453129",
"x  c #4E3529",
"c  c #4D392C",
"v  c #513525",
"b  c #593726",
"n  c #553826",
"m  c #5A3A27",
"M  c #533728",
"N  c #563A2B",
"B  c #5A3D2D",
"V  c #443B33",
"C  c #453F3A",
"Z  c #523D32",
"A  c #5C3F30",
"S  c #613E2C",
"D  c #603E30",
"F  c #5D402F",
"G  c #4C433B",
"H  c #534236",
"J  c #5E4132",
"K  c #52453B",
"L  c #5B4439",
"P  c #5D483A",
"I  c #63432E",
"U  c #69422B",
"Y  c #624534",
"T  c #6A4632",
"R  c #664836",
"E  c #6A4A37",
"W  c #634738",
"Q  c #664A3A",
"!  c #6B4D3C",
"~  c #724D37",
"^  c #724F3B",
"/  c #6E503E",
"(  c #755037",
")  c #71523E",
"_  c #7B543C",
"`  c #7C583E",
"'  c #544A43",
"]  c #5E544A",
"[  c #694F41",
"{  c #6E5141",
"}  c #645449",
"|  c #725443",
" . c #7A5742",
".. c #765846",
"X. c #7A5A45",
"o. c #7C5748",
"O. c #765B49",
"+. c #7B5D4A",
"@. c #755D50",
"#. c #7E604D",
"$. c #6F655C",
"%. c #73665B",
"&. c #77695F",
"*. c #7A6A5D",
"=. c #756A60",
"-. c #7B6D61",
";. c #80573C",
":. c #81593D",
">. c #855540",
",. c #825D44",
"<. c #895E45",
"1. c #815D49",
"2. c #846146",
"3. c #8A6345",
"4. c #83624C",
"5. c #8A654B",
"6. c #8D694D",
"7. c #90674A",
"8. c #926B4D",
"9. c #96714F",
"0. c #846652",
"q. c #8B6652",
"w. c #866855",
"e. c #8B6A54",
"r. c #8C6C59",
"t. c #916D53",
"y. c #926C5A",
"u. c #8F715B",
"i. c #947156",
"p. c #9A7453",
"a. c #95725A",
"s. c #99755A",
"d. c #9C795B",
"f. c #A3795C",
"g. c #857061",
"h. c #87796C",
"j. c #88796D",
"k. c #937361",
"l. c #9A7460",
"z. c #9E7A66",
"x. c #9E7B69",
"c. c #A37D66",
"v. c #A37C68",
"b. c #9C826E",
"n. c #AA8664",
"m. c #AA8A66",
"M. c #AA8369",
"N. c #A6886F",
"B. c #AE896A",
"V. c #B2866F",
"C. c #A88B74",
"Z. c #B78B72",
"A. c #B88D71",
"S. c #AE9179",
"D. c #B49374",
"F. c #B0937C",
"G. c #C7855B",
"H. c #C59579",
"J. c #A19081",
"K. c #B09E8E",
"L. c #CEA686",
"P. c #ECB590",
/* pixels */
"                                                                                  D.d.                                          ",
"      L.M.v.v.M.V.c.v.        = Q D.Z.r.                    t # r           ^   @.{ N               M s.H.o.A       M.P.G.      ",
"m.D.v.v.y.q.z.5.i.q.S D t z   # N a.0.{ j     [ y.k.+.z     6 # h #.      E S T R J j 8 8 8 4 X   O q f.Z.O.j     P 0.s.>.k w 8 ",
"n.m.5.e.1.E l.[  .1.S ~ f M   O t #...! | E   q.x.r.O.z t 6 8 O f 5.+.  o.o.1.R R D T S n f 2 : X X d f.a.O.[ c   +.+.+.,.S w : ",
"d.p.R J M h Q l l M j E k b 9 O r #.! P #. .q.a.r.[ [ Z t > 4 O v q.1.r.| Y o.| R B B B v p p 2 O o g 6.5.w.[ P 0.x.0...X.R j 6 ",
"p.t.I l x h J l s s s b b j 3 O d 5.| { O.[ J ..@.A Y { d 4 1 = B 6. .R [ B { X.J B N n v d p 2 = = B 5.5.#.Q J @.k.1.Y E S j 6 ",
"p.p.U g n g c g.} l j M j s > o d 3.1.! | ! J O.x.} R ! j s 1 O g 6.+.F ! J | &.J.%.Z N f d 9 > o > E i.w.+.J M =.' V B A M v 8 ",
"8.9.~ d M x %.G . ' 9 b j d 2 o l 2.0.| R P ! K.u 7 C ! j j 9 O g 6.1.N J B R %.% y } N f p 8 2 = 2 E i.4.+./ H V % ] R B M j 6 ",
"7.p._ l B N G & * j.0 B l f 1 O g 5.0./ ! F ! i % @ j.{ d N 9 O f 6.4.v W R R V t $.P M l q q 8 - > #.s.q...| Z t i K R A l l 8 ",
"7.8.( f B B i G =.%.f v v d 1 O g 5.#.E R / W c y -.w.! s B q O g 6.5.A S | { Y J L M l f q q 2 - ; | s.r.+.{ Y +.{ { ^ Y v h 8 ",
"8.8._ v v B h z z j q p f f > O g 2.#.{ Q ../ / o.! M ! e N d ; f q.r./ J [ X.) A N N N j q 9 1 = 2 ) s.e.5.| W X.[ o.| Y B r 4 ",
"3.5.` j v B l j A l h d s f 2 = 0 X.0.Q ..| R Q X.| N Q d N s O g 6.6.{ J R ....Y B M R v q 9 2 - 2 / s.e.w.| W [ +.1.! A N d 6 ",
",.<.:.f j B j s Y j f d f f 2 = 9 2.4.J ..! Y Q ..| B | j M s ; f 4.e.| W / ..X.A N v Y j s 2 8 + 9 / p.e.w...! J w.4.^ N B h < ",
"3.5.,.f M d j d A v e q f g 2 = e 2.4.Q ..E J / ..| N W h B s > d 3.6.| J R ! Y Q l q R f d 8 9 + d / s.e.4.| N N 0.#.) l A f 6 ",
"3.7.<.g x f v h j B q v f M 3 = d 2.4.Q +./ N ! ! ! A [ v v s > a 4.e./ ../ / J L f d v v d 8 9 + d ) d.q.! X.[ N +.+.! B B h < ",
"_ 7.:.v M j N l l B 9 j q b 8 ; d 2.w.{ ..! B ! R ! N o.N j q 8 a 3.5.P E / R Y Y s 9 p b s 8 8 + e | s.q.| | ..Z +...^ A A h 8 ",
"^ <.:.v v f A N j b 9 s ; A q 1 d ` w./ X.! F Q R ^ A | M M q ; d 4.2.Y { / Y Y B l d N B s 8 8 + d  .s.r.O.Q ! J +.| Q B B d 8 ",
") 3.Y j Y d J v d M s h - N q 1 q 2.4.Q r.Q J ..! ! Q Q N j q > g 4.5.N Q | E Y N M d N N p 0 q = q ..s.q.4.| Q R 0.Q ! N B e 8 ",
"^ <.N l W d B h d N 8 h - l q 1 q 2.0.Q r.J Y #.| ! ! Q M d q ; d 2.4.Y | Q | R Q n d Y B q 8 q + q 4.s.e.e.O.J J 4.[ ! x J e 0 ",
"^ <.N d J B N h h B 1 d ; f q 1 9 2.#./ r.J R ) o.! Y Q N s d = f 4.+.! ! Q Q | R v l Y g d q q = q w.d.4.r...J Q +.! ^ x J r 6 ",
") ,.B l Q x B d h B > 9 > f d 1 q 4.X.[ #.J Q ..+.R J Y M v s ; f 2.#.) ) Q { | F q v I f l q q - d 0.i.X.r.#.J ! +.Q ^ l F q 6 ",
"` ,.I f / x Y l h B 8 9 3 f d 1 q 4.X.Q #.F ! / X.R Y B l j d ; d 3.2.) / Y ! ! R v x l v l d 2 = q 4.i.4.r.X.W W 4.Q ! N F e 6 ",
"` 3.~ g Q v W d l J 8 8 3 f d > 2 2.X.{ X.J / ! X...Y Y x l d > d 2.4.| | W ! ! E n f e N B 8 > + q 4.i.4.e.#.| W +.Q ) N S a 6 ",
"<.3.) d R v B x M A 8 q 2 n d 1 8 5.X.Q ..J W ^ +. .W N x j d > d 4.#.X.) Q | ! ..b l s b v 8 2 = q 4.i.+.#.#.! R 0.E ..N F q 6 ",
" .3.` d / h J x N N 2 e > n d 1 2 5.X.R ..Q F F ) X.Q l l M s = g 2.0.X./ ! O.R { Y v q B v 8 2 > l X.i.4.#.+.| Q X.^ R N A e < ",
"` 3.` f Q h Y l N x 8 q > M l < 9 5.| Q X.Q H F r.#.R F N M d = a 2.5.| / ! { R ! I N q N v 2 2 ; f | i.4.q.....O.+.! Y N B e 4 ",
"_ 5.3.f P d Q c l x 8 d - l d 2 q 5./ | ..R v H w.+.P Y M M d = d 5.6./ ! / O.Y Q B I p n v 2 8 1 3 | i.4.w.#.O...+.| J N Y d 4 ",
" .,.<.s J d ! N N h 8 d ; M d 1 q #.| ..X.P F F w.0.R Y B h d = q 2.0.X./ | #.J W B J d S v 2 q 1 2 ..i.4.w.w.#.Q X.| A N E x 4 ",
"` <.3.f N v ! N l J q d > l d > a ` / #...) x l 0.w.A Y B h d = 2 2.5.W X.J #.Q J Y F h N g > q - 2 ` i.4.w.#.w.Q X.| F N Q l , ",
"X.3.7.l x N J N l Q q d - d d 1 e ` ! #.#.F l l 4.w.B Q S l d = 2 4.4.R ) ! w.R J J R d v d 2 q = q  .r.r.#.#.w.Q 0.! J R R h , ",
" .5.5.f N x J N z { d h > d r 2 2 ` R #.#.F n F +.w.A Q Y d s = 2 4.4.! ..Q e.J J W R f N d 1 q = q #.i.q.#.w.#.W q.| J J R h < ",
"` 3.5.p N N W x M Q x d 2 q s 8 < 5.J #.w.H g F 1.w.A [ S d d ; q 2.0.! X.| 0.A J F N d F d > q = q  .i.u.w.#.O./ 0.! F x E h 4 ",
",.7.3.9 Z B Z A v Q l j 2 d e 9 < 5.J #.#.{ l x r.0.A Q D d d ; 0 2.5.P Q / 4.! N N N p J d > q - ; w.i.e.r.#.Q Q #.| N v Q h , ",
"<.9.3.s v A N A x | x j 2 s 9 9 > 5./ #.#.#.J h O.+.J [ D j d ; 2 2.5.Y | / 0.Q I N N q B f 2 q = 2 5.i.#.u.w.J / O.| X.x Q h < ",
"5.8.<.f N A M [ x | v e 9 8 e < $ #./ #.#.X.J N | #.W R A h d = : #.2./ R | 1.Q F N N 9 M f 3 q + 2 ..6.#.u.w.Q / +./ +.x N h , ",
"2.2._ M h N L R l | d 9 q 2 8 : - e...#.#.#.J N O.r.A R B j d O > #.X.E R ! 0.! F x Y q f l q q = > ..6.X.r.#.{ | ..| #.l h v < ",
"2.3.` R h Z J W f Q h > q s 8 :   b.#.0.#.#.N L #.O.J | l l d O 1 1.+.J | R +.Q N B Y q l g q q ; - +.6.+.e.....X.O.| ..x d M 4 ",
"2.3._ B h J Q R d J d ; 9 d 8 =   C.#.#...{ R N r.O.N o.M h d + > 4.5.W W R +.| N N B 2 N N q 2 ; - 5.q...#.w.#...| { | N s N 4 ",
"2.,.:.n h J W Q h v v > 9 j e -   S.0.0...O.! c #.{ N { A d d + : 2.1.Y [ R ..[ N l Y 2 v N q 8 = = X.6.| X.#...+.[ Q +.N e l , ",
"2.,.3.B h N { Q e d h > 8 N e =   S.w.e.O.#.Q [ | { J W A h h = - 4.5.[ Q R  .[ B d Y q v N q 9 > q ) 5.) ..w...q.Q ! ..J d d , ",
"5.,.3.B x N Q R h J l q > h d ;   F.r.#.#...{ / { O.A J R j q ; : X.4.) Q ) R R J s B d v l 2 q 3 q ! 6.Q { +.0.4.{ R | N l d : ",
"3. .2.J R d J J x J d q 1 d d =   F.u.#.X.! ..! Q O.{ [ | j e > > +.5./ ! / R F W q B h l d 2 q 2 d E 6.Q Q r.+.#.o.W ..J J e : ",
"5.) :.I J N J Q l J h q 2 p q #   N.r.#./ | Q ..J w.{ J ..M q = 2 ,.5.Q J { Y N D f v N d 9 2 8 1 f E t.! J 0.| O.+.Q Q A Q w , ",
"3. ._ R J J Q W x N x 8 q q 8 # $ 6.#.#.P / | *.N 0.| M { N q = 9 +.0.) M ^ Y v Q s l B d 1 8 q 2 q ! t.! N 0.4.{ X.N X.N ! e , ",
"2.` _ N J c J M W N h q d d 0 : > 2.0.#.J { O.w.A 0.W N ! N q = a ` 5./ N / F N ! s v A l 8 9 9 3 3 E t.) l ! w.{ #.N ! N Q s : ",
"2. .( n J Q l F Q N J 2 l q e : 8 5.#.X.R { w.w.R 0.{ Z ! l e = d 2.5.R F Q B F Q h A b j 2 2 9 1 3 Q i.X.B | w.{ X.N ^ Y Y h : ",
"6.:.( n J J x J ! J J 2 l 0 d < 8 6.4.w.N | +.0.W @.| R [ l d = q ` 6.F N Y Y v E l A v v 2 8 q 3 2 E p.4.t X.w.! #.I R A D r : ",
"2.6.~ d x ! x F | Y Q q d q g 9 < 5.#.w.L { ....O.A X...R h s = 9 #.#.F N F B l ^ v B v j q 8 9 9 2 / i.#.h 4.w.! #.N R Y T t 4 ",
"5.7.^ f A J N J ! Q N j d d v 9 < 3.#.#.W X...X.{ M #.{ J s d = < 2.1.Y Y B v B ) S v f l d 2 q 2 3 E d.4.x #.u./ X.F R F N d 5 ",
"5.6.T j Q Q W J ..! n h v d v q < 6.4.#.Q O.Q ! X.J +.W v d e = 2 6.2.B B Y N M ! Y s f j 9 2 p 9 d / d.4.x X.#.{ #.F J R n h 5 ",
"6.7.U f ! J R B ..{ l s N l l q 2 6.4.O.J X.Y J ..J X.J l h e = 1 6.2.R M R M B E ! N q B > q q 0 d / d.q.x #.| { ..N Q R n h 4 ",
"7.6.T n Q W Y B | ! v q B h h q 6 6.#.{ J ! Q ) { M X.J x l d + 2 6.2.Y N M B B Y ^ B s v 2 q 2 > > / p.X.h #.#.#.{ F Q ! B h 6 ",
"t.5.T B Y W B N | ! B s d d j p 6 8.5.N J Y X.Q [ B X.J l l e = 9 8.2.R B B F I B Y B f g 1 q 2 > - ) d.#.d #.#.X.| F ) R N l 6 ",
"7.3.U B W A N Y ! ! M p h d p s 2 q.a.J J Q ..| Q Y | R l l p O a 6.5.Y Y B ! ! N Y v v f 3 2 q ; + X.s.X.z #.#.w.! / ! ! N x 8 ",
"t.3.I B W J Q J ..Q v f l j q p 2 3.y.N J ) +./ | B Y | x M 8 = v 8.5.Q A B R E J Y f v f q 9 2 2 + X.p./ H / 4.0...! / [ x l 6 ",
"7.2.I B W J R N ..! l f h l 9 q 9 2.e.Y A ! X.R / _ N ..M h < ; F 6.6.R R B R Q R Y n b d 2 2 2 1 + X.d.| F Q #.0...W ! ! N l 0 ",
"3.<.U v W W W B { J f f x v q q q 2.6.! F Y ) Y I E J | M d 2 = F 8.5.F R F F F Y R N m g p 2 2 > ;  .d.| R { +.{ ..R Q W N f 6 ",
"5. .T v R N F W W W f g n f q p q 2.4.X.N F E ! ) R J / B s 2 = F 6.6.R g F F v n Y n v v p a 1 ; > ) 6.| / { #.+...R ! W F l 6 ",
"3.2.I n R l N Q Y Y d v v l d q a 2. .#.Y I F ..Q Y J | A q 2 O m 8.5.E F F J v g N F l v 3 q 1 2 ; ` 6. .E / ..#.| ! / J A d , ",
"5.5.I v J M Y { Y Y f B v j d 2 a 2.| +.E Y R | ! B W ! N s 9 = F 8.6.R F F E R f n B m g 3 p 2 2 < X.i.| #.! / #.+.#.{ Y N d , ",
"5.5.b M B M W ! Q S v F d l q 1 v 2.~ R Y R I | ! T B F v s 2 O m t.6.m v F F F b n v n g 9 a 9 q 3 ` 6.X.| J / 0.O.....J I d : ",
"6.6.m v N A N | R B v I l f q > m 6.) R R E I ! ! T W N v l q + n 6.2.g F F F F b F v g g 2 q 1 > q ) 4.+.X.J Q #.#.w.! / Y h : ",
"8.5.I b N W n Y R N Y B f f q ; I t.E Y ! ^ I | R n ! N N v q O m 6.#.q n n l n g v v g a p 3 > 1 9 E 2.#.X.J F | #.4.| Q B w , ",
"8.5.B v N I M S Q M ! S v v 2 ; B 7.! B Q ! B ! | v X.N v x q + F 5.2.f l n l d p g g g q q > ; ; < F #...#.R F Q +.#.| N f 8 , "
};
