/* XPM */
static char *_4b5fec7c49d4a04b4906ccae6ce6c20[] = {
/* columns rows colors chars-per-pixel */
"64 64 127 2 ",
"   c #252421",
".  c #2A2522",
"X  c #2E2A26",
"o  c #2F2D29",
"O  c #302B27",
"+  c #322D29",
"@  c #35322D",
"#  c #3A352F",
"$  c #373530",
"%  c #3A3632",
"&  c #3D3A35",
"*  c #3D3C39",
"=  c #413C36",
"-  c #423E3B",
";  c #46413C",
":  c #48433E",
">  c #474340",
",  c #4A4641",
"<  c #4E4943",
"1  c #4F4D48",
"2  c #524C45",
"3  c #544E49",
"4  c #55524C",
"5  c #5A544D",
"6  c #5E584F",
"7  c #5C5650",
"8  c #5E5952",
"9  c #5F5D59",
"0  c #605A4F",
"q  c #625C55",
"w  c #635E58",
"e  c #666156",
"r  c #66615A",
"t  c #6A655D",
"y  c #6D685F",
"u  c #70665C",
"i  c #6C6661",
"p  c #6D6963",
"a  c #706761",
"s  c #726B64",
"d  c #786F66",
"f  c #746E68",
"g  c #786F68",
"h  c #757067",
"j  c #787066",
"k  c #75716A",
"l  c #7A736B",
"z  c #7E786D",
"x  c #7B7670",
"c  c #7E7971",
"v  c #82766E",
"b  c #82796F",
"n  c #847C73",
"m  c #897E76",
"M  c #867F78",
"N  c #887F79",
"B  c #868176",
"V  c #898276",
"C  c #878279",
"Z  c #8C847B",
"A  c #8F897D",
"S  c #92867D",
"D  c #928A7E",
"F  c #8B8781",
"G  c #8E8981",
"H  c #948D83",
"J  c #988E84",
"K  c #948E88",
"L  c #979086",
"P  c #999286",
"I  c #969188",
"U  c #9B948B",
"Y  c #9F988E",
"T  c #9C9791",
"R  c #9E9892",
"E  c #A1958C",
"W  c #A2998E",
"Q  c #A49C93",
"!  c #AA9E95",
"~  c #A29F98",
"^  c #AA9F98",
"/  c #A6A095",
"(  c #ABA196",
")  c #A6A199",
"_  c #ACA49A",
"`  c #AEA99E",
"'  c #B2A69C",
"]  c #B3A99E",
"[  c #ADA7A1",
"{  c #AEAAA1",
"}  c #B3A7A0",
"|  c #B4ACA3",
" . c #B9AEA5",
".. c #B5AFA9",
"X. c #BCAFA9",
"o. c #B7B0A6",
"O. c #BBB2A6",
"+. c #B6B2AA",
"@. c #BCB5AB",
"#. c #BEB8AE",
"$. c #BCB7B1",
"%. c #BEBAB2",
"&. c #C2B6AC",
"*. c #C4BAAE",
"=. c #C4BDB3",
"-. c #C9BEB4",
";. c #C4BFB9",
":. c #C9BFB9",
">. c #C7C0B7",
",. c #CAC1B7",
"<. c #C7C0BB",
"1. c #CCC4BB",
"2. c #CEC8BF",
"3. c #D0C6BD",
"4. c #D2C9BF",
"5. c #CDC7C1",
"6. c #CFC9C1",
"7. c #D3C7C0",
"8. c #D3CBC3",
"9. c #D8CEC6",
"0. c #D6CFC9",
"q. c #D7D0C7",
"w. c #D9D1C7",
"e. c #D6D0CA",
"r. c #DBD3CB",
"t. c #DCD7D0",
"y. c #DFD9D1",
/* pixels */
"n z l t j 2 e j t y u e n y q e l Z s g n D P n f r y r j C G f l U G H L R D z a a m r t J Z V E E W f 5 r 5 b j v P ] A t 4 b ",
"v j t n j l U H j : u b A ( H U ;.$.W u j D b D W *.4.2.=.T ; z A _ / 1.<.1.6.>...5 < 5 Q -.Q X.@.;.;.D < j 5 s ! *.#.( ` V v : ",
"z H L o.+.;.| +.o.0 2 S @.Q %.8.8.8.X.C q w q J 1.*.-._ ..n : n ` @.;.5.<.@.@.>.^ 7 , a ) -.O._ 1.6.8.{ A _ W p Q *.,.Q >.( 5 : ",
"A ` =.=.<.8.1.Q ,.r 5 Q ..@.0.e.9.3...i q l E *.O.Q Q Q L 9 ; n p H { L A ..R >.! 5 3 v E Z  .:.} Y I ..%.%.#.r ] _ U P ` #.e u ",
"U ` ;.1.o.=._ &.@.i , v H %..._ Q ] i - * S _ Q U P c _ l ;   4 Z Q +.H L ` G h u - - q g w J J H Q o.P L p Z e p h R } B c t 5 ",
"L B %.| D ;.) l 3 1 O w g 1.~ Q m ^ 2 = ; H P =.@.Z B r & @ ; r q s y r 8 5 < + . + = a m U i u 7 I L 8 c e 9 i p < q 8 < 2 @ e ",
"n c Q @.b _ m r - 8 = m i ! ;.' Z s : < - r Y Q z L 8 @ @ # = # - e s A V j : 4 = < 5 &.&.&.^ a v q Q Q +.$.$.c p 7 8 z y < 4 y ",
"; s p l 2 t n 4 5 * = 4 < 2 5 3 7 % ; 2 : f s M C l < X $ : 9 B =.,.4.,.+.Z ; : < w E 7.&.' Q S r _ | 2.>.$.{ _ n : 4 m 8.` H y ",
"* s e % < r q 4 q Z R p j j f q m m t c t q > n s t : 5 G H -.r.8.-.,.-.( V 2 : q J E 4.E ^ E w : O.-.2.( _ Q i 1 s j ] 8.P U B ",
"y 2 s 2 : t ; q f *.r.*.o.2.-.-.@.! #.y i Z 8 ; > - @ D O.-.,.-.1.8.-. .' S 5 2 v D ! W E 7.! 3 ( ,.2.Y *._ H i ; n ;.O.] *...e ",
"j e < n 4 # 1 4 m w.w.9.8.4.@.*.&.4.8.&.:.&.` r @ - i ,.4.4.&.9.3.*.*.&.! 2 3 < 0 l w ! G -.q i 2.] | @.] W V % 7 C 5.O.V _ =.e ",
"p 8 q n j < : ; ;.3.| &.2.-.;.|  .8.! =.8.8.%.H < > a ' -.9.&.3.' &.-.&.D : 3 q = : d q w l s O.] _ o.A y 5 = 2 p n | ] P Q =.j ",
"2 < ] @.Q < @ I *.Q ! _ o.W _ ] @.) &.1.0.=.$.m = = z =.,.4.3.` Q &.:.' N : : r N 0 & 2 , q C ) ] #.R 4 : > 7 4 5 k U _ Z L ] U ",
"n U O.@.@.e : l E D ,.| P Q ' Q ^ ` -.1.;.+..._ 3 : q  .-.Z S Q E J J Q n @ 3 ) +.Q 3 = < w 0 } | Z l i d ! S m p r x s n / Q z ",
"U Y #.@.` ( 0 l z V ,.H Q Y ! ' ) #.| ) =.U Q N @ = < ( ( z S b a Z N T 5 2 :. .| r.1.v 4 % 7 M i r ; ; G ' ,.;.+.5 t l D P q e ",
"p A o.@...l < r l ( $.$.H n ! #.} | W Q | I q - O # < s 5 4 0 : q v x x w a ,.#.3.0.3.4.$.- w 3 ; ; r ` ^ | -.1.) H 1 < U q ; d ",
"z ( | H r i < * 5 i Q ^ F l ^ N | X.Q X.) t - : ; 4 0 0 w 2 2 3 q 5 0 w < i =.t.4.-.r.8.0.Q > 3 7 w T ^ ! 3.-.&...m r < i p l t ",
"z R H Q n n ; @ = 2 a q > 7 w } ^ @. .I G + q 5 2 _ ,.4.3.3.] e 2 : 3 4 i Q I r.4.=.7.,.5._ i % & Z Q  .7.:.*.X.f c i < > 1 M w ",
"c L G l l < = @ > > u q > - > > l U G H ; > a U 4.4.4.,.,.*.] E 5 - - g Z W ` } ! &.' ..;...z : 3 Q } 1.-.} -.U ) c U 3 < g Z 2 ",
": Z l l 3 - - % a ! &.! N 1 % - q g ! w : g g S -.*.,.*.] ] *.*.N - - x W ^ ^  .^ E Q S V D - < g Q 4.;.E ( 9.$.K U i 2 _ &.=.g ",
"< . ; > * % % 2 E  . .H E E = % - m g > r s m ( W ( ] ] ] ]  .Q m 5 : t m ! Q | n R _ %.n i % s H O.=.! _ ' e.` Z G c z J #.X.J ",
"R $ . , @ * q P E X.' &.*.H t = + = + - 4 l c H V Z n H b H E f q 5 - a 5 2 w f x q p C v 2 $ C Q :.' ! E ( | n t l i > r %.-._ ",
"c q ; - X 2 p H 7.7.&.7. .m q 5 < - = i ! Q r 5 t E D Q D Q M 5 - - - < - + % > 2 w < i 4 , s H 1.' U X.&.K c w w 3 i - 5 Q *.' ",
"h T 4 ; + = @.=.-.} *.=.m u 4 2 O % E =.X.3.! _ t s m 0 : 3 > > 4 q Q _ l ^ n q = + - 3 < < n @.=. .U E ^ N s p > , r = @ : H ( ",
"U [ p 2 + P _ P =...' ( Z q < % < n ' ! ( -.3.' =.v & - 7 0 q i } _ X.] O.( ,. .H 5 @ & * n Z *.} =.[ W M 8 s i 7 2 h B < : < B ",
"K ) [ 4 % f V ! ' U } ( I y , : N ' 8.=.^ ' Q :.7.$.f > q 7 } <._ O.*.' v U ] ( E } 2 ; * ~ ..X.@.:.| I r i 4 4 4 J P @.( y % = ",
"p G R % % l B z t T H j q 4 s i E :.:.| Q U m  .t.} v * < , ;.~ Q ) z I J J n ! H Q E 5 5 g =.] =.O.F l , 1 * 5 o.@.] _ #.z & % ",
"5 < < & % 4 q 4 5 s c 5 , 7 m Z E a u H m i g n ' W K 5 > w C v S g d m ^ ' l H U J Q c r < U N ! Q R 7 $ & : ) @.@.` o.=.D # + ",
"O o : ; < 5 < 4 w 4 < > , O = 5 q q p t l Z l p S N l % = - = q l z q 7 l v g v q i i > * r l H O.H f 7 $ 3 f { ( V ..@.` L e % ",
"# t D ` ) _ <.%.C c 7 < % @ ; > @ @ @ & < , 7 5 q 3 % % < @ O : < : < q < < 2 < < 2 r 5 & % s R { Z p * 1 t ( _ @.@.U H z C 3 < ",
"Z @.-.) Q | -.L @.I p 4 = 5 5 r H Q n f ; q t 3 - - J i < < f p @ % = 3 2 + - - = % % = ; & w C $.k , 3 p / _ o._ Z t i w t t 2 ",
"A Q ` @.-.o.@.1.=.M 8 - 2 m ( @.O.#._ f p : % < 7 J G ....X.H @.H 5 - : = @ q E m f 4 z 2 q 4 , G x ; , C G T G 5 ; @ & * 3 5 0 ",
"r Q ( o.| @.@.| R n q 8 V *.>._ ' 4.;.) G f X i H $.1.&.*.( E 3.1.;.U 5 % w V 4.O.] O.O.W W * ; 4 q = r w 4 2 = @ % @ = % r 5 4 ",
"Y o.>.W / P Q c p r U ` o.O.#.@.#.6.Q R 2 , 2 i } @.&.} ' &. .....@..._ m w y 7.W >.4.4.| O.C # % * 4 < : < < 5 e w 2 D { H e q ",
"r z @._ P n 5 5 r { Y ] >.O._ P s z Q 7 2 % & v N Q &.! H E H S ( E H U J 4 N 8.>.#.,.1.,.U +.9 : 1 r n ] W ' | S : W @.@.Q @.d ",
"r r U L h r : < l r V / v y h y w d q - ; w : r v U |  . .O.' _ ! Q S H ' d 3 8.w.>.O.P 4.w.@.6 * q _ Q 3.8.&.] l g H ,.*.@.1.Q ",
"> % 5 3 % % # : H l Z 7 e 2 < = 2 5 - @ q r 2 ; = 8 h Y =.;.O.-.&.-.` Z ] Q s F r.y.Q O.8.2.$.7 A | ( 3.&.&.L m C 1 U #.4.>.*.| ",
"* : r , @ @ % : ; : < - # : : : & q r q y b A q 4 - q U H ' ,.4.=.-.=.| Q  .J 4 -.2.@.@.W D H 4 j P E O.&.W @.T 4 5 D O.&.*.o.,.",
"* 4 > 3 5 e : r r : = - e ; p 5 - = < C P z ] _ Z > 2 U n l Z ..' J Z o.$.+.| r r n >._ ] ] Z - q l v Z W 2.} B * t z ] Y W 8.*.",
"> * w | @.&.-.} -.m q < & z Y L r ; % c L U O.&._ m 2 w t t Y Q X.{ C ) ) [ { H ; C o.Y Z L < , 3 z V n z U t 1 * 4 q y ( o.( L ",
"r - O.=.2.&.W ] _ H 5 X l ) ` U w : < t l ] H ' ! _ s 2 3 r Y Y m p r r t i M 8 & 5 C 4 ; 2 < C = Z Q n < $ @ + 4 > 9 5 l Z Z n ",
"q H O.*.Q ] -._ Z M o ; R / / R n : 3 : 3 s D U *.O.l e > 8 f k < ; 5 8 < - : = ; q , 3 s R +.<.$.+.e < 4 : e Y f & 5 < 8 h 4 r ",
"2 ] -.-.b ' &.D L h ; 8 L O.` R v > w 3 : = : Z | -.a w = % % > 2 @ o < % = % @ , , n ..=.%.>.6.6.+.< ; , l _ o.{ / A P G k 1 q ",
"s *.( ( Q  .,.E L 9 t C _ @.1.` n = 3 r ( 0 = : W U J - . 3 h r s z M l s 4 % - r Q 5.| >.,.2.8.%.) * ; i @.W O.` 1.1.#.` .._ r ",
"B ] O./ ] O.&.E p 1 r I I O.8._ l < t U @.*.: < < - - = g ] ! O.X.| ' _ S m % q <.6.@.D H 2.2.8.{ ) < 4 Y W #.,.*.,.O.=.=.#...r ",
"u D ,.#.] O.' V 8 > p %.P o.1.1.2 p Z ) W 2.#.q - = 3 a  .&.( ' ! &.=.X.n 7 8 l m ) Z Q o.@.L H ~ Z < B W D O.O.] W @.=.( $.R 8 ",
"e P 4.A Q U E u 1 1 m Q W @.+.] q * c G [ @.,.H = # u S &.v H ] &.&.' ^ H n 7 5 n Y ] ( Y H z z D 4 w U / P *.+.L o.L _ %.H q q ",
"6 ] _ Y D P B y % 7 Z ( H / Z p = 3 Z Z Z { ~ I 2 - u ] S J ( O.! m H ^ H t 7 5 n n C H U / ] Q Q # i D z n ] n e j 3 p n r 7 2 ",
"s q j l s i k p - 4 i R p G c m - 9 l l ..A z : 2 < j Z p Z b P R | N F g t f O * 8 k B ~ A s k i r f q 6 5 r 5 ; ; < : < < ; @ ",
"5 B 8 5 7 f i > * 4 5 & 1 t 8 3 ; 4 p q 5 z 1 = @ +   5 l r t 8 i s s s i t < + o ; 4 1 ; ; ; ; . - 5 : & ; % < 4 3 < * 2 & @ = ",
"$ $ @ $ 5 4 , = * & 1 * % 3 1 3 3 = @ 3 < < : @ * : 9 : @ ; : : > 3 4 3 < , ; = * o   @ * & ; : @ @ ; , 8 t r p z r s n y 1 # # ",
"@ < s Z n c f z F T T T R H H G F M 1 4 @ : r Z W | #.*.O.W O.#.+.+.O.@.#.@._ ] L n n 8 4 : 4 e Q ..@.@.@.-.6.=.o.) { U D r = # ",
"* x Q F U ..( ` ;.1.>.) ..=.1.1.@.Q h e ; A O.>.1.4.w.r.,.q.w.4.4.5.8.7.8.1.=.] +.+.H s 2 ; p >.0.8.1.O.,.q.>.1.>.%.>.$.=.B ; @ ",
"< G Y ` _ -.2.8.,.,.2.*.G Z ) [ R T h i ; h | >.o.,.&.O.@.o.] _ =.5.6.,.Q L =...,.;.l V : 1 C 8.=.@.( O.o.W W W Y +.@.1.@.Y 4 % ",
"4 M I Q @.o.*.*._ O.8.( ( G Q l I c B 5 @ z ,.>.o._ L Y ) | ] &.O.*.` =.Y @.O.O.=.Q z z ; l W ] ( | o./ ( D n H H O.P m U V 8 * ",
"4 x I Z / Q / #.-.@.Q J O.U H $.H z G 5 * l C P D L D S D Q W ( L H U U A Q Y ( { P U 5 & y A ( ] L ( D Q A Z D l l _ H L U 8 % ",
"7 c z P L D ( } ( H U l P E ) _ | l h 5 ; U / V V J U V L O.Y H n (  .Z z m l Q U ` Z 5 & t ` / E B Z Z b b J L H P Q E V n q * ",
"7 m A Q J ( ] S B n l z D n U ! / L h 8 : p / O.( U ` o.W P A z P H H B s H A Z _ P l r % h _ ) U H D Z U ( H L Q W D D s Z r @ ",
"8 C y z Z D U U / Q _ P D ( Q B A x k t ; p _ o.@.( P Y D L B B D L C A L l l { L C h 4 & i / W V W E D H V V z _ Z u Z p A r @ ",
"8 k H P H B Y { ( { A V ` / j z H e 9 4 ; h U / P ( z b H P P U H Q U P ( Y n @.U Z e 8 # 4 L W P o._ W U A n n j P D z n s 9 @ ",
"7 c x R ) ` L D / B b l z H ` n y c 1 8 , n l h A A z z t s A h s h G Y U x G y 9 s l r @ 1 l B D o.W P / D Z b P P U Z n e 4 @ ",
", x k z u j U A f s s t w s x l t j y = * r p p 9 z H p k 4 4 9 9 k x A c h l r s c p 4 @ & r l U S j z n B A W b z b A l 5 7 & ",
"& 8 i i y j 5 4 s e r p e 5 8 5 8 9 , * ; ; , , 8 4 p 5 8 8 1 4 t 4 : 4 9 r 5 i i 5 2 * # < 8 y 5 r q 4 6 e s u t t : : = 3 * # ",
"4 $ @ @ % ; ; ; : = * @ $ & * = & * $ * o @ o @ ; $ < ; $ % % % % & & = ; 2 : * # # 2 : < % & & 1 # * : : : : 2 : : : 2 : 2 % = "
};
