/* XPM */
static char *f406d251b7f94578c9b0a7112aada359[] = {
/* columns rows colors chars-per-pixel */
"64 64 234 2 ",
"   c #2C2D14",
".  c #2F2D1C",
"X  c #332E15",
"o  c #342E1B",
"O  c #392D1B",
"+  c #2E3315",
"@  c #2F331B",
"#  c #333215",
"$  c #35331B",
"%  c #3A341D",
"&  c #35391B",
"*  c #3A3B1C",
"=  c #343A17",
"-  c #2D290F",
";  c #352E22",
":  c #3A2F21",
">  c #392F28",
",  c #363322",
"<  c #3B3423",
"1  c #353921",
"2  c #3D3B22",
"3  c #3C352A",
"4  c #3D3A29",
"5  c #37312A",
"6  c #42391E",
"7  c #413625",
"8  c #423C24",
"9  c #433C2A",
"0  c #423729",
"q  c #483F3C",
"w  c #3C411E",
"e  c #3D4223",
"r  c #3C4821",
"t  c #41441D",
"y  c #464A1F",
"u  c #424424",
"i  c #494524",
"p  c #454B24",
"a  c #4B4D24",
"s  c #44432B",
"d  c #4A452C",
"f  c #464B2C",
"g  c #4C4C2C",
"h  c #514D2C",
"j  c #504F27",
"k  c #465325",
"l  c #4B5225",
"z  c #465329",
"x  c #4C532B",
"c  c #4C5A29",
"v  c #495A28",
"b  c #525527",
"n  c #52542C",
"m  c #545B2C",
"M  c #595E2C",
"N  c #5A532D",
"B  c #464333",
"V  c #4C4533",
"C  c #4C4B32",
"Z  c #454339",
"A  c #4B443B",
"S  c #4E493C",
"D  c #524C34",
"F  c #51453A",
"G  c #544D3B",
"H  c #594E3B",
"J  c #514433",
"K  c #4D5232",
"L  c #4E5A32",
"P  c #4F5639",
"I  c #545334",
"U  c #595533",
"Y  c #555B34",
"T  c #5A5D34",
"R  c #54533A",
"E  c #5A543B",
"W  c #555A3A",
"Q  c #5B5C3C",
"!  c #61553D",
"~  c #615D3D",
"^  c #4B642E",
"/  c #55622D",
"(  c #5A632E",
")  c #5C692E",
"_  c #556233",
"`  c #5B6334",
"'  c #556935",
"]  c #5B6A34",
"[  c #566439",
"{  c #5C633B",
"}  c #5E6A3A",
"|  c #5D7234",
" . c #616435",
".. c #626B35",
"X. c #62643C",
"o. c #646B3B",
"O. c #6A6B3D",
"+. c #68643F",
"@. c #637336",
"#. c #65733D",
"$. c #6B733D",
"%. c #6A793A",
"&. c #707A3D",
"*. c #72783A",
"=. c #706C3E",
"-. c #494440",
";. c #514642",
":. c #564E40",
">. c #5A4E43",
",. c #5B5443",
"<. c #5D5B42",
"1. c #555643",
"2. c #625542",
"3. c #635C43",
"4. c #695D45",
"5. c #665C49",
"6. c #6B5E4B",
"7. c #615749",
"8. c #705F51",
"9. c #6C5F51",
"0. c #5D6341",
"q. c #5B6446",
"w. c #646343",
"e. c #6A6445",
"r. c #656B42",
"t. c #6B6A44",
"y. c #64624B",
"u. c #6C644C",
"i. c #666B4B",
"p. c #6D6B4C",
"a. c #726C46",
"s. c #72664D",
"d. c #736A4D",
"f. c #7A6D4E",
"g. c #716347",
"h. c #677341",
"j. c #6C7343",
"k. c #6D7C41",
"l. c #6D714B",
"z. c #727344",
"x. c #737A45",
"c. c #7A7C45",
"v. c #74734C",
"b. c #79744E",
"n. c #757B4B",
"m. c #7A7B4D",
"M. c #797647",
"N. c #6D6551",
"B. c #6E6B52",
"V. c #6E6759",
"C. c #736652",
"Z. c #796650",
"A. c #746A53",
"S. c #796C54",
"D. c #756759",
"F. c #746C59",
"G. c #7A6D5B",
"H. c #767253",
"J. c #7B7355",
"K. c #747A52",
"L. c #7C7C53",
"P. c #76725B",
"I. c #7C735A",
"U. c #7B7A5A",
"Y. c #6F7350",
"T. c #7E7561",
"R. c #7F7A61",
"E. c #816F58",
"W. c #827C57",
"Q. c #82765C",
"!. c #837B5C",
"~. c #867B5C",
"^. c #837E4F",
"/. c #827662",
"(. c #857B62",
"). c #897D64",
"_. c #857C6A",
"`. c #897C6A",
"'. c #7C823A",
"]. c #768144",
"[. c #7B8343",
"{. c #7C834B",
"}. c #7B884A",
"|. c #7A8352",
" X c #7D8259",
".X c #6D8143",
"XX c #7F8562",
"oX c #82844D",
"OX c #828354",
"+X c #84825C",
"@X c #878A58",
"#X c #8C935B",
"$X c #869150",
"%X c #94985A",
"&X c #8C9348",
"*X c #98A15D",
"=X c #858164",
"-X c #8B8365",
";X c #8D8C63",
":X c #858469",
">X c #8D846B",
",X c #8D886A",
"<X c #868A65",
"1X c #928666",
"2X c #91856C",
"3X c #938A6C",
"4X c #908F66",
"5X c #8B9363",
"6X c #95936D",
"7X c #98996B",
"8X c #8E8871",
"9X c #928672",
"0X c #958C73",
"qX c #998D74",
"wX c #998D7A",
"eX c #938B79",
"rX c #959375",
"tX c #9B9373",
"yX c #9D947A",
"uX c #9E9C7F",
"iX c #A09E60",
"pX c #A2967C",
"aX c #A39A7C",
"sX c #A49C75",
"dX c #94A360",
"fX c #A5A57E",
"gX c #9F9B89",
"hX c #A59C82",
"jX c #A89D85",
"kX c #ABA484",
"lX c #ACA38B",
"zX c #AAA681",
"xX c #B2A68C",
"cX c #B4A791",
/* pixels */
"$ 7.e.u.U.-X>XG.u.N.P.U.>XuXyXP.A.U.,XyXhX).S.P.G.I.F.4 .     # 4 e.w.P.I.`.:XA.U.-X>X>X=XU.:XR.I.>X2X:X>X>XA.p.I.jXpX1Xs.O O , ",
"3.:X3XI.f.Q.-X(.H.e.<.!.>X9X1XP.S.W.).-X3XI.e.4.4.3.4.V s , $ J 0.J.f.H.v.e.4.I.(.A.H.w.e.K.=Xd.e.5.6.Z.A.Z.d.I.1X1X).f.4.d 9 < ",
"F.0XjX).S.A.P.P.A.e.5.(.>X:X).I.Z.Z.S./.`.G.s.5.2.<.! C V , < ! e.H.P.S.A.2.4.(.(.d.d.3.~ v.!.A.s.2.2.4.Z.D.A.I.~.`.E.g.! J V 5 ",
"_.9X9X2X(.d.4.5.i.C.A.A.Z.Z.Z.C.8.6.8.C.S.C.C.A.u.4.4.G F < 2 p.p.(.I.e.e.6.C.G.F.A.C.i.3.~ r.d.a.8.8.8.D.D.A.p.e.6.e.6.4.H V 5 ",
"8X>X(.).>XJ.i.B.B.d.p.A.B.A.N.C.Z.N.N.C.F.A.d.p.p.v.l.W ,.7 % H.I.-X>XC.D.A.A.p.p.d.d.H.i.3.e.l.p.A.G.C.D.C.B.t.i.N.B.F.6.H F 3 ",
"jX_.d.e.p.w.0.i.l.w.Q p.p.A.d.A.C.E ,.N.A.p.d.{  .n.x.! H % 6 tXaX3X).2.2.p.t.Q w.p.d.d.d.A.A.].n.a.e.H 2.F.t._ Q E R E ! H V > ",
"0XW.z.M.K.X.{ i.l.+.w.r.u.t.a.H.I.e.3.B.A.r.e.X.o.h.#.n J % * +X4X+XI.U 2.b.v. .X.e.u.r.p.f.v.$.j.v.a.7.3.t.r./ ` <.Q U Q X.U 9 ",
"L %.'.&XiX^.a.f.a.p.F.,.I ` ( $XdX#X,XA.p.E I A.B.C C % , & & k k ' ' u l %X%Xz.r.C z 0.X.h.O.D Q m.{.#X|._ ) ) @.].%./ | .Xk._ ",
"c ) *.c.oXv.t.l.z.t.i.E x m / ].}.{.W.b.z.Q Y w.X.I g * $ e r k l _ ` m ` OX^.O.e.C P W { j.z.<.+.$.M.m.l.Y Y m ` j.o._ ] } ' z ",
"+ b  .m b Y ` l.[.o.` n a a a / / M ( M.m.+.T n p g a * % w.X.z k ` } |.m.N N h E W R f m n.m.F.p.~ T n K g z f l n Y w.x + @ + ",
"o i x I I [ [ | %.( n K g M ` / m M m o.#.T m ` U u u * * g g u u x z X.T h d V V C V r p o.O.N.3.Q Y I C s s u d d s G f $ & . ",
", % o B 1.q.' ' ) l z I W K.OXm a a y l n l g p.l.2 $ 2 * $ # $ $ # # # # % O O , , $ # & y p R U U n g B $ o % $ % < o < 8 2 , ",
"3 < < 9 B f r k p u e e s I Q s B s r Y W g u U R % o V V 1 , < , < $ o $ < % < < < < $ * m x B d I g 8 3 < > < O % : : < % 7 o ",
"< 3 7 < $ . & @ # o , , $ o + $ 1 < 2 1.y.9 % O o < 3 3.3.9 3 8 8 3 0 O % < < 3 7 4 2 $ 2 w.W ; * g i O < 7 0 0 7 8 7 < : 7 8 < ",
"i.! U s.G.u.w.U U 3.5.C.F.e.w.8 o < , B V * % O 6 s.S.P.v.r.4.A.F.6.e.E H 3.e.e.u.C.2.% 2 V f @ * h b n ! 6.8.g.g.b.A.7.C.A.u.y.",
"eX!.f.pXcXpX3XE.E.1XqXlXxXtX6Xg # , $ # X % O O 6 aXxX4X;X4XtXxXxXwX9XQ.H.3X6X0X0XwX_.9 2 # 1 1 2 a N H.Q.wXwX2XsXfXzX9XpXlXkX8X",
"G.A.s.Q.`./.I.A.a.P.I./.).E.E.Q E D V 2 % H E 4.e.2XqXL.K.P./.9XqXE.E.s.S.-X+XI.I.I.F.,.,.S C K g 2 D 3X1X1X~.G.E.OX).-X).~.Q.F.",
"9.A.Z.C.9.C.p.p.B.i.s.s.u.s.A.F.G.<.W 4 % C./.2XqX-X=Xd.u.s.D.`.).f.a.d.G.1X).s.d.C.N.G.F.,.<.] W 3 :.xXsX@XW.B.p.g.G.9XQ.s.p.N.",
"u.A.f.C.F.Z.N.A.Z.F.C.C.Z.C.Z.5.3.E R 2 % ).yX`.).I.P.p.A.B.F.G.E.g.d.D.D.P.P.d.A.A.B.2.,.H D w f ,.N.9X1Xb.H.F.Z.a.Z.I.S.s.s.u.",
"p.a.p.a.Z.C.A.d.C.S.C.Z.S.A.F.E I E E < % 9XkX2X>Xa.s.p.p.A.N.C.Z.a.a.d.C.s.s.p.d.A.N.E R G J * g I./.:X~.e.d.Z.F.a.F.C.s.d.f.u.",
"H.v.a.a.F.F.A.2.2.8.Z.f.f.A.A.E E Y.H.d % f.~.1X3XA.d.e.~ p.F.F.f.f.d.A.F.d.d.f.A.A.F.e.3.R E Y 3.rXrX3X-Xg.d.s.A.d.s.4.p.a.p.N.",
"H.z.t.t.p.Z.C.4.2.g.S.s.t.p.t.E R A.P.i * ~ p.W.~.A.A.+.+.i.A.p.p.t.t.f.F.A.s.A.u.d.N.i.u.R E Q p.uXtX+XU.d.f.Z.d.d.u.,.4.a.d.i.",
"i.O. .e.H.Z.C.Q.`.P.a.~ T T ` I l u u $ = Q X.U U u.F.t.t.v.H.p.p.+.+.A.B.E E d.p.w.Q E Q E R g I t.o.~ w.P.K.a.a.B.u.G 3.v.p.{ ",
"i.O. .r.p.N.A.).8XH.t.` b  .o.l l # # * w c _ a g r.B.d.z.t.i.i.t.{ X.A.Z.E ~ u.d.E E E R I U s p _ n v Q U.J.=.z.u.i.E e.t.e.Q ",
"C.p.l.r.3.u.F.F.H.w.[ _ / }.7X/ a * & m _ c k _ Y W 1.H.n.Y U 0.{ t.t.A.F.).(.B.u.D E E U C f 1 * _ ) / 0.l.m.%XOXI y.8XP.E T Q ",
"N.r.t.Q W w.r.u.i.{ o.( / }.$Xm t * @ L Y p r } { Y D K.c.X.Q Q ` n.m.e.B.-X=Xt.w.w.Q U x g f 2 p @.| ` } o.c.%X{.I w.:XH.T T Y ",
"<.Y n Y W K f [ { k.|.X.U n x * + & & % 8 % < p.l.l z x.[.<X:XQ T %X%Xl c .X%.' ..].j.c a j n ` h.5X}.` ] ` @.oXk.' ' ' o.{.h.x ",
"W T ` _ Y K z Y /  .e.I h s s u e * 1 $ : O : H X.c v @.%.K.P.R b [.'.k z | | v v x.#.w t i a I W Y.i.m T M _ { ` ^ ^ v ' #.o.g ",
"I l.OX#.` { ` / Y d * 2 < 3 4 <.y.e $ % < 7 0 % * T ` )  .l S C j l l a g { [ & e 0.` $ % & & , & & < K C Q g $ w k z l l l l f ",
"u ` =.T m T M l f 2 $ 9 V 8 4 S 1.4 % % < 7 7 O # g c k b u s s u t w i s K C @ 1 C C , 1 f s , ; . < B s D s X $ w u 8 w w u u ",
"o i a b n a y = X # # H 3.4 % < , < < < : : O O $ X + # # $ % 1 * % $ $ < $ @ $ # # # & 9 0.E < < 3 < $ < % % O # X o X # % * * ",
"o 2 u 8 8 ~ f.~ E E E H.(.e.Q ! <.5.i.7.2.2.2.6.4.E E E E % % V D O $ < 3 C J D D E E D R J.A.2.4.u.5.2.! ! 4.4.4.! 2.2.D # % $ ",
"< % O 6 X _.lXtX3X,X,XsXzX6X3X3X3XhXlXeX9X9X0XjXlX0X>XeX>X8 8 3.Q 2 < < 9 A.A.d.P.3X-Xf.H.,X>X3XqXlXhX3X2X>XyXxXaX0X9XeXD.% % $ ",
";.3.a.4.2.`.hX).!.,X,X-X-XW.L.L.!.qXrX).I.I.(.-X>X(.Q././.D i h I E E u.A.!.!.!.~.Q.I.d.A.W.!.Q.).yX0XQ.(.!.(.>X-X~./._.9.; < < ",
"B.3XfXpX2X2X2Xf.C.`.>XA.p.p.p.s.C.`.1Xf.a.A.s.s.s.s.Z.D.D.E n j h B.S.lXkX2X>X3X>Xf.C.Z.C.Z.C.s.S.>X).d.A.u.u.F.p.g.p.F.,.o < < ",
"u.-XtX).I.Q.Q.A.C.G.Q.b.K.d.u.A.Z.I.I.Z.a.s.s.f.s.C.s.6.7.H D u i >X3XyX6XJ.Q.I.I.A.A.2.4.C.d.s.A.I.P.u.C.B.Z.Z.s.d.u.5.:.o % , ",
"C.`.`.E.s.s.d.F.D.N.a.c.m.a.F.F.s.s.s.d.d.f.s.f.Z.S.C.,.:.G :.8 s aXkX@X^.a.s.s.B.A.u.U Q p.p.s.A.a.d.p.A.A.C.Z.Z.G.9.>.F < < . ",
"eX9X2XE.s.p.3.B.G.Z.a.z.v.H.V.F.C.A.C.3.2.d.d.! E Z.C.6.y.,.:.3 8 4.t.m.m.f.A.s.F.Z.B.E 3.v.d.A.A.A.B.J.H.f.A.Z.A.d.Z.T.N.V s , ",
"hXrX1XG.A.4.<.i.V.B.a.t.t.p.B.F.B.F.D.,.R p.d.h f i.y.B.N.<.R % % i j m.M.d.A.Z.D.C.p.4.e.g.d.F.B.d.a.L.v.p.p.F.d.t.L.8XU.E D , ",
"1.d.J.d.t.T I Q W 0.X.X.X.0.q.B.Y.<.2.I.R.u.0.g p Y { <.<.I D # = i b +XOX~ ~ U.H.Q Q i.t. .X.<.Q w.O.j.O.{ { <.X.].l.{ 0.{ K # ",
"u T $.z.=. .m m x ` { Y ` ` ` r.l.Y R U.<XX.T l k / ' n E g f * = a N +XW.m T K.l.n Y h.#.` _ R E {  .h.O._ [ P [ ].#.z Y ` C @ ",
"n.t. .oX%X{.k.X./ j.K.` m #.x...` { w.U T m / #.j.o.' Y H * 2 U Y U.U. .N ` _ #.} ' _ ' | .Xk.Q Q n T K.x.` [ Y _ ) } [ ` Y u   ",
"l.O.M c.%Xm.z.o.m #.K.` l $.[.) _ _ Q g i l c t.n._ m I D * = ` w. XU.h i _ [ Y c [ _ / ) %.#.` _ n ` K.j.Y ` ..] / Y [ K p w & ",
"e g b m M m n Y ^ } i.1.Y c.}._ k e * * % a g u e * % 8 7 O * { { u u * % 2 * * u W Y x c n c z c { w.Q Q a ) %X[.c p 2 w & f W ",
", s a i y p i C k L 1.W I o.$.l r 1 , ; $ s d < o < 3 < < $ e W L & # % % < O < 7 D D d i i a k k Y R C D t ( &X&.f e $ & $ r W ",
"o $ # # X X o o + # . < < * 6 $ & 2 3 o ; < < < , o ; o = i u 2 & 1 $ < O o O X X o $ 2 < % 2 z g & & 8 2 # # * % $ % 3 , o $ ; ",
"C s 8 i V V B V V d d < : < % 2 u 6 7 F >.V V F S H E h h 3.E d s V C V V I I f d V s < 2 < 8 d d 2 < 4 9 D J s J E F J V E D V ",
":XH.t.Q.>X:X(.=X).:X9XV O 3 2 E ` & O 9XjXG.e.(.>XhXpX2X:X3X-XA.N.F.N.N.G.uXyX>X-X>XT.O O % : 2 2 g d - f hXtX(.3XaX0X6./.aX0X_.",
").S.a.~.).2X0X+X).).`.5.H 9 3 W [ Y Q 1XqXE.J.).~.3X3X).(.).(.G.D.S.C.S.I.pXyX).).)./.H H H D 7 8 J I E s.pXpX1X2X6X1Xs.~.pX3X~.",
"F.a.s.a.s.qXkX!.d.d.Z.`.9XV $ I q.rXhXP.a.-X2XS.f.f.f.Z.C.s.A.C.s.d.s.C.S.1X-Xd.Z.d.G.2X9X9X/.< 8 d e.jXpX1X-X2X~.f.s.d.E.1X~.s.",
"N.A.s.Z.D.`.3XH.a.s.Z./.`.G u C K XX0XI.I.(.).A.A.Z.Z.Z.Z.A.C.s.Z.f.s.f.A.Q.Q.s.d.C.Z.`./.).F.9 J 9 ! sXtX+X-X(.E.a.A.D.G.~.I.N.",
"N.s.d.A.G.F.A.d.a.a.A.A.D.R R e w w.H.:X2XP.s.C.N.Z.S.A.d.A.d.d.d.d.d.d.s.d.A.d.A.d.d.A.Z.S.A.,.D % i -X-X;X).a.d.A.Z.D.Z.A.A.N.",
"!.H.a.e.6.u.d.b.K.a.s.C.N.,.E 4 & Y i.L.U.d.d.S.P.A.A.d.f.H.H.f.d.d.d.d.d.p.d.d.d.A.d.d.p.4.3.:.E 8 U rX4XW.E.f.d.3.u.N.F.p.A.H.",
"7XM.O.! J e.v.v.L.b.d.u.N.7.E * $ U X.t.l.p.z.J.J.f.a.p.d.L.U.a.p.p.d.B.d.A.A.B.d.p.p.A.e.D I 1.E J X.fX7Xb.v.d.u.I ,.F.d.a.v.K.",
"&.c.oXm.v.t.+.a.b.w.Q e.F.3.E 8 # Q `  .O. .~ z.b.a.a.p.t.+.+.p.v.A.J.B.d.3.w.A.p.B.A.H.H.H.N.,.R 4 U 6X3XOX!.d.u.U <.A.p.T o.t.",
"m $X*X%X;Xd.Q t.A.E D i.F.,.R e # Q } ` ` n N a.A.F.F.D.F.E H a.d.m.m.z.=.D R B.B.l.z.n.L.0X_.>.G , g ,X,X,X).G.B.0.r.F.y.G <.V.",
"o.*.*.&.L.p.p.p.t.r.l.O.X.n l p w l c o.t.m.W.d.d.3.7.r.y.K.H.r.o.v.v.r.w.P.I.B.F.o...z.a.e.5.,.G % i +XK.J.A.2.E W ` w.i.I.B.1.",
"p. .M O.p.p.p.r.t.m. XX.` b l a l k a o.z.6X7Xv.r.I U { `  X@X` ` l.i.q.q.,X<XB.i.{ ( #.O.n E ,.D $ u L.b.z.+.h n Y n ( #.4XU.C ",
"U.` b ( X.l.K.X.W W 3.R 1.r * * * f l n n O.$.m.n.X.Y n v @.$.k.j.[ W P 1.i.i.Q { `  .x.z.Q R 7 8 % u O.o. .O.j.t.l.#.(  .@.h.i.",
"U.+.m ( ( #.K.` I P W G W e @ & & f n a l M ( x.x.o.` l l m ` m.K.Y Y R P Q 0.Y R ` o.n.v.} W % % * t _ ` ( o.{.K.|.j.( ) ( o.K.",
"<.I a x.$X#.o.] Q I x K K I W W W u 2 * * w r c m l l e 2 E Q Q T n g h x x C 2 2 x n ` ` W P % 8 Q n w w w e u g ` #.#X'.k m Y ",
"C C i x.%X%.m { ` b a y p T ` ] ` r 3 % % $ $ r f f f 2 3 :.>.D U J a h g g f $ < C g I I P G < u y.I @ & $ = # 2 C t.7Xc.a p K ",
"3 4 & * u e * < * * * * & w w * & * 3 4 < 2 1 2 * 4 2 < > 0 3 8 < 7 2 9 4 * 2 < 3 3 2 2 < 4 4 4 4 e < 1 , $ < 7 2 2 8 u u & 1 1 ",
"-.q Z f s e C Z A A A A Z A S A Z ;.;.;.-.S A B B A F A q S D V q V Z A S B V -.F q V B B Z S S -.A A Z A B q F F B q B B A Z 3 "
};
