/* XPM */
static char *_91a2f2dddfc4542d179287ca667e06a[] = {
/* columns rows colors chars-per-pixel */
"64 64 101 2 ",
"   c #342916",
".  c #382D17",
"X  c #392E1B",
"o  c #3A3017",
"O  c #3C321B",
"+  c #3B2F23",
"@  c #3D3324",
"#  c #3F3923",
"$  c #3E342A",
"%  c #3F382B",
"&  c #40371E",
"*  c #42381F",
"=  c #413626",
"-  c #433A25",
";  c #493E26",
":  c #41362B",
">  c #443B2B",
",  c #493E2C",
"<  c #423730",
"1  c #443A31",
"2  c #493D32",
"3  c #4A4227",
"4  c #4A412D",
"5  c #50462D",
"6  c #52482F",
"7  c #4D4334",
"8  c #4F4539",
"9  c #514635",
"0  c #554B35",
"q  c #594E37",
"w  c #51473A",
"e  c #554B3B",
"r  c #584E3D",
"t  c #575036",
"y  c #585137",
"u  c #57503C",
"i  c #5B523D",
"p  c #60553D",
"a  c #62593F",
"s  c #554D42",
"d  c #594E40",
"f  c #564F49",
"g  c #565045",
"h  c #5C5342",
"j  c #5F5842",
"k  c #565249",
"l  c #59524B",
"z  c #615643",
"x  c #635A44",
"c  c #695E46",
"v  c #655C4A",
"b  c #695E4B",
"n  c #6B6246",
"m  c #6D634C",
"M  c #6F684D",
"N  c #71674E",
"B  c #73694E",
"V  c #786F4F",
"C  c #6E6551",
"Z  c #6F6853",
"A  c #716652",
"S  c #736A52",
"D  c #786E56",
"F  c #756C59",
"G  c #796E5A",
"H  c #7B7256",
"J  c #77705C",
"K  c #7D745B",
"L  c #7F785D",
"P  c #81775D",
"I  c #837A5D",
"U  c #817761",
"Y  c #857C63",
"T  c #897E64",
"R  c #867D68",
"E  c #8A7F6A",
"W  c #878064",
"Q  c #8B8265",
"!  c #8E8867",
"~  c #8D846A",
"^  c #8F886A",
"/  c #90866C",
"(  c #938A6D",
")  c #99906F",
"_  c #918673",
"`  c #948B72",
"'  c #988F74",
"]  c #988D78",
"[  c #9B9375",
"{  c #9D937A",
"}  c #A1967D",
"|  c #A39A7D",
" . c #A89E7F",
".. c #A19782",
"X. c #A59B81",
"o. c #A99F86",
"O. c #AA9F8A",
"+. c #ABA286",
"@. c #ACA38A",
"#. c #B0A78B",
"$. c #B1A990",
/* pixels */
"R ~ ~ P M I ! [  .( ( a - , 2 : > 2 > - # S _ ~ ~ ! ! W W [ } ( W Q ! )  . . .( T } +.` E P B 5 ; , 2 2 : * ; P E E T  . .T T E ",
"R Q Q K Z K Q ( | ( ! a - = : : $ $ % > ; Z ^ ! W Q ~ ! W [ } ( W Q Q ) | | } ! T { } E E P B 5 - = : < = ; ; P ) T T [ } T E E ",
"F B S B S N B S V V M P _ z = = % $ # j Z S S F V B N S B V B V B V B B D V V B N B P S G T E B A 2 : : = c N N P n P n P a P P ",
"F S B B S S S M N B N P ] c , : - : $ k J Z Z M M B B B B B B B B B B B N N B B N A N A A Y T P P 2 : : * c P c n P a P a P P a ",
"F B B B S S S S S S B I / P N e + % + j J Z V Z M N B B S B N B B B B D B S N N S S B B B B V T E 2 + : = c c P P b P b P P a P ",
"F S B S S A S S A S S G T P P r % % 4 j Z F Z Z B B B B B B B B S B S A S N S S S S S S B B B T E 2 : 2 , b P b c P c P a P P c ",
"S S B V S S S S A S A S B P ( z + 8 g m J M S M B S B S S S S S B A D A G S A B S B B B B B N T E 0 = d p N P P m P b b P b c P ",
"S S S V S B B B A F S F N T ( d + 8 u m F S S M B S S S S S S B S S A x r N F S S B B B B B B ! } 2 = r p b m A A b P A b P b c ",
"A S V S S B B B S S A F A P ` z @ 8 g m Z Z S S B S S S S S S S B B S , . v F A S A S S B B B } o.e : d p N N A P b A P b b A P ",
"m S B B S B B S A A D S A P _ z X 8 g n Z Z Z S B S S S N B S B S S S S S S A S S S S S S S V [ o.2 + d p N S A P b A c m P A b ",
"C S B S V S A S S A S S N P ( z + 8 h m F Z F S N S B D S S S V S N S } #.U N S A S B S B B P [ +.0 = d z A B P c A m P N b N P ",
"A B B B B S S S S S A B N P ( z + 4 4 u v m S Z S S N D S q 6 c D B S U T S S N S S B S B B n ! ) 2 = 2 , r c N P c P c N P N c ",
"C B B S B S D S S S S S N P / z + # @ 7 u n F Z S S S S D 6 . a S S S N N N S S B S S B S A n Q E , = = & 2 p m P S N N P P c N ",
"C A B B S z ; z D S B S N P ( z @ > @ 7 g M S S S S S N S 6 & ; 5 c S S S B B A S S S B S A V T ( 0 = = = q p N N S S N b N b P ",
"S S B B D i & r D A S B B P ( h @ @ # 7 u m S Z H S S B S 0 & - * c S S B S S S S S S S A G A P T , : = ; q q m N N P m N N N N ",
"F S S S N U ] Y N S S V N S D e @ # @ 7 u m S S N S S S N / ' ' ` P B S S S S B B S A B S A B P P : = : = q q c P A m m P N m P ",
"S S V B B T O.E A B A D N V P 0 = = - e h m Z Z A S S S N ' o.X.o.P N B S B B S S B S B S B V M n , ; : - q p N B S B S S S S S ",
"S S S S S D F F D B B B N P / h + 2 d v S S S Z N S N S S S S F D B S S S S S S S S S S S B n I T 2 : = = c S S B B S S B S S B ",
"S F B B S S N S A A D B N P ) z @ w h b F S Z Z S N S S S S B D N S N S S B S S S S B S S S n ! ' 2 = : , N S S S B S S S S S S ",
"S A S S S S S S B B B B N P ( p X w i m F Z Z S D A S A S S S A S S S S S S S B S B N B M B M ) +.2 : e i B S S S S S S S S B N ",
"S S S S S S A S S B A B N P ( h @ 7 8 j C Z S Z S S S A A A S A A A F S S S S S B S S B M M M ) } 2 : e r N S S B S B x x N B S ",
"S F S S S S S S S B B B N P ( z @ % @ 7 e n S Z S S S A S S S S S S S B B S N S S S S N M V M W ( 2 : e r N S S S S N * & n S S ",
"S F S S S S S S S S B B N I _ z X > 4 u v Z S S B B S B S S S B S B S B S S S N S N M M M M M L I 2 = r r N S S S S S c v N S B ",
"A S S S Z S S S B B B B N P ` z @ w g m J S Z S B B B B B B B B B B B S S S S S N M N S V B M M A 2 : r h B S S S B S o.@.P B S ",
"S S S A N S S N S S S S A P U d + 8 u m F A S S Z S N B B B B N N B S S S S S N N B S S S S B L L 2 $ e i x c N S S B T T S N S ",
"Z S S S F S S S S N S S A A G e @ 8 u m F F S S S S S H F D S S A S F S N S N N S B D N M S M ! ` 8 $ f h y y N S B S B A N S B ",
"S S S S S B B S S S S S G z 0 , @ 9 g h x m A b x x v r 9 z v C G A A S B m n c x N D S S S Z a h < : 2 4 y p N D A S S S B S S ",
"S S D S F S B B S S F A A e & = % 9 i u i b D v q h h , + e d v G A G F N N S z y M S N F S B 3 X - < $ # q y M B B D B D D S S ",
"8 7 7 7 2 z S F F S G z 2 1 : : $ > 1 1 , d b 2 , 1 2 : : 2 2 8 7 l j h p z z i u x j 8 2 2 2 , : : < : $ > 7 h j j j 7 , p z z ",
"$ : $ $ @ r S S A A F d : < < : : : : : : w z 2 $ : $ : < $ $ $ $ w g w r e h i u h f < : : : : : : : : $ $ : s g u u # - e g d ",
"$ < $ : $ - ; - , > , = + : = = : $ - = = 1 : - = @ = $ $ $ $ $ $ $ % % 4 % > - # % , = = : = = = : @ : $ @ # % 3 # # # # > : > ",
"$ < $ $ : - ; - ; ; = ; , , > > , , , 4 2 , , , , > , , 7 , - - $ $ $ % $ # @ , 3 - , > > > , > - > , , 4 4 7 3 % 3 3 # 4 $ % : ",
": : : = & a / T P P n P E E Y P N P E ] } } .._ W W W ` | K n 3 X $ $ < : @ @ S / T T S B U T D N Y E E T } } E T Q Y S m 4 $ $ ",
"< : $ , ; c / T I P P P T E Y P N P T ` } } ' / Y W W )  .I V 5 2 - $ < < 2 4 J Q T T H B I T D A P E T T { { ~ Y / Q K F > < < ",
"2 $ + q F S B B P n n N P c N B N B N B S B B B B S M I ! W Q P S 8 : : : b D S a B B B B N V B B N S V N B B N S Q ( / T , @ $ ",
"1 : > p S S B S N N n P N N N P B S B B B N N B N S M I I I ! I J 8 @ : : v F S P B N B S B N B B B B B B A S A V I T Q T 0 7 0 ",
"% 7 g n S A A S P N P c B B B B B S S B B B S B N F F m a T ! ! _ 0 = = @ b D N N P n B B B P N B D B B B B F S N B B Q ~ S D ~ ",
": 9 h j D A S S c N P N S S B B S B B D S S B S S F C m B P I Q _ 9 = > 4 n B B B B B B N N m S S N S S S S A S B B B P I K K ~ ",
"$ 8 u v G A P A n P c N S S B B B B B A B S A A S N M Z n N V I / e = e d N S B N N A A S S N S S S D S B S B B B S S N F ~ / ~ ",
"$ 8 u v A N m N N N b P N S B N B V S B S S S F N N A Z P V n T / e = e r N B B m P A N m P N S S p q B S S S S B S S A B K P ~ ",
"$ 8 i v F S S S S B A S S S P S B D A A A A A A N B B A A N a I _ e = w r A N n N N A P N S N N B ; & n S S B S S S S S N N S Q ",
"% 8 g z S S S S S S S B P p 6 9 2 c F F G A A A B B S P A N P T | d = 9 p b A P P c A b N N P A B ; & b S B S S B S S S S N S T ",
"< 2 f v S S Z S B S S N S 0 & = = h F A A N m A N N N A P N N ) #.d = 2 r A N N b P A P A P m P S ; * c S S S S S S S N S S S ~ ",
"% s h v F S S S S S B A A P T p X z F A A A A A m P N A A m N ( @.d = e q c P n N N A b S N N N B T ~ D B S S B S B S S B S D ' ",
"$ 7 r x F S S S S S B S c T #.N = p A N A N A A S B B A P a P ( O.z = 2 p m N P P c A P b N P m S } @.G B S B A S F N S S N D | ",
"$ > $ r F Z S S S S A B B P P T ] Y N c N A A A N n B P N P a T ` e = e r A N N N N A b P N N N S D G D S S S D S N S S S B S } ",
"$ < # e Z M S S S B S S S S m E o.P c P S A P A A P B A N N B I _ e = q r m A m P P b P b N N N D S N S S B S N N B N S S S D { ",
"1 : = $ # i D M S B A S B A B B B B S B S S A N B S B N n P N Y _ e = 2 p m A P n N N N P b P m B B S S S S B ; * n D S B B S / ",
"1 % $ > 3 j D S Z N S S S S N M b A A S S B B B V A S S B B B Y E r = e d C S B B B B S S M S B S B S S S S S 0 6 N B S S S H Y ",
"1 < @ i J S S S S S S S S S N N A S F S S S S S S S A S B B B T ] 2 = e d C S B B B B B S S S S S S S B S N S } +.K N S S N S N ",
"% 2 > i J S S S S S N S S N N B B V B B S S S D F A A S B B N T E d & 2 p C S B S B B S S S S S B S S S S B S ` ' D N S S N D H ",
"% 8 i v F S N S S N S N m N S B B B B S S D G D G S A S B A A T ] d = e d C S B B B B S B S S B S S B A S S B N N S S S S S D Q ",
"< 8 i v S Z N S S S A N N N S B N B B B S c h z z m A S B B B P E d = 2 9 b S S S B B S S S B S S S S N S S B S S S S B S N S ~ ",
"< 8 g v S S S S S N N N S S S B B B B S D 4 . o . q D S S S B m A 2 = = = b D V B B B S S B S S B S S S S S S S S S S S S S S T ",
"1 8 g v F S S S B N N B B S S S A S B S S B N N N A A A B B A P T 2 = 2 2 b S B B B B S Z S S S S B S B B S S S B S S S S A F ( ",
"% 8 h v F S S Z N N S S S S S S S S S S N [ #.#.#.E A A B B N T E e = 2 z N S D B B B S S B S S S A S S S S N S S S S B S B D | ",
"$ 7 l j v b A M S S S S S S S F Z Z A F F K R U Y D Z Z S S M U E z = w d v x n S B B V S S Z S S S S S S S S S S S S S S S S ( ",
"% 8 h g l v A Z S F S S S S S Z F F Z F Z Z C C Z Z Z Z S Z S R E r + e h r d A Z Z F M M S Z Z Z J Z S F F S S S S A F F Z F E ",
"1 7 > 8 h r z z z m S S S F S v j r 4 4 7 r x C Z Z S n j j x q d : = , , e h b S n i x i M Z n j j x 8 7 7 5 z z A F S S F A e ",
"% $ @ 2 e e r r e c F A A S S x y > @ $ @ 7 r v F S S j t u u , = = = = @ w h C J i t y y M Z i q u u # O @ = 0 r A F F F F A - ",
"< - $ : % 1 > , = e x j h z z 7 > = = - # - - e h h j 4 - > - - # - $ : @ - > r j h i 7 - y j 4 # > - # - - @ - > i j j r , , = ",
"< $ @ $ $ % - $ $ 7 r u i r i , $ : - : : $ $ 7 u u u 4 = = $ = $ - : < : : $ w r d r : # 9 e > $ # $ - : - : $ > e s r r > = = ",
"+ + $ $ $ % $ $ $ % % % % % $ $ $ $ $ $ $ $ $ $ $ - % $ : @ $ $ $ $ $ $ $ : $ $ $ : : $ @ % $ @ @ $ $ $ $ $ $ $ @ $ % % % $ = $ ",
"f f f f k k k l l g k g g g g k l l l l k k k k g g l k k k f l l f l l l k k k f f k g l k h l l l k k k k k k k k g k g k k k "
};
