/* XPM */
static char *e9b9b8ceae5646f2f8279b21f97cc1b6HgyO2dLka1tKVivF[] = {
/* columns rows colors chars-per-pixel */
"64 64 209 2 ",
"   c #BC9346",
".  c #C69C4B",
"X  c #CA9E50",
"o  c #CAA14D",
"O  c #CDA251",
"+  c #D2A653",
"@  c #D6AB53",
"#  c #DAAD56",
"$  c #D5AB5B",
"%  c #DBAE5B",
"&  c #D1BA56",
"*  c #DDB15D",
"=  c #DCBC5C",
"-  c #E3B454",
";  c #EAB556",
":  c #E6B856",
">  c #ECB956",
",  c #E2B45D",
"<  c #E4B95D",
"1  c #EBBC5D",
"2  c #F1BD5D",
"3  c #D3AC60",
"4  c #D8AF62",
"5  c #D7B363",
"6  c #DDB363",
"7  c #D7BE67",
"8  c #DFBC62",
"9  c #DEB569",
"0  c #DBBC6A",
"q  c #DFBD72",
"w  c #E2B663",
"e  c #E5BA64",
"r  c #EABD64",
"t  c #E5BB6B",
"y  c #EABE6B",
"u  c #F3BC60",
"i  c #F0BF6B",
"p  c #E4BD72",
"a  c #EABF72",
"s  c #DDC664",
"d  c #DDC26B",
"f  c #DEC674",
"g  c #E4C364",
"h  c #ECC265",
"j  c #E6C965",
"k  c #EACC65",
"l  c #E5C36B",
"z  c #ECC46B",
"x  c #E5CB6C",
"c  c #ECCB6C",
"v  c #F2C465",
"b  c #F2CA65",
"n  c #F2C56B",
"m  c #F3CB6D",
"M  c #F9CC6D",
"N  c #E5D06B",
"B  c #EDD26D",
"V  c #FBD267",
"C  c #F3D26E",
"Z  c #E3C474",
"A  c #ECC373",
"S  c #E5CB73",
"D  c #EDCC73",
"F  c #EDC579",
"G  c #E5CB7B",
"H  c #ECCB7B",
"J  c #F2C673",
"K  c #F4CC73",
"L  c #F9CD74",
"P  c #F0C77C",
"I  c #F3CC7B",
"U  c #FACE7B",
"Y  c #E4D376",
"T  c #ECD374",
"R  c #EDDA74",
"E  c #E6D37B",
"W  c #EDD47C",
"Q  c #EDDA7B",
"!  c #F3D374",
"~  c #FAD374",
"^  c #F4DA75",
"/  c #FADA75",
"(  c #F4D47B",
")  c #FBD47B",
"_  c #F4DB7B",
"`  c #FBDB7C",
"'  c #EFE077",
"]  c #EEE07E",
"[  c #F6E074",
"{  c #F4E27D",
"}  c #FBE27D",
"|  c #F4E87F",
" . c #FFEC7E",
".. c #EDC781",
"X. c #E4CB83",
"o. c #EBCD82",
"O. c #F4CE83",
"+. c #F3CE88",
"@. c #E7D684",
"#. c #ECD483",
"$. c #E7D884",
"%. c #ECDB84",
"&. c #ECD58B",
"*. c #E5DC8C",
"=. c #ECDC8B",
"-. c #F4D583",
";. c #FAD482",
":. c #F3DC83",
">. c #FBDC84",
",. c #F5D48A",
"<. c #FAD48B",
"1. c #F3DC8B",
"2. c #FBDC8B",
"3. c #ECCD92",
"4. c #EAD594",
"5. c #ECDB94",
"6. c #EED49D",
"7. c #ECDD9C",
"8. c #F3D593",
"9. c #F9D591",
"0. c #F4DC94",
"q. c #FDDC92",
"w. c #F4DD9C",
"e. c #F8DC99",
"r. c #EDE483",
"t. c #E7E48B",
"y. c #EDE28C",
"u. c #F4E384",
"i. c #FBE384",
"p. c #F5E985",
"a. c #FCEA85",
"s. c #F4E38B",
"d. c #FBE48B",
"f. c #F4EA8B",
"g. c #FBEB8B",
"h. c #F5F08C",
"j. c #FDF28D",
"k. c #E6E197",
"l. c #EDE393",
"z. c #EEE994",
"x. c #EDE39C",
"c. c #EEE99D",
"v. c #F4E493",
"b. c #FBE493",
"n. c #F5EA94",
"m. c #FBEB93",
"M. c #F3E49B",
"N. c #FBE59B",
"B. c #F5EB9C",
"V. c #FBEB9B",
"C. c #F6F193",
"Z. c #FDF395",
"A. c #FFF995",
"S. c #F6F09B",
"D. c #FDF39C",
"F. c #FFFA9C",
"G. c #E5D5A5",
"H. c #EDDCA3",
"J. c #ECDCAB",
"K. c #F3DEA4",
"L. c #EEE4A4",
"P. c #EDE8A4",
"I. c #EDE4AB",
"U. c #EEEAAC",
"Y. c #F4E5A3",
"T. c #FAE5A3",
"R. c #F5EBA3",
"E. c #FBECA3",
"W. c #F3E4AB",
"Q. c #FBE4AB",
"!. c #F4EBAB",
"~. c #FAEBAA",
"^. c #F6F1A3",
"/. c #FDF4A4",
"(. c #FFFAA4",
"). c #F5F1AC",
"_. c #FCF3AB",
"`. c #FFFBAC",
"'. c #ECE3B2",
"]. c #EEE9B1",
"[. c #EEEBBC",
"{. c #F3E5B4",
"}. c #FBE7B1",
"|. c #F3EBB3",
" X c #FAEDB3",
".X c #F9E7B9",
"XX c #F5EDBC",
"oX c #FBECBA",
"OX c #F6F2B4",
"+X c #FCF3B3",
"@X c #FEFBB3",
"#X c #F7F2BD",
"$X c #FCF4BC",
"%X c #FEFBBC",
"&X c #FAE5C3",
"*X c #F5EDC2",
"=X c #F5F4C4",
"-X c #FDF5C3",
";X c #FEFBC4",
":X c #F5F1CD",
">X c #FBF6CB",
",X c #FEFBCB",
"<X c #F6F4D4",
"1X c #FEFCD2",
"2X c #F4F4D9",
"3X c #FEFDDC",
"4X c #FFFFE3",
"5X c #F7F6E9",
"6X c #FFFFE9",
/* pixels */
"B %.` S n.G D 1.:.s.;.Q v.%Xb.1.n._ n z t D y _.s.E.B.>Xn.h , r 4   h u.l H y M _.:Xs.4 z $ 1 l K _ ) ` ,X@X=Xn./.P.v.x.i.x.Q z ",
"! N.~ A ,.Z J a.T g.T ` Y.l.W.Y.^.i.( m.;.2.A ( >.m._ b.a.! 1 , J A B 2.8.-.Z L #./.i.z :.6 l g d.@.d.i._.+XD.g.M.,Xs._ i.}.v.( ",
"T.e.z ,.o.0 ( V.g._ e.:.m.g.7.n.$X=.:.+Xn * r ;.;.;.>.}.i.m.M.M.v./.d.G E S w K ;.$Xs.1.&.P z Q =.L ) V.j._ ` oX_.| L.V.=.|.=.b.",
"k ( ) l H ) s.u.1._ Y a.+X^ -.T 1Xp.,Xy.r A z -.) <.b.-X_ T.m.d.T :.s.B oX;.t >.N.Q m.v.s.( z B T ~ _ Y.+X! i.h.+X>X1.D._.1XW.R.",
"z e k J >.h g.M.oXH.V.} g.s.-.g z.@X3Xi.I ) r n ;.L ` ~.d.L &.n o.b c _ R.;.e D s.T T.^._ t z _ _.s.E d.E.! a.<X!.( R %X,X@X/.A.",
"`.5.) m h l _ B.@XZ.B 1.b.b.m z ;Xy.oX! _ E.1 ( f.i.1.p.@X>.oXs.{ c ( m.P.) n ) ! w.( E._ >.D g.S.:.>.^ ;X( s.@XR z ^ 1X|.a.v @.",
"f.c r N.e $ n |.z.s.~ ) :._ ~ _ z.%X/.Y.p.} L J d.` V._.1X( =.oXD V.$Xf.%.K T z 2.s.2.s.%._.:.1.%._ x E.:.m ^ v.c ` -X2X1Xj n a.",
"m.g >.>.r . 6 B.S.V.i.i.T f.1 ` M.5.*X>X;XD.! J P k L 2._.R.XX_ d.M.n.Q I H ( d._ $X}.+Xv.x.) W y.x >.V.B v.`.B.~.n.[.S.~.~ -.C ",
"d.D ! j -.w e T.B.z.m.+Xg._ ! >.m.~ J.k.R.V.:.<.;.1 r U v.$Xm.B.:.B -X2.t ( K T :.R.s.V.R.m.;.c c { ! 1.!.f.OXA.S.OX@Xr.^ v.( / ",
"U.l #.oXV.g.h L g.!./.( M ;.T ! Q.S T.V./ d.) y < ; r ;.( s.n n c ` !.;.e ( m ! d._ v.I.M.r.Z z _ +XW ^ ! B.;Xc.F.`.f.s.} _ K 5.",
"y.i./ ^.M.B #.>.T.>.R J = y ( _ D.=.n.a.i.) U : r <.; J >.&.) J c a.U.>.J ` z m m D M.B.+XR i.( F.D.%._ E $Xf.(.I.A.g.) c r.! C ",
">.) c }.#.! i.s.u.( W ~ ;.d.D B OXXX Xs._ b.s.t F <.r ;.+XE.v.s.`.f.@.! ` z z i.Y.W 8.b.n.V._.Q x.S.| Y.F./.V.} /.a.m.>.( M.1.n ",
"M e _.%X/.!.R.s.u._ d.K J ( ) E.4XY.C g.L.T m.O.I ;.n m +XV.m._ V.R s.E d.N.L ~.M.V.m.$.r.v.M.W E.-XV.V.B.,Xl.R g.Y.! J e.n.M.( ",
"m i Q.V.F.<Xn.( I n U I 6 r r V.M.~.m g.{ s.s.<.J q.;.` 1.L i G 1.XXV.H / V.g./.oX{ &.@.v.} s.V.y.v.i.d.:.g.T s.) K.h ) a.p.i.X ",
"< , i.{.).=X/.e n H D t * , T.,XXX! ( v.s.=.N.J J K :.m.Q.>.i.v.2.;XA.) N l.T m.m.E.p.Y.M._ :.~. Xs.s.T i.` ^ i.! 4.c :.! @Xd.n ",
":.b.V.m.|.2Xv.n K y.h A , o m Z.c m _ R._ d.,.e y 1 L N.M.>.! V.u.@X1Xd.C p.y.$X%.1.T d.s.>.B._ s.b.n l i.Z.x n.} W } 4.M c _.f.",
"= a.d.! y.3XW.r >.` ) $ l e 2.-X! a.H.^ W N.2.<.P <.J J :.^ T.p.} /.y.:.` g.1X!.v.f.D.d.W U n.Q ^.s.r ! } R {.`.V.%X{.#.n 1 ! f.",
"} _ n._.n.z.{ e ) g w y * = E.,.v.} i.d.E.M.v.J +.J ;.z E.v.+X%.h._.F.( ! :.#X{.5.OX X,.A z ,X_.Q ^ m w.n U C c N (.%.z K m i.|.",
"r ( @X*.i.n.:.g ,.w y w o m x K./.r ;.E.#.( $Xy t y O.y _ -.c L.P.m.s r z 1.u.I.R $X/.( ) ) U.l._ d.|.%.n b K ^ V.B.{.a._ i.~.j.",
"J ( #.:.%./.m M.D.d.n n 4 J N.a.T n s.s.t P 0.A w ,.P a >.I J _.b.k _ ~ ! h u.,XXXQ /.T d.d.+Xr.i.a.g.r g T ^ T.B v.! ` h /.%X3X",
"x } { -.~._ g { Z.~ _ g t z ~ j d.b.N.z O.e O.w a : J N.H F ;.=XV.I C g Y.~ :.B.S.y.A.W r R n.B.m ^ T r w ) C B.S.E.` M } p.n._.",
"~.D.`.^.{ b.! u.K } Q c % n y r s.;.1.I T F a r F J ;.P A A x m.n.u.%.m.x.E.D.r.y.v.B.L #.f.j.-.r _._.J H M n ~ ` r m M d.#.5.+X",
"p.R.%XB 2.i.T Q ( D Q m.0.e @ c ;.z J q.<.t y y K L n A -.P Y.T.W.+XH >.-Xr.&.$.n.a.=.` _ %.x t ` i.( j m.Q _ T %.! _ c s.! ! p.",
"1X;Xn.c g.i.d.R.( n h k u.n r z J n r ,.-.;.<.L M n h , r J <.&XF <.z s.^. Xu.!.+X_ / g ! f n Y r.x L T g.@Xx h m ) / ^ a.n.d.m ",
"#X^.Q % ` _.~.0.^ 2.K ! g.U J 1 J n n ;.U J ;.1.v : M #.) q.z O.F <.b._.W._ ( :./.s.v r / n z U /.J U >.m.) n :.-.R >.B ( ( =.m ",
"R R / O # y ~ g.K _ Z.s.m.s.m 2 i n U ) q.L J ! >.v / ~ d.m.K I a +.2.V./.B.S.z.r.^ ( J i.N.) L C K ) e n w u.{ =.y.( k Y >.x < ",
"b.m.Q.t ;.U r 2.;.v ;.~._.! ) L n i.2.>.;.~ J ~ k b ^ [ } ~ v M e.Q.E.Q.s./.OX+XY.W W ) u.( L i n x ( P K ` u.! d._.D y h ( T 6 ",
"Z._.` 2.;.I <.;.;.<.n 2.~.i.J K 2 i.( U K M U C d.^ C b u I M i.1.y O.0.P M.n.(.OX+X_.d. Xk t t n c _ y U g.W.V.r D v.L r -.) $ ",
"{.}.y <.K O.<.I U -.I E./.b.) ) U i.) r u ) ^ ~.v./.( / ` V ~ L 2.y r P t K K.!.).A.v.j.Y ) ( E.i._ < * L i.B.p.T -.^ ) y ) ) A ",
"x.$.a q.<.O.n J 1 K O.v -.~ >.<.) ` _ m.L / _ _ T a.! / q.^ } n :.J 8.O.,.h 1  X).1XQ } K c n j ! ^ ! d.s.s.Z.$X{ r.i., I t t   ",
"V.T.J -.O.J i J 1 ;.U 2.q.I K I _ _ i.c d./ / h z ^ _ h b _ ~ n m.;.9.P I <.b M.,X_.D.( D g ) b M ( _.#.-.5. XV.` +X+X) r A A 6 ",
"o.2.n I > J O.v K #.;.K y ;.J 4 : r _ i.v < ~ #.! T v.n r h ! r _ U <.M P >.m.p.%XR.u._ D d.m.#.M =.:.k ` i./ s._ 1X'.i.L u./ ) ",
"z <.;.U J ; P I D ;.A t y #.) %.0.E d.h z Z D K i ! /.q.* ~ n e T % w L d.Z.Z.D.;Xp.D.>.! m d.K n s.z / h g ! |.-X+Xy.T U d.~ * ",
"w F t W z P ) s.b.v.V.1.,.x } -.k T G.m ! _ ) w J ` u.d.e -.< % h r * b M >. .$X} : @ b ^ k ` r r |.a.B.`.M.*X/.b.3XB.K z u.k j ",
"@ y ..P ;.O.w.-.R.b.1.H U m :.( { oXy.} D ` U ) ~ D V.D L h w n q.m * J # e r T ~ y L T r.V.s.>.) `.Q ;X@X/.Y ` D.3X/.m L f.M.4X",
"8.t l o.e F P N.W ,.q.F I i.2._ XXV.{.D.f.%.x n J K ( y < >.n p.^ i.m ) z U J n >.J } E.W.m.~ >.d.oX`.,X{ M.s.^ v._.=X~ n ( n.-.",
"~.t F 5 q F I Y.<.p F y n 0._ s._.;XA.V.b.:.E.f.t % ( I g , >.R.:.-._ z P a P <.P z &.,X! Z.d.A c /.^.p.L l d.i.p.D.<XP.k e E.y.",
"~.a ....F e.P l A a F 4 $ W M.g.!.Y.T ^ :.z ~ Z.i.K V.g.u.m K {.f.u.1.( r w w F e 4 r b.W ( ;.K _ @X/.H / } _ V.f.=.B.=XS.%.,X;X",
"H t t 6 t t 6 % F w % o X # h Q  XE.g.Z.! z U n K H Z.:.2.b.` /.%.^ L D w F A A w J i.:.v r ) ) C.*.=.i.Q.E c j B XX@Xc.6X,X1XV.",
"y +...p 9 Z w o.L r L E.&.y r d.7.{ c 1.c } >.r I J ! B.m.z U } {.z ( 2.y e ..% w >.m.1 v h >.( R I.f.T T >X! Z.z.3X(.g.#X:X=Xk ",
"b.2.;.&.U d.~ N.n ) ! Z.g.: w b.u.W.m ( C M T L y r m s.T E n g m.a.M.y t 6 t F r  .v - b > , b m.~.Q b s.1Xs.C.*XF.b.K.1.].4XV.",
"@ 3 J M.Q >.r ) K b./ %.b.l t X.J W m m & n = m g Y i.a.f.y.Q C ~ a.>.a F 2.<.J > / > b [ / L M c ` 1.g ` x.@X/.g.Z.B ) ~ _ h.%X",
"g t ) k K z - j ` 0./ { e ) w z * a.N ( ( M.m K T @Xb.B.d.Q ^ i.r D ;.$ S 2.;.J / U > ,.b j.{ C } Y n m #.] /.W.] V.R /.Q _.+X<X",
"_ h v.-.< J n :./ , m M.V.f.>.A c _.@X-.v.>X-XT._.u.g.@XE.3XW.{ t % J a * A I b.1 r n C 1 m ! R.7.I.d.N C +XR $X+XT T D.c.=X=X1X",
"V.D p.g.G t L s.K K r p.%.b.d.) ! ;X$X~ p.$Xt.+X=X{.V.OXy.B.c._.w.6 I :.D 9 t 0.y K N.` r 2 c ,X'. Xc K G v.3XOX.Xk _ =.n.a.b.c.",
"D.j Z.n.) t t g m S i :.) h J ) S E.R.W @.7.' Q Y.u.s.n.(.[.^.c.c.r 9 e z a t O.- 0.1.w + C p.f.a.f.^ ! c #X%.n , J _ @X<X@XC.;X",
"XX^ v.Q h U , z % r K !.^ e z ) ( y.@Xy / `.] x./ ( a.p.*.+X| v.(.! 8 + $ >.D F t ( % + < W.n.=.' {.j.b.g E.~ ) ) H m.| `.1XS.).",
"_ K 6.:.! ( e w 6 ~ Q +Xd.y w ) e ^ B ( :.) _ +X` #.:.c ~.= 7 1.T r h t t V.&.w t H -.m.S.$Xs.x d.l.m.g.R n.g.Y.! ~ :.E.v.v.v.Y ",
"d.( m V.s.v.1.F 3 d.M.I.!.h U < ~ _ M.` 2.~ ^ _ } g.v.i.` m R } h ~ K r c g.Q ;.A L A >.u.J.b.0.k _ i.>.g.g.:.^ ~ L 2.Y.` ` _ # ",
">.&.K T x Q L 5 t d.W M.=.K m r K } :.k g.d.R ! ! _.E._ Q u.V.b.y.%.f.h b.V.#.L w w O J 8.m s * i n ` w p.W _ B._ J ! !.F.p.s./.",
"` z J ( N.8.-.D ,.>.m.}.N.M.u.T W ! ) ( i.d.@XD.J.^.>.W n.V.u.W X.D.B 1 e.! E.J J 6 A ) R d.M.a.S n e L d.V.g.@X_ { >.B.=X~.!.!.",
"d.~ D -.{ v.Y.W ( #XR.d.c T f.{ =.a.( g.r.+Xy.!.!.f.d.s.B.OX/.&.c T -.x r ( } W z D D ! m.] !.p.V.T 0.v.V.oXf.#X/.H.K D.7.v.S.Y.",
"d._ K W N.1.1.W l 0.:.-.` / s._ z a.T Q @.%Xz.B.z.M.f.m.XX/.M.z.A S A z 3.c p.i.) K , L Q N.a.! m v _ +X#XR.j.R.y.C m A.V.%.R.d.",
"! ! U >.w._ ! x 6 c * t A c _ L U R B 2.a.T b.$XD ! m J v.Q z.Z._ A q g ( V.D < i r + J >.>.( & K e w m.!.u.`.=X@XQ B v.^.m.s.;.",
"-.( K m !.D.Q W v.D Z Z e E ^ _ _ {.! J ) _ B V.a.^ Q ~.G d 1.T k ! S ,.Y.m.! U ;.y t n ~ e U z h X.@ V.n.1.5.%X#X(.^ 1.1.M.=.! ",
"V._ :.>.n.XXR.5.W.( ,.:.( c K m :.R z ) _ D y.R.s.R.Z.m.2.Q _ x >.K h 1.u.!.-.m L * , >.>.! ) c k z g S.U./.x.B.[.U.B.5.m.Q B.:.",
"~.V.7.K V.5.%.#.v.B.e.D l H g d.V.M * J W ) {.XXQ V.| g.s.m.d.#.W 1.k D -.l.@.2.U e n >.W i.T S m Y.i.!.E./.d.V.#X@Xl.p.R.s._.y.",
"B.@.B m s.0.W #.T.Q T.D Y z ( 8.) w < n d.x A./.OX@Xn.} m.m.s.$.O.S c 3.D u.-.b.~ 1.D } Y.e.( b.%.v.p.} K v.V._.D.B._.k.B.R.=X~.",
"^.1.T B =.V.d.%.s.!.s.#.1.T K ) ( %.j W i.g.4X,X;Xc.E ` _ f.N.1.H Z l ! d.C 0.f.,.r h V.k i L :.1./.%.n l D s.^ T /.W.Y.,X>X@X_.",
"=._.v.) ( u.#.i.M.0.Y.0.n.-.c -.z ( m.x / Z.f.c C ! ` f._.N.T _ D D o.M.s.s.g.-X#.% % r E.2.a.B.).v.g.D 1 v.} >.} a.oXm.$X#Xg.D ",
"u.v.E ( v.W 0.%.s.d.5.m.$X%.:.T.h c _ N.V.3X>.L w s.~ K Q Q W _ >.D W u.v.d.u.oXW w # 6 y ^ D.@X+X^ ( < h %.D K %.f._.E.|.$XT J ",
"! N.H :.1.( x d. X_ ( T 1Xr.#Xf.-.T _ N Z.Z.K % r T.s z / V.Z.g.Y.:.D %.z.B D.@.-.z h _ n d.Z.v.~ c ~ >.a.Q z $ 5 z V.U.^.N.^ -.",
"` s.T -.&.=.v._ g.s.W r z.@X>Xi.H b.B =.1X) c i i.5.n.m.h. XY V.P./ = V._.#.W 0.1 D c oXY | A.J.&.>.n _ b.` $ J y z u.V.R u.B._ ",
"4.H.d W H.s.D G :.1.z z $X=.+X( { >.i.:Xd.t m n -.N i.B.,XF.} %.5X>.o V.u.x o.&.r i.h e L g.`.j f d.y 4.^ N.. J >.1.!.f.;.m.v.K "
};
