/* XPM */
static char *_dd48ec7f6664df4fca13e4c99c56ba0[] = {
/* columns rows colors chars-per-pixel */
"64 64 191 2 ",
"   c #3C3F1D",
".  c #423D16",
"X  c #463F1D",
"o  c #483F21",
"O  c #36431D",
"+  c #3C441D",
"@  c #3C481F",
"#  c #3E4422",
"$  c #3D4B22",
"%  c #3E422D",
"&  c #3E4A2B",
"*  c #42451D",
"=  c #43491F",
"-  c #4B4A1F",
";  c #424523",
":  c #494426",
">  c #444B23",
",  c #494C24",
"<  c #44452A",
"1  c #4A4729",
"2  c #454B2A",
"3  c #4A4D2B",
"4  c #524C28",
"5  c #455225",
"6  c #4A5325",
"7  c #475927",
"8  c #4C5827",
"9  c #45532A",
"0  c #4C542B",
"q  c #475929",
"w  c #4D5A2A",
"e  c #515626",
"r  c #515A27",
"t  c #51552C",
"y  c #525C2C",
"u  c #5A5C2C",
"i  c #434431",
"p  c #464C31",
"a  c #4A4B33",
"s  c #524F33",
"d  c #465034",
"f  c #4C5432",
"g  c #4E5C32",
"h  c #4E543B",
"j  c #4D5D38",
"k  c #535533",
"l  c #585332",
"z  c #545C33",
"x  c #595D33",
"c  c #51543A",
"v  c #555D3A",
"b  c #5A5D3B",
"n  c #4E612C",
"m  c #54632D",
"M  c #59652E",
"N  c #55692F",
"B  c #5A692F",
"V  c #4D6234",
"C  c #556333",
"Z  c #5A6433",
"A  c #556A32",
"S  c #5C6B33",
"D  c #56633A",
"F  c #5B653B",
"G  c #556939",
"H  c #5C693B",
"J  c #5E7133",
"K  c #5F703E",
"L  c #616B2F",
"P  c #696D2E",
"I  c #616633",
"U  c #6A6736",
"Y  c #626D34",
"T  c #6C6F35",
"R  c #61653C",
"E  c #636C3B",
"W  c #6C6B3C",
"Q  c #647235",
"!  c #697536",
"~  c #667B37",
"^  c #6B7A35",
"/  c #65733B",
"(  c #6A743C",
")  c #66793A",
"_  c #6C7A3B",
"`  c #737F36",
"'  c #727D3C",
"]  c #545740",
"[  c #535A43",
"{  c #5D5F44",
"}  c #5C5D48",
"|  c #5C6442",
" . c #5C6942",
".. c #5B624B",
"X. c #546244",
"o. c #626643",
"O. c #636B42",
"+. c #686C43",
"@. c #61654A",
"#. c #646A4A",
"$. c #6A6D49",
"%. c #657242",
"&. c #6B7443",
"*. c #667844",
"=. c #6D7A43",
"-. c #6B744B",
";. c #6E7B4B",
":. c #727D43",
">. c #73774A",
",. c #747D4B",
"<. c #757544",
"1. c #666B53",
"2. c #686F57",
"3. c #64685C",
"4. c #6B6B58",
"5. c #726F5C",
"6. c #6B7251",
"7. c #6E7952",
"8. c #6B715D",
"9. c #727557",
"0. c #737B53",
"q. c #7D7B58",
"w. c #6E7562",
"e. c #707861",
"r. c #80774D",
"t. c #6E823D",
"y. c #73823C",
"u. c #78823E",
"i. c #6F8644",
"p. c #6F814C",
"a. c #748343",
"s. c #7A8644",
"d. c #7B8A44",
"f. c #75834A",
"g. c #7A854B",
"h. c #778A4B",
"j. c #7C8B4B",
"k. c #7A9142",
"l. c #7E924E",
"z. c #758452",
"x. c #7B8453",
"c. c #7D8A53",
"v. c #7F865A",
"b. c #808F3F",
"n. c #828E42",
"m. c #828C4C",
"M. c #819047",
"N. c #889244",
"B. c #86924A",
"V. c #89954D",
"C. c #8D9C4F",
"Z. c #909C4C",
"A. c #808453",
"S. c #818B52",
"D. c #80855A",
"F. c #828C5B",
"G. c #888F59",
"H. c #898D54",
"J. c #849354",
"K. c #899656",
"L. c #8C9A54",
"P. c #859059",
"I. c #8A945C",
"U. c #879B5C",
"Y. c #8B9A5B",
"T. c #849953",
"R. c #919E5A",
"E. c #929B56",
"W. c #8FA25D",
"Q. c #94A357",
"!. c #9AA857",
"~. c #95A25C",
"^. c #9AA75C",
"/. c #868766",
"(. c #868C64",
"). c #898F62",
"_. c #898F6F",
"`. c #899063",
"'. c #8D9E62",
"]. c #8D9469",
"[. c #939E62",
"{. c #949E6C",
"}. c #959D72",
"|. c #94A263",
" X c #99A461",
".X c #9CAB63",
"XX c #95A26B",
"oX c #99A66B",
"OX c #9EA373",
"+X c #A3A573",
"@X c #A1A982",
/* pixels */
"..D C Z f._ B Q L.l.N B B L B m , , # 0 H E ,.O.Z f + M a.! M 6 5 , + = * ; < j G C Z , ; 2 , T :.e , + $ m A m A F H Z C ; 3 z ",
"a , 7 7 B S t.^ B N N J L.J.a._ Z t + t f.( Z M Z 8 * 3 6 y I 0 # > > t Z C D 2 @ n A C x 0 * e e , & v D A A $ 7 J.J.B m y w # ",
"a = > 6 m A t.*.N A m K '.F._ / Z l = y ;./ m A Z 6 < < 2 k R f 2 2 2 z Z C D 9 $ n N m C 0 , 3 , 2 < [ X.G n 5 7 J.J.M M Y y > ",
"o.x > + 3 0 D K f.*.m S h.( 5 w F x , 5 > 8 H Z E 0 # < ; 3 1 v | [ D z M 7 O g D A m 5 @ +.q.3 * b X.& & V A m M a.a.M A `.F.C ",
"#.Z > ; 2 d c C t.~ J Q ^ L 6 6 u k 1 > + 9 H z x 0 : > + , , r y A N J Q t $ V D V m 5 5 O.&.e , I Q 7 5 B S A A _ _ M B G.v.E ",
"#.x * ; 1 i < 7 A J y.! 7 , - 6 = ; # # $ f  .g # y | k = = 6 , = 8 m k. X( m F G 2 O y R 1 = r L V.E.Q B ' y.S Z M m m M m S ,.",
"| C , , 1 1 : 2 g F ;.H 0 1 3 a i 1 0 2 2 q z 0 > t | h : , 1 1 3 C H t.n.^ S H C m y Z Z 2 i v B m.L.I Z O.( y C m m Q ! Q ! Y ",
"#.H F Z 5 , * # 9 0 F v 3 1 < < 3 w Z H S k + 3 Z A R s ; < ; t Z -.c.Y Z _ g.E m P.oX/ C > # y M ' a.M Z 0 2 # $ w Y Z.Q..XH.; ",
"X.g G C q q 7 0 > 3 v c 2 2 0 3 , 0 A n n w ; l O.S Z t : 2 > t ( Q Q Z w F +.t r ' m.I m m w H Q _ ! y y 2 2 & 2 m Q b.N.u.<.: ",
"> $ m m F Z Z z > # 0 3 # 0 #.l + 9 | q + > 3 R v.~ M 5   + + E A.M > = * * + * = r m M A ;.v.x.,.I M > * O 2 D | A Z ' ` , , o ",
"%.E B N w y F b ; ; 2 2 t 5 0 w 0 c  .V 9 9 : t I A M M C 0 0 x R e > : = t b 0 - I Q B m A R Z Z t 0 0 0 q 9 9 g Z H _ U = ; : ",
"OXL.B m O ; F b # ; # 2 | z + 5 Z z C m S w # : 6 w M _ v.%.F t 6 * ; p 3 $./.b = ! d.S m 7 - * + # # F X.D C $ @ C A D D ; ; * ",
"`.d.S A / +.3 0 k 0 2 5 0 0 0 y ( ' ' _ N m t a > 5 8 S *.b y 6 = 6 c a 1 l { 4 6 T s.S C 7 6 t 0 f c 0 & A A 0 w / %.0 f 2 2 f ",
"x.' B Q XX).+ > F C 5 2 + 0 F %.,.b.!.n.N Z R l * ; , 8 Z 0 > > * k @.a ; +   1 , ( s.Q C 0 , D F | g # $ m A A S z.-.& + 2 f { ",
"-.Y m S z.f.y n C C C 0 + , 0 t x P M.^ m m k f ; k / y 0 0 ; 0 t t 3 c k > , 2 , e u r t > > z Z y C *.;.S A A M Q Q H Z z z 3 ",
" .A N S f._ B N A m C w + > 5 , = u g.) A g 1 1   R F.R , ; # t Y 7 + z H w 3 , = - , 4 1 < $ g A N m Y.|.S m m m m B s.f.H x + ",
"h 5 0 8 J Q ^ ) A A *.%.z 0 , ; ; s +.D 8 d < 1 1 5 t , : f z 0 , w z 0 > w z 0 * - , , 1 c g %.Q S A Q ! M S h.s.N m m r M Z k ",
"p > 6 5 C A i.~ N S h.=.Z z > < < , F k 2 3 ; > 4 = : < < t E 0 @ w  .9 # z o.4 * , , 2 < v Z &.,.Z Z M N m A Q.Z.B m , 7 Z M H ",
"@.t , = 0 8 S J ^ ~ S Z t 0 1 1 ; > 0 t 2 1 # 3 R 4 # i 2 y Z E ( H C 0 , 2 5 z z , # ; # v m A Z 8 e %.*.N N s.u.r 6 ; 5 m Y c.",
"@.x > = , 9 A S f.=.m y , , 3 3 : = = 5 0 2 ; k F k ; 2 > x M ( f.Q m w 5 , O z o.3 # > , 0 m H Z 6 , -.,.A A :.:.0 , # , M Q Y.",
"a 5 C l > 2 5 w H Z 5 5 > = ; 3 Z t , , * 3 b t > f F g $ Z f.Q A B N m m 6 * k | p ; 0 t 6 @ x Z > $ 0 8 A A 5 6 # 2 v Z :._ S ",
"3 > Z b ; ; 1 5 D z , 3 # > = 7 R u - , > 0 | t + w F 8 $ S f.Y m S N S Y 7 = x | 2 $ y M 7 > A D > $ 5 9 C A 6 6 > 2 D Z f.;.y ",
" .Z Z D 3 2 ; > 0 > ; & + 5 Z C Z t * y ,.+.Z w + 9 H m w A A M B Q a.B.Y.^ y C | 2 O y M _ ;.H C D D $ > C H :.( = = C Z H A # ",
" .Z m y 0 3 ; ; 0 > # ; , 0 Z Z Y x * t ,.( M m 7 y B A Y A A Z m Y *.j.P._ A H C 5 $ Z B _ ;.H C D C 2 2 z Z &.! 5 > y m Z C & ",
"o.m @ 5 C x + = , , , t D C A Q h.o.O 6 B M M _ |.a.M Q h.E F 0 + > 6 y B ) f.H w m A =.f.H M Z A $ $ C C 5 6 5 6 M y $ 5 w H D ",
"0.J 5 8 H F 5 , u t , 0 F C m A =.H 5 w B Q P u.E.' B Y _ H z 3 2 , > e m ) _ J Q B A ) ;.m m m N & $ C F , - 0 0 C m 5 7 Q J V ",
"}.Y.B N f.;.C U A.-.+ 2 F C , 7 A F A Y i.M.^.B.` ` n.I , = ; k | t * : 5 w n j. X^ m A A 0 5 C G A D F Z > = Z D , 5 t M R.J.A ",
"].m.B B &.%.g u U I 9 q G w , e u z y B ~ t.k.y.^ ! P u , , ; t F 0 # c w w m _ ,.Y M M g 9 2 f z C Z C w , % C A m M ! ' m.g.A ",
"x._ N r B y # + * , F D D w + = , 0 , 7 Z m m m M r , , + 2 9 z Z 6 + $.z.E I 6 > y Z 0 > : + * @ y A 5 , + , z S =.g.|.E.M m m ",
"x.y.t.^ B C q 3 ; > Z A C C 0 3 1 2 , 6 y Z / R t e > 3 f 2 9 w M r , l o.x 0 Z A m y 6 , , ; 6 7 ( =.w 7 ; , z S a.y.d.' M m m ",
"x.u.Q.L.S C H b # > A N n Z F v ; * * , , Z D.E , , + 0  .f # 7 S Z Z , X : - &.h.n , ; < 4 , M S Y.|.Q Z = > z N a._ M m m B m ",
"=.! M.u.B C 0 f 0 8 m S a.) 8 f f t x t = t R z , t x m D g & N S 6 f 1 X 4 6 H *.7 , ; o l y E ) =.a.m y 5 f E / ~ ) N m Q E A ",
"E B a.' A w @ $ Z m m ^  Xs.+ 5 F T x.W * - , ; * Z c.^ A A A m m , # % : , 3 t M 7 , ; : l I ,.f.B m 5 = Z R z.f.H m Z S f.;.Z ",
"R N Z m Z C C Q d.y.B S t.~ Z S m I ( x   - , > = y / M w m N Q s.H 0 c v , > ( A.y > 0 k k 6 Z Z M m ) :.I u Z Z 6 7 8 w %.H 0 ",
"@.C 9 9 Z / s.d. XJ.M m m B c.*.m Z Z k * < ; , - t M u , 8 m a..X_ m Z G 5 + x.+Xu + z  .& # = 5 m B Y.[.E u , - + + @ $ F v * ",
"c d 2 2 q w J Q ^ Q A Z ;./ C C A C 2 3 < 1 ] f m w 0 3 + x ( ^ ^ ^ ^ L G g e I U - * z G j z 2 = m B a.h.r 5 * 1 t k 2 2 2 1 < ",
"i < ; ; 2 0 x m A m m E x.+.> 0 F k = # # f  .F H q # ; * x g./ n ) h.J G F F 0 = * = m D  .| > = M I <.>.3 # + > F Z 6 5 + * # ",
"o.c 2 < < 2 0 w A A =./ M e * , 3 , + 0 b w 2 8 C m u 3 + 6 u m N A K n 5 9 2 2 > 8 m 5 5 v F > + 6 t u l ; < v j > 6 u M ( E z ",
"@.b , < ; > , 7 B H ,.%., = = ; ; * ; 3 F k + 9 C A Z t * = 5 y m A m 7 5 > # & $ z A 2 @ z D 9 * > , , , > , D X.> = M I g.>.| ",
"k 3 z c ; ; 3 w :.( t 0 ; , 1 3 1 3 Z k & f z C C 7 # 0 Z 6 5 I ,.Z 7 y C 9 # f z Z Z m v 9 $ g C , @ 5 7 t z $ $ m I G.S.5 0 b ",
"2 , Z b > > 2 e ,.&., , X ; 3 4 3 w F k + 9 H C m w + w H w > H x.C = m Z 0 $ v D C C C F $ $ C C 2 $ , 5 D G $ $ A I R.A.* = z ",
"F x = = 2 2 ; 3 I x 0 , ; 3 R l + , E 0 + 0 Z C m N m K f.z + t E w 5 y m Z D > + m Z 5 # g V G D C D 2 $ C A n m m M r 6 = > > ",
"$.S , = 0 0 # 5 x z > 2 ; 0 R y 6 w Z 0 = 7 m Z Y B N J f.z + 0 x 6 5 m Y A H 5 $ y B 5 @ C S Z H D v 9 $ G A J S B M r 6 , ; $ ",
"}.P.B m Z z # > 0 0 ; > , 5 u ( [.g.Z S y r m =.[.y.m N A 9 * , 6 r N h.'.) C Z A N m m G ;.f.I C 2 ; v C A S U.T.B L I.P.R z > ",
"].n.Q M y y 2 > > 2 > 2 5 y B ^ V.a.M H S Z m ' |.a.B A Y e < , 3 y N i.T.Q m A m S J A N *.' Z z 3 ; v C m A l.B.B Q m.m.y t 0 ",
"R B y._ , > D D ; ; 2 0 C H d._ B B r Q |.h.m ' ~.B.u.a.h.l * 1 3 m N A N N m m N l.'.Q m A M 7 , 2 2 # 2 n A N A y.' 6 , = > D ",
"%.Y =.) 5 9 D b < : , 7 A A *.o.z Z M _ L.u.m _ K.g.( _ ( M 6 5 , n N A S Q ! B m d.Y.S w C m 5 > 9 q > 5 Z S m N =.-.2 > ; , D ",
"F.' B m n m m k * = * > H V O * , y h.f.y.Q N Y a._ A t 5 I A.M O y A *.a.B. X! m _ f.8 5 A Z > @ D | F H f.f.q 9 A F ; > + > X.",
"&.Y ! P ^ ^ ' / 5 , , , g g 5 6 = e E ( ! Q S ) _ H w 6 = I x.Z 5 y z H Q j.K._ Y Q :.y 0 g k > > f x z y %.) y w 0 f 2 , 3 t g ",
"t 6 y.u.E.~.^.J.B u 6 3 5 9 H 8 + = = r Z T g.) Z w 5 - + I v.-.Z 0 5 z M _ :.:.a.E Z H F 1 * ; ; , 0 + @ m Z E Z ; ; 3 0 Z x + ",
"0 - L ! m.m.s.y.Q U - 3 f g m M u l , 6 y S &.H w q > = = x R z t 3 > t y S ) _ &.m k k k 1 : 1 1 , > z x y t t k : < 2 6 Z M y ",
"1 = = e :.' M B u.:., t | F C ! j.O.* = = t H y 5 $ = = , > + + * ; # , 5 m B M M 6 , # < < < , , * * ,.g.6 = = ; < # # = u M ,.",
"h > , 5 %.T 8 m I u - , 0 q A S ( b + , z k t 0 , 2 0 k y w w f t 2 * , 5 e t E &.e > ; 2 f k 0 y 0 0 M x y e , : 3 2 0 y y.a.,.",
"f , 5 2 D x 5 $ , - . - @ 5 G A m w @ 0 E x , > + t R H H F G | F 0   , 5 , - / x.t O , > D S H Z Z M = + Z b * ; , f C Q W.Y.a.",
"F y w w 5 9 / F , 4 ,.W 8 n N G D C 0 w w 0 ; , 1 l R y 5 n G q 5 0 k , - x +.u u y t m w 8 $ m m a.f.y t , t t t , 5 m A ~ ^ J ",
" .H A Z + 7 f.;.* t OXP.m N N V A A H z 2 2 # 2 3 l F 0 + 9 H 5 O k $.3 + W D.e + y Z Z H 5 $ w A Y.|./ M = ; R b $ $ m A D C D ",
"F m 5 0 z y M y y C ) J A J _ y.n._ H k & d v 0 ; f | A y =.F.T t y 3 c z y t t r ,.G.y , 6 y ( _ Q _ _ O., ; a f w m ) *.F [ p ",
"E m $ & X.k - 5 x Z m n C H _ d.^.n.N 6 + 7 S t $ 7 M m w y..Xy.m 5 + t o.5 O y H P.{.0 + M L -.f.M m ,.,., ; ; * m B y._ m x + ",
"I.d.m g a < 2 2 y y 7 8 H Z S ^ ~.' > , > 0 M A ) E m w m B Q Q Y m m 6 6 w m Q u.Q Q M y f.P./ M w 7 Z H 3 a   = j.m.M w 5 5 # ",
"XXL.S m ; # 1 0 C M 7 7 m m m ^ R.,.+ 2 f f C / z.%.G D A C C E &.O.F g 5 y M _ a.A m m B J.R.T M 7 0 m z 0 3 < < `.I.M w % < i ",
";.Q N N m 6 * , m M 8 m $ 7 Y B I u ; 2 c f w m A V & D ;. .n 7 $ 9 g g D 9 & g G $ $ g z g y ( ' M w m w   ; < < R E m 0   % % ",
"0.S m N Q r * = e M w 7 $ m ,.! r , * 3 z z A m q q 7 m %.Q m 7 $ 9 C C D f # 2 z 0 0 w g 2 6 ( _ m 8 y z ;   : , u M Y M > < % ",
"h g 8 m K.,.u k + > w k D v , Z :.L 7 0 # 6 B m w C :.M > 7 5 w 8 m B 7 @ t 7 m M ! _ L m 8 y w 9 q D 2 ; b b     y S _ _ Z x > ",
"3...#.-.@X/.9.3.h @.@.2.w.8.} -._.;.#.#.v #.7.;.-.6._.-.k o.H -.o.7.7.H Z I / =.:.S.P.,.=.E 1.@.v 1.8...} 4.5.} h -.f.v.F.7.2. ."
};
