/* XPM */
static char *_a1f3584821a4a46f59c838f7383d9a4[] = {
/* columns rows colors chars-per-pixel */
"64 64 185 2 ",
"   c #211E1D",
".  c #23221E",
"X  c #252421",
"o  c #292623",
"O  c #2B2926",
"+  c #2E2C29",
"@  c #3D2E23",
"#  c #312F2B",
"$  c #34322E",
"%  c #3A362E",
"&  c #363431",
"*  c #3A3633",
"=  c #3C3A35",
"-  c #3E3B39",
";  c #412F24",
":  c #433225",
">  c #483527",
",  c #463529",
"<  c #493629",
"1  c #4D3A2B",
"2  c #533D2E",
"3  c #423C35",
"4  c #413D3A",
"5  c #55402F",
"6  c #59422F",
"7  c #424135",
"8  c #45413D",
"9  c #49433D",
"0  c #554130",
"q  c #5C4533",
"w  c #5F4835",
"e  c #604735",
"r  c #624A36",
"t  c #684E37",
"y  c #664D39",
"u  c #694F3B",
"i  c #67503A",
"p  c #6C523C",
"a  c #71553E",
"s  c #72583E",
"d  c #464340",
"f  c #4A4642",
"g  c #4D4A44",
"h  c #514C46",
"j  c #524E49",
"k  c #594E48",
"l  c #595047",
"z  c #55514B",
"x  c #5A544E",
"c  c #5B5651",
"v  c #5E5953",
"b  c #5F5A58",
"n  c #6F5540",
"m  c #60554F",
"M  c #60594F",
"N  c #715540",
"B  c #745941",
"V  c #7C5E45",
"C  c #625C54",
"Z  c #635E58",
"A  c #7E6147",
"S  c #7F6148",
"D  c #676155",
"F  c #66615A",
"G  c #6A645C",
"H  c #6F685F",
"J  c #70675F",
"K  c #71695E",
"L  c #6D6761",
"P  c #6E6962",
"I  c #706761",
"U  c #736C64",
"Y  c #7A6E65",
"T  c #756E69",
"R  c #786F6A",
"E  c #757067",
"W  c #797067",
"Q  c #757169",
"!  c #7B746B",
"~  c #7F796D",
"^  c #7E7670",
"/  c #7F7971",
"(  c #816347",
")  c #85654A",
"_  c #89674C",
"`  c #8B6A4D",
"'  c #916D4F",
"]  c #906F50",
"[  c #82766B",
"{  c #847A6E",
"}  c #8B7E6C",
"|  c #847C73",
" . c #8A7E74",
".. c #867E78",
"X. c #8A7F7A",
"o. c #868175",
"O. c #8B8275",
"+. c #878279",
"@. c #8C847A",
"#. c #8E897D",
"$. c #938576",
"%. c #908876",
"&. c #988A76",
"*. c #92867C",
"=. c #99857B",
"-. c #938A7D",
";. c #988C7E",
":. c #96907F",
">. c #9A927D",
",. c #A1947F",
"<. c #8E8681",
"1. c #8E8882",
"2. c #928781",
"3. c #958C83",
"4. c #998E84",
"5. c #998F88",
"6. c #979085",
"7. c #9C9285",
"8. c #9D948A",
"9. c #9F988B",
"0. c #9F9B94",
"q. c #A39486",
"w. c #A59987",
"e. c #A2968B",
"r. c #A49A8D",
"t. c #AA9C8E",
"y. c #A09590",
"u. c #A59C92",
"i. c #AA9E93",
"p. c #AD9F99",
"a. c #ACA286",
"s. c #ABA28D",
"d. c #B1A78E",
"f. c #A7A094",
"g. c #ACA295",
"h. c #A7A299",
"j. c #ADA59A",
"k. c #AFAA9C",
"l. c #B1A495",
"z. c #B7AC97",
"x. c #B1A69B",
"c. c #B4AA9D",
"v. c #BAAB9C",
"b. c #BEB39F",
"n. c #AFAAA0",
"m. c #B2A7A1",
"M. c #B5ACA2",
"N. c #BAAEA2",
"B. c #B6B0A4",
"V. c #BCB2A5",
"C. c #BFB8A7",
"Z. c #BEB5AA",
"A. c #BFBAAD",
"S. c #BFBAB1",
"D. c #C3B19F",
"F. c #C2B4A5",
"G. c #C3B9A5",
"H. c #C2B6AB",
"J. c #C4BAAD",
"K. c #C9BDAE",
"L. c #C3B7B0",
"P. c #C5BCB2",
"I. c #C9BFB4",
"U. c #C7BFBA",
"Y. c #CBBEB8",
"T. c #C7C2AB",
"R. c #CAC1AE",
"E. c #C7C0B4",
"W. c #CBC2B5",
"Q. c #CDC4BB",
"!. c #CFC8BC",
"~. c #D2C5B6",
"^. c #D3C9B7",
"/. c #D1C6BB",
"(. c #D3C9BD",
"). c #D8CDBE",
"_. c #CEC9C1",
"`. c #D5C6C2",
"'. c #D6CBC2",
"]. c #D9CEC5",
"[. c #D7D1C4",
"{. c #DAD2C6",
"}. c #DCD4C9",
"|. c #DFDAD1",
" X c #E2DCD0",
/* pixels */
") S ) ) V ) ) ) ) ) ) ) ) ) V B V A A ` ) A ( V ) _ ) ) ) ) ( ( ( ) _ _ _ ) ) ` ` ' ' ] ' ` _ ) ` ' ` ) ) ) ) ` _ ) V V V ) V p ",
"u V ` ` _ _ ) ) V ) ) ) _ ) ) ) A _ ` ` ` ` _ ` ` _ ) ) _ _ _ ` ' ' ` ) ( ( _ _ ` ] ' ` ) ) ) ) ) V B V ) V ) S V A V V ) _ ) p ",
"q r B V B B s s B N N n N i p p N p n n i p s p B p u p s s N p p p B N B B a s n u r u r q q 0 w r p y u p p N n u r u e r p e ",
"r p i p u y y y r w 0 q q q r u y r u u s u u r p a u u u y r w e w w w e q q w r w r r r r w y y p y y p r w w w r p B B p u e ",
"q q p u y r e w w w 6 2 1 1 2 e w w w q w q q q q 2 q 6 q 2 q w y y y e r r e r u u u u i u u p p n u r u r y N B B B B a e e 2 ",
"q 2 y y r w w 0 2 0 0 2 q w w w q q 0 w q r y p u u u e r u u r e e e w q e q e q q q w y y y u r r u p u n p n s N B p u y u 2 ",
"2 w y a p y r w u r e q q q q w w w q w w q w q q q q e e u p p p p u u a a a a s p p p p n p p p n i y r r r r e r e e e r r 2 ",
"2 e y u u w q u i u u u e r u e w w r r w y r u u r p u r y r y u u y y y u y y u i i r u r e u r w r r y i p y u u p a s u e 1 ",
"1 u n n y B B p s p u u w r r u r u r r w r w w q q e q q q q q q q q 6 2 q q w r r r r y u u u p N s p n p p p p N N p p p w < ",
": 2 r q q q y p r u p p s p i u r r r w q w w w r r e e w r e q w r w w w w r r r r w r y e e e w w r w w w r r r u r r i p w < ",
", q q q n w q r u r r y r r w e r e q q w u u u y u y t w q r w r r q w q q w e r q 2 q 2 q 2 q w q q w r i i p p u r u r q 2 , ",
", w w n n i w u w w r q w 0 0 2 2 q q q w 0 2 6 e 2 q 2 q 2 2 2 5 6 q q w q w r e y u u y u y r w w u p p i i r u p r w r w 2 : ",
": 2 r w w w 2 1 1 2 2 2 2 q q q r r r r q q r r e e w q w q q 0 6 6 e q q 0 q w r q r q 2 q 2 2 2 2 1 0 6 5 5 5 q q q y u 1 1 : ",
": 1 : : , : , < , < < < < 1 1 1 1 , 1 < 1 1 1 < < < < , < < < < 1 1 < , 1 1 2 1 < < : : < 1 1 2 1 2 < 1 1 < 1 , , < , : : @ < , ",
", : @ : @ ; : ; : : ; ; ; : : : : : : : : : : : : : , > , : : , , < : : > ; ; ; ; @ @ ; : < : : , , , , > > : : : @ : @ : , > ; ",
": ; @ @ : ; ; ; : : , , , , : : , : : : @ @ @ @ @ : < < ; ; ; @ @ @ @ @ @ @ : < : , : : : : : : @ : @ @ : : @ : : : > > : : : @ ",
"* g h C ! 9.9.f.-.#.7.r.g.g.u.f.u.0.e.6.O.@.O.*.3.r.t.9.7.W ! x g o 7 D L  .r.8.3.7.f.t.9.s.7.:.6.#.8.r.r.2.@.-.4.8.e.*.! K 3 # ",
"f c 9.r.A.b.A.E.J.W.W.P.!.H.Q.Q.W.W.Z.M.M.H.g.v.C.c.Z.A.V.V.V.7.Z $ P 3.M.Z.P.W.E.^./.W.J.W.!.C.T.V.A.M.M.p.i.c.H.H.l.c.u.@.G % ",
"f | J.!.k.K.^.[.).c.W.J.'.]._.].(.!.j./.P.W.H.Z.x.V.u.C.V.J.G.7.C 4 2.m.B.W.'.{./.(.J.~.(. X).D.b.f.H.l.N.W.M.M.f.Z.W./.K.x.R $ ",
"* ! V.J.V.c.G.J.V.c.v.m.V.].P.H.!.L.j.Z.W.J././.M.e.c.W.g./.J.7.Z x u.g.(.'.'.!.'.{.v.c.|.^.).z.T.a.d.D./.P.N.N.c.J.V.g.b.x.j = ",
"4 ! f.N.~.W.f.N.J.C.!.!./.m.U.].Z.A.P.W.J.I.x./.P.u.u.c.H.z.V.r.b 8 u.N.).W.(.J.).K.N.x.H.d.a.t.}.D.r.:.k.A.H.i.l.g.s.t.l.c.E = ",
"8 Y g.K.K.v.l.R.t.x.J.f.N.Z.S.A.9.m.H.N.W.Z.H.!.Z.u.e.W.H.^.P.2.Z g 8.H.R.W.W.l.F.J.V.N.J.Z.v.F.^.R.s.7.r.c.Z.j.e.f.7.b.c.c.H * ",
"f { g.p.c.g.j.4.o.w.r.Z.L.E.N.x.V.m.N.I.!.W.(.~.c.e.t.H.c.c.i.4.c z 5.i.g.W.v.l.J.R.g.t.H.P.l.c.c.k.d.b.J.N.Z.M.c.q.s.b.C.s.H $ ",
"j | -.;.r.c.e.q.g.g.B.m.M.m.r.r.k.x.N.W.L./.W.N.j.r.Z.c.N.v.i.8.j f 7.j.A.~.V.H.H.F.l.c.g.c.j.l.k.z.g.C.G.N.H.x.B.w.l.f.j.B.@.= ",
"4 ! q.e.4.x.$.v.6.r.-.g.M.*.y.m.5.w.V.9.j.I.x.Z.c.c.l.e.2.g.u.+.g - 3.e.N.N.V.V.g.g.H.l.7.q.i.l.M.7.i.i.Z.j.N.9.e.l.V.-.7.s.%.& ",
"8  .&.e.*.w.=.O.w.x.-.8.9.1.3.[ g.i.@.u.M.x.N.P.N.e. .8.8.*.7.3.Z # +.2.u.p.g.r.i.v.f.2.5.e.8.g.e.7.x.N.M.V.m.e.u.z.V.7.9.r.! $ ",
"8 W q.q.#. .6.+.3.2.u.u.x.9.2.| 4.+.5.*.9.u.8.x.8. .4.@.u.w.7.! x $ ! *.p.N.M.N.f.x.c.8.*.8.m.x.g.g.l.j.l.N.r.#.8.t.7.w.s.6.U $ ",
"$ G { u.O.O.-.+.@.4.+.{ 1.| o.G @.7.{ @.7.#.2.j.*.! | t.8.e.*.W v 4 ! | O.r.t.u.j.r.r.-.g.x.p.r.u. .| #.t.o. .*.r.4.%.2.r.%.G # ",
"3 C U | ! O...@.! Z F T L P ! +.@.X.T P ! @.#.*.Z U U U W T  .| H f x -.} [ | $. .I F / 7. .@.-.! W | 7.J K { U X.Y Y U L Y f O ",
"3 x l C F G ! ! Z T !  .^ Z ! U I v j v T U Q Z c G P P z U W Z g $ 3 K v I 2. .F F G D P F  .T G m G C C G I L T H Y @.U Z j = ",
"# % % 9 j z z 9 j 4 - h Z g f j c j g f g j z g f f 9 f f f 8 4 O O # * = 8 4 8 * & - 4 4 8 g f 8 f 9 * d f & 4 4 4 8 4 f z * . ",
"o . # O + = 8 3 # o o # & + - d $ * & $ $ + # + # $ 8 8 8 8 4 d g g 8 8 h g = = # # # # $ X o $ # $ * 4 $ + + X o & 3 = + # # O ",
"o + 9 g g L L { @.7.{ -.+.@.I G ! r.u.2.*.O.G G $ x G Z ! e.N.N.N.Z./.H.M.(.V.h.| | +.b c & z L 5.p.8.1.| 4.6.| W 8.j.E ! @.v $ ",
"* F 6.t.c.Z./.W.W.W.H.Z.J.v.V.W.W.V.V.V.c.x.w.t.9 f 4.N.c.g.J.N.N.V.c.J.J.V.!.Q.!.P.B.8.U f @.P.U.Q.B.E.~.).W./.K./.W.V.7.r.H z ",
"8 ! 4.v.M.N.c.N.Z.P.].M.Z.I.W.`.}.I.c.v.V.O.V.7.f G f.J.V.N.x.'.(./.].).{.Z.`.(.P.j.8.N.U d 9.L.M.H.Q.H.I.{.!.^.).).{.!.r.g.H + ",
"7 6.l.N.x.P.!.J.Y. X!.}.(.}.].}.H.x.A.P.~.J.P.O.j m e.P.C.J.(.P.(.'.}./.W.N.j.f.Z.W.W.P.F d 9.P.Q.5.Q.(.(.~.F.{.W./.T.C.^.z.G o ",
"g %.t.V._.}.'.(.{.N.V.!.].~.I.N.V.v.(.i.).W.l.7.f Z i.F.V.(.N.`.'.Y.i.K.J.n.M.P.P.Q.'.P.L d 3.S.U.j.!.{.J.V.W.(.B.B.3.b.W.>.%.+ ",
"l o.w.f.{.|.}.'.A.'.j.H.F.I.x.H.Z.!.J.!.).W.f.[ f H u.c.N.W.A.h.(.H.J.V.n.A.h.S.C.J.H.E.Q 8 u.L.P.A.M.T.W.l.u.w.G.G.7.Z.g.f.-.& ",
"x { { g.g.Z.'.Z.w.Z.N.F.x.p.l.j.f.j.F.t.v.f.5.+.f U t.e.G.P.6.!.c.4.F.N.V.!.n.z.W.V.e.x.T - 8.h.U.u.V.J.v.J.g.t.c.c.M.f.w.r.O.$ ",
"l U -.V.H.N.c.c.V.N.p.} *.e.{ M.~ t.0.r.c.c.4. .= ! q.;.z.c.f.t.K.l.B.u.5.!.T.A.g.h.w.9.Q & +.| Z.p.j.P.g.c.v.l.j.V.c.N.$.6./ $ ",
"z ~ [ G.z.7.-.6.m.u.*.X.i.u.u.u.7.k.4.} c.g.8.! = ! r.i.f.3.c.B.%.l.v.v.i.F.W.K.4.s.>.t.U & H 3.j.9.g.v.O.t.w.V.M.m.N.*.>.q.U $ ",
"9 { -.-.! 8.u.+.-.t.7.7.r.j.,.q.:.6.7.O.O.#.-.! = W r.| w.8.w.l.J.g.v.K.7.K.J.J.$.} O.g.F & U 1.9.3.t.2.w.l.x.v.V.>.-.-.7.e.F + ",
"x D o.~ ~ u.r.#.1.O.2.6.e.$.7.@.z.-.8.#.#.o.U x + P 6.#.r.r.g.7.e.l.V.V.C.F.K.7.6.} w.t.v + H f.3.1.7.e.l.u.b.c.e.t.7.Q @. .P $ ",
"z H @.6.8.7.*.| 5.e.P ^ ! | 6.t.O.3.#.~ 6.O.K x & F @.@.j.V.9.@.;.v.8.7.l.l.i.l.7.l.&.} F O 9 U L ^ *. .O.&.7.k.7.| I O.L K G $ ",
"8 F L @.| 3./ @.R Z G X.2.! F X.! ! ../ W 4.L 8 # C +.2.1.6.! | *.{  .7.g.*.{ W [ *.U [ j # 8 U | P ^ ^ @.4.e.! { R e.<.! v j O ",
"- 8 z P U F b L T Z U [ ! L v c P L T L U ~ U g O * k T +.^ { T K ! Y [  .I Y Z  .! ! U 8 = * z v C L +.X.X.W G x L L z j f - & ",
"+ * j d j z j f g d j z x j g d d d j k c j g *     8 j g d c f j g = j x g 4 4 h j g * $ + o O $ - f g 8 8 f j 4 j c - d g # X ",
"+ o $ + + & - d * - 4 * - * - * # * & - * & & = - 4 * # + + o X O # O 4 4 * * % = 4 = $ = l f - * 4 & + O O & & o o + + + - O + ",
"g H #.:.L ..1./ @.5.4.m.x.m.e.[ | L ^ @.| X.5.u.u...u.3...j.<.b O & z @.8.u.u.g.x.h.M.N.S.M.y.1.u.j.9.3. .<.@.6.@.n.M.n.3.j.T + ",
"g 9.9.!.].!.].'.[.`.U.B.B.M.m.H.Y.j.j.~.].`.(.`._.u.y._.U.`._.u.j d / 5.S.N.Q.'.W.!.'.`.`.P.N.P.Y.L.Y.Q.C.H.Q.L.E.P.H.I.B._.u.& ",
"C t.H.k._.M.M.U.'.'.V.B.Y.Q.n.L.l.N.N.I.Q.P.N.A.'.Q.U.U.`.U._.B...= [ Q.].M.[.{.(./.Q.A.U.H.H.`.'.Z.L.L.x.Z.N.R._._.!.u.u.8.n.* ",
"v i.A.j.'.m.p.Q.].L.V.L.P.P.e.H.H.H.Y.J.J.l.8.h.`.M.m.m.]._.1.6.P o #.(.!.g.H.W.(.W.N.P._.].}.[.(.E.P.].W.K.C.H.W.E.P.Z.u.B...d ",
"j m.x.p.L.H.f.A.P.H.P.Q.M./.g.!.(.V.'.N.c.j.E.j.L.6.Z.p.M.h.u.3.P + <.P.A.P.u.B.'.j.P.Q.P.U.P.h.H.J.j.H.H.r.c.V.V.Z.g.J.h.j./ 8 ",
"G l.H.L.!.j.f.g.N.j.W.!.N.J.W.~.W.c.K.r.M.A._.M.M.A.A.j.m.u.T.6.L $ 8.B.j.!.k.Q.'.A.u.u.B.N.V.Q.W.J.W.N.r.f.M.M.f.Q.l.Z.m.m.@.- ",
"I u.M.B.L.c.j.h.z.F.(.F.H.N.F.N.N.r.r.c.V.M.'.J.8.P.L.B.N.V.s.| C & 2.x._.Z.k._.M.Z.r.Z.f.u.M.B.C.u.! 3.f.M.u.V.Z.V.f.@.6.h.! = ",
"U l.c.x.A.Z.m.g.x.j.x.c.x.r.4.r.7.u.7.M.g.e.k.u.j.Z.V.Q.N.e.Z.@.Z & ..i.0.8.L.B.0.L.N.9.5.Z.c.f.k.7.| 9.6.#.j.m.r.q.3.3.7.@.o.8 ",
"{ g.V.g.J.J.V.3.x.c.7.*.j.3.N.r.u.j.5.j.c.r.7.g.].W.j.S.@.j.g.;.Z * | u.@.0.k.c.c.H.Z.k.j.0.@.c.H.r.7.5.| t.u.e.t.$.5.u.8.W F $ ",
"Z g.g.N.9.J.6.g.9.t.r.u.i.V.c.M.V.H.+.j.x.7.h.7.N.g.7.y.8.O.h.O.c * ! r.@.W 3.8.C.V.8.7.N.j.j.x.k.g.5.x.m.1.i.l.8.O.7.i.i.g.E & ",
"K e.-.q.2.V.-.r.O.7.t.#.V.c.c.V.N.i.#.2.7.r.p.j.x.5.+.8.f. .9.+.v & U 3.r.O.#.7.f.@.9.2.j.r.@.5.+.e.2.@.1.u.i.i.9.e.8.r.6.W P 9 ",
"h 7.-.6.x.c.;.7.r.@.| @.| *.2.5.5.u... .| | 6.j...^ ..T 5.| 2.F g 4 F X.f.6.4.8.3.u.+.-.3.! Y ^ >.t.| $.O.#.{ { -.+.O.X.U o.F # ",
"h { { H ! L | | %.~ [ O.O.{  .-.! R | U R  .@.Z c G ^ ! b F o.U v * z ~ 6.F Q / -. . .7.W U K [ 6.W K K *.{ G J c D H U F I g # ",
"M Y { U L P P ..~ ! E P D v C v Z 9 h C k c c C Z L Z Z v F z F c $ 8 v F / Q / W [ P F l M C G M [ C l c P x x F m v j l x 8 + ",
"4 4 j C F f z j c c j z j x Z v d j v j j f f g g j f j h z f = 7 X 8 h % h h h 9 % x 8 8 = j C j 3 7 3 = * g * = $ & = * $ + o ",
"# 4 - g * g * 8 d g 9 * # * * = & * & & $ * * & * & * * $ $ # - $ 8 % 7 O . % 7 + * O = $ * = % O + % = & + 8 d & 8 = + + % = * "
};
