/* XPM */
static char *_5d48f6c3b8b4595efd2c33405d14169[] = {
/* columns rows colors chars-per-pixel */
"64 64 63 1 ",
"  c #B2A687",
". c #B1A688",
"X c #B5AA8B",
"o c #B9AD8E",
"O c #B7AD91",
"+ c #B9AF93",
"@ c #BDB393",
"# c #BCB59A",
"$ c #BEB99F",
"% c #C0B597",
"& c #C2B99E",
"* c #CABE9F",
"= c #C5BDA4",
"- c #C9BEA5",
"; c #C6BFA9",
": c #C8BEA8",
"> c #C7C0A5",
", c #CBC1A6",
"< c #C7C0AA",
"1 c #CBC3AC",
"2 c #CEC8AE",
"3 c #D0C6AE",
"4 c #D0C9AF",
"5 c #CDC6B1",
"6 c #CFC8B3",
"7 c #CEC8B8",
"8 c #D1C7B1",
"9 c #D2CAB5",
"0 c #D4CDBB",
"q c #D9CFBD",
"w c #D6D1BD",
"e c #D9D2BE",
"r c #D5CFC0",
"t c #D6D1C2",
"y c #DAD4C4",
"u c #DED8C6",
"i c #DCD6C9",
"p c #DED9CB",
"a c #DFDDD0",
"s c #E0D7C7",
"d c #E1DAC5",
"f c #E1DBCD",
"g c #E3DED2",
"h c #E7E1CD",
"j c #E9E2CE",
"k c #E5E1D5",
"l c #E9E3D6",
"z c #EFEAD7",
"x c #E6E3D9",
"c c #E9E5DB",
"v c #EDE9DD",
"b c #F1EAD6",
"n c #F1ECDE",
"m c #F5F0DD",
"M c #EBE7E0",
"N c #EDEAE2",
"B c #EEEEE9",
"V c #F1EDE3",
"C c #F1EFE9",
"Z c #F4F1E5",
"A c #F8F3E5",
"S c #F3F1EA",
"D c #F9F6EC",
/* pixels */
"SSSSSSSSSBBNNNNNeeyfNNCCyyufCNCNeyyucMNMeeydNNVNMcNNCNNNBBNccxgx",
"SSSSSCBBBSBNNMNNeflvNNNCyhcvCNNNyuxvNxxcyyfcNNNNNxMNNNBNNCNNNxgl",
"SSSBSSCBBBNNNMNMikNANCNCfcNDSNNNukvSMcxcuxcSNNNNvNMNNNNNCNNcxggx",
"BBSBCSCBBNNNcMcNtgMABNNNyxNDNNNNifNNNMccyfcccNvvNNxNNSSNNVNcxxaM",
"MMxhfpuyyqeqt0wwykcVNCNvelCSvNcMefcnxccx0pxxcueyqwwyyyyyyee0,,1q",
"xxxcxckxggfipiuiuxcvccvcwpNDNNcx9gcvgckk5ykagyiiyiyhpphxxkkpwttu",
"NNSNSSccxxxfffpfidflpgxc5pcvkccx6ulVfxga,tffggfupffklcccvNcMxkxN",
"SCDCSDVvvvcbkcncklvZgglx1pxNgcxx5pxcaggg8fgkvlgxNcvcZVVZABVchfkC",
"VVCCNVccxfggappffugfxklx,ilZgcxg1ifnpxggpppfppgpgffkkxxNNNNvpiaB",
"CVCDMCxxkgakgigpfgxkkffk1yxngggg1yfVfgpgfppgfppgkfpkkxvxNNNk2ykV",
"CDNACcgxkhupggfggllfxxkk1tfVgggg,qfbfigfppffpppffffkkxxNvNNx$waz",
"VVCCNcxkkkggfgfpghxxxlxk1txlfgff,ricgpffgpggpgfffffxxgkxMBNx$tgv",
"gCNNxt1<1<11,;,5gkkc=11<7ixngggf;tpau9=2pggf=-,;,,11<11555>#2tgx",
"cCVNxkyitwy0rryhgxkx10uiigfkgggg1rufityfppgx=9tyrrituyypiiat0ypk",
"cNNMNMkfgppfppgvgkkx5ixgxlkngggg,0pfffgVgpgg1tggkglxxlxxxxlkueuh",
"MCCDAVnvvlncpffVakax5yxknnnAglcg5fvgxfglgagg1tgxnvlZZNvSVNmlzjlc",
"CBVNNcggfipgfyfnfggc1igckkxgkxcggkggffgbggcg1rlckkxlcccccckiywuc",
"BCCVBcggpupi6wfnfglc1igvggfkkxxcggkg9fxVgggg1tlcxlcccccxxckyeeyk",
"BCSVcxxffiiu=rilpkgf1tgVxgklxlcgxxxg1ygvcggg1sgVxxlcccNccvgptyip",
"CCNCNcggfiii=0ivfffk,yglgkkxlcgxxxxx1ixnggxx1fcVcccMccccvvakfuyi",
"NNNC511,;-:=,0flffgg1tgkk923Mggx=;557gcCcggM1fVVxe55551551#%uiyi",
"SASS5tyyyr0qtyicuipg1ykgfiifxccx;0iifxxVNccM1ivvxfpgkffpgpeeiqyf",
"SSNN6ikafsgspffnupfg,ykggggNxcgc5ixcvVvVMMcc2gNvvNMvNcccMNgneyif",
"CSSN7uxxnncgvggvpifu5hcxcggCgggc1pccNZCDNcNN4lZCVZNSVSDNNcllyyug",
"CCBN9pkxgfapfifsppfpffggfggVgxgx5acvcvNNNNNNNNCCVNNNNNNNxxlbiiug",
"BBNC9ygxpfgfuispippffffg9igcggcx1pcNvvcNcMNVNSCBNCNNNNMcwpfzitig",
"NNVN9afVgggpggffpgfpggfg1rfngggx5icNcMMvNNNCCCSSNCBcNCCN1pxvyqiu",
"VBNN9glvlgggpugkgffagggg1ylcglgx1icNcNcMMNNNNNSNNNNNNNNv5pknyyyp",
"CBNN7fcvg01111;1:5,5ccgg1rgncgxc1icVcMcc>1155555865555550lkl90ri",
"CNNN9fxxxutyyiiririfxggg1yxccxxg1icAccxc,tippfppfpfpggipflfj99qi",
"NNMM7fclxxgcccxcgggCgggg1qgvxgkx1pcvccxl1pcvccxlccNcNcccccil98ri",
"NNNN9xcVncVZVVVvNcMBcxxk1ygvgxxk1igVggxx1ucvvVnZZnSVAVVvNbvz90tp",
"NNNNcvxxkxxNcccclxcCcclg,tknxkak1ygngxkk1ixClccxxxxlcccccxuw90ya",
"NBMNNNkxxxxcxcNMwxcvcccc1yxNakgk1tgnppgf5tgAclxxxcgccxxcxgsy9wig",
"NccNMMxccccvNccc5pNVxccg1ixvxggg<tgvpgfk,tgNkccxcclcNcvcxxuy0qyf",
"MNNNNcxxcNNcMNNN5gNVccMg5tgNgxgk<tggipff1ygcgxcccccxccMvccfueqyp",
"yyew7652655555550gNCclcc1tavgggg;qulupff1txgkq1155114518xciy00yf",
"yuagpgpppppkpkkaacvZcxgc5igVgfpf;0pcfupp,wggguiiipipifigcxyytqei",
"ugvvcMcxcvNNNcccvccVcccg;ygcgggp;qfliiff,wkxxxxxxccccNcVxliaq00y",
"ykcNvANVANZSZZSZVNnDxccl1igngppp<9fnfppu4fncVCNVANVMVccvxxuyq99w",
"ygcVNMxcccNxccxcvccMxxcx1ygVfffg,qaxffffffxxcMcMcMcvkkcZxcie0950",
"ugcDvxxcxcxxxxxcvcccxxxx1tkNkfpg1rplggxlklkkggxccccc9pcVxgiqe3-5",
"ekcNNcxkkkcxcxccccNccxxk,tklfgff,ygxggkxgxlcccgckxcg1gcvxgiqy8;9",
"uaNVNkggxxlxxcxcccccckxg>ykvgffg<qkcgkgklxgxgcggxxxk1uvvxxiyy050",
"uaNVxw>,1115gxxx=,515,1<5ygcgggf<ykck9111111lccc=-118uxVxcatiq80",
"ykccxuwytwtukxlx<ruiiityyfplffff1yxckpgyyyifclgg=rtpixxCxgpyy080",
"ugvcckggkffZfxxk1tcllxggfggcuafk1txcxcxxxgxvcxxl1iMccclckkiti950",
"ucNZNZxxlkflffag1tkvvnxcnnvvfgfg5fVVASnvnxgZlggc5icNcvnnkkuyyw38",
"NNNxcxkgfpflkffg,tacggfggggfggggxxcccNNNxxxvxxcc5pxvxgkgkkiyyw18",
"NNNMcxgg9yklppff;tgcgggggxxflgxxxcxcNNNvqfcvgxcx1ixVgxxkkayyw049",
"NNNNcxgg,wgcpfff;qfnggkpfxkggggggggcxcNN1pcVclcx1ixVxkkgkgutee99",
"xMNMNxaa<tpvpfpu>yfcafpkgkxggccggxcNcccN5acVcxcx1uxckkkgkapye980",
"#1y976,;5qflggif,0aVgpfggggggcgcggxcNNNc1pNVcccx5uxcf0,11=@OoX O",
"1ekpppywrfsvppgp;qpcggfgfkxkgccccccccNMc5pcVMMNx1ixxguqytt7771:1",
"ykNcNkggffigpppp-rglfgggkkkgccxgcMxxccxx5pxZMMcc5pkgxkgggxkuiq9q",
"fcvNvcczcnlcfapg;yfgpgggfkhkxgxcccccxcxx5icZxxcx5hccnvvncNlxuq0y",
"gcCVcggpfgppfagf<tpzugga=<,111111512cxcx5uMVxxcgkkkkgxggxxffytey",
"fcVAxggggffpafgf=tgciagk=9tyripfyiufxcll5txVxgfffxkllglgggup29wy",
"fcNVgggsiyiuitit+6yuttytO5fffggkkkfvphgf%qflyiityuyeyiyyiiua9wwe",
"fxVVfgdyyywiuiyio5yzyqqtO7iflllkkfdkippg=0dltyyewyyeyyydyiip7ywu",
"dxcvgsfyyeyeyyyi+6yuyetwO7ipupuueysdyypp&0ijdiysyyyeeyeeiyyp>rty",
"ykxngfyyyeeeyeeeX>wu0www.<efyyyy&4qe9q9y%3qfq0qq9eyeweyiypif50wf",
"wullfuqewwww9998 *4h8999X<0h9q98 &3j-1;1 &3e1844883428889twi-95d",
"ydvmfyewewqw9998o4lmwwew+2hbqw83X,eb----%8db,,,,,,2,334290wy-44i"
};
