/* XPM */
static char *_d1f7e0fd71246edc2a8c677fefadb44[] = {
/* columns rows colors chars-per-pixel */
"64 64 256 2 ",
"   c #383017",
".  c #3C2B25",
"X  c #3C252C",
"o  c #3D2B2C",
"O  c #382A28",
"+  c #3B312B",
"@  c #3B3625",
"#  c #3D2A32",
"$  c #3D3336",
"%  c #442A1C",
"&  c #573A19",
"*  c #4B3A19",
"=  c #6D361E",
"-  c #442B24",
";  c #4A2A25",
":  c #44252D",
">  c #4B252B",
",  c #442D2D",
"<  c #4B2C2B",
"1  c #452525",
"2  c #532B2B",
"3  c #582B2B",
"4  c #443324",
"5  c #44322C",
"6  c #4C332C",
"7  c #4A3A27",
"8  c #543C26",
"9  c #54342B",
"0  c #5B342C",
"q  c #543B2B",
"w  c #5B3C2C",
"e  c #583825",
"r  c #442D33",
"t  c #4B2C33",
"y  c #442D39",
"u  c #4B2C3B",
"i  c #462535",
"p  c #542D32",
"a  c #562A39",
"s  c #433233",
"d  c #4B3334",
"f  c #4E3B35",
"g  c #44323A",
"h  c #4C3C3C",
"j  c #483638",
"k  c #533433",
"l  c #5B3534",
"z  c #543B34",
"x  c #5B3B34",
"c  c #54353B",
"v  c #5C363B",
"b  c #543B3B",
"n  c #5C3A3A",
"m  c #63342D",
"M  c #6B342C",
"N  c #633A2D",
"B  c #6B3A2D",
"V  c #693724",
"C  c #73392C",
"Z  c #7B3C2C",
"A  c #763529",
"S  c #633533",
"D  c #6B3533",
"F  c #643A33",
"G  c #6B3B34",
"H  c #63353A",
"J  c #643B3B",
"K  c #6C3D3A",
"L  c #6B343B",
"P  c #723534",
"I  c #733B34",
"U  c #7B3C33",
"Y  c #733C3B",
"T  c #7C3D3C",
"R  c #7B3735",
"E  c #662C27",
"W  c #491E1F",
"Q  c #3C4829",
"!  c #55451C",
"~  c #48461D",
"^  c #4A452B",
"/  c #4A4828",
"(  c #534324",
")  c #53432C",
"_  c #5C452C",
"`  c #534B2C",
"'  c #594A27",
"]  c #4A552A",
"[  c #575629",
"{  c #4A4835",
"}  c #534333",
"|  c #5C4234",
" . c #5C433B",
".. c #574937",
"X. c #485634",
"o. c #585736",
"O. c #67482A",
"+. c #7B422C",
"@. c #784729",
"#. c #68592A",
"$. c #745529",
"%. c #624434",
"&. c #6D4336",
"*. c #63433D",
"=. c #67483A",
"-. c #744334",
";. c #7C4333",
":. c #7D443B",
">. c #75483A",
",. c #675937",
"<. c #775638",
"1. c #59642D",
"2. c #5A6637",
"3. c #546936",
"4. c #64632D",
"5. c #666637",
"6. c #756937",
"7. c #6C7639",
"8. c #77753A",
"9. c #75672E",
"0. c #72471D",
"q. c #572E43",
"w. c #4B3D43",
"e. c #4D3744",
"r. c #5B3B42",
"t. c #553746",
"y. c #472C43",
"u. c #653842",
"i. c #7E3E42",
"p. c #4C4345",
"a. c #544445",
"s. c #544A4C",
"d. c #564747",
"f. c #585547",
"g. c #59504F",
"h. c #624441",
"j. c #6A4843",
"k. c #794944",
"l. c #695844",
"z. c #775648",
"x. c #7A5856",
"c. c #6D5552",
"v. c #5A6643",
"b. c #676745",
"n. c #796843",
"m. c #797646",
"M. c #736E53",
"N. c #797662",
"B. c #843D2D",
"V. c #8C3E2C",
"C. c #893E26",
"Z. c #923E2E",
"A. c #973B28",
"S. c #843D33",
"D. c #8D3E33",
"F. c #8C3D3A",
"G. c #853C3A",
"H. c #923D33",
"J. c #913D3A",
"K. c #993836",
"L. c #8B3C1F",
"P. c #844425",
"I. c #8B4125",
"U. c #84442C",
"Y. c #8B422D",
"T. c #89492B",
"R. c #91422D",
"E. c #934427",
"W. c #84572A",
"Q. c #854334",
"!. c #8B4133",
"~. c #834A33",
"^. c #8B4B34",
"/. c #84443B",
"(. c #8B423A",
"). c #8B4A3A",
"_. c #834B3C",
"`. c #914133",
"'. c #934B35",
"]. c #944C3B",
"[. c #964837",
"{. c #885638",
"}. c #93543C",
"|. c #9B543C",
" X c #98593A",
".X c #A1573D",
"XX c #A1422A",
"oX c #896439",
"OX c #97663C",
"+X c #86753A",
"@X c #9B7633",
"#X c #A6683D",
"$X c #8D3F42",
"%X c #874744",
"&X c #984B44",
"*X c #865848",
"=X c #985A46",
"-X c #865856",
";X c #975E51",
":X c #8A4B59",
">X c #A35B42",
",X c #A45A4C",
"<X c #A5554F",
"1X c #886443",
"2X c #9B6144",
"3X c #956C4D",
"4X c #996848",
"5X c #98744A",
"6X c #896656",
"7X c #956B54",
"8X c #9B6B55",
"9X c #986858",
"0X c #997357",
"qX c #877750",
"wX c #A3634B",
"eX c #A76748",
"rX c #A5724E",
"tX c #A36C5B",
"yX c #A86A55",
"uX c #A67458",
"iX c #B2715A",
"pX c #9B6A67",
"aX c #997769",
"sX c #8B7266",
"dX c #A67965",
"fX c #A86E65",
"gX c #7F8036",
"hX c #7E8755",
"jX c #938536",
"kX c #888147",
"lX c #97895B",
"zX c #9A9958",
"xX c #8B8A51",
"cX c #A68F55",
"vX c #998466",
"bX c #95976E",
"nX c #AA8668",
"mX c #B88768",
"MX c #A59867",
"NX c #B98872",
"BX c #BB957B",
"VX c #AC9071",
"CX c #97A469",
"ZX c #A8A56F",
"AX c #A4A856",
"SX c #C89176",
"DX c #CCA07D",
"FX c #BC9C89",
"GX c #B4A287",
"HX c #C99C8F",
"JX c #D9A788",
"KX c #CCAC9A",
"LX c #D6AB95",
"PX c #CBB59B",
"IX c #DBB39E",
"UX c #D0BCA6",
/* pixels */
"..,.nXVXPXFXaX7X-XpXdXdXmX-Xt.d.h.c.1XaXaXlXdXiXnXLXPXsXM.lXcXuXdXdXnXcXpXd.a.d.s.a.l.dXvXaXaXvXvXvXM.,.b.M.hXvXlXvX9X-XfXNXc.p.",
"7 ' OXuXJXmX8X XG.<X,XeXyXk.> a : =.}. XeXeXeX>X>XSXDX6.4.+X@X XeXeX#X#X X; , 6 4 6 B 8XwXpX3XOX5X5X<.! [ o.5.qX8.5XW.E.<XwX%.s ",
"0X*X@.T.[.[.!.R.V.Y.E.E.^.G v d 1 sXJX2XI.R.R.Z.'.^.<.,.2.xXcXW.(.`.E.E.Q.F l ; n 6X=XT.Q.!.U.T.{.yX<.& ( ( ' _ +XMX#XL.E.E.V ..",
"aX;XD.V.B.(.F.V.Q.~.P.I.Q.K z f r sXLX=XS.(.J.D.S.;.;.l.o.xXxX<.k.F.Q.Q./.J c 1 x dXrXT.R.E.[.V.].iX%XB N F x x n.lXoX0.W.W.O...",
"aX=XR.V.S.Q._.<.$.,.U.D.(.Y v f > -XtX}.D.J.F.(.(._.Q.x / [ #.8 L $XF.(.T H b : *.KXSXyX>XV.H.J.H.(.Q.Q.:.:.K S _ ( ( ( qXMXm.l.",
"aX=XY.Y.~.C O.$.m.<.Z F.%XT J a a :XrX'.Z.Z.H.!.B.Q.F.U O.9.9.' D F.Z.E.F.u.b : d.PXSX=X>XH.H.A.R.I.I.T.U.^.+.V B | ) / 7.xX5.l.",
"nX4XU.V.~.&.* 6.ZXn.V R %X>.x k > :XuX}.Y.!.(.A V ;.[.yX0XcXzX' S G.Y.Y.Q.L c 1 =.PXNX@.V.F.`.A.Y.U.P.Y.A.V.Y.Q.Q./.G 8 ( 8 ' ..",
"x.k.G.G.T Y e =.xX5.V R i.z ^ @ 5  .*X-.:.Y j. .x K i.%XoXqX7.o.d.>.U +.I l k ; ..BXuXT.I.D.J.J.(.~.Q.`.H.K.J./.Z.Z.S.I I I K  .",
"e.t n J u.w ~ ' o.o.x u.u.k 4 + y u , k H n n n n x L l z } ] o.b.) e J H < , , z 0X1XU.C.Z.J.F.`.F.D.(./.(.(.F.K.R.`.!.(.(.Y h.",
"t.g f f a %.7.9.` { 6 c c d 4 , y y.# j c k k d f k k a c z ^ ^ / ` } k c $ $ 1 x 9X2XT.Y.D.D.H.H.D.D./.;.Z F.(.`.`.!.R.`.(.P *.",
"t.y 4 4 W ,.ZXm.( 7 % > ; ; % 4 o , - - < < < , , s , t t , 4 @ ^ { ..s # $ $ : S tX=XI.V.F.(.!.D.D.!.Q.Z = B.!.H.`.V.!.!.(.Y h.",
"t.y   q x.<.8.4.( %.F &.*Xz.<.6XaXaXaX-Xz.l < s $ s g u t t r $ $ $ s $ r $ $ , l tXeX.X|.F.F.Q.!.F.V.Q.).}.).Y.D.!.!.!.B.R D *.",
"t.t   O.dXqX[ [ 8 B _.;XtXtX0XSXIXLXIXnXpXF : r r $ y u g y g g $ s s , < r g , 8 5X5XrX X!.F.!.Z.H.H.Y.=XiX|.V.D.!.Y.!.A A D a.",
"q.t.{.*X).1XxX6.N R Q.[.[.^.^.*X2X=X=X=X%XP l d g y y y # $ y y y t p u.&.k b o.o.5.8.cX5XP.V.!.H.H.H.Z.!.[.[.Z.D.Y.!.!.S.Q.P *.",
"q.u.0X4XZ {.MXn.0 R !.V.A.V.U.B.U.B.B.Y.!.I S c r y y.g + s r t 2 3 E %X%XG  .l.v.1.2.AX@X@.T.!.V.H.[.Z.D.S.D.V.D.Y.!.U.F./.I  .",
"q.J 5XOXU.{.9.,.m R (.Y.R.Y.(.S.V.`.R.H.(.I H d r u t < < < 2 Y i.G.G.F.S.m x 6 7 ] [ 4.8.cX5XQ.I.H.D.D.Q.Q.(.(.D.D.Y.!.D.(.I h.",
"q.K 5XOXY.@.4.o.x i./.U.R.!.(.G.G.D.Y.!./.Y H d s s , t 3 3 E U ^.!.!.(.S.| l < k } _ #.7.zXqXW.~.Q.!.Q.Q.:././.D.D.`.V.D.(.Y h.",
"c J 0X2XU.$.5...n u.;.U.!.Z P G.(.B.Y.(./.G v d s + 5 j.T G./.Q.Y.C.I.I.'.9X6X> H pX6X! [ 3.m.NX4X@.;.C D N F D D.Y.!.!.!.(.P *.",
"j u.tX}.$.#.#.o.l Y ;.+.;.Y S Y @.P.V.F.:.G l 6 1 < 6 k.].Q.Q.S./.).[.E.E.9X*X< l 6Xz.e ' #.5.lX+X0.&.u.u.l w l -.U.Q.G.G.:.G | ",
"w.u > e 9.[ ` } x F G M G x z n K G l w z d , t a u.u.9X5X+.V m @.9XrXrXOX; 5 s y y 6 w x ) } ' ! & l r.r.x F n N m H L L K 3 z ",
"w.g + { 3.X.{ t.l l v v c ....} e.q.v n c y s g g e.r.x.x.n b c c x.x.6Xz.4 + $ $ i t n c b w.^ [ #...h b z k r.c l c b v k d h ",
"e.o @ @ Q Q @ > 1 - i y.r ` 5.~ i i > - , X , , o , : : , i t i i : : 1 1 . + o # r < > , y y + l.ZXx.. ; ; ; t > - o o o ; ; j ",
"c.H e _ ,.,.) j.x.} # y.o [ gX#. .c.c.z.c.*. .x j.S S Y *.K h.J h.x.z.*.K %.%.h.*.*.J &.J , y o o.xXl.5 x &.F v K %.l.l.=.%.%.j.",
"aXwXU.|.uX0X8XNXUXsX# y O m.AXjX2XHXUXPXPXVX8X8XyX].`.wXrXrXrXyXuXJXJXrXrXuXuXtXtXuXtXdXx.; r r / 5.[ q *XuX;Xk.;X0XHXUXVX5XuXdX",
"9X'.A.XX|.&X X2XuXz.k u . [ kXjXcXrXuXuXrX=X X|.'.Y.Y.].|.|.|.|.|.iXyX X|.[..X|. X|. X X<.9 d r 7 2.o.e :.>X`./.'. X8XuX2X'. X2X",
":.I.A.A.D.S.Q.C.@.O.H v o { 1.kXMXW.C.A.V.V.Y.I.U.+.~.Q.F.F.F.S.(.S.S.F.F.Z.C.V.Y.C.C.I.U H n o / 2.o.z U C.E.!.V.Y.@.@.C.A.A._.",
"z.Q.`.H.%XG.F.Z.R.Z D v # { X.2.m.#.C Q.Q.!.D.Z.K.J.F.F.E.E.Y.U.T.Y.Y.Y.Q.!.!.!.Q.E.R.!.T L q.# / v.f.c Y Z.E.Y.H.D.Q.(.A.K.K.%X",
"%XH.Z.!.Q.(.D.Z.`.R S c r f q O.4.] 8 &.(.J.K.D.D.D.K.V.Y.^.Q.Q.Q.Q.!.Y.E././.!.A.K.K.K.S.D k @ Q v.o.l T J.H.`.K.!.Q.Q.H.K.K.*X",
"*XK.D.+.B S.D.Y.[.R n j , j.-X<.~ 1.o.=.C S.F.(.Q.!.R.Y.U.A C P I C Z ^.V.M I (.J.J.K.(.U M %.X.X.X.} N R !.!.U.!.(.U M S.K.H.*X",
"*X(./.&.S P %XQ./.U H f X x.aX<./ 3.v.` e ;._.Q.Q.Q.F./.;.M m S S S D :.;.D L %X(.G.Q.k.j.v o.1.3./ / N U (.Q.U.Q./.&.w ;./.(.k.",
"k.P L  .z H u.B B m 6 g i a n x z ` Q v.,.| O.B B C P C K F l n n H J F F H H L D G G *.c r { 4.] @ f x L Y B B I G | x l B G j.",
"u.H l h { r.L l ..7 , t u t 1 z z { X.X.l...z w x x H v v l r.c h r.c z z v n x z v l v c r f 2.X.O e.t.t.t.n v S H b b } F l J ",
"b p < 5 , < ; z b.^ - t i < , 4 ; , 5 4 4  .l.9 1 < r d d t d s r , 5 < , - 5 4 < 6 < < 6 1 7 3.X.o y y y t , < 2 2 1 s ; ; 2 9 ",
"c 3 , 6 k k e ` 2.[ 7 0 3 9 q 7 e 0 0 l q z.M.w x d b r r r r t < 6 9 0 0 } } 9 e 0 e 0 9 q ` 3.[ 7 q %.z q 8 8 3 3 0 3 0 e e  .",
"b 2 % F pX9X0X7.1.n.0X:X%X*X0X7X8X9XtX9X7XBXLXlX9XpXpXb # , < ; 9 6X9X9XdXKXFXpXpX9X8X5X0XZXm.~ ,.3XmXLXNX5X8X5X{.:.%XT ;XtX9XaX",
"f 3 m >.9X9XOX7.5.8.,X>XJ.&X4X5XyX,X,X4X5XnXBXeX=XwX,Xl j 5 - S G 7X=X=XwXSXNX=XwX>X4XrXkXxXm./ <.wXiXSXuX2X=XwX].Q.(.S.<X=X3XsX",
"d K 8X2XU.U.$.8.ZX5X+.Z.K.Y.T. XiX[.V.wXrX$.@.P.E.C.Y.G a., 9 6X8X~.Q.!.B.S.!.Y.V.I.W.mXkX1.o.w B Q.`.!.Y.Q.D.J.Y.U.!.H.K.D.A %.",
"c F uX>XA.$.7.8.5X*X+.Q.Q.!.C.&X,X^.!.].,X).Y.H.D.F.(.N n t d 7XeXR.F.$XS.F.F.`.'.$.9.xXm.[ O.A +.Q.!.!.!.H.D.!.E.I.I.(.S.(.Z %.",
"k _ qXOXP.1XZX8.& A ~.Q.!.D.!.D.B.!.!.B.Y.U.Y.D.!.Q./.N v t p 3XeXT.H.J.C.Z B.@.$.,.5.2.[ ' N ~.Q.Q.!.V.D.H.D.H.A.Y.F.!.J.H.P *.",
"6 o.lX1X$.<.qX#.C U.Q.!.D.D.`.!.!.Q.D.Y.Q.U.!.`.F.B.U F c u p 9X#XE.V.H.^.@XoXO.[ o.X.o.%.K U !.!.!.`.!.H.Y.!.!.H.J.J.F.F.(.R *.",
"4 [ CXxXl.,.( O.Q.!.!.H.H.V.V.!.!.Q.D.V.!.Y.!.D.!.A E N n u p 9X#XT.U.+.W.MXzX4.[ / { ^ G (.(.`.D.!.H.H.H.`.D.D.H.J.F.F.(.^.B | ",
"..o.3.1.O...8 -.D.!.!.`.H.H.H.D.!.!.H.Z.Y.!.V.D.!.Z U G v a p <.W.@X3X$.#.7.7.` ..e | =.;.F.H.D.Z.H.!.!.!.V.D.D.H.H.(.(.@.V 6.sX",
"M.o.] / e w e Z H.H.D.H.`.H.!.D.Y.!.H.`.!.Y.!.D.D.(./.G n u k O.$.MXVX,.1.3.o.) m E M (.!.T.V.H.H.D.H.D.H.!.D.!.Y.Q.!.U.= & qXGX",
"c.' ~ ' ;.-.-.Q.`.!.H.`.D.D.V.`.D.D.H.Z.Y.!.!.V.F.Q.Q.G H t 5 ,.#.4.,.` ` ` %.&.Q.<X&XV.V.I.R.H.`.H.D.Y.!.D.Z.!.U.Y.P.P.oXkX7.v.",
"h.) ( -.Q.(._.!.D.!.!.V.D.R.H.!.!.D.H.D.!.Y.!.H.H.(.(.B } s j o.4.! w w w N B Q.&XyXwXU.V.D.F.D.D.!.!.!.Y.!.D.H.V.[.S.P.5XZX1.] ",
"f j.FXiXJ.H.Q.V.V.!.!.!.!.!.!.D.D.Z.!.Y.Y.Q.V.H.H.J.(.B } f.f.] ! ! F i.U D.D.Y.T.^.~.U.G.K.K.!.Y.!.!.U.!.!.H.H.D.!.H.^.{.6.[ { ",
"5 <.LXmXI.A.Y.F.H.H.H.!.Q.!.!.D.`.H.!.D.`.Z.R.D.Q.Q.:.F { ,.2.' ' N P %X(.D.`.!.Y.!.Y.!.!.H.V.S.`.(.F.F./.(.F.(.J.Y.T.$.#.,...a.",
"s  .dX XB.T.H.!.J.H.H.!.Q.Q.Q.D.D.H.F.!.H.Z.A.!.(.C M n h ` ' ! O.:.F.(.!.R.Y.D.!.(.!.F.V.!.V.B.D.`.F./.U A Z F.H.I.5XlX9.' } ..",
"j | 8X2XE.T.H.D.H.H.D.!.Q.Q.Y.!.`.H.!.F.H.R.V.!.).B m n r.| ( ' &.Q.!.Y.E.Z.!.!.F.D.F.`.!.H.Y.Q.B.S.S./.-.V A Q.`.U.3XcX#.( F =.",
"s %.8XeXeX.XY.F.F.H.D.Q.Q.Z A B.!.D.F.H.H.Z.V.!./.m l u.r.6 ; 7X9X).F.R.E.!.!.(.S.A A Q.!.!.!.^.S.V M N w N -.Q.Q.~.$.#.' _ x h.",
"s | dXrX.X|.Y.J.F.H.!.!.(.S.Z !.!.(.F.H.D.H.!.(.:.G F n r.< 6 x.-X/.Q.S.Z ;.U :.U m D :.:.;.U :.I m F z z x K T :.&.,.,.` z n h.",
"s z.IXmXC.I.!.!.!.!.!.!.Q.=XiX}.Q.!.!.!.`.`.D.F.%XM l J v d 4 , 2 S L S D N N F F l F x F N F F L J n a.b r.J D F z ` ` ` r.u.g.",
"s =.FXiX'.'.V.F.!.!.!.!.D.].;X[.!.B.R F.!.V.V.!./.I Y F n s r r d k k c h k z z z h k z z k z 9 l c q.e.e.b c l k q ^ ..{ k e.r.",
"j | 8XrXeX.XY.F.F.D.D.!.D.D.D.!.F.A V Z (.D.`.D.!.(.(.G x d y r 5 - % @ + 5 r 5 s s s r 5 , ; @ . t u y y y < ; ; % 7 ` 4 1 : f ",
"j ..8X4XeX.XC.(.F.`.`.H.H.`.D.!.!.].%XQ.Q.!.H.Z.Z.D.!.D c t u y j l.l.] { s r y y y y r y t j X.{ , p t t , n j.>.>._ ( =.j.x.sX",
"j | 0XeXiX.XY.`.D.V.D.D.F.D.!.D.Y.,XfX*X!.D.Z.Z.H.!.!.C H u y o 7 MXMX5.o.g y y y $ y.$ y i { 5..., t p < % l.aXpXdX<.e 1XpXHXUX",
"j *.tX2X|.[.Z.H.H.!.`.!.V.V.Y.!.D.[.&X[.V.H.Z.Z.!.V.Y.C L y g M.7.9.4.( { y r r r g $ $ y : O.xXn.d u t *._.{.*X}.}.U.P.R.=X*XsX",
"d *.0X XL.V.Y.`.!.!.!.Q.(.!.!.B.B.B.U.Q.!.`.H.D.D.!.!.C z . @ bXbX[ / 4 o y t 2 2 < t : 1 W =.AXm.7 b - >.fX=XB.!.U.!.U.Y.!.P l ",
"6 | tX2XT.I.Q.Q./.;.A A Z S.Q.A A S.).Z Z S.F.F.(.Q.~.G ) M.m.3.2.7 5 5 s t p G R Z I S E m {.AXm.o.{ % <.tX|.V.!.H.!.Y.!.!.P *.",
"f %.aX1X+.~././.k.-.m M M I k.I P :.:.C M S./././.:.:.F } lXzX[ ( , s t - t l /.^.U.^.Z C Z oXzXkXb.{   <.aX=XD.(.(.Q.(.Q.(.Y *.",
"j j x w S m S E l x x J S l 0 3 0 S S S S L K G S l 0 > r ,.5.~ - u a x.k.d | 9XwXeXwX{.{.=X1X' [ o./   Q f S P P I B N B N F b ",
"w.# < t p t p t < 6 z b n d 2 p p 3 < k x l l 2 9 2 < > X o.[   . u q.x.<.$ q 6X4X8X3X*Xz.6X*Xe 8 ..Q @ $ O , F l S x _ x 9 c ..",
"$ y.# X # # i y o O X o s y , X : o , , s r , X X X . X # { Q   . : i -   O O % ; * 6 - 4 6 < 1 . ^ X.g.p.$ # s t d 5 $ 5 . 5 $ ",
"g.s.s.w.w.s.s.s.s.p.w.a.d.g.s.w.w.p.s.s.s.a.w.w.{ a.d.w.s.g.f.{ h e.d.a.} p.h f b a.s.w.h  .a.w.{ f.b.N.c.p.s.s.s.s.s.s.s.a.s.a."
};
