/* XPM */
static char *result[] = {
/* columns rows colors chars-per-pixel */
"64 64 109 2 ",
"   c #9A7F5A",
".  c #9D825C",
"X  c #A3855C",
"o  c #A4895D",
"O  c #AB8B5E",
"+  c #9F8561",
"@  c #A38762",
"#  c #A58A63",
"$  c #AA8D64",
"%  c #A68D69",
"&  c #AB8E69",
"*  c #B08F64",
"=  c #B08D6A",
"-  c #AD9165",
";  c #AD926B",
":  c #AF986F",
">  c #B09266",
",  c #B2956D",
"<  c #B5996E",
"1  c #BA9C6D",
"2  c #B39671",
"3  c #B99773",
"4  c #B69B72",
"5  c #BB9C74",
"6  c #B59C79",
"7  c #BC9E79",
"8  c #BFA06F",
"9  c #BEA275",
"0  c #BFA877",
"q  c #B7A279",
"w  c #BDA27A",
"e  c #BFA97C",
"r  c #C19E75",
"t  c #C5A46F",
"y  c #C3A474",
"u  c #C9A676",
"i  c #C5A975",
"p  c #CAAC76",
"a  c #C2A57A",
"s  c #C9A679",
"d  c #C5AB7B",
"f  c #CAAD7A",
"g  c #CCB27D",
"h  c #D2B67E",
"j  c #BEA981",
"k  c #C5AD82",
"l  c #C9AE81",
"z  c #C6B084",
"x  c #CDB482",
"c  c #CEB985",
"v  c #C6B48D",
"b  c #CCB589",
"n  c #CFB98A",
"m  c #D1B682",
"M  c #D4BB85",
"N  c #D9BE86",
"B  c #D4BD8A",
"V  c #D8BF89",
"C  c #CFBD95",
"Z  c #CEBE98",
"A  c #D0BD91",
"S  c #D7C086",
"D  c #DAC187",
"F  c #D7C18C",
"G  c #DBC28C",
"H  c #D5C293",
"J  c #DCC592",
"K  c #DEC995",
"L  c #D4C299",
"P  c #DAC799",
"I  c #DECB9B",
"U  c #E1C78D",
"Y  c #E2C98F",
"T  c #E0C791",
"R  c #E3CC94",
"E  c #E3CE9A",
"W  c #E6D096",
"Q  c #E8D296",
"!  c #E6D19C",
"~  c #EAD59C",
"^  c #EDD99E",
"/  c #F0DE9F",
"(  c #DDCCA1",
")  c #DFD0A8",
"_  c #E5D4A3",
"`  c #EAD6A2",
"'  c #EDDAA2",
"]  c #E6D5A9",
"[  c #E8D7A8",
"{  c #E7D8AC",
"}  c #EDDDAB",
"|  c #F0DEA3",
" . c #F1DFAB",
".. c #E5D7B1",
"X. c #EBDDB3",
"o. c #EDDFB9",
"O. c #EFE0AD",
"+. c #F2E1A6",
"@. c #F1E1AC",
"#. c #EFE1B2",
"$. c #ECE0BB",
"%. c #F3E5B3",
"&. c #F7E8B7",
"*. c #F5E7BA",
"=. c #F6E9BB",
"-. c #F8EABD",
";. c #F6EAC1",
":. c #F9EDC2",
">. c #FAEFC8",
/* pixels */
"7 7 a y u y d 9 , r y g f b J f 0 o . # @ ; ; $ ; > 3 y y , p 1 > ; ; ; o 5 5 a F _ R [ I b d y O > & , 2 r y y 5 # ; 5 k a f r ",
", 1 r y ; > , i m x b P #._ H B t % X 3 r y f p N d f d i d % , f f d d B d _ H E ' ` ! ` } ` K d $ 3 f r f I _ c C P [ ..H j f ",
"7 & , , f a m p ! _ O.~ X.} H { 9 - > , p V G F J R H ~ g x f 5 a E E } I ' T %.S &.;.W X.! g #.m r $ f T _ | *.#.o.=.=.*.( P f ",
", p M x ' | V ^ =.=.*.=.*.*.R } i # $ y m ! R @.#.} R ! R x , d M E } } E T ' ' =.~ R ^ *.U O.=.%.N 3 a J ' } %.=.:.=.=.*.%.H h ",
"u p 3 T f U *.-.@.&.=.W  .*.@.g m $ 4 w G E *.-.*.*.@.O.[ i > p i M ` G ~ a ! R | +.*.^ ^ @.+.+.^ ~ 7 = l R ' V  .%.^ =.=.[ Q f ",
"= p p G W *. .%.^ =.=.%.^ =.%.B E ; 3 H [ %.*.-.-.:.:.:.*.G 4 y f f |  .x M @.' W -.%.~ +.O.+.~ %.` R o r } M W O.=.M ^ P f g D ",
"$ 0 i g V @.~ %.+.=.*.~ *.+.@.d G ; y M ` } &.&.-.&.%.&.W ~ i 5 m R ^ | T ' #.V J ~ =.+.@.*.*.{ G ! J $ m M ! m R +.G J c R y = ",
"- 4 x x T '  .Q @./ ' @.+.%.G M d 0 f %.@.*.=.:.:.:.&.@.+.+.t < d x f M G %.G G R } @.R %.+.+.G I { i 3 f f T #.M %.z d a 5 * # ",
"u 3 m G | @.Q } ^ @.@.@.+.R R ' 9 9 G @.&.~  .=.=.%.^ +.+.@.r 9 g g i f J H G S c i } %.E _ { H V y ; , x G G n i r 4 9 ; # * y ",
"3 , i m p ^ ^ ~ @.@.` ` ` ! T V < H ~ U  .+.^ ` ^ @.=.@.! +.h 3 p ; 9 ; w d a f c x y g R N f k d # 5 4 0 y z 9 f g d p p i B i ",
"p = w ! ' ` ` G J ^ ' G M N f 3 x ~ *.%.*.^ | @.%.@.+.! G *.R r < 1 # 2 & ; 4 < 2 , ; 5 4 ; ; # , ; f B b f E R G d M N G h M a ",
"y $ 5 f ` ^ R f } u S ' ~ y 1 @ i ' *.%.=.+.+.@.^ *.%.` R ' ' x ; ; % y i p R R p 3 ; y g 5 & 9 i g J ! _ P %.R G ' S @.+.+.G i ",
"D ; % p y n g 5 p i i 9 ; - % y i M D } | +./ ' +.^ =.G %.~ m i - < : g p ^ =.@.G m m K ` d d 5 , H M V } W %.O.%.W :.%.%.*.o.W ",
"a # # , < - # # X @ # % O - p i 7 G G ' *. .%. .| ' V ! E ' d 4 ; y i M ^ %.+.=.#.' F W ` g f % M H ~ R =.O.%.U @.%.^ ^ +.$.%.' ",
"y > < 7 # X O 9 4 5 % , > p H g y G V U @.%. . .%./ %.^ ! h < 4 < p ^ c ~ F O.&.&.=.~ I O.N l , y m c } *.&.=.~ @.^ ~ ^ ^ @.:.G ",
"i 3 > $ p B S I ! ! m d f 9 g g i T m ! D *.Q R U T ! #.G m - ; w p %.^ =.%.~ G &.-.O.+.O._ B d a m R ` +.^ G ' +.@.O.#.>.-.%.G ",
"y , $ f R U @.| @.+.~ H f 9 1 a R T T M G p K R M %.` G W p - w M @.&.&.@.=.*.^ +.=.=.O.[ } V d & f m }  .| %.V W %.=._ E ! W N ",
"7 , i ~ | &.=.=.:.^ ` %.} i # i ' m W %.V y ~ } W @.! R y d ; g x @.^ R N +.M %.^ ~  .*.| E M V 4 u 5 m ! G T J R V V G ' [ N 9 ",
"7 f V V =.:.@.*.>.>.S R ! K f @ h m y g f d m D %.R E R ! ; - y 4 %.^ @.W ' G ^ ^ R @.| E E H m h 3 $ - f 9 E ' i m M G G E E & ",
"f i N  .:.;.@.:.&.+.:./ K R 1 , , p & & > y s N g G G G , - . $ w } %.| ^ ^ %.' ! ' R %._ K h V 5 $ u p k i < > > l f M d m N 1 ",
"i D R *.Q @.T -.:.;.~ ` N g & y M x b f > $ p N f i 5 , 8 q - O < i t *.R %.~ ^ ' G ' ^ _ f B f % > p W B d 5 d 1 , > 3 > d 9 @ ",
"f m ^ %.G Q ~ @.:.| *.^ g 2 , i G G K J K 9 # i d , # t y 3 f 5 1 , > p ( P G R ~ } ' J m m M i u g u / ~ G g ! N m 7 = % > % @ ",
"i M X.W %.R G +.^ +.^ _ q , p W ^ ' ` } K m # 5 $ X l d B G V f f f , @ f g d R R T V T g g - , y U %.-.=. .%.+.+.x l h u r = o ",
"f i %.' F R ^ %.@.&.` 5 4 i ~ @.%.! ^ @.+.m p - 5 a n f S G R ! _ b k 2 ; , ; 5 a M U f 1 % u a ^ %.N ^ -.=.@.=.~ G Q D u y y o ",
"$ g n E G ^ %.K R ^ w ; i G =.&.! ^ =.%.*.U f $ w d W d D f m m _ J K n w d $ : 4 $ > a 3 y y S %. .~ %.;.^ &.&.=.@.~ / D i d   ",
"X d x | %.@.+.N f y 9 < Y g ~ &.&.%.*.+.G ^ M > i E ] M M R _  .R _ ' J x N 9 d f , > y f ' K %.*.%.+.-.=.=.| D &.+.%.` %.M i   ",
". g M N G / R ' D d % 4 W @.&.@.-.~ @.} G } R c 5 m M p ! ] ~ _ R ! [ R M G S g c , ; f B ;.[ %.+.=.=.-.=.@.D R ! %.%.@.#.G d ; ",
"@ < m B z G U g ' i < d %.&.R @.+.&.~ [ n B V G , f ! } @.' G R E [ g m S G ! f y $ 6 U g +.X.%.U =./ *.*.| X.' R ^ @.~ ` ~ d d ",
"% < x 0 B G E w G i - g c -.@.@.[ O.I O.+.M B m 4 E R @.^ } ' [ ~ m ! E B e B 4 $ X d R K ' { ^ ;.;.=.D ^ ' ` @.Q | ' U G _ m a ",
"9 . ; d q f k S p % # d m ` ' [ +.W ^ =.~ ^ R f w ! ` ^ ' %.' J x E R g g p 4 o d 0 ; G c #.J ^ &.:.@.%.%.Q f ^ ' %.| ' G E M y ",
"@ . > 8 f y 9 ; # @ X w i V ! ' %.;.` #.~ =.O.i , n @.! ' ^ | N ^ E g f - : x f B 0 , f V G m E @.&.@.@.%.%. .| l | V R Q H m a ",
"X @ ; 1 d , , , a d @ & d x m x P B R _ ~ O.U p < f ! K [ G g i Y y i ^ 0 G W f G M x 7 7 r f N u Q @.^ %.g `  .~ | m ' f a f & ",
"9 y i v B m a M w k w * # y d G m g V G m e m f 7 x E V ` x 0 h y y N !  . .h U } M V R d & i y > 2 m E G B ' n G N x G d y @ 3 ",
"g p J ` E ~ m A p f v c i 3 a , y f 3 k 4 a f > , f d J ! m q w , M M / %.Q | g g *.%.h T h ; < y 5 i d B m G B x c G l a # & 9 ",
"s i U %.~ ~ @.G E m ` @.M h , , ; ; 5 ; ; ; $ # , y f x ! c % p h R | V *.Q %.%.| ~ |  .%.g p > 5 y 4 7 0 d g m x d e a & $ > , ",
"y g p R =.%.^ | R W %.+.~ p , & h d d 6 f & r , r 3 $ a y q < ^ M R ~ *.*.=.*.;.| D ! @.^ R p M p y , > ; 2 ; $ w d < $ ; i 2 > ",
"1 G b U %.=.*.+.*.+.G  .p ` 9 u p R J d e , i i p p 5 , % # m *.%.' %.*.~ ^ *.Q %.~  .@.^ U P g f p N N N 9 7 9 % # $ d V d 7 y ",
"5 g V N ' ` ~ M ~ M x u x f y i e U d p g D R ` Q  .' x 3 9 J g |  .U / ^ +.%.+.%.*.*.Q i a F G E | Q M J x p u d 4 d ' A T B f ",
"y g ` ` @.T ^ m S ! D f y : ; 5 7 g w } ` @.~ %.@.^ @.` M 7 4 J m %.*.%.@.=.:.=.^ %.=.' f h F ! ~ } =.^ ^ S d 1 d _ ` m _ %.%.' ",
"p m ` ' ` | } ` B B d ; w w m U h M R *.^ +.=.&.&.+.*.W R d 6 d B G =.:.=.:.%.^ W *.%.R J x ! J R G  .=.@.w 3 5 G K _ ` ! ~ T G ",
"u m %.` V J ! H f 5 ; , d b %.@.@.+.R J W @.~ ;.=.&.@.^ ` G g ; k m  .=.=.=.&.%.^ =.U ~ F m ` +.' ^ @.-.*.y % O a E ' ( G | g g ",
"r p f G ! K T T J f ; ; i *.@.%.^ ~ | #.' @.&.&.~ %.@.~ J a f , $ y w V f X.~ ~ ' } ^ y f ' } ! g &.&.%.^ M , O x f B g G W g p ",
"y m l G E d ! ^ ~ f 4 e =.O.g G W g %.G *.+.&.^  .| %.` f m , 9 $ % ; 2 ; 4 d 7 p L n 4 d @.} ^ O.&.*.=.G R > d 7 i & 7 g i p y ",
"a 3 $ f l a R T i 5 d d G K +.' ^ G %.E  .| @.R %.| | ! m , a f f f B b l w ; 2 2 9 > 3 G *.O.*.~ %.+.*.G d > < 3 # % u 4 r > $ ",
"5 & & @ . i f a 7 , y R D G ` @.G G @.` @.@.%.| %.R R ` G $ k H m f f n s B x k 0 # X = s  .X.+.U ' *.&.t 1 p p g r g & 5 @ $ & ",
"u s 5 9 & $ 1 9 & & d W m %.&.@.W ~ +.@.~ | @.^ R ` G G a 2 g M B E ' R J ( s d p % X & ; G E %.O.U ~ p % 7 J J m G U M N i y f ",
"p N y x A J N 4 , , > f u @.| @.%.' R @.@./ ^ R | N ! i $ f R ~ } ^ _ T #.M M B d @ M j f m y 5 r y M q y y J ~ [ ~ %.R D V p f ",
"f 3 J _ X.o.X.U y * a > $ $ V M R G h ~ @.f Q g G Q g & 1 x G ~ _ ! ' ~ R } J s 4 4 B ' *.L f r o O $ $ y G G R o.@.@.| %.' D f ",
"u d c  .&.X.=.%.N I e w 5 % # $ 4 ; % g p B V R f f & % h m R D ! R ! ' J ` R , 1 R m ^ ^ %.g m f d $ , i N U %.X.+.@.*.%.~ ^  .",
"p 3 B } @.] ~ ` H _ E i m d % < . , y % y a a d 3 $ % ; , f i m f N J p ! i , ; ^ -.=.-.@.@.*.E E M d > D i g  .m #.%.*.Q /  .' ",
"y , f H S *.G } _ ` ] g ( d # e G 9 & & # w & > 5 & 1 p d > ; u 3 a , R g p : f O.:.:.@.+.' ^ [ %.E f $ t r G *.[ R %.=.;. .R Q ",
", y g x K ~ R I O.B ' c q o w G T g R u % & , U w f f f M B g m p y 1 y 9 ; 4 p -.^ %.%.+.` %.$.%.I f , i f ` +.o.` G ' R | #.T ",
"y & < d V n H I ` [ E g : 0 ! %.' M g i , , f f d x G G V x ~ ! @.U w & $ 4 d ^ @.' W ^ U  .@.@.[ I R > # p ~ *.$.@.@.g E G R R ",
"f %     4 4 d d J B p : : g ~ J +.W N p p p g f p y ~ ! ' R R %.~ @.f 4 o n S ^ ' G R ^ +.' m ~ G } a > $ , y W } =.@.! | m ` g ",
", - . . . X 1 i i 9 : 4 d ^ W K S R d 7 d +.S ! G ~ J E  .%. . .=.-.X.e 2 n E ~ x R S ' R %.! ' p g ; p , % g i i ' +.G G M M p ",
"y O , , a R g w 9 p w y S K #.^ G K 7 y - g G G m G N O.%.^ %.*.=.#._ w ; l G y U W x ^ W ` @.G x ; i R M 7 w , x y i 4 ~ M y u ",
"r X & r | g } B 4 # y G d ` R ' O.R 0 i 9 } %.R ` ! G ! m ' ^ %.U ~ K d 2 l e x T G R ' `  .~ y < i %.*.*. .h , ; % # p y H d p ",
"1 # i K G ` S %.C c y  .' ~  .' } K w f i  .' G R G ~ G R ' O.+.%.' ..l z w w e N R R | @.` p & 0 R ) %.+.`  .M d w , @ + f 3 ; ",
"# f w g I K V X.! d ; x g } ` ` n x 2 r y R G G G g ^ ^ @.R R &.&.@.J b d 4 % G a g s Q i f , 7 M V f ^ %.{ &.%.` m ^ 3 ; & ; . ",
"7 3 m H F E V } O.F g 5 f z _ O.! d ; 3 i m N ` @.N ^ ` g R *.+.+.` &.X.f 2 ; R G x 3 f u $ 2 d ` ' ` B h #./ %.&.*.&.Z j : + . ",
"r y D V O.' E *.#.E l 9 B h G D D D , u p M m R ' R *.x K G G ' ^ | %.] b 5 # g f i 5 & , @ i T G ` ~ x ` ` ^ ^ ! %.+.+.Z g + . ",
"r r g M R J m ` E J i # < g m m i 5 4 y f G G m V R ` N m E N G m ! g ~ x g < . , # % @   2 i S y ` ..} x } ! h U ` ^ X.^ y @ @ ",
"y f V h y G R J w S d # # 2 2 ; o # O # r a p c F ` ^ R i B p B i V p d m i # X % 1 5 * X $ 9 i y , p J V V V ` Q | } f i 9 % @ ",
"i 2 f p d g g d ; ; > , r r i l 5 1 ; X # . 9 w d f f p k a f x p 7 y 7 @ X # # 5 g a a y t # + , & p d k w d G T d p d < 9 > O "
};
