/* XPM */
static char *result[] = {
/* columns rows colors chars-per-pixel */
"64 64 70 1 ",
"  c #1C160A",
". c #1E180C",
"X c #231C0E",
"o c #261D10",
"O c #281E12",
"+ c #0B2807",
"@ c #0E2A0A",
"# c #102E0B",
"$ c #11340E",
"% c #143C0F",
"& c #123610",
"* c #153B11",
"= c #193D11",
"- c #27200F",
"; c #29210F",
": c #272011",
"> c #2B2212",
", c #312515",
"< c #332A17",
"1 c #312518",
"2 c #342A19",
"3 c #392D1A",
"4 c #37301A",
"5 c #3C321D",
"6 c #3B3120",
"7 c #42361E",
"8 c #42391E",
"9 c #403520",
"0 c #453A22",
"q c #4A3C23",
"w c #174211",
"e c #1A4413",
"r c #1C4916",
"t c #1C4318",
"y c #1D4D1A",
"u c #1E521A",
"i c #204A17",
"p c #214D1B",
"a c #22541B",
"s c #24591D",
"d c #285C1D",
"f c #2B601E",
"g c #265A20",
"h c #295D21",
"j c #2D6324",
"k c #2E6B25",
"l c #2F6728",
"z c #2F6C28",
"x c #306625",
"c c #316B26",
"v c #316728",
"b c #336D28",
"n c #34732A",
"m c #357A2D",
"M c #397D2F",
"N c #377D31",
"B c #3A7E31",
"V c #4E4128",
"C c #524328",
"Z c #378230",
"A c #3C8432",
"S c #3E8A35",
"D c #3E9235",
"F c #418735",
"G c #418C35",
"H c #439236",
"J c #449539",
"K c #459A3A",
"L c #489B3B",
"P c None",
/* pixels */
"PPPPPPPPPPPPPPPPPPPPPPPPPPPPPPPPPPPPPPPPPPPPPPPPPPPPPPPPPPPPPPPP",
"PPPPPPPPPPPPPPPPPPPPPPPPPPPPPPPPPPPPPPPPPPPPPPPPPPPPPPPPPPPPPPPP",
"PPPPPPPPPPPPPPPPPPPPPPPPPPPPPPPPPPPPPPPPPPPPPPPPPPPPPPPPPPPPPPPP",
"PPPPPPPPPPPPPPPPPPPPAPPPPPSPPPPPPPPPPMmmPPPPPPPPPPPPPPPPPPPPPPPP",
"PPPPPPPPPPPPPPPPPPPKJnPPbZHHAnnPPPPPPGASZPPPPPPPPPPPPPPPPPPPPPPP",
"PPPPPPPPPPPPPPPPPPPJLGGPPHJHHAmbZPPPPABAAnPPPPPPPPPPPPPPPPPPPPPP",
"PPPPPPPPPPPPPPBPPPPJSSLPPvmmmxzbbjPPslnjmnPPPPPPPPPPPPPPPPPPPPPP",
"PPPPPPPPPPPPPGHNvPPAbmGMPPbdllcAsmPynlnhznPPPPPPPPPPPPPPPPPPPPPP",
"PPPPPPPPPPPPASHGFmPSlSZaqnvnbadZZnmjnnjmvdPPbnPPPPPPPPPPPPPPPPPP",
"PPPPPPPPPPPPAGSSAAMbSZsjVsajajMmMJZnmnsmxjnhNASAPPPPPPPPPPPPPPPP",
"PPPPPPPPPPPShhnbjZbysysseyeu*PhbJmAzjyjAZlnBnjnNZPPPPPPPPPPPPPPP",
"PPPPPPPPPPPPsnnPxcayillarrinAZsSlGlaahbavPPbasahbBPPPPPPPPPPPPPP",
"PPPPPPPPPPPPPzhfnnNbnAlkabHSGmbfZjhaPP&ysnPanMhbbPPPPPPPPPPPPPPP",
"PPPPPPPPPPPPZnmBGGGAZnbncKLGHbjnncer&PPnjlbmSDnSGxPPPPPPPPPPPPPP",
"PPPPPPPPAZPZAzZldHSHHSAAGLHGxnjax8%%hPbhrnAlSAnNZAsPPPPPPPPPPPPP",
"PPPPPPPNZFFSHmmldmmMAnjBHGZyepbNna,%PrhlryxFnbASSAPPPPPPPPPPPPPP",
"PPPPPPPPfnmBABjaPblahhhMjdarwgljhd3,PPdi=*jbsyaHNPPPPPPPPPPPPPPP",
"PPPPPPPPPPPSnmjzbjhhseylhjr*ygszhs<15PPassjPiehhMPPPPPPPPPPPPPPP",
"PPPPPPPPPPPPnnBZbaPajvmmjsareaahnae2,nAbbfzlPdhsbPPPPPPPPPPPPPPP",
"PPPPPPPPPPPPPnnnnnPPPnSAfsParephhdh,bZAAZxsrrhnhsjnPPPPPPPPPPPPP",
"PPPPPPPPPPPPnPshvnPPPPlxnl8sayrPtsZGABAnndy**riajsmmPBMPPPPPPPPP",
"PPPPPPnMPbncjhjbjxnZvnAbfjsdfpPydmAnAbZnlPweeejnjhjPGGGAPPPPPPPP",
"PPPPPnmZmnbkdyghaxalZmdsh:sdjaPlNBbhjGGndPPrajASmkPPBASGZPPPPPPP",
"PPPPMAFAncnblre>9Pahnmsah;jjayPjhdzbnZjyPPPrasbPnmnhsjBJPPPPPPPP",
"PPPPPhPPlknxsarP73PjnMssay>yrr,PPjbafzrPPasaarhnjmbvjzmPPPPPPPPP",
"PPPPPPPvdxaeeeslj5jhzjar*>5Pyae32nmjajrPaasalyPbxvvhdnPPPPPPPPPP",
"PPPPPPnaaaePesSZbxnhZae*P<5Psy>85-byyjPbfdaisPPasa5>2PPPPPPPPPPP",
"PPPPPnnaiyrrPdahdbZSHf**P,esf*X5,:srplPnjjuyaPPyp539PPPPPPPPPPPP",
"PPPPPPvserhaPr*=eaNGShrw;aghhy>92,>PdlzlndyrPP7<475lnmjePPPPPPPP",
"PPPPPPPPaeae>3PPamZhjnhus4sPea>545PPgnPajjrr,,>57ajasshlsPPPPPPP",
"PPPPPPPPPPeP25PPdjsybjadpuPPj::55PPPPPP,srs:;r,;wujyrrecPPPPPPPP",
"PPPPPPPPPe=PPq3PPPadAssdp,PPPO:5:XPnZZP5,:O;re%wwsjye*=PPPPPPPPP",
"PPPPPPPPjfndlc9PPPPfnjvnrPPPP<5*::PSSZq5>::***=ePassu2PPPPPPPPPP",
"PPPPPPPPjlnlbmnjmPPzdkva:Ppa>50,23mjlnv25r=&*%%=yPraPsdlPPPPPPPP",
"PPPPPPSjrfeea>=asPPjdnar:Pjuzbn755sdZd&Xap=*PeyePPrdjPhnnPPPPPPP",
"PPPPPAAjduepaayadjPeljra:Xnmnmjhjjsbja&PpnrrjPsrPPznsrPasNAAPPPP",
"PPPPPMaearyhyarppyrrdaah5:nBldlnlldhysP=ykd$PjsalnAmsyrranmmmPPP",
"PPPPms%$$#ar*$*$=>arbsP,7:>lzdr*w=PdPPy&sna$jnshbzMmdsyyaa&$&ePP",
"PPbmbsr&##*PPhp%O>05,PPe,:XO2*=&*apejPns==i&enyrasms&rjse%%$&PPP",
"Pbmjdr=&yrPP%vh5>,yr><5yr:;5>5,:=eahmaje$$&eyh=radj*%*sPP$PPPPPP",
"PPaPbPahbPPq=ssty*%ae<,dgr>C:2,<$$$jsyeeww=e=aar*&%#$PPPPPPPPPPP",
"PPPPPafbgre2pzxsatpde,enlhsVr,X&j=aa%#$rar%$#=ye%#$$,3rayPPPPPPP",
"PPPPjyhbtyyyaedhbeacs,wyjhjddXXalln=%e*tye*$##$nawaP:=rhawPPPPPP",
"PPPP=sjfaby*&$$teejjsX$ragjgiXyijj=*ipr$$7%$$eee=rwPP*wrrPPPPPPP",
"PPPPPhhcnpi&$=Piaia=%&:$&*&*%PP&arwar&&#=<P$$jvj$*rPPP&XPPPPPPPP",
"PPPPPPgnjearPPP=rte$$*:#::@#$PPP$%&####$=yPP$eah&*jSPPPPPPPPPPPP",
"PPPPPPjhr$PPPPPP$ee&e O>>o.,,<PPP@@332#@#ra*P=*&e*nhPPPPPPPPPPPP",
"PPPPPerdyePPPPPPea$&PP Oo>::>1,.:3,5<:.PP$y=&>epuysapPPPPPPPPPPP",
"PPPPPPeaa*PPPPPrg&+PPPPO5<1OO:O:3>,::PPPPP5*&55ry*redPPPPPPPPPPP",
"PPPPPPP&&PPPPP$=*@@PPPPP,<567:X:>>XPPPPPPP*&&5PP=$tyPPPPPPPPPPPP",
"PPPPPPPPPPPPPPP&&@PPPPPP>,3q55OOPPPPPPPPPPP&<8Pry=aPPPPPPPPPPPPP",
"PPPPPPPPPPPPPPPPPPPPPPPPoX>555:PPPPPPPPPPPPP-3$$=ej*PPPPPPPPPPPP",
"PPPPPPPPPPPPPPPPPPPPPPPP:X><6029PPPPPPPPPPPPPPX$$*jrPPPPPPPPPPPP",
"PPPPPPPPPPPPPPPPPPPPPPPPP:,,>V55PPPPPPPPPPPPPPPP%*&*rPPPPPPPPPPP",
"PPPPPPPPPPPPPPPPPPPPPPPPP>>2>897qPPPPPPPPPPPPPPPPP*rrPPPPPPPPPPP",
"PPPPPPPPPPPPPPPPPPPPPPPPP,2:2699qPPPPPPPPPPPPPPPPPPePPPPPPPPPPPP",
"PPPPPPPPPPPPPPPPPPPPPPPPPP7>,7q750PPPPPPPPPPPPPPPPPPPPPPPPPPPPPP",
"PPPPPPPPPPPPPPPPPPPPPPPPPP1:O0q05>PPPPPPPPPPPPPPPPPPPPPPPPPPPPPP",
"PPPPPPPPPPPPPPPPPPPPPPPPPP:;2q30,,PPPPPPPPPPPPPPPPPPPPPPPPPPPPPP",
"PPPPPPPPPPPPPPPPPPPPPPPPP;O,533051>PPPPPPPPPPPPPPPPPPPPPPPPPPPPP",
"PPPPPPPPPPPPPPPPPPPPPPPPPX:9733023XPPPPPPPPPPPPPPPPPPPPPPPPPPPPP",
"PPPPPPPPPPPPPPPPPPPPPPPPPX33<>39,,XPPPPPPPPPPPPPPPPPPPPPPPPPPPPP",
"PPPPPPPPPPPPPPPPPPPPPPPPXO3>,;372>:XPPPPPPPPPPPPPPPPPPPPPPPPPPPP",
"PPPPPPPPPPPPPPPPPPPPPPPPX:5>OX2,;>,:XPPPPPPPPPPPPPPPPPPPPPPPPPPP"
};
