/* XPM */
static char *_871154f99434d638f30715a132b77fdmA6PqhRtLqoPLhyp[] = {
/* columns rows colors chars-per-pixel */
"256 64 32 1 ",
"  c #1E2433",
". c #242A3C",
"X c #252B3F",
"o c #272D3F",
"O c #212A40",
"+ c #2D3649",
"@ c #3D475B",
"# c #515F72",
"$ c #4E7384",
"% c #497192",
"& c #637486",
"* c #5C8498",
"= c #778396",
"- c #79909F",
"; c #648FA4",
": c #6999AC",
"> c #7599A9",
", c #76A2AF",
"< c #8597A8",
"1 c #8F9EAF",
"2 c #88A5B3",
"3 c #82ABB8",
"4 c #98A9BA",
"5 c #87B4BF",
"6 c #9AB5C1",
"7 c #A9B4C2",
"8 c #A9BDC9",
"9 c #95C2CB",
"0 c #B5C5CF",
"q c #BFD5DC",
"w c #D3E4E8",
"e c #EBF2F6",
/* pixels */
"-*$$$$######$$%$$$$$%$$$%%#$%%#$#%$$-$$$-2*$$&$$$$$$$$$*$***$**=*********************;*;;;;;***;;;;::,,5,55,55,6555555555535333333,,,,:>:>:>--;;*;******%%%%%*#$$$$*-26qe765678we8=*%%%$%%%%%%%%%%%%%%%%%%%%%%%%%%%%%%%%%%%%%%%%%%%%%%#qweeeeweewq08643,:;**$*==",
">-*$$%$#$@$#&%$@$$&$*$$#$#$@$#$#$#$2766,02;*=**#*%*$*$*$*$*&;*;*-****%*$***%;***;***;;;:-;;;-;;*-;::9,,,9,5,6,5595954555955554535,,:,:>;>:>;>:;;:;;*;**%*%%%*#*#$$39:6w7q664660qwww%$%%#%%%#%%%#%%%#%%%#%%%#%%%#%%%#%%%#%#%@%#%@%%%@%#*weeeww0eww08455,;:**$-=:-",
"-;=$$$%%$$$$&$$$%$$&$$$$$$$%%$#%#-<<<<=<44;**&$6$&$&&*$*****;;->>:<$**#*********;;***;;;;;:;::::>::>,,,5,,6535355555555555555555533,1>:::::>>>;;;;*****%%*%#%$$$$*8846800q74680weee2%$%%%%%%%%%%%%%%%%%%%%%%%%%%%%%%%%%%%%%%%%%%%%%$%,weeeeww08qqq83,::;*;*;>,-<",
";*;**$$%$$$$*$&#$#$%$$$#$#$#$@$#$>2<5=-<50>***2>7$*$&$=***-*:><<2<,;;*;%*%****;***;*;;;;;*;*;:>>:>,,,,4,9,5,53555555959555955593533,3>,->;>->;:;:=;*;%***%*%$$*$*>815w08-0ee0qwweee*$%%%$%$%$%&%%%$%$%%%%%%%%%%%%%%%%%%%%%%%%@%#%%**qweeeeeweq84966>:::;;;:,2>:-",
"-****$$$%$%$%$%$%$%$$$$$%$$$$%#$$<<<-<<--4,$%*3<2*****;=-;->><47871<:;************;;;;;;**;>:,:::,,,,5555533355555555555555555553333,,:>:::::::-;;;;******%*$$$**2qww->64qeeqwqewee$$$$%%%$%%$$%%%%%%%%%%%%%%%%%%%%%%%%%%%%%%%%%%%&wweeww000wq86542:;::**;-,<-*-",
",**%;**%$%*$;%&%*$$$$$$#$#$@2$>>52497>=&;&***$$$8>;=*$;98-<15677088<,>>*;***;***;;;;-;;;:;::,,::,,,:5:5595959555959595559595959593333,,;>;:;>;:;:;;*;**%*%$$$%$$*>w6--29qqeee8q08qe&*$;#*%%%&%*%*%%%$%%#%%%#%%%#%%%#%%%@%%%@%%%#%*weeeeqw053qw62,>,;:;;%:*:,<>,,",
"<:*****&*=;;***;****&$#$$$#=2,4<1<=**&&----***$*,8$$$,322868800087887,>>-;*;*;**;;::;;:,,>,::>,,3,45,555555995599959995999599955553333,>::::>::;;;;;****%$%#$$$$*,4<:>38qwee770888wq8000<2q286<*$%%%%%%%%%%%%%%%%%%%%%%%%%%%%%%%%=eeewwwq56::4>,,:::,:;*::>:>><<",
"52;%*%****>;:-;;53:$$#$#*6=*267<,<=$$$===&:=-=;**5*%$$*;80880000q88776,,<-:;:;;*;;;;>;::>>,,::,,3495955595999599q99595959595959555523,3,,:>-:;:;:=;**%***%*%$$*$;,2>;,85qqee7685q9898qe622q00qw$&%%%$%%%%%%%%%%%%%%%%%%%%%%%%%%%;weeeweew30-,:,,,>323;:;:*;;;->,",
"452*%;*=;****;=;65>*$$#212<212<;,1>;=*=>=======*$$6$$$$,wq00778788780808772<,<>;*;;;,:;;,,,,,,,,5599599999999999999999999999999535533323,>>>::;;;;;;****%$$$$&***,**>66026ww>63&--228qee6qwwewq*%*%%%%%%%%%%%%%%%%%%%%%%%$%%%%%&qeeeeeee065,;;;,,395,:::;;;;;-:,",
"6781<:>;:**%****>64-=&;65>,>,2,<512:2*-=-*&$===$=&31;&87w046w7017707678788866,,:-*;:,,>,,,3,555565956599999995q999q9q9q5999595323,33323,,,,;>;;=-*;*;%*$*$*$*$*$;:,*6**$-0q0e8=;>>,28we0eeeqee**;%*%*%%%%%%#%%%#%%%#%%%#%%%#%%**weeweeeww39:;*:,3203,>,:>*;*,>5<",
"48082,-;****%****,44668002>-,<66=<442=*=*&$&***&&*8*6q0qq444440qq8876667088888642,;;,,,,4,,35555995955990999099q999qqqqq99953333333333333,,::-;;-5843*>6**,;&*$*$$$$%$$$;460qeweq148qwwqweewee&*;&*%%%%%%%%%%%%%%%%%%%%%%%%$*;:<0wwwwwwww3:;*;:66985,:><***;2546",
"84888;;**%******:;588478525=->7056q27$&-4*&$&&$$$$=800q741411141470q87647087878874>;,,,,,:545555969599q9q9q9q9q9q9w9w9q59553335,3:3:3,3,,:,;:;:*wq800<wq099;>;*#$#*%*&=;:478wqwqwqeq0qewwwe0qwe41<=%*%%%%%%%$%%%%%%%%%%%%%%*:;>>458480qq82:;::35654,,;>-=&;-6685",
"06780,-**;;*;,26:2888624,<<;*->44-q02$*>--<-$$#$%%777744141211144888884787807778796,,,,59,555595999q99qq9qqqqwqqqqwq9999555333,,,,,3,,,,,::;;;;=weweq3ew9,;*->**$$*;*;;:,6066674870wq800002680we208=*%%%%%%%%%%%%%%%%%%%%$&;;-,,,,,>26804,:::,3553>>::<3,;:22564",
"0769q=;*:53;388;3369242->>,--=*>,=wq<#&*<-242&$@#66<1<1<41414141448888q777776466769,3,35935545555599q9q9q9q9wqwqwqq9q999955353334,3,3,,,,::=;:;*qewww0ww7,;**#*;;*;;-;::,2,656455244786674660qeww7e0*%*%&%%%*%%#%%%#%%%#%%;*>>2<222,6669923;35322:;=,,46622>3245",
"0q676;*;;;>>,22245148852<,,<>-*$*;4q4&=2218441=:60741111441441111478787786770-22244,3,65555554553359999qqqqqwwwq959q99999955533555,,,,,;;->q043we0wewqwq0<20<3-;;;=:-::>>,,246442446864354680wqwweeq0**%%%%%%%%%%%%%%%%%%*:>>,,333,,4228935,562,;*;;,246652<2,26",
"006-:=:;;*;;2671668416642>,>22>::>007>=-=;-->44607014121414<1<1<417777q70000078<22,,365555,56,:,3,9599q9q9www9q55399q99554953353,:,,2,>9qqweq0ewq949qqq4w0,1,,,-:;;-,:>:,>225462435556635670768w00e0w8***%*%*%*%*%%%%%%%**:-,,,,2,3,3392,49:,42:;;:,2>5465452264",
"qq,:::;;***,66858080132142,,89,;6w8q03-;--*;-<6272<<<<1,1<<<<<<qw416468888714468225,5,945455,5,55555999q9qwwwwqq9,,5q95,:,5533,,,:;:225qq0qwwwqe0044444522>--:-;;;;->>>->,,24,34336666744676688878qwwqq*********%*%%%%%%*::39,,,,,,,,53;::::,5:**;;;*>,244335566",
"88,;>;;*;*;208q0q00787447482044<e6>*-:*;544>=$=1771-<<1<1>1-<-q78742417704112<4703,555,,5,,,,,,:335599q9qwwqw0065559005:::::5:::,;:,>,,2qqwqqqw9q0555292,:-;:;-;-;;;>>>;:>21624136668682668266665567eww;;**%;*;**&*%*%%%->,4822,5,,>>25;:;**:;*%:;*%**;,42226666",
"804,>-;;;;;60q80qqq064444470722q82**;;-246662;=-<1<><22<<,<><10078<42,4776>><,160766,,3,,:,,,,,,3355999qwwq9909955690q9:;;;,:::,,,,5541<993440994905342<,-;;;-;;;*;;>:>>:,22222,3662446426,2,6,224340w<;;;;;-:;;-*%*%%%*<3238456096359,*;*%*::%%;%%%%**;,,,44666",
"6682:;:;;*:30056q0w084722<7804268;;*4q5144424<561<212124060416wq76817<2276114<210463,,,:::,,,,4,55959qqww0q46,95,,,5q9q95*;;;;:::,,354w6,:,,52555,02342>-;>-::;;;*;:>>>:,,624262626264713>2>2<3:5254652,,:<>224,,;*%*%;-,,>2595>,32632;%*%*%*%%%%%*%;%*;:-,15484",
"6882>;;;;;;,6039qqqq8441--<48666,0q4qw7121441,24746686772<448q08422879<2267424,4152::;::,,,,,9,333599qqq009933,9,::6909999:;=144,<,36wewq,-332,252,44,---:-;*:*;*;*-:>>:,222,222,242242,:>>>,226343664542,,2222,>::;;;;,,336952>;,,3;***%%%%%%%%%**;%%%;;><32564",
"688<>-;;>;;-<,560qq0q<-*---<0685wwe0ew72105<-=;>52142<614144000771<<74,,;>213264844<,2;;,,,:,,3,3599q906940:3559,:,,5,4509,qewewwq32qww0eq,,3,,,,,,<,,-;;**$*#**-;;;:>>>,,,:,,,,2,326,2:6,>;>><:236355598695852,,:,25:>:,,>,>;;;;%$%*%:*%%%@%%%@%*;%$#%%;;,,5254",
"6644>;;>;;*;>>14808q70==;;>-268<eqwqwwqqqw41;**=-;<227444411126787<27722>;&1,234444229,:>,,::,,>5559969655,:356,5,,56,4:405qeewwqq48qq0494->2,,;:,,,<,;*$$$$***;::>:->>><<,<2,,<,,222,,2,<>::<>;>,,,,468006660522336343>;:>:;**%%%%*%%**%%%%%%%%%%*%%%%%*;:,3546",
"52,,,*,:**;*;,6686q0q86***==-;,&wwewe7e074442;-***,474725<<>-;-<4<<<41662;,:>;,>5,322224::544>;;535566955,,;,,966:,96,,,090000wqq900q9545,,:2>>:::-,,:*%$$*$*$;;:::--:>:,>,,,>,>2:,,,<2>,>>:2>>:,,2>338908q90532,:,,,>32:*;;;;***%*%$%*%%%%%%%%%%%*%%%&%**;-2164",
",43>*;;;$****>390qqq006=&&**,3=w74467744232422-:***4122222<>----<42><24464,2<:::>2,2,2,646634945,36,995953:**,,6:qq65566,4644700880878,232,>::;;;;;;:;*%%%****;;--;->-:>,>,,,>>-><,,,>,,,>>,,,-,:,,3,>5689653694-::::,553>**;*;:**%%%%%%%%%%%%%%%%%%%%%%%**;>232",
">,5:;:*%$%*%**>,8qq788796$*6e0ew0442664442224<:&>,,15666711<,<,-<<<-,<44722>>---<,,24362029,23,<5,3349999555656555,,4665:;-,,404wwwqq74<533<>;;**%*%;*******;:-;-*;;:-,,,->:>>>:>>:::<:;>::;,2665653,>,362>;>>,<,,,,,,,,5,:*:*;;:**%$;*%%%%#*%*%;%***%*%*%;;::,-",
";:,1*>*%%$%%%$%*;407000084-qwwwq0644644421214,-=;*;,4567474122,<<1<<<<<16222<>-<24146666400049216669406694909964:;::3644436049590qqq8045,433><;***$****;;-,;**>:=;;;;:,>;;;**;,:-<:;-,,;;-:>,,,,3,,<<,,453;;->><32234,,2>:;;::;::**:%$%%%%%%$***;:***********=*;",
";=--;*;:;%$#%@$*;2668906642qq7075654847412224,<-;;;;->24544<112<2<411-2<61112<1<444474070q02440>360989060409q55:*;;*,4080607047000q0800454042>:**$&**;;::;>**$*:2;;;:;,;:;:*::>>:&:::&,,,:>;::,,2355645242<=-=:-;12-422-,,5,,=;*;*:;*$*%*%**;;;;;;:;;*;*;%**;*;*",
">><>>>>>,:*$*25;;,877662696<,24422464444412222<>--;---,2,<>>,11112212116<31<1---<2267742440q708066600400q4605,>;*;,>2558444444707000708888864,>;**#**;;;**;***%$:>:::,>;;*::***;>;:-:;;:::::,,:63435688776<-=====--<21->12232,-;*;;*****;*;::>,>:::::;;;*;;;;-:>",
"2<2<3121,-*&->664651644,868>2<2-2<1<542<2,,>,<>::-:;:;;->:<-<>112<117442717#2#--1<12226<116788q000709000wqq0q43::;-;3<,1421<41440406878700044,<;,**#;*;***;:*$$@$;,:2:,,-::#%%%%;;;:>:,;:;;:,:>:215456070071<=<*;=--<;1<<-14842<>*;&=*;;,>,:323<,>,:,:>;:;>;>>,<",
"22<224422,::;-<444,22233223>,,>>-<<<222<<<><<>>>::-:-;->---><1<1<<<14411142<<<<2<<1<<1--=1487870004460wqw00www095;;;-<<<21<<<11744660040000062--<,,:;;*;;**$$%%$;3,,,;,*%$#@+#+$%&&:>>>,,,>:-><12454477008774<-====1<<--=-<607664<-:->>13435642332,<<,><<<><>,,1",
"1<4242546<<>>-<<224464425,,:,-:>:>,<2<2-,<,><:>-:::,2141422<124<<-<<<1111&246<<#=#1&<=2&<1470084<14460eweweqq0q44><=<-<<1<4<4141447605777006711-,2457242326,2,**2,:32:;>*$%#$#%#%%;%,:4>2,2<1<4154711<417471411=&#==-=<===118684<-<>2<44647142422<2<1<2<2>2<1<2<",
"114121211->*==&><1166121,6,2,,,,:>>,>>>>>,,,<>,>:>,,,145442421111<<41<<<<<174=$&#&&&&=&&&<17477440q48ewwwqq87744<<<<<111444744474445741414471<--<<<4776446868666:,,,>****;;**$&$&&&::2111667744411141141444411<&###$&&&&&&=<7111--<12455798441<-<1<><,2221122111",
"41411>1=1**%&&*&-;1<><<1<166622>:;>;>>,>,>2,322<,>,<22447674767774417&&#&<4&&@#@#@##=&&&==<=<<1<41qqwq08q88771<&1<<<11417474070777447471741=<=-*=<<11<1141668762,*:32%*&=*&;2<==--,<216176770771777784741#<&1<&@#@##&&&&&&==&&<<<-<144740007711-111<2<1=1<112141",
"<<<<=<<<<-&##&&&&<<<<<1&-3664641;;-:><>22224442222<244<17777777711<&<##&&&#@@@@@###$&&$&&===<<<140q00877807841<<<<<=&414474477000770000874&#$$&&&&&<<1<--1668861-;&:><%&><&>2<><<<>7677761770077077771=<######@@@@@##$&&&===<<<<11<1477448774741<-=<-<<<11111<<-",
"<121<<41<&&@##&&&&1-1&&&-<47664<<-<-<<44745454521<1<4=--470741<&&@###@#@#@#@@+@@@@####&&=&<<1<4177077441778441<=<&<=<164714=770707777<=&&##@#@####<<<&=&-&26q8866--<11<211711<4244<<1<71-&<4008171&##@#@@@#@#@@+@@#@##&#&&=<<<714774411<4171477<<=<==&==<==&=&=*",
"<<<,1<==&&#######%&&&&&&&<14<41>->12464446211<<<<-====&&=74<<=&##@@@@#@@@@@@+++++@@@@##&&===44477007477771114<&&&<4<&1&141===400074<*###@@@#@@@####&&&&&&=16446:--=,26637741,,<<<1=&&&<&&&&<876<1-##@@@@@@@@@@@@+@@####&&&==<1447408477771&-44<&<1=&&&$&$&$&&&&=",
"<=-=<&&#&##@#@#@##&#<&&&&<<&<<1&->22642<44412>--<==&=&&&==<<<&#@#@@@@@@@@++ooooo@+@+@@##==<=7177178787411#&#&@#@&<1<&&&&===#==77711&&#@@@@@@#@@+@@##&&&&&&&<<-1<>&11446408044<<=<==&&#&&&&&&<<4&&####@@@#@@+@ooo@+@@#@##&=<=<1747<7774<&&###&#&&=&#@#@##&#&#*&&&",
"&=&&&&##@@@@@@@@+##&&&&&&<&<<<<<<<<144<=====<<=&$#######&&==##@@@#@@@@++XOO...o.+++@@##&&11<414<=1071&##@##@@@@##&&<<&&#&&&#&==11<=##@@@@@@@++oo+++##&#&&==&-<<<1<<147477077641<&###@#####&&&&<&##+@@@@@@@++o..oO++@@###&<77&<&7==181-#@@#@@@#@@@@@@@@@@@####&$&",
"&#&$&##@@+@+@+@@##&#&#&&&&<1114174414<<&&#&#&#&@%@@+@@@@#@#@@@@@@@@@@++o+.ooo.o...+@@@##&<7&&&<&&&41=@#@@@#O@+#@&#&@#+####&#&&=&<=#@@+@+@++o+oooX #+##&&&&1<1<41764411111404474&#@@+@+#@#@##&#&##@@+@@@+@++oooOoOOOO++###&11=#1&=#==1##@@@@@@@@@@@@@@@#@#@#@##&#",
"@#####@++++@+++@##&&##&&&==<44474004471<&#@##@+@+++++++@@@@@@@@@@@++++o+ooXXoooXOo++#@@##<<&&&#&#&&=#@@@@@@+o.o+#@@@@@@@@#@####&&#@@@@@@++++oo.oo++@###&&&==14474707177471-178&#@@+++++++@@@@@@@@@@@@@+++++o.Ooo+o..oo+@&&&&###&#&&=#@@@@@@@@@@++@@@+@@@@#@####&",
"#@@@@@@++o++@+@+###@&##&====74717706811=&@@+@++o+++o+++o@+++@+@+@++O+o+Ooooo++++oOoo@+@#&&&##@#@###@@@@+@++Xo ..+O++@+++@+@+@@@@#@@+@+@++o+++ooo++@+#@##==<&11741787771=1###&#@@@+++++++++++@+@+@+@+@++O++ooOO+o+o. o o@&&###@@@#@#@@+@+@++++++.+OOO++@@#@@+@@@@",
"@@@@@@+++++++@+@+#@@###&<41<114==704-#@@@@@++++oo+++o+oo+++++@++++ooo+++o.o+++oo....O@@@##@@+++@@@@@@@++++O.....Xoo++++++++++@+@@@+@++o+o+o+ooo+@@+@@###&144<144=<701=#@@#@@@@@@@@+oo+oo+++++++@+@++oo+Oo+oooo++oo    .o@@@@@++++@+@+@++o+oo++oo...Oo++@@+o++++@",
"@+@+@++O+o++++@@#+#@#@&#&11&&&=&&&1<&@#@@+@@@++o+o+o+ooo.O+++O+O+ooo+o+o+ooo+o+ . ..oO@+@+@++o+o++++@++o+X+X..OoXooo+X+.+o+o++@+@+@++oo.oo+ooo+o+.+o@+##&&7=&&&<<#<1<##@@@@@@@@+@++o+o+o+o+o+++++.+Oo.oO+ooooo+++o     o.o++@.+++o+o+++o+o+o+ooo......++@++o+o+o",
"+@@@++++ooo++@@@@@@@+@@##<<&#&$&#==&@@@@@@++ooo+ooooooo.O...o.XO.Ooo++++ooo++. .     ....oo+o+o+ooooXo..o+o.o+++o+o.Xoo+ooo+ooo+++oooooooo++ooooo. .++@#&&1&&&&&##&<#@@@@@@+O+o+++o+O.oXoooo.oooOOO..oo+++o.o++++.   .. .ooooo+ooo.oo..ooo.Ooo++ooooo..+++o+++o+",
"@@#+@++Ooo++@@@@@++o@+@@#&#@#@#@#@#@@@@+@+oo. .ooo+ooooX.O..o.+O.ooo+oo ..+oX X .   X .o..o+ooooo...+ooo+ooo+++++++o+Xoo+ooooooo+o.o.ooo+oo oo+.. ..OO+@&&&##@#+#@#@@+@+@++oOO.ooo+oO.o.oo.o.oo.oOO.+ooo+o.o+++oo . +   o o.oO+ooo.....o+o++oo+o+o+ooooo+o++@+@+",
"@#@@@++O+++@+++++oooO+++@@+@++++@@+@@@++o+o..o..oooo+oooOO..oooo.oo.ooo..XooX..........O.OOOoooo........oo.o++++++X+o.oXoooo.....o.oo......oooo  o. o.O@@#@@@++++@+++@++++ooo.....ooOo..........oo....o.oooo+o .  .++. ...ooXXooo..........Oo++++++++++++@@@@@+@",
"#@#@@+++++@++o+o+oo OO++++@++o@+++++@o+o+ooo.Oo.+o++@.+++O+.ooo..X. .X+OOOO.O.. . . ..O...OOooo.........o oo++@++o+X+o+oXoo.X.o.. oo...o..oo+ .   O   ..XX@+@O+++o+o+o+o+oo.o.oooo+o+oo...o.ooo.oo. ..o.oo+o+o. .o@@@ ..o.o +o+oo.oo..o....X++++@+@+@+@+%@#@#@@@",
"###@@@++++ooo...X   oo .ooooo+o+ooooooXoo+oXo+++++@@++++++ooooooXXoo..o.XX.XXXXX.....XXXXXXXXXoX..OOXoXXooo+++++oooooo++oooX..X...o.oooo.OO.o. . ..  ...OOO+O+.+ooooooooXoXXXoooo++@+oo.ooooooo....oooooooooo..o+++@..XXX.OXXoooXXooooooooooo++++++@++++@@@@@#@#",
"#@@+@++++ooo+.  O   o.X.....XXoXo.XXoooo+ooo+++o+o++@++++++O+ooOo.. .oo.X.X.XOX...XXXOXOXXXXXXoXo.oOXXXOXXXO+oooXXoooooo+o.....o..oo+ooooOO..   o . ......Oooo+...oOoOO.XXoXXXoo+o+o+oo.Oo.o+oo..ooo+Ooooooooo+o. . ..XXX..XXooooooooOXOXXXX+ooo+o++@+++++@+@@%@",
"@@@@+o.oo. ..  .  .XX...OOXXXXXXXXXXXXXo..Xoo+++++o+++++o+ooO.....XoooooXXXXXXXX.XXXXXXXXXXXXXXXXXooXXXXXOXXooXXXXoXooooooXXooooOOooo+ooOO X.  ... .OO...XXXoooo...OooOOXXXXXXoooooooX..OOO.oo+oooo+OO.+++oo+++.   .OXXXoXOXXXXoXooXXXXXXXOoXoOo..ooo+oo+++@@@@@",
"@+@+o.. o.... .   .O..XXoO..X.oX..XO..XO..oo+o+ooX+ooOoOoo+oo.. ..XooX+XXXXXXXXOO.XXXXXXXXXXXXXXXoooXXXXX.XXX.XXXXoooo+o+X+X+o+o+++o+oooO   . . . ... ..XXX.o.o.XX+OooooXXXXXX+XoX+ooXXo+OO..o+o+o+o+.@+@o@++.... ..OOXOoXXXXOXX..XOXOXOXO..XX..O.o.oooo++++@+@@",
"++oo.. . ... . .XXo.XXXXXXXXXXXXOXXXXXXXXXXoooXXoo.ooooo.oOOoOooXXooXXXXXXXXXXOXXXXXXXXXXXXXXXXXXXXXXXXXXXXOXXXXXXXXoooooo++ooo+ooooo... ... . . oooO+.oXXXXXXXXXXXXoOOoXXXXXXXXXXXXXoo+ooo. Xoooo++++@++++o......XXXXXXXXXXXXXXOXXXXXXXXXXXXXXXOo.o.o.oooo+++++",
"@+oo.   o  .....XXX.+XXXXXXXXXXXXXXXXXXXXX..XXXXXo+O+.oOoOoO.OO.XXXOXXXXXXXXXXO.XXXXXXXXXXXXXXXXXXXXXXXXXXo.XXXXXXXXXXXXoo+X+o+o+oo...o X..  X..oO.oOO.oXXXXXXXXXXXX.OooXXXXXXXXXXXXXX..+ooX.ooOoo++@++++ooo....XX.XXXXXXXXXXXoXXXXXXXXXXXXXXXoXoO.....XoO+O@+++",
"++O+.... .OO.O..XXXXXXXXXXXXXXXXXXXXXXXXXXOXXXXXXO+O.OOo.O.OoOOoXXXXXXXXXXXXXXXXXXXXXXXXXXXXXXXXXXXXXXXXXXXXXXXXXXXXXXXXoXoXoooooo.........oOOX..OOo.o.OXXXXXXXXXXoXooo.XXXXXXXXXXXXXXOoOoooooOoo+++++++ooOo....XXXXXXXXXXXXXXXXXXXXXXXXXXXXXXXooOOo...Xoooo++++",
"+.OOo.. . OOOX..XXXXXXXXXXXXXXXXXXXXXXXXXXXXXXXX O.O.O+o.ooOo.ooXXXXXXXXXXXXXXXXXXXXXXXXXXXXXXXXXXXXXXXXXXXXXXXXXXXXXXXXo...XoXo....o..o.OoO.o..oO+OOooOXXXXXXXXXXoooOOOXXXXXXXXXXXXXXXo..+o+o+.+o+ooo+.ooOOO.+.XXXXXXXXXXXXXXXXXXXXXXXXXXXXXXXX.Ooo....oooo+o+O",
"ooO+oX....+.oo..XXXXXXXXXXXXXXXXXXXXXXXXXXXXXXXXXXXXXXXXOOoXXXXXXXXXXXXXXXXXXXXXXXXXXXXXXXXXXXXXXXXXXXXXXXXXXXXXXXXXXXXXoooOX.XXOo..OOOOo....XXXooXXXXXXXXXXXXXXXXXXXXXXXXXXXXXXXXXXXXXXXoooooo+oooXOO.X..OOOoooXXXXXXXXXXXXXXXXXXXXXXXXXXXXXXXXXXO.XXXoooOOooo+",
"oOoXXXXX..OOo.OOXXXXXXXXXXXXXXXXXXXXXXXXXXXXXXXXXXXXXXXXoOoXXOXXXXXXXXXXXXXXXXXXXXXXXXXXXXXXXXXXXXXXXXXXXXXXXXXXXXXXXXXX+ooOX.XXoOOO .OO+.X.+XXXooXXXXXXXXXXXXXXXXXXXXXXXXXXXXXXXXXXXXXXXXXXXXo.+XXX+OO.OO.oooXoXXXXXXXXXXXXXXXXXXXXXXXXXXXXXXXXXXX.+Xoo+O.Ooo+o",
"ooOoXXXX.OoO.oOoXXXXXXXXXXXXXXXXXXXXXXXXXXXXXXXXXXXXXXXXooXXXXXXXXXXXXXXXXXXXXXXXXXXXXXXXXXXXXXXXXXXXXXXXXXXXXXXXXXXXXXXXXOOXXXXooOoXXXXooX XXXXXXXXXXXXXXXXXXXXXXXXXXXXXXXXXXXXXXXXXXXXXXXXXXXXoXXXooXXOoooXXXXXXXXXXXXXXXXXXXXXXXXXXXXXXXXXXXXXXXXXXooooO...oo",
".X..X.oXo..OOoooXXXXXXXXXXXXXXXXXXXXXXXXXXXXXXXXXXXXXXXXooXXXXXXXXXXXXXXXXXXXXXXXXXXXXXXXXXXXXXXXXXXXXXXXXXXXXXXXXXXXXXXXXOOO.XXoOooXXXXXo+OXXXXXXXXXXXXXXXXXXXXXXXXXXXXXXXXXXXXXXXXXXXXXXXXXXXXXXooooXXooooXXXXXXXXXXXXXXXXXXXXXXXXXXXXXXXXXXXXXXXXXXoOoooOOo..",
"XXXXXXXXXXXXOoooXXXXXXXXXXXXXXXXXXXXXXXXXXXXXXXXXXXXXXXXXXXXXXXXXXXXXXXXXXXXXXXXXXXXXXXXXXXXXXXXXXXXXXXXXXXXXXXXXXXXXXXXXXXXXXXX.OXXXXXXXXXXXXXXXXXXXXXXXXXXXXXXXXXXXXXXXXXXXXXXXXXXXXXXXXXXXXXXXXXXXXXXXXXXXXXXXXXXXXXXXXXXXXXXXXXXXXXXXXXXXXXXXXXX..oOoo.oOooo",
"+XXXXXXXXXXoOoooXXXXXXXXXXXXXXXXXXXXXXXXXXXXXXXXXXXXXXXXXXXXXXXXXXXXXXXXXXXXXXXXXXXXXXXXXXXXXXXXXXXXXXXXXXXXXXXXXXXXXXXXXXXXXXXXOOXoXXXXXXXXXXXXXXXoXXXXXXXXXXXXXXXXXXXXXXXXXXXXXXXXXXXXXXXXXXXXXXXXXXXXXXXXXXXXXXXXXXXXXXXXXXXXXXXXXXXXXXXXXXXXXXXXoo.O.oOoOooo",
"XXXXXXXXXXoooOo.XXXXXXXXXXXXXXXXXXXXXXXXXXXXXXXXXXXXXXXXXXXXXXXXXXXXXXXXXXXXXXXXXXXXXXXXXXXXXXXXXXXXXXXXXXXXXXXXXXXXXXXXXXXXXXoooooooooooooooooo.oooooooooooooooooooooooooooooooooooooooooooooooooooooooooooooooooooooooooooooooooooooooooooooooooooooooOOoooooo",
"O.+o+o+o+o+o+O+O+o+o+o+o+o+o+o+o+o+o+o+o+o+o+o+o+o+o+o+o+o+o+o+oXXXXXXXXXXXXXXXXXXXXXXXXXXXXXXXXXXXXXXXXXXXXXXXXXXXXXXXXXXXXXXXOooo.....X.......OX..............XX..............XX................XX...........X......................XX..........XX...ooO.....o"
};
