/* XPM */
static char *_1955_04265b3fde96bbd406f2405779bda30c273180542e0985fad924586b94f3d1de[] = {
/* columns rows colors chars-per-pixel */
"16 16 7 1 ",
"  c #725D30",
". c #8A7342",
"X c #A98E54",
"o c #C5AD7A",
"O c #D9AA7D",
"+ c #DEC3A3",
"@ c None",
/* pixels */
"@@@@@@@@@@@@@@@@",
"@@@@@@@+.@@@@@@@",
"@@@@@@+oX.@@@@@@",
"@@@@@@+oXX@@@@@@",
"@@@@@o+oXXX@@@@@",
"@@@@@o+oXX.@@@@@",
"@@@@@ X.   @@@@@",
"@@@@@.OX.. @@@@@",
"@@@@@.OX.. @@@@@",
"@@@@@.OX.. @@@@@",
"@@@@@.OX.. @@@@@",
"@@@@@.OX.. @@@@@",
"@@@@@.OX.. @@@@@",
"@@@@@ X.   @@@@@",
"@@@@@.OX.. @@@@@",
"@@@@@@@@@@@@@@@@"
};
