/* XPM */
static char *_2193_0e908189611c7ea3fd1931a0a4f1cc3b65cdedc43e75db4a4f13b764fd851825[] = {
/* columns rows colors chars-per-pixel */
"16 16 7 1 ",
"  c #72591F",
". c #8A6F30",
"X c #A9893F",
"o c #C5A967",
"O c #D9A066",
"+ c #DEBE94",
"@ c None",
/* pixels */
"@@@@@@@@@@@@@@@@",
"@@@@@@@@@@@@@@@@",
"@@@@@@@X.@@@@@@@",
"@@@@@@X+X.@@@@@@",
"@@@@@X+oXX.@@@@@",
"@@@@@X+oXX.@@@@@",
"@@@@@ X.   @@@@@",
"@@@@@.OX.. @@@@@",
"@@@@@.OX.. @@@@@",
"@@@@@.OX.. @@@@@",
"@@@@@.OX.. @@@@@",
"@@@@@.OX.. @@@@@",
"@@@@@.OX.. @@@@@",
"@@@@@ X.   @@@@@",
"@@@@@.OX.. @@@@@",
"@@@@@@@@@@@@@@@@"
};
