/* XPM */
static char *_894_21ef53c2e870a3bd47b0b09ade24b13fccb5234bea810603bd36a136e7a76648[] = {
/* columns rows colors chars-per-pixel */
"64 64 36 1 ",
"  c #08080D",
". c #1A0F17",
"X c #22131D",
"o c #261520",
"O c #291723",
"+ c #2D1A26",
"@ c #311C2A",
"# c #331E2C",
"$ c #351F2E",
"% c #37202F",
"& c #382131",
"* c #3C2333",
"= c #3C2334",
"- c #3C2335",
"; c #3D2435",
": c #3E2436",
"> c #412B33",
", c #43273A",
"< c #442B39",
"1 c #462C3A",
"2 c #472D3A",
"3 c #45283C",
"4 c #492F3C",
"5 c #4A323A",
"6 c #4F343F",
"7 c #503242",
"8 c #503440",
"9 c #523443",
"0 c #523642",
"q c #533642",
"w c #553843",
"e c #583B46",
"r c #593B46",
"t c #60414B",
"y c #654751",
"u c None",
/* pixels */
"uuuuuuuuuuuuuuuuuuuuuuuuuuuuuuuuuuuuuuuuuuuuuuuuuuuuuuuuuuuuuuuu",
"uuuuuuuuuuuuuuuuuuuuuuuuuuuuuuuuuuuuuuuuuuuuuuuuuuuuuuuuuuuuuuuu",
"uuuuuuuuuuuuuuuuuuuuuuuuutuuuuuuuuuuuuuuuuuuuuuuuuuuuuuuuuuuuuuu",
"uuuuuuuuuuuuuuuuuuuuuuuuuutuuuuuuuuuutuuuuuuuuuuuuuuuuuuuuuuuuuu",
"uuuuuuuuuuuuuuuuuuuuuuuuuuutuuuuuuuutuuuuuuuuuuuuuuuuuuuuuuuuuuu",
"uuuuuuuuuuuuuuuuuuuuuuuuutt3tuuuuuut#uuuuuuuuuuuuuuuuuuuuuuuuuuu",
"uuuuuuuuuuuuuuuuuuuuuuuuuuu#3tuuuut#uuuuuuuuuuuuuuuuuuuuuuuuuuuu",
"uuuuuuuuuuuuuuuuuuuuuuuuuuuu#3tuut#uuuuuuuuuuuuuuuuuuuuuuuuuuuuu",
"uuuuuuuuuuuuuuuuuuuuuuuuuuuuu#3tt3#uuuuuuuuuuuuuuuuuuuuuuuuuuuuu",
"uuuuuuuuuuuuuuuuuuuuuuuuuuuuuu#33#uuuu3uuuuuuuuuuuuuuuuuuuuuuuuu",
"uuuuuuuuuuuuuuuuuuuuuuuuuuuuuuu=3#uuuu3uuuuuuuuuuuuuuuuuuuuuuuuu",
"uuuuuuuuuuuuuutuuuuuuuuuuu3uuuu=3#uuuu3uuuuuuuuuuuuuuuuuuuuuuuuu",
"uuuuuuuuuuuuuuutuuuuuuuuuu3tuuu=9#uuuu3uuuuuuuuuuuuuuuuuuuuuuuuu",
"uuuuuuuuuuuu33uutuuuuuuuuuu3tuu=9#uuuu3uuuuuuuuuuuuuuuuuuuuuuuuu",
"uuuuuuuuuuuuuu3utuuuuuuuuuuu3tu=9#uuuu3uuuuuuuuuuuuuuuuuuuuuuuuu",
"uuuuuuuuuuuuuuu3wtuuuuuuuuuuu3t=9#uuuu3uuuuttttttuuuuuuuuuuuuuuu",
"uuuuuuuuuuuuuuuu33wtuuuuuuuuuu399#uuu3wttttuuuuuutuuuuuuuuuuuuuu",
"uuuuuuuuuuuuuuuuuu3wtttttttuuuu39#uuu3tXuuuuuuuuuuuuuuuuuuuuuuuu",
"uuuuuuuuuuuuuuuuuuu3wwwwwwttuuu33#uu3#Xuuuuuuuuuuuuuuuuuuuuuuuuu",
"uuuuuuuuuuuuuuuuuuuu333333wttuu33#uu3#Xuuuuuuuuuuuuuuuuuuuuuuuuu",
"uuuuuuuuuuuuuuuuuuuuuuuuuu3wttu33#u3#Xuuuuuuuuuuuuuuuuuuuuuuuuuu",
"uuuuuuuuuuuuuuuuuuuuuuuuuuu3wt333#3##Xuuuuuuuuuuuuuuuuuuuuuuuuuu",
"uuuuuuuuuuuuuuuuuuuuuuuuuuuu3wt333##Xuuuuuuuuuuuuuuuuuuuuuuuuuuu",
"uuuuuuuuuuuuuuuuuuuuuuuuuuuuu3ttw3#Xuuuuuuuuuuuuuuuuuuuuuuuuuuuu",
"uuuuuuuuuuuuuuuuuuuuuuuuuuuuuu3tw3Xuuuuuuuuuuuuuuuuuuuuuuuuuuuuu",
"uuuuuuuuuuuuuuuuuuuuuuuuuuuuuu#tt3XuuuuuuuuuuuutuuuXuuuuuuuuuuuu",
"uuuuuuuuuuuuuuuuuuuuuuuuuuuuuuX3t3XuuuuuuuuuuutuuXXuuuuuuuuuuuuu",
"uuuuuuuuuuuuuwwwwwuuuuuuuuuXXXX3t3XuuuutttttttuXXuuuuuuuuuuuuuuu",
"uuuuuuuuuuuuuuuuuwtuuuuuuXXXXXX#tw3Xutt33XXXXXXuuuuuuuuuuuuuuuuu",
"uuuuuuuuuuuuuuuuuuwttuuuuuuuuuuXtw3Xt33XXuuuuuuuuuuuuuuuuuuuuuuu",
"uuuuuuuuuuuuuuuuuut#3tuuuuuuuuuotw3X33Xuuuuuuuuuuuuuuuuuuuuuuuuu",
"uuuuuuuuuuuuuuuutt#u#3ttuuuuuuuotw33XXuuuuuuuuuuuuuuuuuuuuuuuuuu",
"uuuuuuuuuuuuuu333uuuu#3rttuuuuuOww33Xuuuuuuuuuuuuuuuuuuuuuuuuuuu",
"uuuuuuuuuuuuuuuuuuuuuuX33rttuuo3twX3Xuuuuuuuuuuuuuuuuuuuuuuuuuuu",
"uuuuuuuuuuuuuuuuuuuuuuuXX3rroo#twXyXXuuuuuuuuuuuuuuuuuuuuuuuuuuu",
"uuuuuuuuuuuuuuuuuuuuuuuuuX3rt33wXyXyXuuuuuuuuuuuuuuuuuuuuuuuuuuu",
"uuuuuuuuuuuuuuuuuuuuuuuuuuX3r3wXyX$XXX####uuuuuuuuuuuuuuuuuuuuuu",
"uuuuuuuuuuuuuuuuuuuuuuuuuuuX33XyX$>5 XXXXXX#uuuuuuuuuuuuuuuuuuuu",
"uuuuuuuuuuuuuuuuuuuuuuuuuuuu#3XyX$55 uuuXuuX#uuuuuuuuuuuuuuuuuuu",
"uuuuuuuuuuuuuuuuuuuuuuuuuuuu#3XyX$5> uuuuuuuuuuuuuuuuuuuuuuuuuuu",
"uuuuuuuuuuuuuuuuuuuuuuuuuuuu#3 y $5$ uuuuuuuuuuuuuuuuuuuuuuuuuuu",
"uuuuuuuuuuuuuuuuuuuuuuuuuuuu#3 y >5$ uuuuuuuuuuuuuuuuuuuuuuuuuuu",
"uuuuuuuuuuuuuuuuuuuuuuuuuuuu#w. y > .uuuuuuuuuuuuuuuuuuuuuuuuuuu",
"uuuuuuuuuuuuuuuuuuuuuuuuuuuu#r2. y y uuuuuuuuuuuuuuuuuuuuuuuuuuu",
"uuuuuuuuuuuuuuuuuuuuuuuuuuuu#222. y .uuuuuuuuuuuuuuuuuuuuuuuuuuu",
"uuuuuuuuuuuuuuuuuuuuuuuuuuuu#7322. .Xuuuuuuuuuuuuuuuuuuuuuuuuuuu",
"uuuuuuuuuuuuuuuuuuuuuuuuuuuu#r3282.2Xuuuuuuuuuuuuuuuuuuuuuuuuuuu",
"uuuuuuuuuuuuuuuuuuuuuuuuuuuu#t*2q;23Xuuuuuuuuuuuuuuuuuuuuuuuuuuu",
"uuuuuuuuuuuuuuuuuuuuuuuuuuuu#t-2q,32Xuuuuuuuuuuuuuuuuuuuuuuuuuuu",
"uuuuuuuuuuuuuuuuuuuuuuuuuuuu#t-2q,$2Xuuuuuuuuuuuuuuuuuuuuuuuuuuu",
"uuuuuuuuuuuuuuuuuuuuuuuuuuuu#t&3q,X2Xuuuuuuuuuuuuuuuuuuuuuuuuuuu",
"uuuuuuuuuuuuuuuuuuuuuuuuuuu#7t$3q,X3Xuuuuuuuuuuuuuuuuuuuuuuuuuuu",
"uuuuuuuuuuuuuuuuuuuuuuuuuuu#rt$3r,X3Xuuuuuuuuuuuuuuuuuuuuuuuuuuu",
"uuuuuuuuuuuuuuuuuuuuuuuuuuu#trX3r:X3Xuuuuuuuuuuuuuuuuuuuuuuuuuuu",
"uuuuuuuuuuuuuuuuuuuuuuuuuuu#t7X3r:X3Xuuuuuuuuuuuuuuuuuuuuuuuuuuu",
"uuuuuuuuuuuuuuuuuuuuuuuuuuo2t2X,r<X3+Xuuuuuuuuuuuuuuuuuuuuuuuuuu",
"uuuuuuuuuuuuuuuuuuuuuuuuuuo7t$X6r1X3@Xuuuuuuuuuuuuuuuuuuuuuuuuuu",
"uuuuuuuuuuuuuuuuuuuuuuuuuuort$X0r4X3$Xuuuuuuuuuuuuuuuuuuuuuuuuuu",
"uuuuuuuuuuuuuuuuuuuuuuuuuo$t2$Xer4X33Xuuuuuuuuuuuuuuuuuuuuuuuuuu",
"uuuuuuuuuuuuuuuuuuuuuuuuuo2t2$X6t1X23+Xuuuuuuuuuuuuuuuuuuuuuuuuu",
"uuuuuuuuuuuuuuuuuuuuuuuuuot2$$X,t<X$3$Xuuuuuuuuuuuuuuuuuuuuuuuuu",
"uuuuuuuuuuuuuuuuuuuuuuuuo$t$XXX3w%XX23Xuuuuuuuuuuuuuuuuuuuuuuuuu",
"uuuuuuuuuuuuuuuuuuuuuuuotr$XX XXwXX X23Xuuuuuuuuuuuuuuuuuuuuuuuu",
"uuuuuuuuuuuuuuuuuuuuuuuXXXXX u X$X u XXXXuuuuuuuuuuuuuuuuuuuuuuu"
};
