/* XPM */
static char *_3904_2e9d123a3ce7962120c959da1e7b483c59ae667ea4a246f27c778889f1681b05[] = {
/* columns rows colors chars-per-pixel */
"32 32 4 1 ",
"  c #9F000F",
". c red",
"X c #FF5C6B",
"o c None",
/* pixels */
"ooooooooooooooX.. oooooooooooooo",
"ooooooooooooooX.. oooooooooooooo",
"ooooooooooooooX.. oooooooooooooo",
"ooooooooooooooX.. oooooooooooooo",
"ooooooooooooooX.. oooooooooooooo",
"ooooooooooooooX.. oooooooooooooo",
"ooooooooooooooX.. oooooooooooooo",
"ooooooooooooooX.. oooooooooooooo",
"oooooooooooooooooooooooooooooooo",
"oooooooooooooooooooooooooooooooo",
"oooooooooooooooooooooooooooooooo",
"oooooooooooooooooooooooooooooooo",
"oooooooooooooooooooooooooooooooo",
"oooooooooooooooooooooooooooooooo",
"XXXXXXXXooooooXXX ooooooXXXXXXXX",
"........ooooooX.. oooooo........",
"........ooooooX.. oooooo........",
"        ooooooX   oooooo        ",
"oooooooooooooooooooooooooooooooo",
"oooooooooooooooooooooooooooooooo",
"oooooooooooooooooooooooooooooooo",
"oooooooooooooooooooooooooooooooo",
"oooooooooooooooooooooooooooooooo",
"oooooooooooooooooooooooooooooooo",
"ooooooooooooooX.. oooooooooooooo",
"ooooooooooooooX.. oooooooooooooo",
"ooooooooooooooX.. oooooooooooooo",
"ooooooooooooooX.. oooooooooooooo",
"ooooooooooooooX.. oooooooooooooo",
"ooooooooooooooX.. oooooooooooooo",
"ooooooooooooooX.. oooooooooooooo",
"ooooooooooooooX.. oooooooooooooo"
};
