/* XPM */
static char *_5715_c0b283d6fa40920d5f632d720b01470efe57ecd3ca6a8ad799d4441219d8fa0e[] = {
/* columns rows colors chars-per-pixel */
"64 64 15 1 ",
"  c black",
". c #08080D",
"X c #1A0F17",
"o c #22131D",
"O c #331E2C",
"+ c #351F2E",
"@ c #3C2334",
"# c #412B33",
"$ c #45283C",
"% c #4A323A",
"& c #523443",
"* c #553843",
"= c #60414B",
"- c #654751",
"; c None",
/* pixels */
";;;;;;;;;;;;;;;;;;;;;;;;;;;;;;;;;;;;;;;;;;;;;;;;;;;;;;;;;;;;;;;;",
";..;;;;;;;;;;;;;;;;;;;;;;;;;;;;;;;;;;;;;;;;;;;;;;;;;;;;;;;;;;;;;",
";..;;;;;;;;;;;;;;;;;;;;;;=;;;;;;;;;;;;;;;;;;;;;;;;;;;;;;;;;;;;;;",
";oo;;;;;;;;;;;;;;;;;;;;;;;=;;;;;;;;;;=;;;;;;;;;;;;;;;;;;;;;;;;;;",
";oo;;;;;;;;;;;;;;;;;;;;;;;;=;;;;;;;;=;;;;;;;;;;;;;;;;;;;;;;;;;;;",
";==;;;;;;;;;;;;;;;;;;;;;;==$=;;;;;;=O;;;;;;;;;;;;;;;;;;;;;;;;;;;",
";==;;;;;;;;;;;;;;;;;;;;;;;;O$=;;;;=O;;;;;;;;;;;;;;;;;;;;;;;;;;;;",
";OO;;;;;;;;;;;;;;;;;;;;;;;;;O$=;;=O;;;;;;;;;;;;;;;;;;;;;;;;;;;;;",
";OO;;;;;;;;;;;;;;;;;;;;;;;;;;O$==$O;;;;;;;;;;;;;;;;;;;;;;;;;;;;;",
";;;;;;;;;;;;;;;;;;;;;;;;;;;;;;O$$O;;;;$;;;;;;;;;;;;;;;;;;;;;;;;;",
";;;;;;;;;;;;;;;;;;;;;;;;;;;;;;;@$O;;;;$;;;;;;;;;;;;;;;;;;;;;;;;;",
";;;;;;;;;;;;;;=;;;;;;;;;;;$;;;;@$O;;;;$;;;;;;;;;;;;;;;;;;;;;;;;;",
";;;;;;;;;;;;;;;=;;;;;;;;;;$=;;;@&O;;;;$;;;;;;;;;;;;;;;;;;;;;;;;;",
";;;;;;;;;;;;$$;;=;;;;;;;;;;$=;;@&O;;;;$;;;;;;;;;;;;;;;;;;;;;;;;;",
";;;;;;;;;;;;;;$;=;;;;;;;;;;;$=;@&O;;;;$;;;;;;;;;;;;;;;;;;;;;;;;;",
";;;;;;;;;;;;;;;$*=;;;;;;;;;;;$=@&O;;;;$;;;;======;;;;;;;;;;;;;;;",
";;;;;;;;;;;;;;;;$$*=;;;;;;;;;;$&&O;;;$*====;;;;;;=;;;;;;;;;;;;;;",
";;;;;;;;;;;;;;;;;;$*=======;;;;$&O;;;$=o;;;;;;;;;;;;;;;;;;;;;;;;",
";;;;;;;;;;;;;;;;;;;$******==;;;$$O;;$Oo;;;;;;;;;;;;;;;;;;;;;;;;;",
";;;;;;;;;;;;;;;;;;;;$$$$$$*==;;$$O;;$Oo;;;;;;;;;;;;;;;;;;;;;;;;;",
";;;;;;;;;;;;;;;;;;;;;;;;;;$*==;$$O;$Oo;;;;;;;;;;;;;;;;;;;;;;;;;;",
";;;;;;;;;;;;;;;;;;;;;;;;;;;$*=$$$O$OOo;;;;;;;;;;;;;;;;;;;;;;;;;;",
";;;;;;;;;;;;;;;;;;;;;;;;;;;;$*=$$$OOo;;;;;;;;;;;;;;;;;;;;;;;;;;;",
";;;;;;;;;;;;;;;;;;;;;;;;;;;;;$==*$Oo;;;;;;;;;;;;;;;;;;;;;;;;;;;;",
";;;;;;;;;;;;;;;;;;;;;;;;;;;;;;$=*$o;;;;;;;;;;;;;;;;;;;;;;;;;;;;;",
";;;;;;;;;;;;;;;;;;;;;;;;;;;;;;O==$o;;;;;;;;;;;;=;;;o;;;;;;;;;;;;",
";;;;;;;;;;;;;;;;;;;;;;;;;;;;;;o$=$o;;;;;;;;;;;=;;oo;;;;;;;;;;;;;",
";;;;;;;;;;;;;*****;;;;;;;;;oooo$=$o;;;;=======;oo;;;;;;;;;;;;;;;",
";;;;;;;;;;;;;;;;;*=;;;;;;ooooooO=*$o;==$$oooooo;;;;;;;;;;;;;;;;;",
";;;;;;;;;;;;;;;;;;*==;;;;;;;;;;o==$o=$$oo;;;;;;;;;;;;;;;;;;;;;;;",
";;;;;;;;;;;;;;;;;;=O$=;;;;;;;;;o==$o$$o;;;;;;;;;;;;;;;;;;;;;;;;;",
";;;;;;;;;;;;;;;;==O;O$==;;;;;;;o==$$oo;;;;;;;;;;;;;;;;;;;;;;;;;;",
";;;;;;;;;;;;;;$$$;;;;O$===;;;;oo$*$$o;;;;;;;;;;;;;;;;;;;;;;;;;;;",
";;;;;;;;;;;;;;;;;;;;;;o$$===;;o$=*o$o;;;;;;;;;;;;;;;;;;;;;;;;;;;",
";;;;;;;;;;;;;;;;;;;;;;;oo$==ooo=*o-oo;;;;;;;;;;;;;;;;;;;;;;;;;;;",
";;;;;;;;;;;;;;;;;;;;;;;;;o$==$$*o-o-o;;;;;;;;;;;;;;;;;;;;;;;;;;;",
";;;;;;;;;;;;;;;;;;;;;;;;;;o$=$*o-o+oooOOOO;;;;;;;;;;;;;;;;;;;;;;",
";;;;;;;;;;;;;;;;;;;;;;;;;;;o$$o-o+#%.ooooooO;;;;;;;;;;;;;;;;;;;;",
";;;;;;;;;;;;;;;;;;;;;;;;;;;;o$o-o+%%.;;;o;;oO;;;;;;;;;;;;;;;;;;;",
";;;;;;;;;;;;;;;;;;;;;;;;;;;;o$o-o+%#.;;;;;;;;;;;;;;;;;;;;;;;;;;;",
";;;;;;;;;;;;;;;;;;;;;;;;;;;;o$.-.+%+.;;;;;;;;;;;;;;;;;;;;;;;;;;;",
";;;;;;;;;;;;;;;;;;;;;;;;;;;;o$.-.#%+.;;;;;;;;;;;;;;;;;;;;;;;;;;;",
";;;;;;;;;;;;;;;;;;;;;;;;;;;;o*X.-.#.X ;;;;;;   ;;;;;;;;;;;;;;;;;",
";;;;;;;;;;;;;;;;;;;;;;;;;;;;O*oX.-.-.  ;;;  ;;;;;;;;;;;;;;;;;;;;",
";;;;;;;;;;;;;;;;;;;;;;;;;;;oO=*oX.-.X;  ; ;;;;;;;;;;;;;;;;;;;;;;",
";;;;;;;;;;;;;;;;;;;;;;;;;;;o*=o$oX.Xo;   ;;;; ;;;;;;;;;;;;;;;;;;",
";;;;;;;;;;;;;;;;;;; ;;;;;;;o*=o$$oXoo;   ;;;; ;;;;;;;;;;;;;;;;;;",
";;;;;;;;;;;;;;;;;;;;    ;;;o==o$*$o*o    ;;; ;;      ;;;;;;;;;;;",
";;;;;;;;;;;;;;;;;;;;;;;;   o=*o$=$$*o    ;;    ;;;;;;;;;;;;;;;;;",
";;;;;;;;;;;;;;;;;;;;;;;;;; o=o.$=$$*=o     ;;;;;;;;;;;;;;;;;;;;;",
";;;;;;;;;;;;;;;;;;;    ;;;o*=o.$=$o$=o     ;;;;;;;;; ;;;;;;;;;;;",
";;;;;;;;;;;;;;;;;; ;;;;   o=*o.$=$o$=$o     ;;;;; ; ;;;;;;;;;;;;",
";;;;;;;;;;;;;;;;;;;;   ;  o=o..$=$.o=*o            ;;;;;;;;;;;;;",
";;;;;;;;;;;;;;;;;;;;;;;; o=*o..$=*.o$=$o     ;;;;;;;;;;;;;;;;;;;",
";;;;;;;;;;;;;;;;;;;;;;;  o*o...$=*..o=*o     ;;;;;;;;;;;;;;;;;;;",
";;;;;;;;;;;;;;;;;;;;;;  o$o....$==...o=$o    ;;;;;;;;;;;;;;;;;;;",
";;;;;;;;;;;;;;;;;;;;;  o$o.....$=*....o*$o      ;;;;;;;;;;;;;;;;",
";;;;;;;;;;;;;;;;;;;;; o$o..   .$=$..   ... ;;;;;;;;;;;;;;;;;;;;;",
";;;;;;;;;;;;;;;;;;;;; ..      .$*$.        ;;;;;;;;;;;;;;;;;;;;;",
";;;;;;;;;;;;;;;;;;;;;     ;;;  .*.       ;;;;;;;;;;;;;;;;;;;;;;;",
";;;;;;;;;;;;;;;;;;;;;;;;;;;;;  .$.    ;;;;;;;;;;;;;;;;;;;;;;;;;;",
";;;;;;;;;;;;;;;;;;;;;;;;;;;;;; ..   ;;;;;;;;;;;;;;;;;;;;;;;;;;;;",
";;;;;;;;;;;;;;;;;;;;;;;;;;;;;;    ;;;;;;;;;;;;;;;;;;;;;;;;;;;;;;",
";;;;;;;;;;;;;;;;;;;;;;;;;;;;;;;;;;;;;;;;;;;;;;;;;;;;;;;;;;;;;;;;"
};
