/* XPM */
static char *_6057_8ae50b34a4852f3c7d335619d7b677f2785f03d39c8b50143ff29b76de7597e2[] = {
/* columns rows colors chars-per-pixel */
"64 64 2 1 ",
"  c #8F2B2B",
". c None",
/* pixels */
"................................................................",
"................................................................",
"................................................................",
"................................................................",
"................................................................",
"................................................................",
"................................................................",
"................................................................",
"................................................................",
"................................................................",
"................................................................",
"................................................................",
"................................................................",
".......................  .......................................",
"........................ .......................................",
"........................  ......................................",
"......................... ..................  ..................",
".........................  ................  ...................",
".......................... ............. .  ....................",
"............  ......................... .. .....................",
".........  .... .................................. .............",
"...........   ........ .........................................",
"..............  ...... ........ . ...... .......................",
"....................... ....... ....... ........................",
"..........  ...... ........... . ..........       ...  .........",
"........................ ..... .................................",
".....................  ......  .........  ......................",
"..........      ......... ... ........ .........................",
"..................  ..... . . ... .. ....... ...................",
"...............  ...  ......  .. .. ..............   ...........",
".................. ...  .. .  . .. .............................",
".................... ..  . . . .. ..    ........................",
".................     ...  . ...     ....     ..................",
"..........      ......  .. ....    ...   .......................",
"........ .................  ..  .... ...........................",
".........  ....      ............ ......... ... ................",
"........  ....  ......       ..     .     ......................",
"....... ...........  ..    ... ..    ..... .....................",
".................  ... .....    ... ........ ...................",
"..............    ......... ...   .. ......... .................",
"........ ....   ....  ...  .. ..    ............................",
"....... ...   ..... ....  .. .  ..  ..  ......  ................",
".........   ...... ..... .. .. . .   ..  ....... ...............",
"......... ....... .....  .. .  ....  ...........................",
"................ . ....  ....  .....  ...... ..... .............",
"............... . ..... ..... ....... .......  .................",
"............................. .......  ....... ..... ...........",
"................ ..  . .... . ........ .......  ................",
"............... .... . .... . ............... . ................",
"..............  ... .. .... . ....... .......... ...............",
".............  .... .. .... . ... .... ....... . ...............",
".............  .... ... ... . .... .............................",
"............  ....  ....... . .... ............ . ..............",
"............ ..... ...... ... ..... ............................",
"...........  ..... ...... ...  .... ............ ...............",
"...........  ..... ...... ...  ................. ...............",
"........... ...... ...... .... ..... ..... .....................",
"........... .. ... ...... .. . .................................",
".............  ... ...... .... .... ...... .....................",
".............  ... ...... ......... ............................",
".................. ...... ..................... ................",
".................. ...... ..................... ................",
"......................... ......................................",
"........................ ......................................."
};
