/* XPM */
static char *_629_bbde88b61a4a5c510a0b91b30df82a223ce42ecd0c7790452cfdaf3bdea30333[] = {
/* columns rows colors chars-per-pixel */
"64 64 3 1 ",
"  c #7A3344",
". c #8F2B2B",
"X c None",
/* pixels */
"XXXXXXXXXXXXXXXXXXXXXXXXXXXXXXXXXXXXXXXXXXXXXXXXXXXXXXXXXXXXXXXX",
"XXXXXXXXXXXXXXXXXXXXXXXXXXXXXXXXXXXXXXXXXXXXXXXXXXXXXXXXXXXXXXXX",
"XXXXXXXXXXXXXXXXXXXXXXXXXXXXXXXXXXXXXXXXXXXXXXXXXXXXXXXXXXXXXXXX",
"XXXXXXXXXXXXXXXXXXXXXXXXXXXXXXXXXXXXXXXXXXXXXXXXXXXXXXXXXXXXXXXX",
"XXXXXXXXXXXXXXXXXXXXXXXXXXXXXXXXXXXXXXXXXXXXXXXXXXXXXXXXXXXXXXXX",
"XXXXXXXXXXXXXXXXXXXXXXXXXXXXXXXXXXXXXXXXXXXXXXXXXXXXXXXXXXXXXXXX",
"XXXXXXXXXXXXXXXXXXXXXXXXXXXXXXXXXXXXXXXXXXXXXXXXXXXXXXXXXXXXXXXX",
"XXXXXXXXXXXXXXXXXXXXXXXXXXXXXXXXXXXXXXXXXXXXXXXXXXXXXXXXXXXXXXXX",
"XXXXXXXXXXXXXXXXXXXXXXXXXXXXXXXXXXXXXXXXXXXXXXXXXXXXXXXXXXXXXXXX",
"XXXXXXXXXXXXXXXXXXXXXXXX.XXXXXXXXXXXXXXXXXXXXXXXXXXXXXXXXXXXXXXX",
"XXXXXXXXXXXXXXXXXXXXXXX...XXXXXXXXXXXXXXXXXXXXXXXXXXXXXXXXXXXXXX",
"XXXXXXXXXXXXXXXXXXXXXXXX..XXXXXXXXXXXXXXXXXXXXXXXXXXXXXXXXXXXXXX",
"XXXXXXXXXXXXXXXXXXXXXXXX...XXXXXXXXXXXXXXXXXXXXXXXXXXXXXXXXXXXXX",
"XXXXXXXXXXXXXXXXXXXXXXXXX..XXXXXXXXXXXXXXXX   XXXXXXXXXXXXXXXXXX",
"XXXXXXXXXXXXXXXXXXXXXXXXX...XXXXXXXXXXXXX    XXXXXXXXXXXXXXXXXXX",
"XXXXXXXXXXXXXXXXXXXXXXXXXX..XXXXXXXXXXXX    XXXXXXXXXXXXXXXXXXXX",
"XXXXXXXXXXX   XXXXXXXXXXXXXXXXXXX XXXXX    XXXXXXXXXXXXXXXXXXXXX",
"XXXXXXXXX       XXXXXXXXXXXXXXXXX XXXXX  XXXXXXXXX.XXXXXXXXXXXXX",
"XXXXXXXXXXX      XXXXX.XXXXXXXXX. XXXXXXXXXXXXXXXXXXXXXXXXXXXXXX",
"XXXXXXXXXXXXXX    XXXX  XXXXXXX. .XXXXXX.XXXXXXXXXXXXXXXXXXXXXXX",
"XXXXXXXXXXXXXXXXX  XXXX  XXXXXX. XXXXXX.XXXXXXXXXXXXXXXXXXXXXXXX",
"XXXXXXXXXX..XXXXXX XXXXX .XXXX...XXXXXXXXXX.......XXX..XXXXXXXXX",
"XXXXXXXXXXXXXXXXXXXXXXXX..XXXX..XXXXXXX......XXXXXXXXXXXXXXXXXXX",
"XXXXXXXXXXXXXXXXXXXXX..XX..XX...XXXXX.....XXXXXXXXXXXXXXXXXXXXXX",
"XXXXXXXXXX......XXXXXXXXX..XX...XXX....XXXXXXXXXXXXXXXXXXXXXXXXX",
"XXXXXXXX............XXXXX...X..XX....XXXXXXX.XXX.....XXXXXXXXXXX",
"XXXXXXXXXXXXXXX.......XXXX.....X....XXXXXXXXXXXX......XXXXXXXXXX",
"XXXXXXXXXXXXXXXXXX......XX.........XXXXXXXXXXXXXXXXXXXXXXXXXXXXX",
"XXXXXXXXXXXXXXXXXXXX.....X........XX..........XXXXXXXXXXXXXXXXXX",
"XXXXXXXXXXXX...................................XXXXXXXXXXXXXXXXX",
"XXXXXXXXXX...............................XXXXXXXXXXXXXXXXXXXXXXX",
"XXXXXXXX.....XXXXXXX.................XXXXXXXXXXXXXXXXXXXXXXXXXXX",
"XXXXXXX....XXXX...................XXXXXXXXX.XXX.XXXXXXXXXXXXXXXX",
"XXXXXX....XXXX............................XXXXXXXXXXXXXXXXXXXXXX",
"XXXXXXX.XXXXXXXXXXX........................XXXXXXXXXXXXXXXXXXXXX",
"XXXXXXXXXXXXXXXXX...................XXXXX....XXXXXXXXXXXXXXXXXXX",
"XXXXXXXXXXXXXX.......................XXXXXX....XXXXXXXXXXXXXXXXX",
"XXXXXXXX.XXXX...XXXX..................XXXXXXX...XXXXXXXXXXXXXXXX",
"XXXXXXX.XXX...XXXXX...XX............X...XXXXXX....XXXXXXXXXXXXXX",
"XXXXXXXXX....XXXXX...XXX.......X.....XX..XXXXXXX...XXXXXXXXXXXXX",
"XXXXXXXXX..XXXXXX...XXX...X....XX....XXXXXXXXXXXXX..XXXXXXXXXXXX",
"XXXXXXXXXXXXXXXX...XXXX..XXX...XXX....XXXX...XXXXX...XXXXXXXXXXX",
"XXXXXXXXXXXXXXX...XXXXX..XXX..XXXXX...XXXXX....XXXXX..XXXXXXXXXX",
"XXXXXXXXXXXXXXX..XXXXXX.XXXX..XXXXXX...XXXXX...XXXXX..XXXXXXXXXX",
"XXXXXXXXXXXXXX...XX  X..XXX...XXXXXXX..XXXXXX...XXXXXXXXXXXXXXXX",
"XXXXXXXXXXXXXX..XXX  X..XXX...XXXXXXX..XXXXXX...XXXXXXXXXXXXXXXX",
"XXXXXXXXXXXXX...XXX XX..XXX...XXXXXXX..XXXXXXX...XXXXXXXXXXXXXXX",
"XXXXXXXXXXXX...XXX  XX..XXX...XXX.XXXX.XXXXXXX...XXXXXXXXXXXXXXX",
"XXXXXXXXXXXX...XXX  XXX.XXX...XXX..XXXXXXXXXXXX..XXXXXXXXXXXXXXX",
"XXXXXXXXXXXX..XXXX  XXXXXXX...XXX..XXXXXXXXXXXX...XXXXXXXXXXXXXX",
"XXXXXXXXXX...XXXXX XXXXXX.XX..XXX...XXXXXXXXXXXX..XXXXXXXXXXXXXX",
"XXXXXXXXXX...XXXXX XXXXXX.XX...XXX..XXXXXXXXXXXX..XXXXXXXXXXXXXX",
"XXXXXXXXXX...XXXX  XXXXX..XX...XXX..XXXXXXXXXXXX..XXXXXXXXXXXXXX",
"XXXXXXXXXX..XXXXX  XXXXX..XX...XXXX..XXXXX.XXXXXXXXXXXXXXXXXXXXX",
"XXXXXXXXXX..XX.XX  XXXXX..XX...XXXX..XXXXXXXXXXXXXXXXXXXXXXXXXXX",
"XXXXXXXXXXXXX..XX  XXXXX..XXX..XXXX..XXXXX.XXXXXXXXXXXXXXXXXXXXX",
"XXXXXXXXXXXXX..XX  XXXXX..XXXXXXXXX..XXXXXXXXXXXXXXXXXXXXXXXXXXX",
"XXXXXXXXXXXXXXXXX  XXXXX..XXXXXXXXXXXXXXXXXXXXX.XXXXXXXXXXXXXXXX",
"XXXXXXXXXXXXXXXXX  XXXXX..XXXXXXXXXXXXXXXXXXXXX.XXXXXXXXXXXXXXXX",
"XXXXXXXXXXXXXXXXXXXXXXXX..XXXXXXXXXXXXXXXXXXXXXXXXXXXXXXXXXXXXXX",
"XXXXXXXXXXXXXXXXXXXXXXXX..XXXXXXXXXXXXXXXXXXXXXXXXXXXXXXXXXXXXXX",
"XXXXXXXXXXXXXXXXXXXXXXXXXXXXXXXXXXXXXXXXXXXXXXXXXXXXXXXXXXXXXXXX",
"XXXXXXXXXXXXXXXXXXXXXXXXXXXXXXXXXXXXXXXXXXXXXXXXXXXXXXXXXXXXXXXX",
"XXXXXXXXXXXXXXXXXXXXXXXXXXXXXXXXXXXXXXXXXXXXXXXXXXXXXXXXXXXXXXXX"
};
